<?xml version="1.0" encoding="utf-8" standalone="no"?>
<!DOCTYPE svg PUBLIC "-//W3C//DTD SVG 1.1//EN"
  "http://www.w3.org/Graphics/SVG/1.1/DTD/svg11.dtd">
<svg xmlns:xlink="http://www.w3.org/1999/xlink" width="720pt" height="576pt" viewBox="0 0 720 576" xmlns="http://www.w3.org/2000/svg" version="1.1">
 <metadata>
  <rdf:RDF xmlns:dc="http://purl.org/dc/elements/1.1/" xmlns:cc="http://creativecommons.org/ns#" xmlns:rdf="http://www.w3.org/1999/02/22-rdf-syntax-ns#">
   <cc:Work>
    <dc:type rdf:resource="http://purl.org/dc/dcmitype/StillImage"/>
    <dc:date>2023-10-02T11:02:26.319489</dc:date>
    <dc:format>image/svg+xml</dc:format>
    <dc:creator>
     <cc:Agent>
      <dc:title>Matplotlib v3.7.2, https://matplotlib.org/</dc:title>
     </cc:Agent>
    </dc:creator>
   </cc:Work>
  </rdf:RDF>
 </metadata>
 <defs>
  <style type="text/css">*{stroke-linejoin: round; stroke-linecap: butt}</style>
 </defs>
 <g id="figure_1">
  <g id="patch_1">
   <path d="M 0 576 
L 720 576 
L 720 0 
L 0 0 
z
" style="fill: #ffffff"/>
  </g>
  <g id="axes_1">
   <g id="patch_2">
    <path d="M 34.197905 541.802095 
L 709.2 541.802095 
L 709.2 32.319506 
L 34.197905 32.319506 
z
" style="fill: #ffffff"/>
   </g>
   <g id="PathCollection_1">
    <defs>
     <path id="m036f680b98" d="M 0 3 
C 0.795609 3 1.55874 2.683901 2.12132 2.12132 
C 2.683901 1.55874 3 0.795609 3 0 
C 3 -0.795609 2.683901 -1.55874 2.12132 -2.12132 
C 1.55874 -2.683901 0.795609 -3 0 -3 
C -0.795609 -3 -1.55874 -2.683901 -2.12132 -2.12132 
C -2.683901 -1.55874 -3 -0.795609 -3 0 
C -3 0.795609 -2.683901 1.55874 -2.12132 2.12132 
C -1.55874 2.683901 -0.795609 3 0 3 
z
" style="stroke: #000000"/>
    </defs>
    <g clip-path="url(#pc0cb830b25)">
     <use xlink:href="#m036f680b98" x="76.649565" y="326.534068" style="fill: #87ceeb; stroke: #000000"/>
     <use xlink:href="#m036f680b98" x="170.995754" y="368.131965" style="fill: #87ceeb; stroke: #000000"/>
     <use xlink:href="#m036f680b98" x="173.767542" y="151.892134" style="fill: #87ceeb; stroke: #000000"/>
     <use xlink:href="#m036f680b98" x="303.468922" y="252.589808" style="fill: #87ceeb; stroke: #000000"/>
     <use xlink:href="#m036f680b98" x="403.191002" y="205.669094" style="fill: #87ceeb; stroke: #000000"/>
     <use xlink:href="#m036f680b98" x="385.656548" y="421.367936" style="fill: #87ceeb; stroke: #000000"/>
     <use xlink:href="#m036f680b98" x="317.875457" y="229.368869" style="fill: #87ceeb; stroke: #000000"/>
     <use xlink:href="#m036f680b98" x="213.416937" y="177.874322" style="fill: #87ceeb; stroke: #000000"/>
     <use xlink:href="#m036f680b98" x="150.552045" y="166.79407" style="fill: #87ceeb; stroke: #000000"/>
     <use xlink:href="#m036f680b98" x="473.562771" y="275.725785" style="fill: #87ceeb; stroke: #000000"/>
     <use xlink:href="#m036f680b98" x="314.871744" y="236.873478" style="fill: #87ceeb; stroke: #000000"/>
     <use xlink:href="#m036f680b98" x="235.646113" y="188.326487" style="fill: #87ceeb; stroke: #000000"/>
     <use xlink:href="#m036f680b98" x="279.073763" y="230.55804" style="fill: #87ceeb; stroke: #000000"/>
     <use xlink:href="#m036f680b98" x="87.922594" y="308.818559" style="fill: #87ceeb; stroke: #000000"/>
     <use xlink:href="#m036f680b98" x="307.180351" y="147.732065" style="fill: #87ceeb; stroke: #000000"/>
     <use xlink:href="#m036f680b98" x="105.558283" y="284.9565" style="fill: #87ceeb; stroke: #000000"/>
     <use xlink:href="#m036f680b98" x="365.121999" y="265.011847" style="fill: #87ceeb; stroke: #000000"/>
     <use xlink:href="#m036f680b98" x="420.954159" y="180.184833" style="fill: #87ceeb; stroke: #000000"/>
     <use xlink:href="#m036f680b98" x="90.447578" y="352.341458" style="fill: #87ceeb; stroke: #000000"/>
     <use xlink:href="#m036f680b98" x="239.687018" y="56.580582" style="fill: #87ceeb; stroke: #000000"/>
     <use xlink:href="#m036f680b98" x="378.432205" y="297.947962" style="fill: #87ceeb; stroke: #000000"/>
     <use xlink:href="#m036f680b98" x="162.78942" y="193.956996" style="fill: #87ceeb; stroke: #000000"/>
     <use xlink:href="#m036f680b98" x="361.112472" y="160.302916" style="fill: #87ceeb; stroke: #000000"/>
     <use xlink:href="#m036f680b98" x="107.358061" y="440.545677" style="fill: #87ceeb; stroke: #000000"/>
     <use xlink:href="#m036f680b98" x="203.053673" y="173.979702" style="fill: #87ceeb; stroke: #000000"/>
     <use xlink:href="#m036f680b98" x="358.060605" y="318.356551" style="fill: #87ceeb; stroke: #000000"/>
     <use xlink:href="#m036f680b98" x="208.474627" y="175.792466" style="fill: #87ceeb; stroke: #000000"/>
     <use xlink:href="#m036f680b98" x="308.952448" y="138.213306" style="fill: #87ceeb; stroke: #000000"/>
     <use xlink:href="#m036f680b98" x="301.329762" y="111.043163" style="fill: #87ceeb; stroke: #000000"/>
     <use xlink:href="#m036f680b98" x="325.339361" y="174.513232" style="fill: #87ceeb; stroke: #000000"/>
     <use xlink:href="#m036f680b98" x="199.821544" y="152.002645" style="fill: #87ceeb; stroke: #000000"/>
     <use xlink:href="#m036f680b98" x="451.685766" y="325.750819" style="fill: #87ceeb; stroke: #000000"/>
     <use xlink:href="#m036f680b98" x="309.36872" y="228.951311" style="fill: #87ceeb; stroke: #000000"/>
     <use xlink:href="#m036f680b98" x="174.774294" y="209.141138" style="fill: #87ceeb; stroke: #000000"/>
     <use xlink:href="#m036f680b98" x="384.862824" y="211.120765" style="fill: #87ceeb; stroke: #000000"/>
     <use xlink:href="#m036f680b98" x="426.450721" y="302.971917" style="fill: #87ceeb; stroke: #000000"/>
     <use xlink:href="#m036f680b98" x="162.821047" y="215.614818" style="fill: #87ceeb; stroke: #000000"/>
     <use xlink:href="#m036f680b98" x="66.561037" y="254.923804" style="fill: #87ceeb; stroke: #000000"/>
     <use xlink:href="#m036f680b98" x="34.197905" y="380.037331" style="fill: #87ceeb; stroke: #000000"/>
     <use xlink:href="#m036f680b98" x="149.674415" y="287.909422" style="fill: #87ceeb; stroke: #000000"/>
     <use xlink:href="#m036f680b98" x="119.605554" y="358.880788" style="fill: #87ceeb; stroke: #000000"/>
     <use xlink:href="#m036f680b98" x="231.879928" y="201.193714" style="fill: #87ceeb; stroke: #000000"/>
     <use xlink:href="#m036f680b98" x="124.057047" y="316.310661" style="fill: #87ceeb; stroke: #000000"/>
     <use xlink:href="#m036f680b98" x="242.424579" y="245.295839" style="fill: #87ceeb; stroke: #000000"/>
     <use xlink:href="#m036f680b98" x="369.722846" y="334.752369" style="fill: #87ceeb; stroke: #000000"/>
     <use xlink:href="#m036f680b98" x="298.134899" y="186.027228" style="fill: #87ceeb; stroke: #000000"/>
     <use xlink:href="#m036f680b98" x="487.671083" y="384.46663" style="fill: #87ceeb; stroke: #000000"/>
     <use xlink:href="#m036f680b98" x="240.566956" y="184.062682" style="fill: #87ceeb; stroke: #000000"/>
     <use xlink:href="#m036f680b98" x="369.466076" y="207.467977" style="fill: #87ceeb; stroke: #000000"/>
     <use xlink:href="#m036f680b98" x="329.200078" y="237.13594" style="fill: #87ceeb; stroke: #000000"/>
    </g>
   </g>
   <g id="PathCollection_2">
    <defs>
     <path id="m2bd130602f" d="M -3 3 
L 3 3 
L 3 -3 
L -3 -3 
z
" style="stroke: #000000"/>
    </defs>
    <g clip-path="url(#pc0cb830b25)">
     <use xlink:href="#m2bd130602f" x="520.683975" y="501.914145" style="fill: #fa8072; stroke: #000000"/>
     <use xlink:href="#m2bd130602f" x="282.323206" y="237.680134" style="fill: #fa8072; stroke: #000000"/>
     <use xlink:href="#m2bd130602f" x="379.975367" y="442.746924" style="fill: #fa8072; stroke: #000000"/>
     <use xlink:href="#m2bd130602f" x="481.928733" y="475.183022" style="fill: #fa8072; stroke: #000000"/>
     <use xlink:href="#m2bd130602f" x="502.86751" y="538.799995" style="fill: #fa8072; stroke: #000000"/>
     <use xlink:href="#m2bd130602f" x="579.313181" y="261.242465" style="fill: #fa8072; stroke: #000000"/>
     <use xlink:href="#m2bd130602f" x="442.028747" y="434.453326" style="fill: #fa8072; stroke: #000000"/>
     <use xlink:href="#m2bd130602f" x="416.913165" y="498.525987" style="fill: #fa8072; stroke: #000000"/>
     <use xlink:href="#m2bd130602f" x="238.982591" y="354.923603" style="fill: #fa8072; stroke: #000000"/>
     <use xlink:href="#m2bd130602f" x="561.699817" y="421.627584" style="fill: #fa8072; stroke: #000000"/>
     <use xlink:href="#m2bd130602f" x="311.683935" y="310.941741" style="fill: #fa8072; stroke: #000000"/>
     <use xlink:href="#m2bd130602f" x="579.409991" y="387.66239" style="fill: #fa8072; stroke: #000000"/>
     <use xlink:href="#m2bd130602f" x="358.387969" y="526.018615" style="fill: #fa8072; stroke: #000000"/>
     <use xlink:href="#m2bd130602f" x="560.194919" y="514.213476" style="fill: #fa8072; stroke: #000000"/>
     <use xlink:href="#m2bd130602f" x="635.329044" y="453.788667" style="fill: #fa8072; stroke: #000000"/>
     <use xlink:href="#m2bd130602f" x="284.441606" y="488.965356" style="fill: #fa8072; stroke: #000000"/>
     <use xlink:href="#m2bd130602f" x="321.963253" y="368.99542" style="fill: #fa8072; stroke: #000000"/>
     <use xlink:href="#m2bd130602f" x="599.884472" y="289.163948" style="fill: #fa8072; stroke: #000000"/>
     <use xlink:href="#m2bd130602f" x="526.805393" y="461.988947" style="fill: #fa8072; stroke: #000000"/>
     <use xlink:href="#m2bd130602f" x="312.599588" y="496.425748" style="fill: #fa8072; stroke: #000000"/>
     <use xlink:href="#m2bd130602f" x="483.31307" y="381.579126" style="fill: #fa8072; stroke: #000000"/>
     <use xlink:href="#m2bd130602f" x="313.791267" y="541.802095" style="fill: #fa8072; stroke: #000000"/>
     <use xlink:href="#m2bd130602f" x="488.401353" y="398.227709" style="fill: #fa8072; stroke: #000000"/>
     <use xlink:href="#m2bd130602f" x="324.333633" y="388.33918" style="fill: #fa8072; stroke: #000000"/>
     <use xlink:href="#m2bd130602f" x="533.462057" y="206.952508" style="fill: #fa8072; stroke: #000000"/>
     <use xlink:href="#m2bd130602f" x="290.652384" y="155.827786" style="fill: #fa8072; stroke: #000000"/>
     <use xlink:href="#m2bd130602f" x="273.271981" y="263.729615" style="fill: #fa8072; stroke: #000000"/>
     <use xlink:href="#m2bd130602f" x="379.467787" y="461.126754" style="fill: #fa8072; stroke: #000000"/>
     <use xlink:href="#m2bd130602f" x="405.971233" y="401.914137" style="fill: #fa8072; stroke: #000000"/>
     <use xlink:href="#m2bd130602f" x="283.533996" y="380.395348" style="fill: #fa8072; stroke: #000000"/>
     <use xlink:href="#m2bd130602f" x="677.057043" y="296.416075" style="fill: #fa8072; stroke: #000000"/>
     <use xlink:href="#m2bd130602f" x="459.417111" y="464.816347" style="fill: #fa8072; stroke: #000000"/>
     <use xlink:href="#m2bd130602f" x="304.419642" y="479.098335" style="fill: #fa8072; stroke: #000000"/>
     <use xlink:href="#m2bd130602f" x="561.872298" y="306.669963" style="fill: #fa8072; stroke: #000000"/>
     <use xlink:href="#m2bd130602f" x="252.797186" y="405.358536" style="fill: #fa8072; stroke: #000000"/>
     <use xlink:href="#m2bd130602f" x="331.091118" y="498.584097" style="fill: #fa8072; stroke: #000000"/>
     <use xlink:href="#m2bd130602f" x="587.295005" y="394.041508" style="fill: #fa8072; stroke: #000000"/>
     <use xlink:href="#m2bd130602f" x="235.585831" y="426.200783" style="fill: #fa8072; stroke: #000000"/>
     <use xlink:href="#m2bd130602f" x="272.088148" y="491.969903" style="fill: #fa8072; stroke: #000000"/>
     <use xlink:href="#m2bd130602f" x="521.781556" y="348.492138" style="fill: #fa8072; stroke: #000000"/>
     <use xlink:href="#m2bd130602f" x="255.922895" y="332.035289" style="fill: #fa8072; stroke: #000000"/>
     <use xlink:href="#m2bd130602f" x="511.039775" y="385.704119" style="fill: #fa8072; stroke: #000000"/>
     <use xlink:href="#m2bd130602f" x="473.626117" y="350.396913" style="fill: #fa8072; stroke: #000000"/>
     <use xlink:href="#m2bd130602f" x="389.921074" y="441.850731" style="fill: #fa8072; stroke: #000000"/>
     <use xlink:href="#m2bd130602f" x="518.04054" y="399.56822" style="fill: #fa8072; stroke: #000000"/>
     <use xlink:href="#m2bd130602f" x="472.272363" y="435.728721" style="fill: #fa8072; stroke: #000000"/>
     <use xlink:href="#m2bd130602f" x="287.637704" y="423.255519" style="fill: #fa8072; stroke: #000000"/>
     <use xlink:href="#m2bd130602f" x="443.025003" y="502.259567" style="fill: #fa8072; stroke: #000000"/>
     <use xlink:href="#m2bd130602f" x="550.02534" y="404.271692" style="fill: #fa8072; stroke: #000000"/>
     <use xlink:href="#m2bd130602f" x="247.109764" y="272.328349" style="fill: #fa8072; stroke: #000000"/>
    </g>
   </g>
   <g id="matplotlib.axis_1">
    <g id="xtick_1">
     <g id="line2d_1">
      <defs>
       <path id="m6f2bfb5bd2" d="M 0 0 
L 0 3.5 
" style="stroke: #000000; stroke-width: 0.8"/>
      </defs>
      <g>
       <use xlink:href="#m6f2bfb5bd2" x="106.270766" y="541.802095" style="stroke: #000000; stroke-width: 0.8"/>
      </g>
     </g>
    </g>
    <g id="xtick_2">
     <g id="line2d_2">
      <g>
       <use xlink:href="#m6f2bfb5bd2" x="183.659754" y="541.802095" style="stroke: #000000; stroke-width: 0.8"/>
      </g>
     </g>
    </g>
    <g id="xtick_3">
     <g id="line2d_3">
      <g>
       <use xlink:href="#m6f2bfb5bd2" x="261.048742" y="541.802095" style="stroke: #000000; stroke-width: 0.8"/>
      </g>
     </g>
    </g>
    <g id="xtick_4">
     <g id="line2d_4">
      <g>
       <use xlink:href="#m6f2bfb5bd2" x="338.43773" y="541.802095" style="stroke: #000000; stroke-width: 0.8"/>
      </g>
     </g>
    </g>
    <g id="xtick_5">
     <g id="line2d_5">
      <g>
       <use xlink:href="#m6f2bfb5bd2" x="415.826718" y="541.802095" style="stroke: #000000; stroke-width: 0.8"/>
      </g>
     </g>
    </g>
    <g id="xtick_6">
     <g id="line2d_6">
      <g>
       <use xlink:href="#m6f2bfb5bd2" x="493.215706" y="541.802095" style="stroke: #000000; stroke-width: 0.8"/>
      </g>
     </g>
    </g>
    <g id="xtick_7">
     <g id="line2d_7">
      <g>
       <use xlink:href="#m6f2bfb5bd2" x="570.604694" y="541.802095" style="stroke: #000000; stroke-width: 0.8"/>
      </g>
     </g>
    </g>
    <g id="xtick_8">
     <g id="line2d_8">
      <g>
       <use xlink:href="#m6f2bfb5bd2" x="647.993682" y="541.802095" style="stroke: #000000; stroke-width: 0.8"/>
      </g>
     </g>
    </g>
    <g id="text_1">
     <!-- $x_1$ -->
     <g transform="translate(365.309955 562.487972) scale(0.14 -0.14)">
      <defs>
       <path id="CMMI12-78" d="M 3034 2606 
C 2829 2567 2752 2414 2752 2293 
C 2752 2139 2874 2088 2963 2088 
C 3155 2088 3290 2254 3290 2427 
C 3290 2695 2982 2816 2714 2816 
C 2323 2816 2106 2433 2048 2312 
C 1901 2816 1504 2816 1389 2816 
C 736 2816 390 1980 390 1839 
C 390 1814 416 1782 461 1782 
C 512 1782 525 1820 538 1846 
C 755 2555 1184 2689 1370 2689 
C 1658 2689 1715 2420 1715 2267 
C 1715 2127 1677 1980 1600 1673 
L 1382 798 
C 1286 415 1101 64 762 64 
C 730 64 570 64 435 147 
C 666 192 717 383 717 460 
C 717 588 621 664 499 664 
C 346 664 179 530 179 326 
C 179 57 480 -64 755 -64 
C 1062 -64 1280 179 1414 441 
C 1517 64 1837 -64 2074 -64 
C 2726 -64 3072 773 3072 913 
C 3072 945 3046 971 3008 971 
C 2950 971 2944 939 2925 888 
C 2752 326 2381 64 2093 64 
C 1869 64 1747 230 1747 492 
C 1747 632 1773 734 1875 1156 
L 2099 2024 
C 2195 2408 2413 2689 2707 2689 
C 2720 2689 2899 2689 3034 2606 
z
" transform="scale(0.015625)"/>
       <path id="CMR17-31" d="M 1702 4058 
C 1702 4192 1696 4192 1606 4192 
C 1357 3916 979 3827 621 3827 
C 602 3827 570 3827 563 3808 
C 557 3795 557 3782 557 3648 
C 755 3648 1088 3686 1344 3839 
L 1344 461 
C 1344 236 1331 160 781 160 
L 589 160 
L 589 0 
C 896 0 1216 0 1523 0 
C 1830 0 2150 0 2458 0 
L 2458 160 
L 2266 160 
C 1715 160 1702 230 1702 458 
L 1702 4058 
z
" transform="scale(0.015625)"/>
      </defs>
      <use xlink:href="#CMMI12-78" transform="scale(0.996264)"/>
      <use xlink:href="#CMR17-31" transform="translate(55.43406 -14.943915) scale(0.697382)"/>
     </g>
    </g>
   </g>
   <g id="matplotlib.axis_2">
    <g id="ytick_1">
     <g id="line2d_9">
      <defs>
       <path id="m29220196aa" d="M 0 0 
L -3.5 0 
" style="stroke: #000000; stroke-width: 0.8"/>
      </defs>
      <g>
       <use xlink:href="#m29220196aa" x="34.197905" y="484.142681" style="stroke: #000000; stroke-width: 0.8"/>
      </g>
     </g>
    </g>
    <g id="ytick_2">
     <g id="line2d_10">
      <g>
       <use xlink:href="#m29220196aa" x="34.197905" y="375.545592" style="stroke: #000000; stroke-width: 0.8"/>
      </g>
     </g>
    </g>
    <g id="ytick_3">
     <g id="line2d_11">
      <g>
       <use xlink:href="#m29220196aa" x="34.197905" y="266.948502" style="stroke: #000000; stroke-width: 0.8"/>
      </g>
     </g>
    </g>
    <g id="ytick_4">
     <g id="line2d_12">
      <g>
       <use xlink:href="#m29220196aa" x="34.197905" y="158.351413" style="stroke: #000000; stroke-width: 0.8"/>
      </g>
     </g>
    </g>
    <g id="ytick_5">
     <g id="line2d_13">
      <g>
       <use xlink:href="#m29220196aa" x="34.197905" y="49.754323" style="stroke: #000000; stroke-width: 0.8"/>
      </g>
     </g>
    </g>
    <g id="text_2">
     <!-- $x_2$ -->
     <g transform="translate(20.485876 293.449798) rotate(-90) scale(0.14 -0.14)">
      <defs>
       <path id="CMR17-32" d="M 2669 989 
L 2554 989 
C 2490 536 2438 459 2413 420 
C 2381 369 1920 369 1830 369 
L 602 369 
C 832 619 1280 1072 1824 1597 
C 2214 1967 2669 2402 2669 3035 
C 2669 3790 2067 4224 1395 4224 
C 691 4224 262 3604 262 3030 
C 262 2780 448 2748 525 2748 
C 589 2748 781 2787 781 3010 
C 781 3207 614 3264 525 3264 
C 486 3264 448 3258 422 3245 
C 544 3790 915 4058 1306 4058 
C 1862 4058 2227 3617 2227 3035 
C 2227 2479 1901 2000 1536 1584 
L 262 146 
L 262 0 
L 2515 0 
L 2669 989 
z
" transform="scale(0.015625)"/>
      </defs>
      <use xlink:href="#CMMI12-78" transform="scale(0.996264)"/>
      <use xlink:href="#CMR17-32" transform="translate(55.43406 -14.943915) scale(0.697382)"/>
     </g>
    </g>
   </g>
   <g id="PathCollection_3">
    <path d="M 240.152859 57.459077 
L 246.762906 70.490727 
L 261.922762 100.897912 
L 265.521506 107.413738 
L 267.912649 111.354015 
L 271.008208 115.641048 
L 273.550752 118.273447 
L 274.103768 118.789643 
L 275.651547 119.876291 
L 277.199327 120.622163 
L 278.747107 121.079662 
L 280.294887 121.24573 
L 281.842666 121.164088 
L 283.390446 120.872753 
L 286.486006 119.827052 
L 289.669615 118.273447 
L 292.677125 116.567579 
L 303.511583 109.509916 
L 314.346041 102.389629 
L 320.53716 98.559715 
L 326.728279 94.981188 
L 331.888113 92.210145 
L 337.562738 89.411543 
L 342.206077 87.321923 
L 346.849416 85.42345 
L 352.089437 83.522378 
L 356.136095 82.232365 
L 360.779434 80.957049 
L 365.422773 79.906151 
L 370.066113 79.090899 
L 374.709452 78.518363 
L 379.352791 78.202101 
L 383.996131 78.15356 
L 388.63947 78.385788 
L 393.282809 78.913913 
L 397.926148 79.75178 
L 402.569488 80.919642 
L 407.212827 82.436136 
L 410.308386 83.654286 
L 413.403946 85.043183 
L 416.499506 86.61452 
L 419.595065 88.377364 
L 422.690625 90.341422 
L 425.786184 92.518064 
L 428.881744 94.920539 
L 431.977303 97.564229 
L 435.503775 100.897912 
L 438.168422 103.647741 
L 441.500682 107.413738 
L 444.980492 111.757621 
L 448.137343 116.101505 
L 451.020387 120.445388 
L 453.66899 124.789272 
L 456.741779 130.325021 
L 459.41958 135.648981 
L 461.429676 139.992864 
L 464.170243 146.50869 
L 466.028458 151.381015 
L 468.103031 157.368399 
L 470.122084 163.884224 
L 471.909049 170.40005 
L 473.476814 176.915875 
L 474.836374 183.4317 
L 475.996967 189.947526 
L 476.966188 196.463351 
L 477.74462 202.979176 
L 478.410696 210.459646 
L 478.750458 216.010827 
L 478.977679 222.526652 
L 479.021059 229.042478 
L 478.878305 235.558303 
L 478.546406 242.074128 
L 478.018235 248.589954 
L 477.289747 255.105779 
L 476.351972 261.621605 
L 475.196275 268.13743 
L 473.767357 274.824915 
L 472.171067 281.169081 
L 470.264696 287.684906 
L 468.066013 294.200731 
L 466.028458 299.524624 
L 463.65291 305.06044 
L 461.385119 309.804289 
L 459.310426 313.748207 
L 456.741779 318.200782 
L 453.64622 323.000492 
L 450.55066 327.276608 
L 447.427761 331.123742 
L 444.359541 334.488092 
L 441.122541 337.639567 
L 438.168422 340.183494 
L 435.072863 342.529408 
L 431.977303 344.567998 
L 428.854727 346.327334 
L 425.786184 347.774639 
L 422.690625 348.965169 
L 419.595065 349.889756 
L 416.499506 350.557128 
L 413.403946 350.968683 
L 410.308386 351.130046 
L 407.212827 351.044479 
L 403.856847 350.671218 
L 401.021708 350.138886 
L 397.926148 349.321844 
L 394.830589 348.26432 
L 391.735029 346.964242 
L 388.63947 345.423749 
L 385.54391 343.643255 
L 382.448351 341.622072 
L 379.352791 339.359903 
L 376.257232 336.857035 
L 372.290492 333.295684 
L 370.055548 331.123742 
L 365.936422 326.779858 
L 362.327214 322.635751 
L 358.661491 318.092091 
L 354.588315 312.664505 
L 350.781551 307.232382 
L 346.498995 300.716557 
L 342.206077 293.762411 
L 337.406806 285.512964 
L 332.631565 276.825197 
L 328.084452 268.13743 
L 322.653419 257.277721 
L 315.406769 242.074128 
L 307.462639 224.698594 
L 293.793406 194.291409 
L 289.581565 185.284373 
L 284.938226 176.100095 
L 281.613243 170.40005 
L 280.177537 168.228108 
L 278.540357 166.056166 
L 277.199327 164.489804 
L 275.651547 163.045096 
L 274.103768 161.981712 
L 272.555988 161.262095 
L 271.008208 160.893718 
L 269.460428 160.859917 
L 267.912649 161.123286 
L 266.25328 161.712282 
L 264.817089 162.370941 
L 262.467104 163.884224 
L 261.72153 164.379888 
L 258.62597 166.936989 
L 255.096679 170.40005 
L 252.434851 173.237817 
L 247.791512 178.723401 
L 240.052613 188.981901 
L 233.530648 198.635293 
L 229.218155 205.48624 
L 224.291286 213.838885 
L 219.931476 221.688566 
L 214.984203 231.21442 
L 210.644797 240.134023 
L 206.001458 250.362787 
L 202.153435 259.449663 
L 198.262559 269.259264 
L 194.662656 278.997139 
L 190.92814 289.856848 
L 188.140931 298.544615 
L 184.889523 309.404324 
L 181.8783 320.264033 
L 179.088045 331.123742 
L 176.500539 341.983451 
L 173.636421 355.015101 
L 171.005148 368.046752 
L 168.188863 383.250345 
L 165.597199 398.453937 
L 162.663625 416.981648 
L 158.926499 441.892773 
L 154.633177 470.128016 
L 151.829167 486.924623 
L 149.707042 498.363259 
L 147.470422 509.222968 
L 145.472833 517.910736 
L 143.235754 526.598503 
L 140.994708 534.357358 
L 138.560591 541.802095 
L 138.560591 541.802095 
" clip-path="url(#pc0cb830b25)" style="fill: none; stroke-dasharray: 5.55,2.4; stroke-dashoffset: 0; stroke: #000000; stroke-opacity: 0.75; stroke-width: 1.5"/>
   </g>
   <g id="PathCollection_4">
    <path d="M 466.721279 57.459077 
L 470.187398 63.974902 
L 472.356242 68.318785 
L 475.415039 74.834611 
L 478.410696 81.700228 
L 481.761794 90.038203 
L 484.954043 98.725971 
L 487.866226 107.413738 
L 490.518568 116.101505 
L 492.927655 124.789272 
L 495.10598 133.477039 
L 497.06284 142.164806 
L 498.805251 150.852573 
L 500.338114 159.540341 
L 501.664451 168.228108 
L 502.786387 176.915875 
L 503.703678 185.603642 
L 504.41515 194.291409 
L 504.918902 202.979176 
L 505.211831 211.666943 
L 505.288994 220.354711 
L 505.144915 229.042478 
L 504.722952 238.562833 
L 504.165394 246.418012 
L 503.312313 255.105779 
L 502.203731 263.793546 
L 500.826231 272.481314 
L 499.165254 281.169081 
L 497.723116 287.684906 
L 496.103226 294.200731 
L 493.888494 302.089084 
L 492.289473 307.232382 
L 490.070094 313.748207 
L 487.623071 320.264033 
L 484.601815 327.523853 
L 481.959331 333.295684 
L 479.815748 337.639567 
L 476.321828 344.155393 
L 473.767357 348.536667 
L 470.671797 353.455112 
L 467.576238 357.993137 
L 464.480678 362.184928 
L 461.385119 366.058333 
L 457.756197 370.218694 
L 455.194 372.934015 
L 451.269545 376.734519 
L 448.823297 378.906461 
L 445.907321 381.298506 
L 442.811761 383.609534 
L 439.716202 385.6941 
L 436.5539 387.594228 
L 433.525083 389.205289 
L 430.429523 390.639549 
L 427.113121 391.938112 
L 424.238404 392.878093 
L 421.142845 393.685563 
L 418.047285 394.287095 
L 414.951726 394.684491 
L 411.856166 394.876446 
L 408.760607 394.863404 
L 405.665047 394.645328 
L 401.971083 394.110054 
L 399.473928 393.594909 
L 396.378369 392.762581 
L 393.282809 391.723857 
L 390.18725 390.482191 
L 387.09169 389.035239 
L 383.996131 387.383839 
L 380.733214 385.422286 
L 377.486547 383.250345 
L 374.52154 381.078403 
L 371.613893 378.775019 
L 368.518333 376.134107 
L 363.874994 371.819658 
L 359.231654 367.099133 
L 354.184472 361.530927 
L 349.944976 356.53476 
L 345.237349 350.671218 
L 339.110518 342.617518 
L 332.344247 333.295684 
L 320.126116 315.920149 
L 312.38737 305.06044 
L 306.607143 297.294904 
L 301.963803 291.409635 
L 297.320464 285.930079 
L 292.677125 280.940966 
L 289.581565 277.924647 
L 285.830406 274.653255 
L 283.028242 272.481314 
L 280.294887 270.603286 
L 277.199327 268.792667 
L 274.103768 267.321447 
L 271.008208 266.201156 
L 267.912649 265.436363 
L 264.817089 265.036512 
L 261.72153 265.00717 
L 258.62597 265.352444 
L 255.530411 266.076461 
L 252.434851 267.179055 
L 249.339291 268.668734 
L 246.243732 270.548056 
L 243.148172 272.822133 
L 240.052613 275.499223 
L 236.586522 278.997139 
L 233.861494 282.108632 
L 230.765934 286.071863 
L 227.670375 290.502975 
L 224.574815 295.431936 
L 221.479256 300.896546 
L 218.246751 307.232382 
L 215.245292 313.748207 
L 212.192577 321.091666 
L 210.034864 326.779858 
L 207.549238 333.901471 
L 204.994586 341.983451 
L 202.521461 350.671218 
L 200.302419 359.358985 
L 198.262559 368.264941 
L 196.524667 376.734519 
L 194.556857 387.594228 
L 192.854087 398.453937 
L 191.392347 409.313646 
L 190.150532 420.173355 
L 188.975881 432.610674 
L 188.105865 444.064715 
L 187.343102 457.096365 
L 186.8001 470.128016 
L 186.456754 483.159667 
L 186.284109 498.363259 
L 186.331314 513.566852 
L 186.622426 530.942386 
L 186.917942 541.802095 
L 186.917942 541.802095 
" clip-path="url(#pc0cb830b25)" style="fill: none; stroke: #000000; stroke-opacity: 0.75; stroke-width: 1.5"/>
   </g>
   <g id="PathCollection_5">
    <path d="M 668.668062 541.802095 
L 668.787606 541.559123 
L 669.73492 539.630153 
L 670.335386 538.392536 
L 670.787988 537.458212 
L 671.827781 535.28627 
L 671.883166 535.169612 
L 672.857752 533.114328 
L 673.430946 531.890308 
L 673.874421 530.942386 
L 674.878654 528.770444 
L 674.978725 528.552104 
L 675.873557 526.598503 
L 676.526505 525.154488 
" clip-path="url(#pc0cb830b25)" style="fill: none; stroke-dasharray: 5.55,2.4; stroke-dashoffset: 0; stroke: #000000; stroke-opacity: 0.75; stroke-width: 1.5"/>
    <path d="M 527.510644 57.459077 
L 527.535652 66.146844 
L 527.821965 77.006553 
L 528.429816 90.038203 
L 529.489499 107.413738 
L 532.125012 148.680632 
L 532.858434 163.884224 
L 533.30245 176.915875 
L 533.534486 189.947526 
L 533.521851 202.979176 
L 533.30088 213.838885 
L 532.867656 224.698594 
L 532.206416 235.558303 
L 531.296462 246.418012 
L 530.12118 257.277721 
L 528.974707 265.965488 
L 527.63427 274.653255 
L 526.090113 283.341022 
L 524.330891 292.02879 
L 522.343546 300.716557 
L 520.114057 309.404324 
L 517.633093 318.092091 
L 514.881204 326.779858 
L 511.842435 335.467625 
L 508.497633 344.155393 
L 505.774492 350.671218 
L 502.855373 357.187043 
L 499.727659 363.702869 
L 496.375854 370.218694 
L 492.340714 377.50287 
L 488.921274 383.250345 
L 484.601815 390.016713 
L 479.958476 396.733056 
L 475.315136 402.923478 
L 470.671797 408.632817 
L 466.028458 413.885815 
L 461.385119 418.710983 
L 456.741779 423.119872 
L 452.09844 427.123561 
L 447.455101 430.730245 
L 442.811761 433.945269 
L 438.168422 436.764348 
L 433.525083 439.185793 
L 428.881744 441.207587 
L 425.786184 442.328068 
L 422.690625 443.268059 
L 419.348949 444.064715 
L 416.499506 444.585154 
L 413.403946 444.961171 
L 410.308386 445.143067 
L 407.212827 445.129362 
L 404.117267 444.917631 
L 401.021708 444.504485 
L 397.926148 443.88931 
L 394.830589 443.076903 
L 391.318182 441.892773 
L 388.63947 440.830597 
L 385.54391 439.397332 
L 382.081508 437.548889 
L 378.501119 435.376948 
L 375.292332 433.205006 
L 372.356923 431.033064 
L 369.629136 428.861122 
L 366.970553 426.607512 
L 362.327214 422.344622 
L 357.683875 417.701907 
L 353.040535 412.707959 
L 348.183313 407.141704 
L 342.206077 399.907019 
L 334.467178 390.055731 
L 312.798262 362.010337 
L 306.951373 355.015101 
L 303.083116 350.671218 
L 298.868244 346.249502 
L 294.386898 341.983451 
L 291.874056 339.811509 
L 289.149449 337.639567 
L 286.107923 335.467625 
L 283.390446 333.759563 
L 280.294887 332.112841 
L 277.199327 330.791854 
L 274.103768 329.817873 
L 271.008208 329.204619 
L 267.912649 328.972465 
L 264.817089 329.14145 
L 261.72153 329.731236 
L 258.62597 330.761077 
L 257.07819 331.450232 
L 253.982631 333.193656 
L 252.434851 334.259789 
L 250.871295 335.467625 
L 247.791512 338.276643 
L 246.243732 339.909463 
L 243.148172 343.673215 
L 241.25777 346.327334 
L 238.504833 350.70415 
L 236.160308 355.015101 
L 233.861494 359.797616 
L 232.190262 363.702869 
L 229.734834 370.218694 
L 228.290607 374.562578 
L 226.370195 381.078403 
L 224.711435 387.594228 
L 223.283103 394.110054 
L 222.059663 400.625879 
L 221.020225 407.141704 
L 219.897159 415.829471 
L 219.058708 424.517239 
L 218.474575 433.205006 
L 218.139121 441.892773 
L 218.038441 450.58054 
L 218.16525 459.268307 
L 218.516939 467.956074 
L 219.094466 476.643842 
L 219.931476 485.686764 
L 220.926259 494.019376 
L 222.194189 502.707143 
L 223.709098 511.39491 
L 225.485038 520.082677 
L 227.538393 528.770444 
L 229.276012 535.28627 
L 231.197613 541.802095 
L 231.197613 541.802095 
" clip-path="url(#pc0cb830b25)" style="fill: none; stroke-dasharray: 5.55,2.4; stroke-dashoffset: 0; stroke: #000000; stroke-opacity: 0.75; stroke-width: 1.5"/>
   </g>
   <g id="patch_3">
    <path d="M 34.197905 541.802095 
L 34.197905 32.319506 
" style="fill: none; stroke: #000000; stroke-width: 0.5; stroke-linejoin: miter; stroke-linecap: square"/>
   </g>
   <g id="patch_4">
    <path d="M 34.197905 541.802095 
L 709.2 541.802095 
" style="fill: none; stroke: #000000; stroke-width: 0.5; stroke-linejoin: miter; stroke-linecap: square"/>
   </g>
   <g id="text_3">
    <!-- SVM with RBF kernel. $k(x,y) = -\exp{\left(\frac{\|x-y\|^2}{2 \sigma ^2}\right)}$ -->
    <g transform="translate(250.89792 24.548538) scale(0.12 -0.12)">
     <defs>
      <path id="CMSS17-53" d="M 2797 4169 
C 2515 4334 2208 4480 1690 4480 
C 864 4480 333 3879 333 3266 
C 333 3025 403 2753 653 2475 
C 902 2196 1184 2121 1542 2033 
C 1690 1994 1939 1924 1984 1906 
C 2342 1767 2515 1444 2515 1140 
C 2515 742 2202 318 1645 318 
C 1453 318 890 318 358 819 
L 269 318 
C 794 -64 1363 -128 1651 -128 
C 2438 -128 3002 488 3002 1186 
C 3002 1440 2925 1763 2656 2061 
C 2394 2347 2163 2410 1638 2549 
C 1338 2626 1146 2677 986 2873 
C 877 3013 819 3146 819 3317 
C 819 3673 1126 4060 1690 4060 
C 1971 4060 2336 4002 2707 3660 
L 2797 4169 
z
" transform="scale(0.015625)"/>
      <path id="CMSS17-56" d="M 3910 4416 
L 3411 4416 
L 2304 1362 
C 2272 1273 2074 688 2035 484 
L 2029 484 
C 1978 726 1773 1292 1664 1604 
L 922 3672 
L 646 4416 
L 83 4416 
L 1715 0 
L 2278 0 
L 3910 4416 
z
" transform="scale(0.015625)"/>
      <path id="CMSS17-4d" d="M 3194 2371 
L 2886 1473 
C 2835 1307 2662 791 2624 587 
L 2618 587 
C 2598 715 2560 849 2458 1174 
C 2400 1365 2336 1562 2272 1741 
L 1325 4416 
L 576 4416 
L 576 0 
L 1075 0 
L 1075 3900 
L 1082 3900 
C 1082 3894 1139 3613 1530 2499 
L 2374 96 
L 2848 96 
L 3610 2231 
C 3661 2378 3821 2843 3891 3066 
C 3955 3257 4115 3728 4154 3913 
L 4160 3913 
L 4160 0 
L 4666 0 
L 4666 4416 
L 3923 4416 
L 3194 2371 
z
" transform="scale(0.015625)"/>
      <path id="CMSS17-77" d="M 4013 2752 
L 3526 2752 
L 3187 1601 
C 3117 1358 2918 685 2893 371 
L 2886 371 
C 2874 564 2765 1024 2586 1633 
L 2259 2752 
L 1818 2752 
L 1498 1658 
C 1338 1101 1216 627 1203 371 
L 1197 371 
C 1171 749 909 1633 870 1773 
L 582 2752 
L 83 2752 
L 915 0 
L 1402 0 
C 1734 1096 1990 1943 2010 2370 
C 2022 2160 2131 1707 2195 1484 
L 2618 0 
L 3181 0 
L 4013 2752 
z
" transform="scale(0.015625)"/>
      <path id="CMSS17-69" d="M 979 4183 
L 442 4183 
L 442 3648 
L 979 3648 
L 979 4183 
z
M 947 2739 
L 474 2739 
L 474 0 
L 947 0 
L 947 2739 
z
" transform="scale(0.015625)"/>
      <path id="CMSS17-74" d="M 1069 2368 
L 1901 2368 
L 1901 2737 
L 1069 2737 
L 1069 3520 
L 614 3520 
L 614 2737 
L 109 2737 
L 109 2368 
L 602 2368 
L 602 749 
C 602 384 685 -64 1107 -64 
C 1427 -64 1722 25 2003 172 
L 1901 548 
C 1747 414 1562 337 1363 337 
C 1082 337 1069 696 1069 856 
L 1069 2368 
z
" transform="scale(0.015625)"/>
      <path id="CMSS17-68" d="M 2618 1891 
C 2618 2292 2522 2820 1798 2820 
C 1395 2820 1133 2623 947 2407 
L 947 4448 
L 474 4448 
L 474 32 
L 960 32 
L 960 1573 
C 960 1973 1114 2432 1549 2432 
C 2112 2432 2131 2056 2131 1839 
L 2131 32 
L 2618 32 
L 2618 1891 
z
" transform="scale(0.015625)"/>
      <path id="CMSS17-52" d="M 2522 2109 
L 2534 2115 
C 3533 2459 3539 3147 3539 3268 
C 3539 3873 2925 4453 2003 4453 
L 570 4453 
L 570 32 
L 1094 32 
L 1094 2048 
L 2035 2048 
L 3168 32 
L 3706 32 
L 2522 2109 
z
M 1094 2437 
L 1094 4096 
L 1933 4096 
C 2746 4096 3034 3637 3034 3267 
C 3034 2922 2778 2437 1933 2437 
L 1094 2437 
z
" transform="scale(0.015625)"/>
      <path id="CMSS17-42" d="M 570 4416 
L 570 0 
L 2163 0 
C 3034 0 3667 574 3667 1200 
C 3667 1685 3251 2176 2502 2317 
C 3334 2558 3501 3040 3501 3313 
C 3501 3883 2874 4416 1997 4416 
L 570 4416 
z
M 1088 2496 
L 1088 4059 
L 1824 4059 
C 2483 4059 3002 3724 3002 3306 
C 3002 2926 2592 2496 1766 2496 
L 1088 2496 
z
M 1088 357 
L 1088 2107 
L 1939 2107 
C 2630 2107 3162 1679 3162 1206 
C 3162 772 2694 357 1984 357 
L 1088 357 
z
" transform="scale(0.015625)"/>
      <path id="CMSS17-46" d="M 2918 1984 
L 2918 2373 
L 1101 2373 
L 1101 3968 
L 1882 3968 
C 1958 3968 2035 3968 2112 3968 
L 3168 3968 
L 3168 4375 
L 563 4375 
L 563 -32 
L 1101 -32 
L 1101 1984 
L 2918 1984 
z
" transform="scale(0.015625)"/>
      <path id="CMSS17-6b" d="M 1696 1688 
L 2688 2739 
L 2074 2739 
L 954 1554 
L 954 4416 
L 480 4416 
L 480 0 
L 947 0 
L 947 892 
L 1376 1344 
L 2278 0 
L 2822 0 
L 1696 1688 
z
" transform="scale(0.015625)"/>
      <path id="CMSS17-65" d="M 2502 1377 
C 2502 1590 2490 2003 2285 2345 
C 2061 2713 1696 2816 1421 2816 
C 755 2816 192 2188 192 1375 
C 192 582 774 -64 1510 -64 
C 1798 -64 2150 19 2470 248 
C 2470 274 2458 414 2451 420 
C 2451 433 2432 630 2432 656 
C 2125 407 1773 325 1517 325 
C 1107 325 666 667 646 1377 
L 2502 1377 
z
M 698 1728 
C 781 2084 1062 2421 1421 2421 
C 1517 2421 1965 2421 2080 1728 
L 698 1728 
z
" transform="scale(0.015625)"/>
      <path id="CMSS17-72" d="M 954 1363 
C 954 1965 1395 2368 1958 2368 
L 1958 2789 
C 1549 2789 1165 2585 934 2253 
L 934 2758 
L 480 2758 
L 480 0 
L 954 0 
L 954 1363 
z
" transform="scale(0.015625)"/>
      <path id="CMSS17-6e" d="M 2618 1877 
C 2618 2283 2522 2816 1798 2816 
C 1389 2816 1120 2606 941 2389 
L 941 2758 
L 474 2758 
L 474 0 
L 960 0 
L 960 1559 
C 960 1964 1114 2428 1549 2428 
C 2112 2428 2131 2048 2131 1829 
L 2131 0 
L 2618 0 
L 2618 1877 
z
" transform="scale(0.015625)"/>
      <path id="CMSS17-6c" d="M 947 4416 
L 474 4416 
L 474 0 
L 947 0 
L 947 4416 
z
" transform="scale(0.015625)"/>
      <path id="CMSS17-2e" d="M 1088 510 
L 576 510 
L 576 0 
L 1088 0 
L 1088 510 
z
" transform="scale(0.015625)"/>
      <path id="CMMI12-6b" d="M 1798 4257 
C 1805 4283 1818 4321 1818 4352 
C 1818 4416 1754 4416 1741 4416 
C 1734 4416 1504 4393 1389 4377 
C 1280 4377 1184 4358 1069 4358 
C 915 4345 870 4339 870 4224 
C 870 4160 934 4160 998 4160 
C 1325 4160 1325 4103 1325 4040 
C 1325 4015 1325 4002 1293 3888 
L 378 248 
C 352 152 352 140 352 101 
C 352 -38 461 -64 525 -64 
C 704 -64 742 77 794 275 
L 1094 1469 
C 1555 1418 1830 1226 1830 920 
C 1830 881 1830 856 1811 760 
C 1786 664 1786 588 1786 556 
C 1786 185 2029 -64 2355 -64 
C 2650 -64 2803 204 2854 294 
C 2989 530 3072 888 3072 913 
C 3072 945 3046 971 3008 971 
C 2950 971 2944 945 2918 843 
C 2829 511 2694 64 2368 64 
C 2240 64 2157 128 2157 370 
C 2157 492 2182 632 2208 728 
C 2234 843 2234 849 2234 926 
C 2234 1303 1894 1514 1306 1590 
C 1536 1731 1766 1980 1856 2076 
C 2221 2484 2470 2689 2765 2689 
C 2912 2689 2950 2650 2995 2612 
C 2758 2586 2669 2420 2669 2293 
C 2669 2139 2790 2088 2880 2088 
C 3053 2088 3206 2235 3206 2440 
C 3206 2625 3059 2816 2771 2816 
C 2419 2816 2131 2567 1677 2056 
C 1613 1980 1376 1737 1139 1648 
L 1798 4257 
z
" transform="scale(0.015625)"/>
      <path id="CMR17-28" d="M 1958 -1561 
C 1958 -1555 1958 -1542 1939 -1523 
C 1645 -1224 858 -407 858 1581 
C 858 3569 1632 4379 1946 4697 
C 1946 4704 1958 4717 1958 4736 
C 1958 4755 1939 4768 1914 4768 
C 1843 4768 1299 4296 986 3594 
C 666 2887 576 2199 576 1588 
C 576 1128 621 351 1005 -471 
C 1312 -1135 1837 -1600 1914 -1600 
C 1946 -1600 1958 -1587 1958 -1561 
z
" transform="scale(0.015625)"/>
      <path id="CMMI12-3b" d="M 1248 -31 
C 1248 343 1126 619 864 619 
C 659 619 557 453 557 313 
C 557 172 653 0 870 0 
C 954 0 1024 26 1082 83 
C 1094 96 1101 96 1107 96 
C 1120 96 1120 5 1120 -27 
C 1120 -240 1082 -659 710 -1080 
C 640 -1157 640 -1170 640 -1183 
C 640 -1216 672 -1248 704 -1248 
C 755 -1248 1248 -771 1248 -31 
z
" transform="scale(0.015625)"/>
      <path id="CMMI12-79" d="M 1683 -700 
C 1510 -939 1261 -1152 947 -1152 
C 870 -1152 563 -1152 467 -889 
C 486 -895 518 -895 531 -895 
C 723 -895 851 -729 851 -582 
C 851 -435 730 -384 634 -384 
C 531 -384 307 -458 307 -759 
C 307 -1071 582 -1286 947 -1286 
C 1587 -1286 2234 -700 2413 6 
L 3040 2485 
C 3046 2517 3059 2556 3059 2594 
C 3059 2689 2982 2753 2886 2753 
C 2829 2753 2694 2727 2643 2535 
L 2170 658 
C 2138 543 2138 530 2086 460 
C 1958 281 1747 64 1440 64 
C 1082 64 1050 415 1050 588 
C 1050 952 1222 1443 1395 1903 
C 1466 2088 1504 2178 1504 2305 
C 1504 2574 1312 2816 998 2816 
C 410 2816 173 1890 173 1839 
C 173 1814 198 1782 243 1782 
C 301 1782 307 1807 333 1897 
C 486 2433 730 2689 979 2689 
C 1037 2689 1146 2689 1146 2478 
C 1146 2312 1075 2127 979 1884 
C 666 1047 666 837 666 683 
C 666 77 1101 -64 1421 -64 
C 1606 -64 1837 -6 2061 230 
L 2067 224 
C 1971 -147 1907 -392 1683 -700 
z
" transform="scale(0.015625)"/>
      <path id="CMR17-29" d="M 1683 1581 
C 1683 2040 1638 2817 1254 3639 
C 947 4303 422 4768 346 4768 
C 326 4768 301 4761 301 4729 
C 301 4717 307 4710 314 4697 
C 621 4378 1402 3568 1402 1584 
C 1402 -407 627 -1217 314 -1537 
C 307 -1549 301 -1556 301 -1568 
C 301 -1600 326 -1600 346 -1600 
C 416 -1600 960 -1128 1274 -426 
C 1594 281 1683 969 1683 1581 
z
" transform="scale(0.015625)"/>
      <path id="CMR17-3d" d="M 4115 2017 
C 4211 2017 4307 2017 4307 2125 
C 4307 2240 4198 2240 4090 2240 
L 512 2240 
C 403 2240 294 2240 294 2125 
C 294 2017 390 2017 486 2017 
L 4115 2017 
z
M 4090 896 
C 4198 896 4307 896 4307 1011 
C 4307 1119 4211 1119 4115 1119 
L 486 1119 
C 390 1119 294 1119 294 1011 
C 294 896 403 896 512 896 
L 4090 896 
z
" transform="scale(0.015625)"/>
      <path id="CMSY10-0" d="M 4218 1472 
C 4326 1472 4442 1472 4442 1600 
C 4442 1728 4326 1728 4218 1728 
L 755 1728 
C 646 1728 531 1728 531 1600 
C 531 1472 646 1472 755 1472 
L 4218 1472 
z
" transform="scale(0.015625)"/>
      <path id="CMR17-65" d="M 2438 1472 
C 2464 1498 2464 1511 2464 1576 
C 2464 2238 2118 2816 1389 2816 
C 710 2816 173 2169 173 1383 
C 173 551 781 -64 1459 -64 
C 2176 -64 2458 607 2458 740 
C 2458 784 2419 784 2406 784 
C 2362 784 2355 771 2330 696 
C 2189 265 1837 51 1504 51 
C 1229 51 954 203 781 480 
C 582 803 582 1176 582 1472 
L 2438 1472 
z
M 589 1568 
C 634 2505 1126 2714 1382 2714 
C 1818 2714 2112 2297 2118 1568 
L 589 1568 
z
" transform="scale(0.015625)"/>
      <path id="CMR17-78" d="M 1664 1477 
C 1856 1726 2074 2006 2253 2216 
C 2464 2458 2707 2560 2989 2560 
L 2989 2726 
C 2880 2726 2656 2726 2541 2726 
C 2368 2726 2170 2726 2022 2732 
L 2022 2566 
C 2112 2553 2163 2489 2163 2400 
C 2163 2285 2099 2215 2067 2171 
L 1594 1573 
L 1030 2306 
C 973 2376 973 2388 973 2420 
C 973 2497 1037 2560 1146 2560 
L 1146 2732 
C 992 2726 717 2726 557 2726 
C 384 2726 179 2726 38 2732 
L 38 2560 
C 384 2560 461 2534 614 2343 
L 1350 1395 
C 1363 1382 1395 1344 1395 1325 
C 1395 1299 838 619 768 530 
C 480 185 179 160 6 160 
L 6 0 
C 115 0 339 0 454 0 
C 582 0 864 0 979 -6 
L 979 160 
C 941 166 838 179 838 325 
C 838 440 890 510 947 586 
L 1478 1236 
L 2035 512 
C 2086 442 2163 346 2163 301 
C 2163 211 2086 160 1984 160 
L 1984 -6 
C 2138 0 2413 0 2573 0 
C 2746 0 2950 0 3091 -6 
L 3091 160 
C 2771 160 2675 172 2522 370 
L 1664 1477 
z
" transform="scale(0.015625)"/>
      <path id="CMR17-70" d="M 1408 -1063 
C 998 -1063 973 -1037 973 -789 
L 973 402 
C 1158 134 1427 -38 1766 -38 
C 2406 -38 3053 523 3053 1388 
C 3053 2191 2496 2802 1837 2802 
C 1453 2802 1139 2592 960 2338 
L 960 2802 
L 198 2732 
L 198 2567 
C 576 2567 634 2528 634 2223 
L 634 -789 
C 634 -1031 608 -1063 198 -1063 
L 198 -1228 
C 352 -1216 634 -1216 800 -1216 
C 966 -1216 1254 -1216 1408 -1228 
L 1408 -1063 
z
M 973 2012 
C 973 2102 973 2235 1222 2471 
C 1254 2497 1472 2688 1792 2688 
C 2259 2688 2643 2108 2643 1382 
C 2643 656 2234 64 1728 64 
C 1498 64 1248 172 1056 472 
C 973 612 973 650 973 752 
L 973 2012 
z
" transform="scale(0.015625)"/>
      <path id="CMEX10-10" d="M 3296 -11187 
C 3309 -11194 3366 -11258 3373 -11258 
L 3514 -11258 
C 3533 -11258 3584 -11251 3584 -11194 
C 3584 -11168 3571 -11155 3558 -11136 
C 3328 -10906 2982 -10554 2586 -9850 
C 1894 -8621 1638 -7040 1638 -5504 
C 1638 -2662 2445 -992 3565 141 
C 3584 160 3584 179 3584 192 
C 3584 256 3539 256 3462 256 
C 3379 256 3366 256 3309 205 
C 2701 -320 2016 -1210 1574 -2560 
C 1299 -3405 1152 -4435 1152 -5498 
C 1152 -7014 1427 -8730 2432 -10214 
C 2605 -10464 2842 -10726 2842 -10733 
C 2906 -10810 2995 -10912 3046 -10957 
L 3296 -11187 
z
" transform="scale(0.015625)"/>
      <path id="CMSY10-6b" d="M 1103 4582 
C 1103 4685 1103 4800 975 4800 
C 847 4800 847 4659 847 4563 
L 847 -1363 
C 847 -1466 847 -1600 975 -1600 
C 1103 -1600 1103 -1485 1103 -1382 
L 1103 4582 
z
M 2351 4563 
C 2351 4666 2351 4800 2223 4800 
C 2095 4800 2095 4685 2095 4582 
L 2095 -1382 
C 2095 -1485 2095 -1600 2223 -1600 
C 2351 -1600 2351 -1459 2351 -1363 
L 2351 4563 
z
" transform="scale(0.015625)"/>
      <path id="CMMI12-1b" d="M 3251 2408 
C 3334 2408 3546 2408 3546 2612 
C 3546 2752 3424 2752 3309 2752 
L 1894 2752 
C 934 2752 243 1686 243 932 
C 243 390 595 -64 1171 -64 
C 1926 -64 2752 747 2752 1705 
C 2752 1954 2694 2196 2541 2408 
L 3251 2408 
z
M 1178 64 
C 851 64 614 313 614 754 
C 614 1137 845 2408 1786 2408 
C 2061 2408 2368 2274 2368 1781 
C 2368 1558 2266 1021 2042 652 
C 1811 275 1466 64 1178 64 
z
" transform="scale(0.015625)"/>
      <path id="CMEX10-11" d="M 2662 -5498 
C 2662 -3661 2234 -1709 973 -269 
C 883 -166 646 83 493 218 
C 448 256 435 256 352 256 
C 288 256 230 256 230 192 
C 230 166 256 141 269 128 
C 486 -96 832 -448 1229 -1152 
C 1920 -2381 2176 -3962 2176 -5498 
C 2176 -8275 1408 -9971 256 -11142 
C 243 -11155 230 -11174 230 -11194 
C 230 -11258 288 -11258 352 -11258 
C 435 -11258 448 -11258 506 -11206 
C 1114 -10682 1798 -9792 2240 -8442 
C 2522 -7565 2662 -6528 2662 -5498 
z
" transform="scale(0.015625)"/>
     </defs>
     <use xlink:href="#CMSS17-53" transform="scale(0.996264)"/>
     <use xlink:href="#CMSS17-56" transform="translate(52.048516 0) scale(0.996264)"/>
     <use xlink:href="#CMSS17-4d" transform="translate(114.266371 0) scale(0.996264)"/>
     <use xlink:href="#CMSS17-77" transform="translate(227.171514 0) scale(0.996264)"/>
     <use xlink:href="#CMSS17-69" transform="translate(290.991059 0) scale(0.996264)"/>
     <use xlink:href="#CMSS17-74" transform="translate(313.171782 0) scale(0.996264)"/>
     <use xlink:href="#CMSS17-68" transform="translate(347.003349 0) scale(0.996264)"/>
     <use xlink:href="#CMSS17-52" transform="translate(426.437405 0) scale(0.996264)"/>
     <use xlink:href="#CMSS17-42" transform="translate(486.853559 0) scale(0.996264)"/>
     <use xlink:href="#CMSS17-46" transform="translate(549.1916 0) scale(0.996264)"/>
     <use xlink:href="#CMSS17-6b" transform="translate(633.710272 0) scale(0.996264)"/>
     <use xlink:href="#CMSS17-65" transform="translate(676.710307 0) scale(0.996264)"/>
     <use xlink:href="#CMSS17-72" transform="translate(718.349129 0) scale(0.996264)"/>
     <use xlink:href="#CMSS17-6e" transform="translate(750.258902 0) scale(0.996264)"/>
     <use xlink:href="#CMSS17-65" transform="translate(798.463845 0) scale(0.996264)"/>
     <use xlink:href="#CMSS17-6c" transform="translate(840.102667 0) scale(0.996264)"/>
     <use xlink:href="#CMSS17-2e" transform="translate(862.28339 0) scale(0.996264)"/>
     <use xlink:href="#CMMI12-6b" transform="translate(929.946402 0) scale(0.996264)"/>
     <use xlink:href="#CMR17-28" transform="translate(984.025602 0) scale(0.996264)"/>
     <use xlink:href="#CMMI12-78" transform="translate(1019.30637 0) scale(0.996264)"/>
     <use xlink:href="#CMMI12-3b" transform="translate(1074.74043 0) scale(0.996264)"/>
     <use xlink:href="#CMMI12-79" transform="translate(1118.442012 0) scale(0.996264)"/>
     <use xlink:href="#CMR17-29" transform="translate(1169.580793 0) scale(0.996264)"/>
     <use xlink:href="#CMR17-3d" transform="translate(1232.535569 0) scale(0.996264)"/>
     <use xlink:href="#CMSY10-0" transform="translate(1331.924366 0) scale(0.996264)"/>
     <use xlink:href="#CMR17-65" transform="translate(1426.016239 0) scale(0.996264)"/>
     <use xlink:href="#CMR17-78" transform="translate(1466.5019 0) scale(0.996264)"/>
     <use xlink:href="#CMR17-70" transform="translate(1514.794815 0) scale(0.996264)"/>
     <use xlink:href="#CMEX10-10" transform="translate(1582.29459 110.586308) scale(0.996264)"/>
     <use xlink:href="#CMSY10-6b" transform="translate(1642.989394 48.318576) scale(0.697382)"/>
     <use xlink:href="#CMMI12-78" transform="translate(1677.858604 48.318576) scale(0.697382)"/>
     <use xlink:href="#CMSY10-0" transform="translate(1716.662263 48.318576) scale(0.697382)"/>
     <use xlink:href="#CMMI12-79" transform="translate(1770.903256 48.318576) scale(0.697382)"/>
     <use xlink:href="#CMSY10-6b" transform="translate(1806.700231 48.318576) scale(0.697382)"/>
     <use xlink:href="#CMR17-32" transform="translate(1841.569441 73.626002) scale(0.498132)"/>
     <use xlink:href="#CMR17-32" transform="translate(1705.630907 -34.355253) scale(0.697382)"/>
     <use xlink:href="#CMMI12-1b" transform="translate(1737.614089 -34.355253) scale(0.697382)"/>
     <use xlink:href="#CMR17-32" transform="translate(1778.927928 -14.20868) scale(0.498132)"/>
     <use xlink:href="#CMEX10-11" transform="translate(1866.108325 110.586308) scale(0.996264)"/>
     <path d="M 1642.989394 22.914133 
L 1864.912812 22.914133 
L 1864.912812 26.899083 
L 1642.989394 26.899083 
L 1642.989394 22.914133 
z
"/>
    </g>
   </g>
   <g id="legend_1">
    <g id="patch_5">
     <path d="M 636.299326 68.193863 
L 702.2 68.193863 
Q 704.2 68.193863 704.2 66.193863 
L 704.2 39.319506 
Q 704.2 37.319506 702.2 37.319506 
L 636.299326 37.319506 
Q 634.299326 37.319506 634.299326 39.319506 
L 634.299326 66.193863 
Q 634.299326 68.193863 636.299326 68.193863 
z
" style="fill: #ffffff; opacity: 0.8; stroke: #cccccc; stroke-linejoin: miter"/>
    </g>
    <g id="PathCollection_6">
     <g>
      <use xlink:href="#m036f680b98" x="648.299326" y="45.694506" style="fill: #87ceeb; stroke: #000000"/>
     </g>
    </g>
    <g id="text_4">
     <!-- Classe 0 -->
     <g transform="translate(666.299326 48.319506) scale(0.1 -0.1)">
      <defs>
       <path id="CMSS17-43" d="M 3501 714 
C 3072 427 2874 344 2355 344 
C 1459 344 934 1303 934 2179 
C 934 3112 1472 4032 2381 4032 
C 2790 4032 3059 3918 3386 3715 
L 3475 4217 
C 3168 4370 2778 4440 2387 4440 
C 1158 4440 397 3316 397 2179 
C 397 927 1299 -64 2323 -64 
C 2874 -64 3066 -19 3539 280 
L 3501 714 
z
" transform="scale(0.015625)"/>
       <path id="CMSS17-61" d="M 2406 1791 
C 2406 2392 1978 2808 1402 2808 
C 1120 2808 813 2757 461 2553 
L 499 2135 
C 659 2248 934 2432 1395 2432 
C 1722 2432 1920 2180 1920 1782 
L 1920 1536 
C 896 1536 256 1238 256 726 
C 256 461 416 -64 947 -64 
C 1043 -64 1562 -64 1933 217 
L 1933 -19 
L 2406 -19 
L 2406 1791 
z
M 1920 816 
C 1920 701 1920 548 1728 434 
C 1562 325 1350 325 1261 325 
C 941 325 723 511 723 744 
C 723 1211 1722 1211 1920 1211 
L 1920 816 
z
" transform="scale(0.015625)"/>
       <path id="CMSS17-73" d="M 2061 2627 
C 1683 2807 1389 2807 1197 2807 
C 742 2807 198 2648 198 2003 
C 198 1359 902 1218 1094 1179 
C 1389 1122 1715 1058 1715 740 
C 1715 337 1254 337 1171 337 
C 915 337 563 407 243 638 
L 166 210 
C 531 0 883 -64 1178 -64 
C 1965 -64 2163 416 2163 781 
C 2163 1094 1984 1305 1862 1401 
C 1651 1568 1574 1587 1050 1696 
C 960 1709 646 1779 646 2066 
C 646 2432 1050 2432 1139 2432 
C 1555 2432 1811 2303 1984 2208 
L 2061 2627 
z
" transform="scale(0.015625)"/>
       <path id="CMSS17-30" d="M 2758 2044 
C 2758 2405 2752 3077 2490 3596 
C 2227 4096 1805 4229 1504 4229 
C 1069 4229 698 3975 506 3570 
C 301 3146 243 2709 243 2044 
C 243 1589 262 1031 493 543 
C 755 5 1197 -128 1498 -128 
C 1894 -128 2278 81 2496 518 
C 2720 974 2758 1474 2758 2044 
z
M 1498 261 
C 1011 261 864 811 819 995 
C 742 1310 730 1614 730 2114 
C 730 2506 730 2948 851 3297 
C 998 3701 1254 3840 1498 3840 
C 1971 3840 2125 3372 2176 3208 
C 2272 2873 2272 2481 2272 2114 
C 2272 1526 2272 261 1498 261 
z
" transform="scale(0.015625)"/>
      </defs>
      <use xlink:href="#CMSS17-43" transform="scale(0.996264)"/>
      <use xlink:href="#CMSS17-6c" transform="translate(59.855772 0) scale(0.996264)"/>
      <use xlink:href="#CMSS17-61" transform="translate(82.036495 0) scale(0.996264)"/>
      <use xlink:href="#CMSS17-73" transform="translate(126.958415 0) scale(0.996264)"/>
      <use xlink:href="#CMSS17-73" transform="translate(162.871957 0) scale(0.996264)"/>
      <use xlink:href="#CMSS17-65" transform="translate(198.785499 0) scale(0.996264)"/>
      <use xlink:href="#CMSS17-30" transform="translate(271.653434 0) scale(0.996264)"/>
     </g>
    </g>
    <g id="PathCollection_7">
     <g>
      <use xlink:href="#m2bd130602f" x="648.299326" y="59.631685" style="fill: #fa8072; stroke: #000000"/>
     </g>
    </g>
    <g id="text_5">
     <!-- Classe 1 -->
     <g transform="translate(666.299326 62.256685) scale(0.1 -0.1)">
      <defs>
       <path id="CMSS17-31" d="M 1818 4288 
L 1696 4288 
C 1350 3940 947 3890 538 3890 
L 538 3520 
C 723 3520 1024 3520 1325 3667 
L 1325 369 
L 570 369 
L 570 0 
L 2573 0 
L 2573 369 
L 1818 369 
L 1818 4288 
z
" transform="scale(0.015625)"/>
      </defs>
      <use xlink:href="#CMSS17-43" transform="scale(0.996264)"/>
      <use xlink:href="#CMSS17-6c" transform="translate(59.855772 0) scale(0.996264)"/>
      <use xlink:href="#CMSS17-61" transform="translate(82.036495 0) scale(0.996264)"/>
      <use xlink:href="#CMSS17-73" transform="translate(126.958415 0) scale(0.996264)"/>
      <use xlink:href="#CMSS17-73" transform="translate(162.871957 0) scale(0.996264)"/>
      <use xlink:href="#CMSS17-65" transform="translate(198.785499 0) scale(0.996264)"/>
      <use xlink:href="#CMSS17-31" transform="translate(271.653434 0) scale(0.996264)"/>
     </g>
    </g>
   </g>
  </g>
 </g>
 <defs>
  <clipPath id="pc0cb830b25">
   <rect x="34.197905" y="32.319506" width="675.002095" height="509.482589"/>
  </clipPath>
 </defs>
</svg>
