<?xml version="1.0" encoding="utf-8" standalone="no"?>
<!DOCTYPE svg PUBLIC "-//W3C//DTD SVG 1.1//EN"
  "http://www.w3.org/Graphics/SVG/1.1/DTD/svg11.dtd">
<svg xmlns:xlink="http://www.w3.org/1999/xlink" width="720pt" height="576pt" viewBox="0 0 720 576" xmlns="http://www.w3.org/2000/svg" version="1.1">
 <metadata>
  <rdf:RDF xmlns:dc="http://purl.org/dc/elements/1.1/" xmlns:cc="http://creativecommons.org/ns#" xmlns:rdf="http://www.w3.org/1999/02/22-rdf-syntax-ns#">
   <cc:Work>
    <dc:type rdf:resource="http://purl.org/dc/dcmitype/StillImage"/>
    <dc:date>2023-10-02T11:06:26.778863</dc:date>
    <dc:format>image/svg+xml</dc:format>
    <dc:creator>
     <cc:Agent>
      <dc:title>Matplotlib v3.7.2, https://matplotlib.org/</dc:title>
     </cc:Agent>
    </dc:creator>
   </cc:Work>
  </rdf:RDF>
 </metadata>
 <defs>
  <style type="text/css">*{stroke-linejoin: round; stroke-linecap: butt}</style>
 </defs>
 <g id="figure_1">
  <g id="patch_1">
   <path d="M 0 576 
L 720 576 
L 720 0 
L 0 0 
z
" style="fill: #ffffff"/>
  </g>
  <g id="axes_1">
   <g id="patch_2">
    <path d="M 34.197905 541.802095 
L 709.2 541.802095 
L 709.2 25.10218 
L 34.197905 25.10218 
z
" style="fill: #ffffff"/>
   </g>
   <g id="PathCollection_1">
    <defs>
     <path id="medbc3a9491" d="M 0 3 
C 0.795609 3 1.55874 2.683901 2.12132 2.12132 
C 2.683901 1.55874 3 0.795609 3 0 
C 3 -0.795609 2.683901 -1.55874 2.12132 -2.12132 
C 1.55874 -2.683901 0.795609 -3 0 -3 
C -0.795609 -3 -1.55874 -2.683901 -2.12132 -2.12132 
C -2.683901 -1.55874 -3 -0.795609 -3 0 
C -3 0.795609 -2.683901 1.55874 -2.12132 2.12132 
C -1.55874 2.683901 -0.795609 3 0 3 
z
" style="stroke: #000000"/>
    </defs>
    <g clip-path="url(#pa510efefbb)">
     <use xlink:href="#medbc3a9491" x="76.649565" y="323.484583" style="fill: #87ceeb; stroke: #000000"/>
     <use xlink:href="#medbc3a9491" x="170.995754" y="365.671755" style="fill: #87ceeb; stroke: #000000"/>
     <use xlink:href="#medbc3a9491" x="173.767542" y="146.368673" style="fill: #87ceeb; stroke: #000000"/>
     <use xlink:href="#medbc3a9491" x="303.468922" y="248.492829" style="fill: #87ceeb; stroke: #000000"/>
     <use xlink:href="#medbc3a9491" x="403.191002" y="200.907436" style="fill: #87ceeb; stroke: #000000"/>
     <use xlink:href="#medbc3a9491" x="385.656548" y="419.661866" style="fill: #87ceeb; stroke: #000000"/>
     <use xlink:href="#medbc3a9491" x="317.875457" y="224.942943" style="fill: #87ceeb; stroke: #000000"/>
     <use xlink:href="#medbc3a9491" x="213.416937" y="172.718924" style="fill: #87ceeb; stroke: #000000"/>
     <use xlink:href="#medbc3a9491" x="150.552045" y="161.481709" style="fill: #87ceeb; stroke: #000000"/>
     <use xlink:href="#medbc3a9491" x="473.562771" y="271.95655" style="fill: #87ceeb; stroke: #000000"/>
     <use xlink:href="#medbc3a9491" x="314.871744" y="232.553862" style="fill: #87ceeb; stroke: #000000"/>
     <use xlink:href="#medbc3a9491" x="235.646113" y="183.319154" style="fill: #87ceeb; stroke: #000000"/>
     <use xlink:href="#medbc3a9491" x="279.073763" y="226.148959" style="fill: #87ceeb; stroke: #000000"/>
     <use xlink:href="#medbc3a9491" x="87.922594" y="305.518116" style="fill: #87ceeb; stroke: #000000"/>
     <use xlink:href="#medbc3a9491" x="307.180351" y="142.149672" style="fill: #87ceeb; stroke: #000000"/>
     <use xlink:href="#medbc3a9491" x="105.558283" y="281.318027" style="fill: #87ceeb; stroke: #000000"/>
     <use xlink:href="#medbc3a9491" x="365.121999" y="261.090838" style="fill: #87ceeb; stroke: #000000"/>
     <use xlink:href="#medbc3a9491" x="420.954159" y="175.062165" style="fill: #87ceeb; stroke: #000000"/>
     <use xlink:href="#medbc3a9491" x="90.447578" y="349.65756" style="fill: #87ceeb; stroke: #000000"/>
     <use xlink:href="#medbc3a9491" x="239.687018" y="49.706938" style="fill: #87ceeb; stroke: #000000"/>
     <use xlink:href="#medbc3a9491" x="378.432205" y="294.493526" style="fill: #87ceeb; stroke: #000000"/>
     <use xlink:href="#medbc3a9491" x="162.78942" y="189.029425" style="fill: #87ceeb; stroke: #000000"/>
     <use xlink:href="#medbc3a9491" x="361.112472" y="154.898602" style="fill: #87ceeb; stroke: #000000"/>
     <use xlink:href="#medbc3a9491" x="107.358061" y="439.111279" style="fill: #87ceeb; stroke: #000000"/>
     <use xlink:href="#medbc3a9491" x="203.053673" y="168.769133" style="fill: #87ceeb; stroke: #000000"/>
     <use xlink:href="#medbc3a9491" x="358.060605" y="315.191223" style="fill: #87ceeb; stroke: #000000"/>
     <use xlink:href="#medbc3a9491" x="208.474627" y="170.607576" style="fill: #87ceeb; stroke: #000000"/>
     <use xlink:href="#medbc3a9491" x="308.952448" y="132.496071" style="fill: #87ceeb; stroke: #000000"/>
     <use xlink:href="#medbc3a9491" x="301.329762" y="104.941035" style="fill: #87ceeb; stroke: #000000"/>
     <use xlink:href="#medbc3a9491" x="325.339361" y="169.310221" style="fill: #87ceeb; stroke: #000000"/>
     <use xlink:href="#medbc3a9491" x="199.821544" y="146.480749" style="fill: #87ceeb; stroke: #000000"/>
     <use xlink:href="#medbc3a9491" x="451.685766" y="322.690238" style="fill: #87ceeb; stroke: #000000"/>
     <use xlink:href="#medbc3a9491" x="309.36872" y="224.519469" style="fill: #87ceeb; stroke: #000000"/>
     <use xlink:href="#medbc3a9491" x="174.774294" y="204.428666" style="fill: #87ceeb; stroke: #000000"/>
     <use xlink:href="#medbc3a9491" x="384.862824" y="206.436336" style="fill: #87ceeb; stroke: #000000"/>
     <use xlink:href="#medbc3a9491" x="426.450721" y="299.58865" style="fill: #87ceeb; stroke: #000000"/>
     <use xlink:href="#medbc3a9491" x="162.821047" y="210.994052" style="fill: #87ceeb; stroke: #000000"/>
     <use xlink:href="#medbc3a9491" x="66.561037" y="250.859888" style="fill: #87ceeb; stroke: #000000"/>
     <use xlink:href="#medbc3a9491" x="34.197905" y="377.745772" style="fill: #87ceeb; stroke: #000000"/>
     <use xlink:href="#medbc3a9491" x="149.674415" y="284.312781" style="fill: #87ceeb; stroke: #000000"/>
     <use xlink:href="#medbc3a9491" x="119.605554" y="356.289526" style="fill: #87ceeb; stroke: #000000"/>
     <use xlink:href="#medbc3a9491" x="231.879928" y="196.368658" style="fill: #87ceeb; stroke: #000000"/>
     <use xlink:href="#medbc3a9491" x="124.057047" y="313.116351" style="fill: #87ceeb; stroke: #000000"/>
     <use xlink:href="#medbc3a9491" x="242.424579" y="241.095534" style="fill: #87ceeb; stroke: #000000"/>
     <use xlink:href="#medbc3a9491" x="369.722846" y="331.819304" style="fill: #87ceeb; stroke: #000000"/>
     <use xlink:href="#medbc3a9491" x="298.134899" y="180.987324" style="fill: #87ceeb; stroke: #000000"/>
     <use xlink:href="#medbc3a9491" x="487.671083" y="382.237817" style="fill: #87ceeb; stroke: #000000"/>
     <use xlink:href="#medbc3a9491" x="240.566956" y="178.994948" style="fill: #87ceeb; stroke: #000000"/>
     <use xlink:href="#medbc3a9491" x="369.466076" y="202.731802" style="fill: #87ceeb; stroke: #000000"/>
     <use xlink:href="#medbc3a9491" x="329.200078" y="232.820041" style="fill: #87ceeb; stroke: #000000"/>
    </g>
   </g>
   <g id="PathCollection_2">
    <defs>
     <path id="m38b3dddb88" d="M -3 3 
L 3 3 
L 3 -3 
L -3 -3 
z
" style="stroke: #000000"/>
    </defs>
    <g clip-path="url(#pa510efefbb)">
     <use xlink:href="#m38b3dddb88" x="520.683975" y="501.349093" style="fill: #fa8072; stroke: #000000"/>
     <use xlink:href="#m38b3dddb88" x="282.323206" y="233.371945" style="fill: #fa8072; stroke: #000000"/>
     <use xlink:href="#m38b3dddb88" x="379.975367" y="441.343709" style="fill: #fa8072; stroke: #000000"/>
     <use xlink:href="#m38b3dddb88" x="481.928733" y="474.239296" style="fill: #fa8072; stroke: #000000"/>
     <use xlink:href="#m38b3dddb88" x="502.86751" y="538.757467" style="fill: #fa8072; stroke: #000000"/>
     <use xlink:href="#m38b3dddb88" x="579.313181" y="257.268059" style="fill: #fa8072; stroke: #000000"/>
     <use xlink:href="#m38b3dddb88" x="442.028747" y="432.932624" style="fill: #fa8072; stroke: #000000"/>
     <use xlink:href="#m38b3dddb88" x="416.913165" y="497.912938" style="fill: #fa8072; stroke: #000000"/>
     <use xlink:href="#m38b3dddb88" x="238.982591" y="352.276283" style="fill: #fa8072; stroke: #000000"/>
     <use xlink:href="#m38b3dddb88" x="561.699817" y="419.925193" style="fill: #fa8072; stroke: #000000"/>
     <use xlink:href="#m38b3dddb88" x="311.683935" y="307.671375" style="fill: #fa8072; stroke: #000000"/>
     <use xlink:href="#m38b3dddb88" x="579.409991" y="385.478848" style="fill: #fa8072; stroke: #000000"/>
     <use xlink:href="#m38b3dddb88" x="358.387969" y="525.795026" style="fill: #fa8072; stroke: #000000"/>
     <use xlink:href="#m38b3dddb88" x="560.194919" y="513.822656" style="fill: #fa8072; stroke: #000000"/>
     <use xlink:href="#m38b3dddb88" x="635.329044" y="452.54187" style="fill: #fa8072; stroke: #000000"/>
     <use xlink:href="#m38b3dddb88" x="284.441606" y="488.216871" style="fill: #fa8072; stroke: #000000"/>
     <use xlink:href="#m38b3dddb88" x="321.963253" y="366.547442" style="fill: #fa8072; stroke: #000000"/>
     <use xlink:href="#m38b3dddb88" x="599.884472" y="285.585078" style="fill: #fa8072; stroke: #000000"/>
     <use xlink:href="#m38b3dddb88" x="526.805393" y="460.858315" style="fill: #fa8072; stroke: #000000"/>
     <use xlink:href="#m38b3dddb88" x="312.599588" y="495.782947" style="fill: #fa8072; stroke: #000000"/>
     <use xlink:href="#m38b3dddb88" x="483.31307" y="379.309409" style="fill: #fa8072; stroke: #000000"/>
     <use xlink:href="#m38b3dddb88" x="313.791267" y="541.802095" style="fill: #fa8072; stroke: #000000"/>
     <use xlink:href="#m38b3dddb88" x="488.401353" y="396.193835" style="fill: #fa8072; stroke: #000000"/>
     <use xlink:href="#m38b3dddb88" x="324.333633" y="386.165225" style="fill: #fa8072; stroke: #000000"/>
     <use xlink:href="#m38b3dddb88" x="533.462057" y="202.209031" style="fill: #fa8072; stroke: #000000"/>
     <use xlink:href="#m38b3dddb88" x="290.652384" y="150.360077" style="fill: #fa8072; stroke: #000000"/>
     <use xlink:href="#m38b3dddb88" x="273.271981" y="259.790442" style="fill: #fa8072; stroke: #000000"/>
     <use xlink:href="#m38b3dddb88" x="379.467787" y="459.983908" style="fill: #fa8072; stroke: #000000"/>
     <use xlink:href="#m38b3dddb88" x="405.971233" y="399.932485" style="fill: #fa8072; stroke: #000000"/>
     <use xlink:href="#m38b3dddb88" x="283.533996" y="378.108862" style="fill: #fa8072; stroke: #000000"/>
     <use xlink:href="#m38b3dddb88" x="677.057043" y="292.939939" style="fill: #fa8072; stroke: #000000"/>
     <use xlink:href="#m38b3dddb88" x="459.417111" y="463.725767" style="fill: #fa8072; stroke: #000000"/>
     <use xlink:href="#m38b3dddb88" x="304.419642" y="478.210074" style="fill: #fa8072; stroke: #000000"/>
     <use xlink:href="#m38b3dddb88" x="561.872298" y="303.339083" style="fill: #fa8072; stroke: #000000"/>
     <use xlink:href="#m38b3dddb88" x="252.797186" y="403.425678" style="fill: #fa8072; stroke: #000000"/>
     <use xlink:href="#m38b3dddb88" x="331.091118" y="497.971871" style="fill: #fa8072; stroke: #000000"/>
     <use xlink:href="#m38b3dddb88" x="587.295005" y="391.948333" style="fill: #fa8072; stroke: #000000"/>
     <use xlink:href="#m38b3dddb88" x="235.585831" y="424.563175" style="fill: #fa8072; stroke: #000000"/>
     <use xlink:href="#m38b3dddb88" x="272.088148" y="491.263981" style="fill: #fa8072; stroke: #000000"/>
     <use xlink:href="#m38b3dddb88" x="521.781556" y="345.753711" style="fill: #fa8072; stroke: #000000"/>
     <use xlink:href="#m38b3dddb88" x="255.922895" y="329.063734" style="fill: #fa8072; stroke: #000000"/>
     <use xlink:href="#m38b3dddb88" x="511.039775" y="383.492836" style="fill: #fa8072; stroke: #000000"/>
     <use xlink:href="#m38b3dddb88" x="473.626117" y="347.685469" style="fill: #fa8072; stroke: #000000"/>
     <use xlink:href="#m38b3dddb88" x="389.921074" y="440.434821" style="fill: #fa8072; stroke: #000000"/>
     <use xlink:href="#m38b3dddb88" x="518.04054" y="397.553336" style="fill: #fa8072; stroke: #000000"/>
     <use xlink:href="#m38b3dddb88" x="472.272363" y="434.226086" style="fill: #fa8072; stroke: #000000"/>
     <use xlink:href="#m38b3dddb88" x="287.637704" y="421.576189" style="fill: #fa8072; stroke: #000000"/>
     <use xlink:href="#m38b3dddb88" x="443.025003" y="501.699408" style="fill: #fa8072; stroke: #000000"/>
     <use xlink:href="#m38b3dddb88" x="550.02534" y="402.323438" style="fill: #fa8072; stroke: #000000"/>
     <use xlink:href="#m38b3dddb88" x="247.109764" y="268.510986" style="fill: #fa8072; stroke: #000000"/>
    </g>
   </g>
   <g id="matplotlib.axis_1">
    <g id="xtick_1">
     <g id="line2d_1">
      <defs>
       <path id="m3fd5dd2734" d="M 0 0 
L 0 3.5 
" style="stroke: #000000; stroke-width: 0.8"/>
      </defs>
      <g>
       <use xlink:href="#m3fd5dd2734" x="106.270766" y="541.802095" style="stroke: #000000; stroke-width: 0.8"/>
      </g>
     </g>
    </g>
    <g id="xtick_2">
     <g id="line2d_2">
      <g>
       <use xlink:href="#m3fd5dd2734" x="183.659754" y="541.802095" style="stroke: #000000; stroke-width: 0.8"/>
      </g>
     </g>
    </g>
    <g id="xtick_3">
     <g id="line2d_3">
      <g>
       <use xlink:href="#m3fd5dd2734" x="261.048742" y="541.802095" style="stroke: #000000; stroke-width: 0.8"/>
      </g>
     </g>
    </g>
    <g id="xtick_4">
     <g id="line2d_4">
      <g>
       <use xlink:href="#m3fd5dd2734" x="338.43773" y="541.802095" style="stroke: #000000; stroke-width: 0.8"/>
      </g>
     </g>
    </g>
    <g id="xtick_5">
     <g id="line2d_5">
      <g>
       <use xlink:href="#m3fd5dd2734" x="415.826718" y="541.802095" style="stroke: #000000; stroke-width: 0.8"/>
      </g>
     </g>
    </g>
    <g id="xtick_6">
     <g id="line2d_6">
      <g>
       <use xlink:href="#m3fd5dd2734" x="493.215706" y="541.802095" style="stroke: #000000; stroke-width: 0.8"/>
      </g>
     </g>
    </g>
    <g id="xtick_7">
     <g id="line2d_7">
      <g>
       <use xlink:href="#m3fd5dd2734" x="570.604694" y="541.802095" style="stroke: #000000; stroke-width: 0.8"/>
      </g>
     </g>
    </g>
    <g id="xtick_8">
     <g id="line2d_8">
      <g>
       <use xlink:href="#m3fd5dd2734" x="647.993682" y="541.802095" style="stroke: #000000; stroke-width: 0.8"/>
      </g>
     </g>
    </g>
    <g id="text_1">
     <!-- $x_1$ -->
     <g transform="translate(365.309955 562.487972) scale(0.14 -0.14)">
      <defs>
       <path id="CMMI12-78" d="M 3034 2606 
C 2829 2567 2752 2414 2752 2293 
C 2752 2139 2874 2088 2963 2088 
C 3155 2088 3290 2254 3290 2427 
C 3290 2695 2982 2816 2714 2816 
C 2323 2816 2106 2433 2048 2312 
C 1901 2816 1504 2816 1389 2816 
C 736 2816 390 1980 390 1839 
C 390 1814 416 1782 461 1782 
C 512 1782 525 1820 538 1846 
C 755 2555 1184 2689 1370 2689 
C 1658 2689 1715 2420 1715 2267 
C 1715 2127 1677 1980 1600 1673 
L 1382 798 
C 1286 415 1101 64 762 64 
C 730 64 570 64 435 147 
C 666 192 717 383 717 460 
C 717 588 621 664 499 664 
C 346 664 179 530 179 326 
C 179 57 480 -64 755 -64 
C 1062 -64 1280 179 1414 441 
C 1517 64 1837 -64 2074 -64 
C 2726 -64 3072 773 3072 913 
C 3072 945 3046 971 3008 971 
C 2950 971 2944 939 2925 888 
C 2752 326 2381 64 2093 64 
C 1869 64 1747 230 1747 492 
C 1747 632 1773 734 1875 1156 
L 2099 2024 
C 2195 2408 2413 2689 2707 2689 
C 2720 2689 2899 2689 3034 2606 
z
" transform="scale(0.015625)"/>
       <path id="CMR17-31" d="M 1702 4058 
C 1702 4192 1696 4192 1606 4192 
C 1357 3916 979 3827 621 3827 
C 602 3827 570 3827 563 3808 
C 557 3795 557 3782 557 3648 
C 755 3648 1088 3686 1344 3839 
L 1344 461 
C 1344 236 1331 160 781 160 
L 589 160 
L 589 0 
C 896 0 1216 0 1523 0 
C 1830 0 2150 0 2458 0 
L 2458 160 
L 2266 160 
C 1715 160 1702 230 1702 458 
L 1702 4058 
z
" transform="scale(0.015625)"/>
      </defs>
      <use xlink:href="#CMMI12-78" transform="scale(0.996264)"/>
      <use xlink:href="#CMR17-31" transform="translate(55.43406 -14.943915) scale(0.697382)"/>
     </g>
    </g>
   </g>
   <g id="matplotlib.axis_2">
    <g id="ytick_1">
     <g id="line2d_9">
      <defs>
       <path id="mf05683f958" d="M 0 0 
L -3.5 0 
" style="stroke: #000000; stroke-width: 0.8"/>
      </defs>
      <g>
       <use xlink:href="#mf05683f958" x="34.197905" y="483.325878" style="stroke: #000000; stroke-width: 0.8"/>
      </g>
     </g>
    </g>
    <g id="ytick_2">
     <g id="line2d_10">
      <g>
       <use xlink:href="#mf05683f958" x="34.197905" y="373.190403" style="stroke: #000000; stroke-width: 0.8"/>
      </g>
     </g>
    </g>
    <g id="ytick_3">
     <g id="line2d_11">
      <g>
       <use xlink:href="#mf05683f958" x="34.197905" y="263.054928" style="stroke: #000000; stroke-width: 0.8"/>
      </g>
     </g>
    </g>
    <g id="ytick_4">
     <g id="line2d_12">
      <g>
       <use xlink:href="#mf05683f958" x="34.197905" y="152.919453" style="stroke: #000000; stroke-width: 0.8"/>
      </g>
     </g>
    </g>
    <g id="ytick_5">
     <g id="line2d_13">
      <g>
       <use xlink:href="#mf05683f958" x="34.197905" y="42.783978" style="stroke: #000000; stroke-width: 0.8"/>
      </g>
     </g>
    </g>
    <g id="text_2">
     <!-- $x_2$ -->
     <g transform="translate(20.485876 289.841135) rotate(-90) scale(0.14 -0.14)">
      <defs>
       <path id="CMR17-32" d="M 2669 989 
L 2554 989 
C 2490 536 2438 459 2413 420 
C 2381 369 1920 369 1830 369 
L 602 369 
C 832 619 1280 1072 1824 1597 
C 2214 1967 2669 2402 2669 3035 
C 2669 3790 2067 4224 1395 4224 
C 691 4224 262 3604 262 3030 
C 262 2780 448 2748 525 2748 
C 589 2748 781 2787 781 3010 
C 781 3207 614 3264 525 3264 
C 486 3264 448 3258 422 3245 
C 544 3790 915 4058 1306 4058 
C 1862 4058 2227 3617 2227 3035 
C 2227 2479 1901 2000 1536 1584 
L 262 146 
L 262 0 
L 2515 0 
L 2669 989 
z
" transform="scale(0.015625)"/>
      </defs>
      <use xlink:href="#CMMI12-78" transform="scale(0.996264)"/>
      <use xlink:href="#CMR17-32" transform="translate(55.43406 -14.943915) scale(0.697382)"/>
     </g>
    </g>
   </g>
   <g id="PathCollection_3">
    <path d="M 251.036672 50.597877 
L 250.887071 50.786742 
L 249.339291 53.071668 
L 247.791512 56.006199 
L 246.408498 59.408715 
L 245.700446 61.611425 
L 244.580852 66.016844 
L 243.811342 70.422263 
L 243.285889 74.827682 
L 242.979536 79.2331 
L 242.850791 83.638519 
L 242.926791 90.246648 
L 243.274413 96.854776 
L 243.854326 103.462905 
L 244.895731 112.273743 
L 246.243732 121.388256 
L 248.501726 134.300838 
L 254.926723 169.54419 
L 255.78271 176.152318 
L 256.216106 180.557737 
L 256.491138 184.963156 
L 256.5875 189.368575 
L 256.48271 193.773994 
L 256.151696 198.179413 
L 255.530411 202.78559 
L 254.766578 206.990251 
L 253.703357 211.39567 
L 252.408567 215.801089 
L 250.887071 220.260602 
L 249.217294 224.611927 
L 247.356459 229.017346 
L 244.27481 235.625475 
L 240.052613 243.835587 
L 238.504833 246.704088 
L 233.861494 254.945035 
L 230.765934 260.240125 
L 225.716208 268.666117 
L 197.506858 314.923017 
L 192.07144 324.334566 
L 185.880321 335.525749 
L 180.513956 345.76095 
L 176.143977 354.571788 
L 171.950303 363.543399 
L 168.16592 372.193464 
L 164.580208 381.004302 
L 161.275078 389.81514 
L 158.257075 398.625978 
L 155.5303 407.436816 
L 153.097445 416.247654 
L 150.961544 425.058492 
L 149.123582 433.86933 
L 147.584876 442.680168 
L 146.627678 449.288296 
L 145.638048 457.869994 
L 145.220879 462.504553 
L 144.772094 469.112682 
L 144.493677 475.72081 
L 144.386352 482.328939 
L 144.451048 488.937067 
L 144.688901 495.545196 
L 145.101245 502.153324 
L 145.689667 508.761453 
L 146.456889 515.369581 
L 147.404436 521.97771 
L 148.733607 529.636587 
L 150.281387 537.152135 
L 151.363908 541.802095 
L 151.363908 541.802095 
" clip-path="url(#pa510efefbb)" style="fill: none; stroke-dasharray: 5.55,2.4; stroke-dashoffset: 0; stroke: #000000; stroke-opacity: 0.75; stroke-width: 1.5"/>
    <path d="M 589.465256 50.597877 
L 585.207499 55.528246 
L 580.382523 61.611425 
L 575.920821 67.683508 
L 571.044167 74.827682 
L 566.634142 81.725237 
L 561.530161 90.246648 
L 557.347464 97.637629 
L 551.887684 107.868324 
L 547.43513 116.679162 
L 543.18092 125.49 
L 538.107581 136.503547 
L 533.260711 147.517095 
L 527.939648 160.13302 
L 521.748529 175.442741 
L 514.598881 193.773994 
L 496.708445 240.030894 
L 491.267911 253.247151 
L 487.449543 262.057989 
L 483.054035 271.65735 
L 479.136927 279.679665 
L 475.315136 287.022792 
L 472.059545 292.895922 
L 467.576238 300.447548 
L 463.947867 306.112179 
L 459.837339 312.094914 
L 456.116712 317.125726 
L 452.09844 322.194261 
L 447.455101 327.598338 
L 442.811761 332.552771 
L 438.168422 337.092643 
L 433.525083 341.228244 
L 428.881744 344.972852 
L 424.238404 348.31447 
L 421.142845 350.317144 
L 417.616589 352.369078 
L 414.951726 353.768144 
L 411.856166 355.196546 
L 408.760607 356.416947 
L 405.665047 357.42487 
L 402.569488 358.205866 
L 399.473928 358.7477 
L 396.378369 359.04646 
L 393.282809 359.093234 
L 390.18725 358.87695 
L 387.09169 358.394891 
L 383.996131 357.634756 
L 380.900571 356.590207 
L 377.805012 355.2708 
L 374.709452 353.666304 
L 371.613893 351.7794 
L 368.518333 349.615617 
L 365.422773 347.179809 
L 361.352166 343.55824 
L 359.080871 341.355531 
L 356.136095 338.297642 
L 352.965697 334.747402 
L 349.306261 330.341983 
L 345.8801 325.936564 
L 342.206077 320.92138 
L 337.562738 314.146215 
L 332.919399 306.906554 
L 328.276059 299.207066 
L 323.442391 290.693212 
L 318.735236 281.882374 
L 314.308754 273.071536 
L 310.156208 264.260698 
L 306.293427 255.44986 
L 303.511583 248.59745 
L 301.106904 242.233603 
L 298.846844 235.625475 
L 296.837325 229.017346 
L 295.14254 222.409218 
L 294.221972 218.003799 
L 293.456385 213.59838 
L 292.899089 209.192961 
L 292.538158 204.787542 
L 292.374804 200.382123 
L 292.415548 195.976704 
L 292.677125 191.220538 
L 293.029297 187.165866 
L 293.863621 180.557737 
L 295.284125 171.746899 
L 298.868244 151.249255 
L 300.053761 143.111676 
L 300.835942 136.503547 
L 301.415871 129.895419 
L 301.770961 123.28729 
L 301.867257 116.679162 
L 301.676747 110.071033 
L 301.177123 103.462905 
L 300.416024 97.312247 
L 299.98296 94.652067 
L 298.868244 89.042386 
L 298.090666 85.841229 
L 296.847804 81.43581 
L 295.376875 77.030391 
L 293.646281 72.624972 
L 291.620706 68.219553 
L 289.581565 64.39801 
L 287.893343 61.611425 
L 286.416623 59.408715 
L 284.784936 57.206006 
L 281.842666 53.753085 
L 280.294887 52.17361 
L 278.575154 50.597877 
L 278.575154 50.597877 
" clip-path="url(#pa510efefbb)" style="fill: none; stroke-dasharray: 5.55,2.4; stroke-dashoffset: 0; stroke: #000000; stroke-opacity: 0.75; stroke-width: 1.5"/>
   </g>
   <g id="PathCollection_4">
    <path d="M 676.526505 73.085437 
L 673.430946 70.121193 
L 670.335386 67.402825 
L 667.239827 64.923945 
L 664.144267 62.679321 
L 661.048708 60.664515 
L 657.953148 58.875914 
L 654.627894 57.206006 
L 651.762029 55.965366 
L 648.66647 54.839584 
L 645.57091 53.930397 
L 642.47535 53.238143 
L 639.379791 52.761699 
L 636.284231 52.499988 
L 633.188672 52.453838 
L 630.093112 52.623447 
L 626.997553 53.008842 
L 623.901993 53.610399 
L 620.806434 54.4298 
L 617.710874 55.46739 
L 614.615315 56.72397 
L 611.519755 58.200555 
L 608.424196 59.898714 
L 605.328636 61.819131 
L 602.233077 63.96275 
L 599.137517 66.330694 
L 596.041958 68.924181 
L 592.036786 72.624972 
L 589.817258 74.827682 
L 585.712213 79.2331 
L 583.65972 81.576482 
L 580.148514 85.841229 
L 575.920821 91.359298 
L 571.277482 97.932245 
L 566.634142 105.039577 
L 561.990803 112.688454 
L 557.240085 121.084581 
L 552.576269 129.895419 
L 548.060785 138.970764 
L 543.035131 149.719804 
L 538.186717 160.733352 
L 533.5945 171.746899 
L 529.216339 182.760447 
L 524.195476 195.976704 
L 518.575371 211.39567 
L 509.273202 237.828184 
L 501.485127 259.855279 
L 496.606341 273.071536 
L 492.308407 284.085084 
L 488.652726 292.895922 
L 484.601815 301.987361 
L 481.506255 308.448036 
L 478.183799 314.923017 
L 474.5228 321.531145 
L 471.904287 325.936564 
L 469.124017 330.344229 
L 466.028458 334.956151 
L 462.932898 339.275201 
L 458.289559 345.276098 
L 453.64622 350.765156 
L 449.00288 355.811599 
L 444.359541 360.461458 
L 439.716202 364.751942 
L 435.072863 368.699689 
L 430.429523 372.301871 
L 425.786184 375.570721 
L 421.142845 378.458828 
L 416.499506 380.9449 
L 413.403946 382.368473 
L 410.308386 383.567496 
L 407.212827 384.545542 
L 404.117267 385.267 
L 401.021708 385.7357 
L 397.926148 385.925363 
L 394.830589 385.818429 
L 391.735029 385.400884 
L 388.63947 384.682457 
L 385.54391 383.631421 
L 382.448351 382.263053 
L 379.352791 380.56677 
L 376.257232 378.556488 
L 373.161672 376.244261 
L 370.066113 373.640839 
L 366.212531 369.990754 
L 363.874994 367.605008 
L 360.062726 363.382626 
L 357.683875 360.597347 
L 352.888964 354.571788 
L 348.397196 348.533681 
L 341.887756 339.152821 
L 337.540815 332.544693 
L 331.371619 322.741262 
L 324.028759 310.517598 
L 317.441601 299.137808 
L 308.154922 282.621597 
L 292.677125 255.235588 
L 288.033785 247.74053 
L 284.173108 242.233603 
L 282.436887 240.030894 
L 281.842666 239.288706 
L 280.294887 237.597214 
L 278.140249 235.625475 
L 277.199327 234.849229 
L 275.651547 233.855275 
L 274.103768 233.126434 
L 272.555988 232.6611 
L 271.008208 232.475721 
L 269.460428 232.558201 
L 267.912649 232.896242 
L 266.364869 233.474382 
L 264.817089 234.241053 
L 262.73471 235.625475 
L 261.72153 236.34784 
L 258.62597 239.035286 
L 253.982631 243.847466 
L 247.791512 251.187448 
L 241.600393 259.134682 
L 227.670375 278.253833 
L 217.585026 292.895922 
L 212.192577 301.004263 
L 204.453678 313.107112 
L 197.987841 323.733855 
L 192.882039 332.544693 
L 188.023877 341.355531 
L 183.429716 350.166369 
L 179.111559 358.977207 
L 175.045863 367.862373 
L 171.343633 376.598883 
L 167.909003 385.409721 
L 165.533732 392.017849 
L 162.638945 400.828687 
L 160.059141 409.639525 
L 158.020286 417.523839 
L 156.472506 424.285296 
L 155.412163 429.463911 
L 154.22299 436.072039 
L 153.214525 442.680168 
L 152.388839 449.288296 
L 151.745355 455.896425 
L 151.286889 462.504553 
L 151.013676 469.112682 
L 150.927712 475.72081 
L 151.031198 482.328939 
L 151.32656 488.937067 
L 151.829167 495.682181 
L 152.506532 502.153324 
L 153.398185 508.761453 
L 154.499949 515.369581 
L 155.816037 521.97771 
L 157.354175 528.585838 
L 159.123132 535.193967 
L 161.132539 541.802095 
L 161.132539 541.802095 
" clip-path="url(#pa510efefbb)" style="fill: none; stroke: #000000; stroke-opacity: 0.75; stroke-width: 1.5"/>
    <path d="M 272.555988 143.415067 
L 274.103768 143.878172 
L 275.651547 143.742772 
L 276.955632 143.111676 
L 277.199327 142.989516 
L 278.747107 141.572245 
L 279.243339 140.908966 
L 280.294887 139.435411 
L 280.690983 138.706257 
L 281.819747 136.503547 
L 281.842666 136.455856 
L 282.68156 134.300838 
L 283.390446 132.320655 
L 283.457493 132.098128 
L 284.066454 129.895419 
L 284.611058 127.692709 
L 284.938226 126.188499 
L 285.069875 125.49 
L 285.42798 123.28729 
L 285.724115 121.084581 
L 285.956565 118.881871 
L 286.123926 116.679162 
L 286.225088 114.476452 
L 286.259223 112.273743 
L 286.225769 110.071033 
L 286.124409 107.868324 
L 285.955058 105.665614 
L 285.717842 103.462905 
L 285.413082 101.260195 
L 285.041277 99.057486 
L 284.938226 98.544308 
L 284.564676 96.854776 
L 284.004917 94.652067 
L 283.390446 92.502553 
L 283.373562 92.449357 
L 282.589855 90.246648 
L 281.842666 88.324818 
L 281.720271 88.043938 
L 280.67192 85.841229 
L 280.294887 85.107269 
L 279.440072 83.638519 
L 278.747107 82.526803 
L 277.963181 81.43581 
L 277.199327 80.438294 
L 276.11113 79.2331 
L 275.651547 78.753328 
L 274.103768 77.435636 
L 273.482172 77.030391 
L 272.555988 76.45895 
L 271.008208 75.808307 
L 269.460428 75.478083 
L 267.912649 75.499702 
L 266.364869 75.910939 
L 264.817089 76.757518 
L 264.491108 77.030391 
L 263.269309 78.20767 
L 262.499053 79.2331 
L 261.72153 80.450295 
L 261.228936 81.43581 
L 260.313819 83.638519 
L 260.17375 84.048631 
L 259.668094 85.841229 
L 259.177057 88.043938 
L 258.805686 90.246648 
L 258.62597 91.732332 
L 258.551517 92.449357 
L 258.402959 94.652067 
L 258.330462 96.854776 
L 258.326986 99.057486 
L 258.386194 101.260195 
L 258.502358 103.462905 
L 258.62597 105.07673 
L 258.675629 105.665614 
L 258.916055 107.868324 
L 259.203476 110.071033 
L 259.533323 112.273743 
L 259.90142 114.476452 
L 260.17375 115.959705 
L 260.320554 116.679162 
L 260.808393 118.881871 
L 261.325991 121.084581 
L 261.72153 122.680497 
L 261.890849 123.28729 
L 262.536723 125.49 
L 263.203905 127.692709 
L 263.269309 127.900636 
L 263.987322 129.895419 
L 264.796689 132.098128 
L 264.817089 132.152189 
L 265.765249 134.300838 
L 266.364869 135.64111 
L 266.830016 136.503547 
L 267.912649 138.487619 
L 268.062986 138.706257 
L 269.460428 140.719467 
L 269.638368 140.908966 
L 271.008208 142.35745 
L 272.110509 143.111676 
L 272.555988 143.415067 
z
" clip-path="url(#pa510efefbb)" style="fill: none; stroke: #000000; stroke-opacity: 0.75; stroke-width: 1.5"/>
   </g>
   <g id="PathCollection_5">
    <path d="M 346.618384 541.802095 
L 346.849416 541.478911 
L 348.216463 539.599386 
L 348.397196 539.346189 
L 349.816204 537.396676 
L 349.944976 537.216198 
L 351.419641 535.193967 
L 351.492756 535.091556 
L 353.028842 532.991257 
L 353.040535 532.974905 
L 354.588315 530.872096 
L 354.651705 530.788548 
L 356.136095 528.783667 
L 356.287406 528.585838 
L 357.683875 526.711837 
L 357.937629 526.383129 
L 359.231654 524.65961 
L 359.605469 524.180419 
L 360.779434 522.630162 
L 361.294389 521.97771 
L 362.327214 520.626901 
L 363.00833 519.775 
L 363.874994 518.653551 
L 364.751848 517.572291 
L 365.422773 516.714258 
L 366.530299 515.369581 
L 366.970553 514.813722 
L 368.350086 513.166872 
L 368.518333 512.957385 
L 370.066113 511.156947 
L 370.245296 510.964162 
L 371.613893 509.420972 
L 372.244486 508.761453 
L 373.161672 507.752197 
L 374.339014 506.558743 
L 374.709452 506.161921 
L 376.257232 504.671644 
L 376.631202 504.356034 
L 377.805012 503.301155 
L 379.247463 502.153324 
L 379.352791 502.063517 
L 380.900571 501.009913 
L 382.448351 500.164729 
L 383.068864 499.950615 
L 383.996131 499.602016 
L 385.54391 499.405466 
L 387.09169 499.70291 
L 387.519543 499.950615 
L 388.63947 500.732586 
L 389.719749 502.153324 
L 390.18725 502.937815 
L 390.770908 504.356034 
L 391.450219 506.558743 
L 391.735029 507.822175 
L 391.902819 508.761453 
L 392.187349 510.964162 
L 392.363723 513.166872 
L 392.44811 515.369581 
L 392.453093 517.572291 
L 392.388654 519.775 
L 392.262839 521.97771 
L 392.082237 524.180419 
L 391.852317 526.383129 
L 391.735029 527.297246 
L 391.567684 528.585838 
L 391.234201 530.788548 
L 390.863521 532.991257 
L 390.458757 535.193967 
L 390.18725 536.542408 
L 390.013597 537.396676 
L 389.525073 539.599386 
L 389.011023 541.802095 
" clip-path="url(#pa510efefbb)" style="fill: none; stroke-dasharray: 5.55,2.4; stroke-dashoffset: 0; stroke: #000000; stroke-opacity: 0.75; stroke-width: 1.5"/>
    <path d="M 676.526505 110.965609 
L 673.430946 106.952935 
L 670.335386 103.272505 
L 666.40335 99.057486 
L 664.144267 96.848352 
L 661.048708 94.078206 
L 657.953148 91.586463 
L 654.857589 89.36509 
L 651.762029 87.406859 
L 648.66647 85.705388 
L 645.57091 84.257262 
L 642.47535 83.056411 
L 639.379791 82.100284 
L 636.284231 81.385374 
L 633.188672 80.911457 
L 630.093112 80.675566 
L 626.997553 80.676919 
L 623.901993 80.914957 
L 620.586764 81.43581 
L 617.710874 82.10151 
L 614.615315 83.050361 
L 611.519755 84.237397 
L 608.081739 85.841229 
L 605.328636 87.330084 
L 602.233077 89.238676 
L 599.137517 91.390875 
L 596.041958 93.788734 
L 592.487262 96.854776 
L 589.850839 99.330413 
L 585.845456 103.462905 
L 583.65972 105.886444 
L 580.149326 110.071033 
L 576.725092 114.476452 
L 573.530767 118.881871 
L 570.530209 123.28729 
L 567.694197 127.692709 
L 563.702571 134.300838 
L 560.443023 140.066708 
L 556.493813 147.517095 
L 552.704124 155.145325 
L 549.072457 162.936061 
L 544.965226 172.320095 
L 540.701403 182.760447 
L 537.226327 191.811573 
L 533.332091 202.584832 
L 529.487428 213.880528 
L 525.354659 226.814637 
L 521.381938 240.030894 
L 517.01938 255.44986 
L 512.332795 273.071536 
L 507.357617 292.895922 
L 501.55276 317.125726 
L 495.436273 342.69435 
L 492.314498 354.571788 
L 490.360375 361.179916 
L 488.891875 365.585335 
L 487.227857 369.990754 
L 485.279235 374.396173 
L 484.159217 376.598883 
L 482.915807 378.801592 
L 481.506255 381.049483 
L 479.958476 383.266047 
L 476.862916 387.104799 
L 474.335538 389.81514 
L 472.072288 392.017849 
L 469.124017 394.701664 
L 464.480678 398.628966 
L 458.289559 403.643679 
L 444.359541 414.859195 
L 436.620642 421.305115 
L 424.491797 431.66662 
L 421.142845 434.534414 
L 414.951726 439.610362 
L 410.308386 443.014349 
L 407.212827 444.913198 
L 405.665047 445.724775 
L 404.117267 446.366505 
L 402.569488 446.819344 
L 401.021708 447.061293 
L 399.473928 447.066723 
L 397.926148 446.80551 
L 396.378369 446.241935 
L 394.830589 445.333253 
L 393.282809 444.131229 
L 391.735029 442.603533 
L 389.907748 440.477458 
L 388.21894 438.274749 
L 386.656904 436.072039 
L 383.996131 432.090242 
L 382.357692 429.463911 
L 376.257232 419.378828 
L 373.130085 414.044944 
L 348.397196 371.441127 
L 333.667371 345.76095 
L 309.447607 303.909469 
L 303.511583 294.158953 
L 298.469283 286.287793 
L 294.224905 280.059365 
L 289.581565 273.843693 
L 286.486006 270.138185 
L 283.390446 266.857845 
L 280.294887 264.062907 
L 277.563427 262.057989 
L 277.199327 261.807094 
L 275.651547 260.891896 
L 273.380082 259.855279 
L 272.555988 259.52921 
L 271.008208 259.072719 
L 269.460428 258.772761 
L 267.912649 258.625635 
L 266.364869 258.627395 
L 264.817089 258.773894 
L 263.269309 259.060834 
L 260.689679 259.855279 
L 260.17375 260.033167 
L 257.07819 261.477854 
L 253.982631 263.349432 
L 250.887071 265.591669 
L 247.230663 268.666117 
L 244.695952 270.990965 
L 240.443954 275.274246 
L 238.381804 277.476955 
L 233.861494 282.583633 
L 228.973363 288.490503 
L 223.806112 295.098631 
L 219.931476 300.271965 
L 213.740357 308.963804 
L 207.549238 318.178594 
L 202.616708 325.936564 
L 198.262559 333.127097 
L 193.540559 341.355531 
L 188.793328 350.166369 
L 184.332542 359.045637 
L 180.265659 367.788045 
L 177.404245 374.396173 
L 174.727929 381.004302 
L 171.950303 388.419459 
L 169.939822 394.220559 
L 167.306964 402.564176 
L 165.759184 407.983191 
L 164.177368 414.044944 
L 162.639408 420.653073 
L 161.115845 428.233106 
L 160.143654 433.86933 
L 159.186678 440.477458 
L 158.426302 447.085587 
L 157.863356 453.693715 
L 157.501573 460.301844 
L 157.341967 466.909972 
L 157.388009 473.518101 
L 157.643377 480.126229 
L 158.112601 486.734358 
L 158.803366 493.342486 
L 159.718746 499.950615 
L 160.870121 506.558743 
L 162.2664 513.166872 
L 163.91879 519.775 
L 165.84207 526.383129 
L 168.057653 532.991257 
L 170.581907 539.599386 
L 171.498949 541.802095 
L 171.498949 541.802095 
" clip-path="url(#pa510efefbb)" style="fill: none; stroke-dasharray: 5.55,2.4; stroke-dashoffset: 0; stroke: #000000; stroke-opacity: 0.75; stroke-width: 1.5"/>
    <path d="M 524.844089 460.50154 
L 523.975708 460.301844 
L 523.296309 460.130965 
L 521.748529 459.640428 
L 520.200749 459.04457 
L 518.65297 458.343032 
L 518.179887 458.099134 
L 517.10519 457.48824 
L 515.55741 456.498251 
L 514.707104 455.896425 
L 514.00963 455.348164 
L 512.461851 454.019791 
L 512.109015 453.693715 
L 510.914071 452.458269 
L 510.03881 451.491006 
L 509.366291 450.652911 
L 508.328919 449.288296 
L 507.818511 448.524646 
L 506.897061 447.085587 
L 506.270732 445.962798 
L 505.687664 444.882877 
L 504.722952 442.811905 
L 504.662981 442.680168 
L 503.805348 440.477458 
L 503.175172 438.548917 
L 503.08646 438.274749 
L 502.500429 436.072039 
L 502.03222 433.86933 
L 501.676007 431.66662 
L 501.627392 431.230016 
L 501.428206 429.463911 
L 501.285357 427.261201 
L 501.247142 425.058492 
L 501.315645 422.855782 
L 501.495632 420.653073 
L 501.627392 419.662699 
L 501.794539 418.450363 
L 502.223465 416.247654 
L 502.800372 414.044944 
L 503.175172 412.912649 
L 503.549199 411.842235 
L 504.503588 409.639525 
L 504.722952 409.216057 
L 505.713908 407.436816 
L 506.270732 406.596853 
L 507.255389 405.234106 
L 507.818511 404.564075 
L 509.246132 403.031397 
L 509.366291 402.918525 
L 510.914071 401.581844 
L 511.902159 400.828687 
L 512.461851 400.448153 
L 514.00963 399.501011 
L 515.55741 398.681885 
L 515.674787 398.625978 
L 517.10519 398.007421 
L 518.65297 397.43381 
L 520.200749 396.95009 
L 521.748529 396.549964 
L 522.346162 396.423268 
L 523.296309 396.237681 
L 524.844089 396.003396 
L 526.391868 395.838685 
L 527.939648 395.741644 
L 529.487428 395.710986 
L 531.035208 395.745934 
L 532.582988 395.846145 
L 534.130767 396.011646 
L 535.678547 396.242785 
L 536.611568 396.423268 
L 537.226327 396.546693 
L 538.774107 396.931886 
L 540.321886 397.389823 
L 541.869666 397.922094 
L 543.417446 398.530518 
L 543.630928 398.625978 
L 544.965226 399.255748 
L 546.513005 400.074064 
L 547.797844 400.828687 
L 548.060785 400.993563 
L 549.608565 402.06988 
L 550.867007 403.031397 
L 551.156345 403.270476 
L 552.704124 404.673296 
L 553.271469 405.234106 
L 554.251904 406.298152 
L 555.216083 407.436816 
L 555.799684 408.205455 
L 556.803034 409.639525 
L 557.347464 410.52452 
L 558.096772 411.842235 
L 558.895243 413.480597 
L 559.15033 414.044944 
L 559.978351 416.247654 
L 560.443023 417.805326 
L 560.621996 418.450363 
L 561.077085 420.653073 
L 561.374704 422.855782 
L 561.518253 425.058492 
L 561.511591 427.261201 
L 561.358948 429.463911 
L 561.064832 431.66662 
L 560.633942 433.86933 
L 560.443023 434.610744 
L 560.048066 436.072039 
L 559.316125 438.274749 
L 558.895243 439.345243 
L 558.42696 440.477458 
L 557.380447 442.680168 
L 557.347464 442.741473 
L 556.132927 444.882877 
L 555.799684 445.411887 
L 554.684871 447.085587 
L 554.251904 447.677331 
L 553.001643 449.288296 
L 552.704124 449.640493 
L 551.156345 451.36037 
L 551.030213 451.491006 
L 549.608565 452.853354 
L 548.666777 453.693715 
L 548.060785 454.197451 
L 546.513005 455.3838 
L 545.782335 455.896425 
L 544.965226 456.433422 
L 543.417446 457.355206 
L 542.028957 458.099134 
L 541.869666 458.179479 
L 540.321886 458.863572 
L 538.774107 459.458244 
L 537.226327 459.961785 
L 535.941758 460.301844 
L 535.678547 460.367706 
L 534.130767 460.66228 
L 532.582988 460.867085 
L 531.035208 460.980819 
L 529.487428 461.002246 
L 527.939648 460.930202 
L 526.391868 460.763619 
L 524.844089 460.50154 
z
" clip-path="url(#pa510efefbb)" style="fill: none; stroke-dasharray: 5.55,2.4; stroke-dashoffset: 0; stroke: #000000; stroke-opacity: 0.75; stroke-width: 1.5"/>
   </g>
   <g id="patch_3">
    <path d="M 34.197905 541.802095 
L 34.197905 25.10218 
" style="fill: none; stroke: #000000; stroke-width: 0.5; stroke-linejoin: miter; stroke-linecap: square"/>
   </g>
   <g id="patch_4">
    <path d="M 34.197905 541.802095 
L 709.2 541.802095 
" style="fill: none; stroke: #000000; stroke-width: 0.5; stroke-linejoin: miter; stroke-linecap: square"/>
   </g>
   <g id="text_3">
    <!-- SVM with an overlearnt RBF kernel. -->
    <g transform="translate(282.70391 19.10218) scale(0.12 -0.12)">
     <defs>
      <path id="CMSS17-53" d="M 2797 4169 
C 2515 4334 2208 4480 1690 4480 
C 864 4480 333 3879 333 3266 
C 333 3025 403 2753 653 2475 
C 902 2196 1184 2121 1542 2033 
C 1690 1994 1939 1924 1984 1906 
C 2342 1767 2515 1444 2515 1140 
C 2515 742 2202 318 1645 318 
C 1453 318 890 318 358 819 
L 269 318 
C 794 -64 1363 -128 1651 -128 
C 2438 -128 3002 488 3002 1186 
C 3002 1440 2925 1763 2656 2061 
C 2394 2347 2163 2410 1638 2549 
C 1338 2626 1146 2677 986 2873 
C 877 3013 819 3146 819 3317 
C 819 3673 1126 4060 1690 4060 
C 1971 4060 2336 4002 2707 3660 
L 2797 4169 
z
" transform="scale(0.015625)"/>
      <path id="CMSS17-56" d="M 3910 4416 
L 3411 4416 
L 2304 1362 
C 2272 1273 2074 688 2035 484 
L 2029 484 
C 1978 726 1773 1292 1664 1604 
L 922 3672 
L 646 4416 
L 83 4416 
L 1715 0 
L 2278 0 
L 3910 4416 
z
" transform="scale(0.015625)"/>
      <path id="CMSS17-4d" d="M 3194 2371 
L 2886 1473 
C 2835 1307 2662 791 2624 587 
L 2618 587 
C 2598 715 2560 849 2458 1174 
C 2400 1365 2336 1562 2272 1741 
L 1325 4416 
L 576 4416 
L 576 0 
L 1075 0 
L 1075 3900 
L 1082 3900 
C 1082 3894 1139 3613 1530 2499 
L 2374 96 
L 2848 96 
L 3610 2231 
C 3661 2378 3821 2843 3891 3066 
C 3955 3257 4115 3728 4154 3913 
L 4160 3913 
L 4160 0 
L 4666 0 
L 4666 4416 
L 3923 4416 
L 3194 2371 
z
" transform="scale(0.015625)"/>
      <path id="CMSS17-77" d="M 4013 2752 
L 3526 2752 
L 3187 1601 
C 3117 1358 2918 685 2893 371 
L 2886 371 
C 2874 564 2765 1024 2586 1633 
L 2259 2752 
L 1818 2752 
L 1498 1658 
C 1338 1101 1216 627 1203 371 
L 1197 371 
C 1171 749 909 1633 870 1773 
L 582 2752 
L 83 2752 
L 915 0 
L 1402 0 
C 1734 1096 1990 1943 2010 2370 
C 2022 2160 2131 1707 2195 1484 
L 2618 0 
L 3181 0 
L 4013 2752 
z
" transform="scale(0.015625)"/>
      <path id="CMSS17-69" d="M 979 4183 
L 442 4183 
L 442 3648 
L 979 3648 
L 979 4183 
z
M 947 2739 
L 474 2739 
L 474 0 
L 947 0 
L 947 2739 
z
" transform="scale(0.015625)"/>
      <path id="CMSS17-74" d="M 1069 2368 
L 1901 2368 
L 1901 2737 
L 1069 2737 
L 1069 3520 
L 614 3520 
L 614 2737 
L 109 2737 
L 109 2368 
L 602 2368 
L 602 749 
C 602 384 685 -64 1107 -64 
C 1427 -64 1722 25 2003 172 
L 1901 548 
C 1747 414 1562 337 1363 337 
C 1082 337 1069 696 1069 856 
L 1069 2368 
z
" transform="scale(0.015625)"/>
      <path id="CMSS17-68" d="M 2618 1891 
C 2618 2292 2522 2820 1798 2820 
C 1395 2820 1133 2623 947 2407 
L 947 4448 
L 474 4448 
L 474 32 
L 960 32 
L 960 1573 
C 960 1973 1114 2432 1549 2432 
C 2112 2432 2131 2056 2131 1839 
L 2131 32 
L 2618 32 
L 2618 1891 
z
" transform="scale(0.015625)"/>
      <path id="CMSS17-61" d="M 2406 1791 
C 2406 2392 1978 2808 1402 2808 
C 1120 2808 813 2757 461 2553 
L 499 2135 
C 659 2248 934 2432 1395 2432 
C 1722 2432 1920 2180 1920 1782 
L 1920 1536 
C 896 1536 256 1238 256 726 
C 256 461 416 -64 947 -64 
C 1043 -64 1562 -64 1933 217 
L 1933 -19 
L 2406 -19 
L 2406 1791 
z
M 1920 816 
C 1920 701 1920 548 1728 434 
C 1562 325 1350 325 1261 325 
C 941 325 723 511 723 744 
C 723 1211 1722 1211 1920 1211 
L 1920 816 
z
" transform="scale(0.015625)"/>
      <path id="CMSS17-6e" d="M 2618 1877 
C 2618 2283 2522 2816 1798 2816 
C 1389 2816 1120 2606 941 2389 
L 941 2758 
L 474 2758 
L 474 0 
L 960 0 
L 960 1559 
C 960 1964 1114 2428 1549 2428 
C 2112 2428 2131 2048 2131 1829 
L 2131 0 
L 2618 0 
L 2618 1877 
z
" transform="scale(0.015625)"/>
      <path id="CMSS17-6f" d="M 2829 1356 
C 2829 2176 2221 2816 1504 2816 
C 768 2816 173 2157 173 1356 
C 173 544 787 -64 1498 -64 
C 2227 -64 2829 563 2829 1356 
z
M 1504 337 
C 1050 337 659 709 659 1408 
C 659 2151 1114 2427 1498 2427 
C 1914 2427 2342 2126 2342 1408 
C 2342 683 1926 337 1504 337 
z
" transform="scale(0.015625)"/>
      <path id="CMSS17-76" d="M 2675 2752 
L 2176 2752 
L 1747 1556 
C 1613 1165 1421 627 1389 352 
L 1382 352 
C 1370 468 1318 634 1286 749 
C 1248 890 1197 1056 1158 1172 
L 595 2752 
L 83 2752 
L 1094 0 
L 1664 0 
L 2675 2752 
z
" transform="scale(0.015625)"/>
      <path id="CMSS17-65" d="M 2502 1377 
C 2502 1590 2490 2003 2285 2345 
C 2061 2713 1696 2816 1421 2816 
C 755 2816 192 2188 192 1375 
C 192 582 774 -64 1510 -64 
C 1798 -64 2150 19 2470 248 
C 2470 274 2458 414 2451 420 
C 2451 433 2432 630 2432 656 
C 2125 407 1773 325 1517 325 
C 1107 325 666 667 646 1377 
L 2502 1377 
z
M 698 1728 
C 781 2084 1062 2421 1421 2421 
C 1517 2421 1965 2421 2080 1728 
L 698 1728 
z
" transform="scale(0.015625)"/>
      <path id="CMSS17-72" d="M 954 1363 
C 954 1965 1395 2368 1958 2368 
L 1958 2789 
C 1549 2789 1165 2585 934 2253 
L 934 2758 
L 480 2758 
L 480 0 
L 954 0 
L 954 1363 
z
" transform="scale(0.015625)"/>
      <path id="CMSS17-6c" d="M 947 4416 
L 474 4416 
L 474 0 
L 947 0 
L 947 4416 
z
" transform="scale(0.015625)"/>
      <path id="CMSS17-52" d="M 2522 2109 
L 2534 2115 
C 3533 2459 3539 3147 3539 3268 
C 3539 3873 2925 4453 2003 4453 
L 570 4453 
L 570 32 
L 1094 32 
L 1094 2048 
L 2035 2048 
L 3168 32 
L 3706 32 
L 2522 2109 
z
M 1094 2437 
L 1094 4096 
L 1933 4096 
C 2746 4096 3034 3637 3034 3267 
C 3034 2922 2778 2437 1933 2437 
L 1094 2437 
z
" transform="scale(0.015625)"/>
      <path id="CMSS17-42" d="M 570 4416 
L 570 0 
L 2163 0 
C 3034 0 3667 574 3667 1200 
C 3667 1685 3251 2176 2502 2317 
C 3334 2558 3501 3040 3501 3313 
C 3501 3883 2874 4416 1997 4416 
L 570 4416 
z
M 1088 2496 
L 1088 4059 
L 1824 4059 
C 2483 4059 3002 3724 3002 3306 
C 3002 2926 2592 2496 1766 2496 
L 1088 2496 
z
M 1088 357 
L 1088 2107 
L 1939 2107 
C 2630 2107 3162 1679 3162 1206 
C 3162 772 2694 357 1984 357 
L 1088 357 
z
" transform="scale(0.015625)"/>
      <path id="CMSS17-46" d="M 2918 1984 
L 2918 2373 
L 1101 2373 
L 1101 3968 
L 1882 3968 
C 1958 3968 2035 3968 2112 3968 
L 3168 3968 
L 3168 4375 
L 563 4375 
L 563 -32 
L 1101 -32 
L 1101 1984 
L 2918 1984 
z
" transform="scale(0.015625)"/>
      <path id="CMSS17-6b" d="M 1696 1688 
L 2688 2739 
L 2074 2739 
L 954 1554 
L 954 4416 
L 480 4416 
L 480 0 
L 947 0 
L 947 892 
L 1376 1344 
L 2278 0 
L 2822 0 
L 1696 1688 
z
" transform="scale(0.015625)"/>
      <path id="CMSS17-2e" d="M 1088 510 
L 576 510 
L 576 0 
L 1088 0 
L 1088 510 
z
" transform="scale(0.015625)"/>
     </defs>
     <use xlink:href="#CMSS17-53" transform="scale(0.996264)"/>
     <use xlink:href="#CMSS17-56" transform="translate(52.048516 0) scale(0.996264)"/>
     <use xlink:href="#CMSS17-4d" transform="translate(114.266371 0) scale(0.996264)"/>
     <use xlink:href="#CMSS17-77" transform="translate(227.171514 0) scale(0.996264)"/>
     <use xlink:href="#CMSS17-69" transform="translate(290.991059 0) scale(0.996264)"/>
     <use xlink:href="#CMSS17-74" transform="translate(313.171782 0) scale(0.996264)"/>
     <use xlink:href="#CMSS17-68" transform="translate(347.003349 0) scale(0.996264)"/>
     <use xlink:href="#CMSS17-61" transform="translate(426.437405 0) scale(0.996264)"/>
     <use xlink:href="#CMSS17-6e" transform="translate(471.359325 0) scale(0.996264)"/>
     <use xlink:href="#CMSS17-6f" transform="translate(550.793381 0) scale(0.996264)"/>
     <use xlink:href="#CMSS17-76" transform="translate(597.637005 0) scale(0.996264)"/>
     <use xlink:href="#CMSS17-65" transform="translate(640.637146 0) scale(0.996264)"/>
     <use xlink:href="#CMSS17-72" transform="translate(682.275968 0) scale(0.996264)"/>
     <use xlink:href="#CMSS17-6c" transform="translate(714.185741 0) scale(0.996264)"/>
     <use xlink:href="#CMSS17-65" transform="translate(736.366464 0) scale(0.996264)"/>
     <use xlink:href="#CMSS17-61" transform="translate(778.005286 0) scale(0.996264)"/>
     <use xlink:href="#CMSS17-72" transform="translate(820.324753 0) scale(0.996264)"/>
     <use xlink:href="#CMSS17-6e" transform="translate(852.234525 0) scale(0.996264)"/>
     <use xlink:href="#CMSS17-74" transform="translate(900.439468 0) scale(0.996264)"/>
     <use xlink:href="#CMSS17-52" transform="translate(965.500148 0) scale(0.996264)"/>
     <use xlink:href="#CMSS17-42" transform="translate(1025.916303 0) scale(0.996264)"/>
     <use xlink:href="#CMSS17-46" transform="translate(1088.254343 0) scale(0.996264)"/>
     <use xlink:href="#CMSS17-6b" transform="translate(1172.773015 0) scale(0.996264)"/>
     <use xlink:href="#CMSS17-65" transform="translate(1215.77305 0) scale(0.996264)"/>
     <use xlink:href="#CMSS17-72" transform="translate(1257.411872 0) scale(0.996264)"/>
     <use xlink:href="#CMSS17-6e" transform="translate(1289.321645 0) scale(0.996264)"/>
     <use xlink:href="#CMSS17-65" transform="translate(1337.526588 0) scale(0.996264)"/>
     <use xlink:href="#CMSS17-6c" transform="translate(1379.16541 0) scale(0.996264)"/>
     <use xlink:href="#CMSS17-2e" transform="translate(1401.346133 0) scale(0.996264)"/>
    </g>
   </g>
   <g id="legend_1">
    <g id="patch_5">
     <path d="M 636.299326 60.976536 
L 702.2 60.976536 
Q 704.2 60.976536 704.2 58.976536 
L 704.2 32.10218 
Q 704.2 30.10218 702.2 30.10218 
L 636.299326 30.10218 
Q 634.299326 30.10218 634.299326 32.10218 
L 634.299326 58.976536 
Q 634.299326 60.976536 636.299326 60.976536 
z
" style="fill: #ffffff; opacity: 0.8; stroke: #cccccc; stroke-linejoin: miter"/>
    </g>
    <g id="PathCollection_6">
     <g>
      <use xlink:href="#medbc3a9491" x="648.299326" y="38.47718" style="fill: #87ceeb; stroke: #000000"/>
     </g>
    </g>
    <g id="text_4">
     <!-- Classe 0 -->
     <g transform="translate(666.299326 41.10218) scale(0.1 -0.1)">
      <defs>
       <path id="CMSS17-43" d="M 3501 714 
C 3072 427 2874 344 2355 344 
C 1459 344 934 1303 934 2179 
C 934 3112 1472 4032 2381 4032 
C 2790 4032 3059 3918 3386 3715 
L 3475 4217 
C 3168 4370 2778 4440 2387 4440 
C 1158 4440 397 3316 397 2179 
C 397 927 1299 -64 2323 -64 
C 2874 -64 3066 -19 3539 280 
L 3501 714 
z
" transform="scale(0.015625)"/>
       <path id="CMSS17-73" d="M 2061 2627 
C 1683 2807 1389 2807 1197 2807 
C 742 2807 198 2648 198 2003 
C 198 1359 902 1218 1094 1179 
C 1389 1122 1715 1058 1715 740 
C 1715 337 1254 337 1171 337 
C 915 337 563 407 243 638 
L 166 210 
C 531 0 883 -64 1178 -64 
C 1965 -64 2163 416 2163 781 
C 2163 1094 1984 1305 1862 1401 
C 1651 1568 1574 1587 1050 1696 
C 960 1709 646 1779 646 2066 
C 646 2432 1050 2432 1139 2432 
C 1555 2432 1811 2303 1984 2208 
L 2061 2627 
z
" transform="scale(0.015625)"/>
       <path id="CMSS17-30" d="M 2758 2044 
C 2758 2405 2752 3077 2490 3596 
C 2227 4096 1805 4229 1504 4229 
C 1069 4229 698 3975 506 3570 
C 301 3146 243 2709 243 2044 
C 243 1589 262 1031 493 543 
C 755 5 1197 -128 1498 -128 
C 1894 -128 2278 81 2496 518 
C 2720 974 2758 1474 2758 2044 
z
M 1498 261 
C 1011 261 864 811 819 995 
C 742 1310 730 1614 730 2114 
C 730 2506 730 2948 851 3297 
C 998 3701 1254 3840 1498 3840 
C 1971 3840 2125 3372 2176 3208 
C 2272 2873 2272 2481 2272 2114 
C 2272 1526 2272 261 1498 261 
z
" transform="scale(0.015625)"/>
      </defs>
      <use xlink:href="#CMSS17-43" transform="scale(0.996264)"/>
      <use xlink:href="#CMSS17-6c" transform="translate(59.855772 0) scale(0.996264)"/>
      <use xlink:href="#CMSS17-61" transform="translate(82.036495 0) scale(0.996264)"/>
      <use xlink:href="#CMSS17-73" transform="translate(126.958415 0) scale(0.996264)"/>
      <use xlink:href="#CMSS17-73" transform="translate(162.871957 0) scale(0.996264)"/>
      <use xlink:href="#CMSS17-65" transform="translate(198.785499 0) scale(0.996264)"/>
      <use xlink:href="#CMSS17-30" transform="translate(271.653434 0) scale(0.996264)"/>
     </g>
    </g>
    <g id="PathCollection_7">
     <g>
      <use xlink:href="#m38b3dddb88" x="648.299326" y="52.414358" style="fill: #fa8072; stroke: #000000"/>
     </g>
    </g>
    <g id="text_5">
     <!-- Classe 1 -->
     <g transform="translate(666.299326 55.039358) scale(0.1 -0.1)">
      <defs>
       <path id="CMSS17-31" d="M 1818 4288 
L 1696 4288 
C 1350 3940 947 3890 538 3890 
L 538 3520 
C 723 3520 1024 3520 1325 3667 
L 1325 369 
L 570 369 
L 570 0 
L 2573 0 
L 2573 369 
L 1818 369 
L 1818 4288 
z
" transform="scale(0.015625)"/>
      </defs>
      <use xlink:href="#CMSS17-43" transform="scale(0.996264)"/>
      <use xlink:href="#CMSS17-6c" transform="translate(59.855772 0) scale(0.996264)"/>
      <use xlink:href="#CMSS17-61" transform="translate(82.036495 0) scale(0.996264)"/>
      <use xlink:href="#CMSS17-73" transform="translate(126.958415 0) scale(0.996264)"/>
      <use xlink:href="#CMSS17-73" transform="translate(162.871957 0) scale(0.996264)"/>
      <use xlink:href="#CMSS17-65" transform="translate(198.785499 0) scale(0.996264)"/>
      <use xlink:href="#CMSS17-31" transform="translate(271.653434 0) scale(0.996264)"/>
     </g>
    </g>
   </g>
  </g>
 </g>
 <defs>
  <clipPath id="pa510efefbb">
   <rect x="34.197905" y="25.10218" width="675.002095" height="516.699915"/>
  </clipPath>
 </defs>
</svg>
