<?xml version="1.0" encoding="UTF-8" standalone="no"?>
<svg
   xmlns:dc="http://purl.org/dc/elements/1.1/"
   xmlns:cc="http://creativecommons.org/ns#"
   xmlns:rdf="http://www.w3.org/1999/02/22-rdf-syntax-ns#"
   xmlns:svg="http://www.w3.org/2000/svg"
   xmlns="http://www.w3.org/2000/svg"
   xmlns:sodipodi="http://sodipodi.sourceforge.net/DTD/sodipodi-0.dtd"
   xmlns:inkscape="http://www.inkscape.org/namespaces/inkscape"
   width="715.77618"
   height="631.05426"
   version="1.1"
   id="svg16"
   sodipodi:docname="danger.svg"
   inkscape:version="0.92.2 (5c3e80d, 2017-08-06)">
  <metadata
     id="metadata22">
    <rdf:RDF>
      <cc:Work
         rdf:about="">
        <dc:format>image/svg+xml</dc:format>
        <dc:type
           rdf:resource="http://purl.org/dc/dcmitype/StillImage" />
        <dc:title>danger</dc:title>
      </cc:Work>
    </rdf:RDF>
  </metadata>
  <defs
     id="defs20" />
  <sodipodi:namedview
     pagecolor="#ffffff"
     bordercolor="#666666"
     borderopacity="1"
     objecttolerance="10"
     gridtolerance="10"
     guidetolerance="10"
     inkscape:pageopacity="0"
     inkscape:pageshadow="2"
     inkscape:window-width="1920"
     inkscape:window-height="1025"
     id="namedview18"
     showgrid="false"
     fit-margin-top="0"
     fit-margin-left="0"
     fit-margin-right="0"
     fit-margin-bottom="0"
     inkscape:zoom="0.21024131"
     inkscape:cx="874.18166"
     inkscape:cy="147.95218"
     inkscape:window-x="0"
     inkscape:window-y="27"
     inkscape:window-maximized="1"
     inkscape:current-layer="svg16" />
  <title
     id="title2">danger</title>
  <path
     style="fill:none;fill-rule:evenodd;stroke:#000000;stroke-width:12.5;stroke-linecap:round;stroke-miterlimit:4"
     inkscape:connector-curvature="0"
     d="M 357.99005,6.28029 C 349.22363,6.711297 341.28323,11.561471 336.89196,19.160951 227.83062,208.07736 118.76928,396.99377 9.7079288,585.91018 c -4.6182,7.99433 -4.6142,17.83991 0,25.83698 4.6143002,7.99701 13.1261002,12.92853 22.3584402,12.93103 217.215241,0.0421 434.430451,0.084 651.645691,0.12604 9.2107,-0.005 17.71344,-4.91223 22.33319,-12.88062 4.61976,-7.96844 4.64777,-17.79065 0.0756,-25.78656 C 597.96701,397.17865 489.81311,208.22021 381.65921,19.261781 376.83377,10.825761 367.69726,5.809869 357.99005,6.28029 Z"
     id="path1825"
     stroke-miterlimit="4" />
  <path
     style="fill:#ffcc00;fill-rule:evenodd;stroke:#000000;stroke-width:29.4439621;stroke-linecap:round;stroke-linejoin:round;stroke-miterlimit:4"
     inkscape:connector-curvature="0"
     d="M 359.25036,33.150715 C 250.49386,221.53912 141.73033,409.92352 32.973809,598.31192 c 216.610261,0.0419 433.220551,0.0842 649.830781,0.12604 C 574.9504,410.00317 467.10543,221.58697 359.25036,33.150715 Z"
     id="path1937"
     stroke-miterlimit="4" />
  <path
     stroke-miterlimit="4"
     id="path3656"
     d="m 406.31446,508.11532 a 43.386286,43.386286 0 1 1 -86.77254,0 43.386286,43.386286 0 1 1 86.77254,0 z"
     inkscape:connector-curvature="0"
     style="fill:#030303;fill-rule:nonzero;stroke:#000000;stroke-width:0;stroke-linecap:round;stroke-linejoin:round;stroke-miterlimit:4" />
  <path
     stroke-miterlimit="4"
     id="path4355"
     d="m 358.13555,162.5756 c -24.45339,0.36726 -43.98818,20.47169 -43.65268,44.92552 l 6.94277,185.95059 c 0.59637,15.97313 3.54263,28.53467 17.34761,36.59197 13.80492,8.05732 26.25032,8.05732 40.05533,0 13.80491,-8.0573 16.75124,-20.61884 17.34758,-36.59197 l 6.94277,-185.95059 c 0.16431,-11.97467 -4.52409,-23.50621 -12.99779,-31.96893 -8.47361,-8.46272 -20.01111,-13.13631 -31.98559,-12.95659 z"
     inkscape:connector-curvature="0"
     style="fill:#000000;fill-rule:evenodd;stroke-width:88.63606262;stroke-linecap:round;stroke-miterlimit:4" />
</svg>
