<?xml version="1.0" encoding="utf-8" standalone="no"?>
<!DOCTYPE svg PUBLIC "-//W3C//DTD SVG 1.1//EN"
  "http://www.w3.org/Graphics/SVG/1.1/DTD/svg11.dtd">
<svg xmlns:xlink="http://www.w3.org/1999/xlink" width="460.8pt" height="345.6pt" viewBox="0 0 460.8 345.6" xmlns="http://www.w3.org/2000/svg" version="1.1">
 <metadata>
  <rdf:RDF xmlns:dc="http://purl.org/dc/elements/1.1/" xmlns:cc="http://creativecommons.org/ns#" xmlns:rdf="http://www.w3.org/1999/02/22-rdf-syntax-ns#">
   <cc:Work>
    <dc:type rdf:resource="http://purl.org/dc/dcmitype/StillImage"/>
    <dc:date>2022-12-08T14:53:53.303765</dc:date>
    <dc:format>image/svg+xml</dc:format>
    <dc:creator>
     <cc:Agent>
      <dc:title>Matplotlib v3.6.2, https://matplotlib.org/</dc:title>
     </cc:Agent>
    </dc:creator>
   </cc:Work>
  </rdf:RDF>
 </metadata>
 <defs>
  <style type="text/css">*{stroke-linejoin: round; stroke-linecap: butt}</style>
 </defs>
 <g id="figure_1">
  <g id="patch_1">
   <path d="M 0 345.6 
L 460.8 345.6 
L 460.8 0 
L 0 0 
z
" style="fill: #ffffff"/>
  </g>
  <g id="axes_1">
   <g id="patch_2">
    <path d="M 267.295818 285.807192 
Q 284.510158 262.948806 302.397082 239.197318 
" style="fill: none; stroke: #000000; stroke-linecap: round"/>
    <path d="M 271.068256 283.930265 
L 267.295818 285.807192 
L 268.057739 281.663086 
" style="fill: none; stroke: #000000; stroke-linecap: round"/>
   </g>
   <g id="text_1">
    <g id="patch_3">
     <path d="M 238.366283 316.003196 
L 271.233717 316.003196 
L 271.233717 288.796804 
L 238.366283 288.796804 
z
" style="fill: #e58139; stroke: #000000; stroke-linejoin: miter"/>
    </g>
    <!-- 2 -->
    <g transform="translate(251.802683 299.724644) scale(0.094218 -0.094218)">
     <defs>
      <path id="DejaVuSans-32" d="M 1228 531 
L 3431 531 
L 3431 0 
L 469 0 
L 469 531 
Q 828 903 1448 1529 
Q 2069 2156 2228 2338 
Q 2531 2678 2651 2914 
Q 2772 3150 2772 3378 
Q 2772 3750 2511 3984 
Q 2250 4219 1831 4219 
Q 1534 4219 1204 4116 
Q 875 4013 500 3803 
L 500 4441 
Q 881 4594 1212 4672 
Q 1544 4750 1819 4750 
Q 2544 4750 2975 4387 
Q 3406 4025 3406 3419 
Q 3406 3131 3298 2873 
Q 3191 2616 2906 2266 
Q 2828 2175 2409 1742 
Q 1991 1309 1228 531 
z
" transform="scale(0.015625)"/>
     </defs>
     <use xlink:href="#DejaVuSans-32"/>
    </g>
    <!-- [2, 0] -->
    <g transform="translate(242.135011 310.275023) scale(0.094218 -0.094218)">
     <defs>
      <path id="DejaVuSans-5b" d="M 550 4863 
L 1875 4863 
L 1875 4416 
L 1125 4416 
L 1125 -397 
L 1875 -397 
L 1875 -844 
L 550 -844 
L 550 4863 
z
" transform="scale(0.015625)"/>
      <path id="DejaVuSans-2c" d="M 750 794 
L 1409 794 
L 1409 256 
L 897 -744 
L 494 -744 
L 750 256 
L 750 794 
z
" transform="scale(0.015625)"/>
      <path id="DejaVuSans-20" transform="scale(0.015625)"/>
      <path id="DejaVuSans-30" d="M 2034 4250 
Q 1547 4250 1301 3770 
Q 1056 3291 1056 2328 
Q 1056 1369 1301 889 
Q 1547 409 2034 409 
Q 2525 409 2770 889 
Q 3016 1369 3016 2328 
Q 3016 3291 2770 3770 
Q 2525 4250 2034 4250 
z
M 2034 4750 
Q 2819 4750 3233 4129 
Q 3647 3509 3647 2328 
Q 3647 1150 3233 529 
Q 2819 -91 2034 -91 
Q 1250 -91 836 529 
Q 422 1150 422 2328 
Q 422 3509 836 4129 
Q 1250 4750 2034 4750 
z
" transform="scale(0.015625)"/>
      <path id="DejaVuSans-5d" d="M 1947 4863 
L 1947 -844 
L 622 -844 
L 622 -397 
L 1369 -397 
L 1369 4416 
L 622 4416 
L 622 4863 
L 1947 4863 
z
" transform="scale(0.015625)"/>
     </defs>
     <use xlink:href="#DejaVuSans-5b"/>
     <use xlink:href="#DejaVuSans-32" x="39.013672"/>
     <use xlink:href="#DejaVuSans-2c" x="102.636719"/>
     <use xlink:href="#DejaVuSans-20" x="134.423828"/>
     <use xlink:href="#DejaVuSans-30" x="166.210938"/>
     <use xlink:href="#DejaVuSans-5d" x="229.833984"/>
    </g>
   </g>
   <g id="patch_4">
    <path d="M 339.904182 285.807192 
Q 322.689842 262.948806 304.802918 239.197318 
" style="fill: none; stroke: #000000; stroke-linecap: round"/>
    <path d="M 339.142261 281.663086 
L 339.904182 285.807192 
L 336.131744 283.930265 
" style="fill: none; stroke: #000000; stroke-linecap: round"/>
   </g>
   <g id="text_2">
    <g id="patch_5">
     <path d="M 335.966283 316.003196 
L 368.833717 316.003196 
L 368.833717 288.796804 
L 335.966283 288.796804 
z
" style="fill: #399de5; stroke: #000000; stroke-linejoin: miter"/>
    </g>
    <!-- 6 -->
    <g transform="translate(349.402683 299.724644) scale(0.094218 -0.094218)">
     <defs>
      <path id="DejaVuSans-36" d="M 2113 2584 
Q 1688 2584 1439 2293 
Q 1191 2003 1191 1497 
Q 1191 994 1439 701 
Q 1688 409 2113 409 
Q 2538 409 2786 701 
Q 3034 994 3034 1497 
Q 3034 2003 2786 2293 
Q 2538 2584 2113 2584 
z
M 3366 4563 
L 3366 3988 
Q 3128 4100 2886 4159 
Q 2644 4219 2406 4219 
Q 1781 4219 1451 3797 
Q 1122 3375 1075 2522 
Q 1259 2794 1537 2939 
Q 1816 3084 2150 3084 
Q 2853 3084 3261 2657 
Q 3669 2231 3669 1497 
Q 3669 778 3244 343 
Q 2819 -91 2113 -91 
Q 1303 -91 875 529 
Q 447 1150 447 2328 
Q 447 3434 972 4092 
Q 1497 4750 2381 4750 
Q 2619 4750 2861 4703 
Q 3103 4656 3366 4563 
z
" transform="scale(0.015625)"/>
     </defs>
     <use xlink:href="#DejaVuSans-36"/>
    </g>
    <!-- [0, 6] -->
    <g transform="translate(339.735011 310.275023) scale(0.094218 -0.094218)">
     <use xlink:href="#DejaVuSans-5b"/>
     <use xlink:href="#DejaVuSans-30" x="39.013672"/>
     <use xlink:href="#DejaVuSans-2c" x="102.636719"/>
     <use xlink:href="#DejaVuSans-20" x="134.423828"/>
     <use xlink:href="#DejaVuSans-36" x="166.210938"/>
     <use xlink:href="#DejaVuSans-5d" x="229.833984"/>
    </g>
   </g>
   <g id="patch_6">
    <path d="M 320.069053 215.731257 
Q 335.296944 195.510616 351.197418 174.396872 
" style="fill: none; stroke: #000000; stroke-linecap: round"/>
    <path d="M 323.841491 213.85433 
L 320.069053 215.731257 
L 320.830974 211.587151 
" style="fill: none; stroke: #000000; stroke-linecap: round"/>
   </g>
   <g id="text_3">
    <g id="patch_7">
     <path d="M 265.55498 256.478385 
L 341.64502 256.478385 
L 341.64502 218.721615 
L 265.55498 218.721615 
z
" style="fill: #7bbeee; stroke: #000000; stroke-linejoin: miter"/>
    </g>
    <!-- X[1] &lt;= 0.538 -->
    <g transform="translate(269.323709 229.649455) scale(0.094218 -0.094218)">
     <defs>
      <path id="DejaVuSans-58" d="M 403 4666 
L 1081 4666 
L 2241 2931 
L 3406 4666 
L 4084 4666 
L 2584 2425 
L 4184 0 
L 3506 0 
L 2194 1984 
L 872 0 
L 191 0 
L 1856 2491 
L 403 4666 
z
" transform="scale(0.015625)"/>
      <path id="DejaVuSans-31" d="M 794 531 
L 1825 531 
L 1825 4091 
L 703 3866 
L 703 4441 
L 1819 4666 
L 2450 4666 
L 2450 531 
L 3481 531 
L 3481 0 
L 794 0 
L 794 531 
z
" transform="scale(0.015625)"/>
      <path id="DejaVuSans-3c" d="M 4684 3150 
L 1459 2003 
L 4684 863 
L 4684 294 
L 678 1747 
L 678 2266 
L 4684 3719 
L 4684 3150 
z
" transform="scale(0.015625)"/>
      <path id="DejaVuSans-3d" d="M 678 2906 
L 4684 2906 
L 4684 2381 
L 678 2381 
L 678 2906 
z
M 678 1631 
L 4684 1631 
L 4684 1100 
L 678 1100 
L 678 1631 
z
" transform="scale(0.015625)"/>
      <path id="DejaVuSans-2e" d="M 684 794 
L 1344 794 
L 1344 0 
L 684 0 
L 684 794 
z
" transform="scale(0.015625)"/>
      <path id="DejaVuSans-35" d="M 691 4666 
L 3169 4666 
L 3169 4134 
L 1269 4134 
L 1269 2991 
Q 1406 3038 1543 3061 
Q 1681 3084 1819 3084 
Q 2600 3084 3056 2656 
Q 3513 2228 3513 1497 
Q 3513 744 3044 326 
Q 2575 -91 1722 -91 
Q 1428 -91 1123 -41 
Q 819 9 494 109 
L 494 744 
Q 775 591 1075 516 
Q 1375 441 1709 441 
Q 2250 441 2565 725 
Q 2881 1009 2881 1497 
Q 2881 1984 2565 2268 
Q 2250 2553 1709 2553 
Q 1456 2553 1204 2497 
Q 953 2441 691 2322 
L 691 4666 
z
" transform="scale(0.015625)"/>
      <path id="DejaVuSans-33" d="M 2597 2516 
Q 3050 2419 3304 2112 
Q 3559 1806 3559 1356 
Q 3559 666 3084 287 
Q 2609 -91 1734 -91 
Q 1441 -91 1130 -33 
Q 819 25 488 141 
L 488 750 
Q 750 597 1062 519 
Q 1375 441 1716 441 
Q 2309 441 2620 675 
Q 2931 909 2931 1356 
Q 2931 1769 2642 2001 
Q 2353 2234 1838 2234 
L 1294 2234 
L 1294 2753 
L 1863 2753 
Q 2328 2753 2575 2939 
Q 2822 3125 2822 3475 
Q 2822 3834 2567 4026 
Q 2313 4219 1838 4219 
Q 1578 4219 1281 4162 
Q 984 4106 628 3988 
L 628 4550 
Q 988 4650 1302 4700 
Q 1616 4750 1894 4750 
Q 2613 4750 3031 4423 
Q 3450 4097 3450 3541 
Q 3450 3153 3228 2886 
Q 3006 2619 2597 2516 
z
" transform="scale(0.015625)"/>
      <path id="DejaVuSans-38" d="M 2034 2216 
Q 1584 2216 1326 1975 
Q 1069 1734 1069 1313 
Q 1069 891 1326 650 
Q 1584 409 2034 409 
Q 2484 409 2743 651 
Q 3003 894 3003 1313 
Q 3003 1734 2745 1975 
Q 2488 2216 2034 2216 
z
M 1403 2484 
Q 997 2584 770 2862 
Q 544 3141 544 3541 
Q 544 4100 942 4425 
Q 1341 4750 2034 4750 
Q 2731 4750 3128 4425 
Q 3525 4100 3525 3541 
Q 3525 3141 3298 2862 
Q 3072 2584 2669 2484 
Q 3125 2378 3379 2068 
Q 3634 1759 3634 1313 
Q 3634 634 3220 271 
Q 2806 -91 2034 -91 
Q 1263 -91 848 271 
Q 434 634 434 1313 
Q 434 1759 690 2068 
Q 947 2378 1403 2484 
z
M 1172 3481 
Q 1172 3119 1398 2916 
Q 1625 2713 2034 2713 
Q 2441 2713 2670 2916 
Q 2900 3119 2900 3481 
Q 2900 3844 2670 4047 
Q 2441 4250 2034 4250 
Q 1625 4250 1398 4047 
Q 1172 3844 1172 3481 
z
" transform="scale(0.015625)"/>
     </defs>
     <use xlink:href="#DejaVuSans-58"/>
     <use xlink:href="#DejaVuSans-5b" x="68.505859"/>
     <use xlink:href="#DejaVuSans-31" x="107.519531"/>
     <use xlink:href="#DejaVuSans-5d" x="171.142578"/>
     <use xlink:href="#DejaVuSans-20" x="210.15625"/>
     <use xlink:href="#DejaVuSans-3c" x="241.943359"/>
     <use xlink:href="#DejaVuSans-3d" x="325.732422"/>
     <use xlink:href="#DejaVuSans-20" x="409.521484"/>
     <use xlink:href="#DejaVuSans-30" x="441.308594"/>
     <use xlink:href="#DejaVuSans-2e" x="504.931641"/>
     <use xlink:href="#DejaVuSans-35" x="536.71875"/>
     <use xlink:href="#DejaVuSans-33" x="600.341797"/>
     <use xlink:href="#DejaVuSans-38" x="663.964844"/>
    </g>
    <!-- 8 -->
    <g transform="translate(300.602683 240.199834) scale(0.094218 -0.094218)">
     <use xlink:href="#DejaVuSans-38"/>
    </g>
    <!-- [2, 6] -->
    <g transform="translate(290.935011 250.750213) scale(0.094218 -0.094218)">
     <use xlink:href="#DejaVuSans-5b"/>
     <use xlink:href="#DejaVuSans-32" x="39.013672"/>
     <use xlink:href="#DejaVuSans-2c" x="102.636719"/>
     <use xlink:href="#DejaVuSans-20" x="134.423828"/>
     <use xlink:href="#DejaVuSans-36" x="166.210938"/>
     <use xlink:href="#DejaVuSans-5d" x="229.833984"/>
    </g>
   </g>
   <g id="patch_8">
    <path d="M 388.704182 221.007192 
Q 371.489842 198.148806 353.602918 174.397318 
" style="fill: none; stroke: #000000; stroke-linecap: round"/>
    <path d="M 387.942261 216.863086 
L 388.704182 221.007192 
L 384.931744 219.130265 
" style="fill: none; stroke: #000000; stroke-linecap: round"/>
   </g>
   <g id="text_4">
    <g id="patch_9">
     <path d="M 381.768966 251.203196 
L 420.631034 251.203196 
L 420.631034 223.996804 
L 381.768966 223.996804 
z
" style="fill: #399de5; stroke: #000000; stroke-linejoin: miter"/>
    </g>
    <!-- 43 -->
    <g transform="translate(395.205366 234.924644) scale(0.094218 -0.094218)">
     <defs>
      <path id="DejaVuSans-34" d="M 2419 4116 
L 825 1625 
L 2419 1625 
L 2419 4116 
z
M 2253 4666 
L 3047 4666 
L 3047 1625 
L 3713 1625 
L 3713 1100 
L 3047 1100 
L 3047 0 
L 2419 0 
L 2419 1100 
L 313 1100 
L 313 1709 
L 2253 4666 
z
" transform="scale(0.015625)"/>
     </defs>
     <use xlink:href="#DejaVuSans-34"/>
     <use xlink:href="#DejaVuSans-33" x="63.623047"/>
    </g>
    <!-- [0, 43] -->
    <g transform="translate(385.537694 245.475023) scale(0.094218 -0.094218)">
     <use xlink:href="#DejaVuSans-5b"/>
     <use xlink:href="#DejaVuSans-30" x="39.013672"/>
     <use xlink:href="#DejaVuSans-2c" x="102.636719"/>
     <use xlink:href="#DejaVuSans-20" x="134.423828"/>
     <use xlink:href="#DejaVuSans-34" x="166.210938"/>
     <use xlink:href="#DejaVuSans-33" x="229.833984"/>
     <use xlink:href="#DejaVuSans-5d" x="293.457031"/>
    </g>
   </g>
   <g id="patch_10">
    <path d="M 72.095818 156.207192 
Q 89.310158 133.348806 107.197082 109.597318 
" style="fill: none; stroke: #000000; stroke-linecap: round"/>
    <path d="M 75.868256 154.330265 
L 72.095818 156.207192 
L 72.857739 152.063086 
" style="fill: none; stroke: #000000; stroke-linecap: round"/>
   </g>
   <g id="text_5">
    <g id="patch_11">
     <path d="M 40.168966 186.403196 
L 79.031034 186.403196 
L 79.031034 159.196804 
L 40.168966 159.196804 
z
" style="fill: #e58139; stroke: #000000; stroke-linejoin: miter"/>
    </g>
    <!-- 44 -->
    <g transform="translate(53.605366 170.124644) scale(0.094218 -0.094218)">
     <use xlink:href="#DejaVuSans-34"/>
     <use xlink:href="#DejaVuSans-34" x="63.623047"/>
    </g>
    <!-- [44, 0] -->
    <g transform="translate(43.937694 180.675023) scale(0.094218 -0.094218)">
     <use xlink:href="#DejaVuSans-5b"/>
     <use xlink:href="#DejaVuSans-34" x="39.013672"/>
     <use xlink:href="#DejaVuSans-34" x="102.636719"/>
     <use xlink:href="#DejaVuSans-2c" x="166.259766"/>
     <use xlink:href="#DejaVuSans-20" x="198.046875"/>
     <use xlink:href="#DejaVuSans-30" x="229.833984"/>
     <use xlink:href="#DejaVuSans-5d" x="293.457031"/>
    </g>
   </g>
   <g id="patch_12">
    <path d="M 144.704182 156.207192 
Q 127.489842 133.348806 109.602918 109.597318 
" style="fill: none; stroke: #000000; stroke-linecap: round"/>
    <path d="M 143.942261 152.063086 
L 144.704182 156.207192 
L 140.931744 154.330265 
" style="fill: none; stroke: #000000; stroke-linecap: round"/>
   </g>
   <g id="text_6">
    <g id="patch_13">
     <path d="M 140.766283 186.403196 
L 173.633717 186.403196 
L 173.633717 159.196804 
L 140.766283 159.196804 
z
" style="fill: #399de5; stroke: #000000; stroke-linejoin: miter"/>
    </g>
    <!-- 1 -->
    <g transform="translate(154.202683 170.124644) scale(0.094218 -0.094218)">
     <use xlink:href="#DejaVuSans-31"/>
    </g>
    <!-- [0, 1] -->
    <g transform="translate(144.535011 180.675023) scale(0.094218 -0.094218)">
     <use xlink:href="#DejaVuSans-5b"/>
     <use xlink:href="#DejaVuSans-30" x="39.013672"/>
     <use xlink:href="#DejaVuSans-2c" x="102.636719"/>
     <use xlink:href="#DejaVuSans-20" x="134.423828"/>
     <use xlink:href="#DejaVuSans-31" x="166.210938"/>
     <use xlink:href="#DejaVuSans-5d" x="229.833984"/>
    </g>
   </g>
   <g id="patch_14">
    <path d="M 267.295818 156.207192 
Q 284.510158 133.348806 302.397082 109.597318 
" style="fill: none; stroke: #000000; stroke-linecap: round"/>
    <path d="M 271.068256 154.330265 
L 267.295818 156.207192 
L 268.057739 152.063086 
" style="fill: none; stroke: #000000; stroke-linecap: round"/>
   </g>
   <g id="text_7">
    <g id="patch_15">
     <path d="M 238.366283 186.403196 
L 271.233717 186.403196 
L 271.233717 159.196804 
L 238.366283 159.196804 
z
" style="fill: #e58139; stroke: #000000; stroke-linejoin: miter"/>
    </g>
    <!-- 4 -->
    <g transform="translate(251.802683 170.124644) scale(0.094218 -0.094218)">
     <use xlink:href="#DejaVuSans-34"/>
    </g>
    <!-- [4, 0] -->
    <g transform="translate(242.135011 180.675023) scale(0.094218 -0.094218)">
     <use xlink:href="#DejaVuSans-5b"/>
     <use xlink:href="#DejaVuSans-34" x="39.013672"/>
     <use xlink:href="#DejaVuSans-2c" x="102.636719"/>
     <use xlink:href="#DejaVuSans-20" x="134.423828"/>
     <use xlink:href="#DejaVuSans-30" x="166.210938"/>
     <use xlink:href="#DejaVuSans-5d" x="229.833984"/>
    </g>
   </g>
   <g id="patch_16">
    <path d="M 335.930947 150.931257 
Q 320.703056 130.710616 304.802582 109.596872 
" style="fill: none; stroke: #000000; stroke-linecap: round"/>
    <path d="M 335.169026 146.787151 
L 335.930947 150.931257 
L 332.158509 149.05433 
" style="fill: none; stroke: #000000; stroke-linecap: round"/>
   </g>
   <g id="text_8">
    <g id="patch_17">
     <path d="M 314.35498 191.678385 
L 390.44502 191.678385 
L 390.44502 153.921615 
L 314.35498 153.921615 
z
" style="fill: #41a1e6; stroke: #000000; stroke-linejoin: miter"/>
    </g>
    <!-- X[0] &lt;= 0.161 -->
    <g transform="translate(318.123709 164.849455) scale(0.094218 -0.094218)">
     <use xlink:href="#DejaVuSans-58"/>
     <use xlink:href="#DejaVuSans-5b" x="68.505859"/>
     <use xlink:href="#DejaVuSans-30" x="107.519531"/>
     <use xlink:href="#DejaVuSans-5d" x="171.142578"/>
     <use xlink:href="#DejaVuSans-20" x="210.15625"/>
     <use xlink:href="#DejaVuSans-3c" x="241.943359"/>
     <use xlink:href="#DejaVuSans-3d" x="325.732422"/>
     <use xlink:href="#DejaVuSans-20" x="409.521484"/>
     <use xlink:href="#DejaVuSans-30" x="441.308594"/>
     <use xlink:href="#DejaVuSans-2e" x="504.931641"/>
     <use xlink:href="#DejaVuSans-31" x="536.71875"/>
     <use xlink:href="#DejaVuSans-36" x="600.341797"/>
     <use xlink:href="#DejaVuSans-31" x="663.964844"/>
    </g>
    <!-- 51 -->
    <g transform="translate(346.405366 175.399834) scale(0.094218 -0.094218)">
     <use xlink:href="#DejaVuSans-35"/>
     <use xlink:href="#DejaVuSans-31" x="63.623047"/>
    </g>
    <!-- [2, 49] -->
    <g transform="translate(336.737694 185.950213) scale(0.094218 -0.094218)">
     <defs>
      <path id="DejaVuSans-39" d="M 703 97 
L 703 672 
Q 941 559 1184 500 
Q 1428 441 1663 441 
Q 2288 441 2617 861 
Q 2947 1281 2994 2138 
Q 2813 1869 2534 1725 
Q 2256 1581 1919 1581 
Q 1219 1581 811 2004 
Q 403 2428 403 3163 
Q 403 3881 828 4315 
Q 1253 4750 1959 4750 
Q 2769 4750 3195 4129 
Q 3622 3509 3622 2328 
Q 3622 1225 3098 567 
Q 2575 -91 1691 -91 
Q 1453 -91 1209 -44 
Q 966 3 703 97 
z
M 1959 2075 
Q 2384 2075 2632 2365 
Q 2881 2656 2881 3163 
Q 2881 3666 2632 3958 
Q 2384 4250 1959 4250 
Q 1534 4250 1286 3958 
Q 1038 3666 1038 3163 
Q 1038 2656 1286 2365 
Q 1534 2075 1959 2075 
z
" transform="scale(0.015625)"/>
     </defs>
     <use xlink:href="#DejaVuSans-5b"/>
     <use xlink:href="#DejaVuSans-32" x="39.013672"/>
     <use xlink:href="#DejaVuSans-2c" x="102.636719"/>
     <use xlink:href="#DejaVuSans-20" x="134.423828"/>
     <use xlink:href="#DejaVuSans-34" x="166.210938"/>
     <use xlink:href="#DejaVuSans-39" x="229.833984"/>
     <use xlink:href="#DejaVuSans-5d" x="293.457031"/>
    </g>
   </g>
   <g id="patch_18">
    <path d="M 140.186072 86.896132 
Q 171.794225 65.910392 204.33381 44.306241 
" style="fill: none; stroke: #000000; stroke-linecap: round"/>
    <path d="M 144.368083 86.381423 
L 140.186072 86.896132 
L 142.283512 83.241698 
" style="fill: none; stroke: #000000; stroke-linecap: round"/>
   </g>
   <g id="text_9">
    <g id="patch_19">
     <path d="M 70.35498 126.878385 
L 146.44502 126.878385 
L 146.44502 89.121615 
L 70.35498 89.121615 
z
" style="fill: #e6843d; stroke: #000000; stroke-linejoin: miter"/>
    </g>
    <!-- X[1] &lt;= 1.005 -->
    <g transform="translate(74.123709 100.049455) scale(0.094218 -0.094218)">
     <use xlink:href="#DejaVuSans-58"/>
     <use xlink:href="#DejaVuSans-5b" x="68.505859"/>
     <use xlink:href="#DejaVuSans-31" x="107.519531"/>
     <use xlink:href="#DejaVuSans-5d" x="171.142578"/>
     <use xlink:href="#DejaVuSans-20" x="210.15625"/>
     <use xlink:href="#DejaVuSans-3c" x="241.943359"/>
     <use xlink:href="#DejaVuSans-3d" x="325.732422"/>
     <use xlink:href="#DejaVuSans-20" x="409.521484"/>
     <use xlink:href="#DejaVuSans-31" x="441.308594"/>
     <use xlink:href="#DejaVuSans-2e" x="504.931641"/>
     <use xlink:href="#DejaVuSans-30" x="536.71875"/>
     <use xlink:href="#DejaVuSans-30" x="600.341797"/>
     <use xlink:href="#DejaVuSans-35" x="663.964844"/>
    </g>
    <!-- 45 -->
    <g transform="translate(102.405366 110.599834) scale(0.094218 -0.094218)">
     <use xlink:href="#DejaVuSans-34"/>
     <use xlink:href="#DejaVuSans-35" x="63.623047"/>
    </g>
    <!-- [44, 1] -->
    <g transform="translate(92.737694 121.150213) scale(0.094218 -0.094218)">
     <use xlink:href="#DejaVuSans-5b"/>
     <use xlink:href="#DejaVuSans-34" x="39.013672"/>
     <use xlink:href="#DejaVuSans-34" x="102.636719"/>
     <use xlink:href="#DejaVuSans-2c" x="166.259766"/>
     <use xlink:href="#DejaVuSans-20" x="198.046875"/>
     <use xlink:href="#DejaVuSans-31" x="229.833984"/>
     <use xlink:href="#DejaVuSans-5d" x="293.457031"/>
    </g>
   </g>
   <g id="patch_20">
    <path d="M 271.813928 86.896132 
Q 240.205775 65.910392 207.66619 44.306241 
" style="fill: none; stroke: #000000; stroke-linecap: round"/>
    <path d="M 269.716488 83.241698 
L 271.813928 86.896132 
L 267.631917 86.381423 
" style="fill: none; stroke: #000000; stroke-linecap: round"/>
   </g>
   <g id="text_10">
    <g id="patch_21">
     <path d="M 263.855372 126.878385 
L 343.344628 126.878385 
L 343.344628 89.121615 
L 263.855372 89.121615 
z
" style="fill: #51a9e8; stroke: #000000; stroke-linejoin: miter"/>
    </g>
    <!-- X[1] &lt;= -0.684 -->
    <g transform="translate(267.624101 100.049455) scale(0.094218 -0.094218)">
     <defs>
      <path id="DejaVuSans-2d" d="M 313 2009 
L 1997 2009 
L 1997 1497 
L 313 1497 
L 313 2009 
z
" transform="scale(0.015625)"/>
     </defs>
     <use xlink:href="#DejaVuSans-58"/>
     <use xlink:href="#DejaVuSans-5b" x="68.505859"/>
     <use xlink:href="#DejaVuSans-31" x="107.519531"/>
     <use xlink:href="#DejaVuSans-5d" x="171.142578"/>
     <use xlink:href="#DejaVuSans-20" x="210.15625"/>
     <use xlink:href="#DejaVuSans-3c" x="241.943359"/>
     <use xlink:href="#DejaVuSans-3d" x="325.732422"/>
     <use xlink:href="#DejaVuSans-20" x="409.521484"/>
     <use xlink:href="#DejaVuSans-2d" x="441.308594"/>
     <use xlink:href="#DejaVuSans-30" x="477.392578"/>
     <use xlink:href="#DejaVuSans-2e" x="541.015625"/>
     <use xlink:href="#DejaVuSans-36" x="572.802734"/>
     <use xlink:href="#DejaVuSans-38" x="636.425781"/>
     <use xlink:href="#DejaVuSans-34" x="700.048828"/>
    </g>
    <!-- 55 -->
    <g transform="translate(297.605366 110.599834) scale(0.094218 -0.094218)">
     <use xlink:href="#DejaVuSans-35"/>
     <use xlink:href="#DejaVuSans-35" x="63.623047"/>
    </g>
    <!-- [6, 49] -->
    <g transform="translate(287.937694 121.150213) scale(0.094218 -0.094218)">
     <use xlink:href="#DejaVuSans-5b"/>
     <use xlink:href="#DejaVuSans-36" x="39.013672"/>
     <use xlink:href="#DejaVuSans-2c" x="102.636719"/>
     <use xlink:href="#DejaVuSans-20" x="134.423828"/>
     <use xlink:href="#DejaVuSans-34" x="166.210938"/>
     <use xlink:href="#DejaVuSans-39" x="229.833984"/>
     <use xlink:href="#DejaVuSans-5d" x="293.457031"/>
    </g>
   </g>
   <g id="patch_22">
    <path d="M 206 43.2 
Q 206 43.2 206 43.2 
" style="fill: none; stroke: #000000; stroke-linecap: round"/>
   </g>
   <g id="text_11">
    <g id="patch_23">
     <path d="M 166.255372 62.078385 
L 245.744628 62.078385 
L 245.744628 24.321615 
L 166.255372 24.321615 
z
" style="fill: #ffffff; stroke: #000000; stroke-linejoin: miter"/>
    </g>
    <!-- X[0] &lt;= -0.032 -->
    <g transform="translate(170.024101 35.249455) scale(0.094218 -0.094218)">
     <use xlink:href="#DejaVuSans-58"/>
     <use xlink:href="#DejaVuSans-5b" x="68.505859"/>
     <use xlink:href="#DejaVuSans-30" x="107.519531"/>
     <use xlink:href="#DejaVuSans-5d" x="171.142578"/>
     <use xlink:href="#DejaVuSans-20" x="210.15625"/>
     <use xlink:href="#DejaVuSans-3c" x="241.943359"/>
     <use xlink:href="#DejaVuSans-3d" x="325.732422"/>
     <use xlink:href="#DejaVuSans-20" x="409.521484"/>
     <use xlink:href="#DejaVuSans-2d" x="441.308594"/>
     <use xlink:href="#DejaVuSans-30" x="477.392578"/>
     <use xlink:href="#DejaVuSans-2e" x="541.015625"/>
     <use xlink:href="#DejaVuSans-30" x="572.802734"/>
     <use xlink:href="#DejaVuSans-33" x="636.425781"/>
     <use xlink:href="#DejaVuSans-32" x="700.048828"/>
    </g>
    <!-- 100 -->
    <g transform="translate(197.008049 45.799834) scale(0.094218 -0.094218)">
     <use xlink:href="#DejaVuSans-31"/>
     <use xlink:href="#DejaVuSans-30" x="63.623047"/>
     <use xlink:href="#DejaVuSans-30" x="127.246094"/>
    </g>
    <!-- [50, 50] -->
    <g transform="translate(187.340378 56.350213) scale(0.094218 -0.094218)">
     <use xlink:href="#DejaVuSans-5b"/>
     <use xlink:href="#DejaVuSans-35" x="39.013672"/>
     <use xlink:href="#DejaVuSans-30" x="102.636719"/>
     <use xlink:href="#DejaVuSans-2c" x="166.259766"/>
     <use xlink:href="#DejaVuSans-20" x="198.046875"/>
     <use xlink:href="#DejaVuSans-35" x="229.833984"/>
     <use xlink:href="#DejaVuSans-30" x="293.457031"/>
     <use xlink:href="#DejaVuSans-5d" x="357.080078"/>
    </g>
   </g>
  </g>
 </g>
</svg>
