<?xml version="1.0" encoding="utf-8" standalone="no"?>
<!DOCTYPE svg PUBLIC "-//W3C//DTD SVG 1.1//EN"
  "http://www.w3.org/Graphics/SVG/1.1/DTD/svg11.dtd">
<svg xmlns:xlink="http://www.w3.org/1999/xlink" width="460.8pt" height="345.6pt" viewBox="0 0 460.8 345.6" xmlns="http://www.w3.org/2000/svg" version="1.1">
 <metadata>
  <rdf:RDF xmlns:dc="http://purl.org/dc/elements/1.1/" xmlns:cc="http://creativecommons.org/ns#" xmlns:rdf="http://www.w3.org/1999/02/22-rdf-syntax-ns#">
   <cc:Work>
    <dc:type rdf:resource="http://purl.org/dc/dcmitype/StillImage"/>
    <dc:date>2022-12-08T14:53:30.647000</dc:date>
    <dc:format>image/svg+xml</dc:format>
    <dc:creator>
     <cc:Agent>
      <dc:title>Matplotlib v3.6.2, https://matplotlib.org/</dc:title>
     </cc:Agent>
    </dc:creator>
   </cc:Work>
  </rdf:RDF>
 </metadata>
 <defs>
  <style type="text/css">*{stroke-linejoin: round; stroke-linecap: butt}</style>
 </defs>
 <g id="figure_1">
  <g id="patch_1">
   <path d="M 0 345.6 
L 460.8 345.6 
L 460.8 0 
L 0 0 
z
" style="fill: #ffffff"/>
  </g>
  <g id="axes_1">
   <g id="patch_2">
    <path d="M 32.56 317.72 
L 450 317.72 
L 450 10.8 
L 32.56 10.8 
z
" style="fill: #ffffff"/>
   </g>
   <g id="PathCollection_1">
    <path d="M 36.776566 317.72 
L 40.993131 317.72 
L 45.209697 317.72 
L 49.426263 317.72 
L 53.642828 317.72 
L 57.859394 317.72 
L 62.07596 317.72 
L 66.292525 317.72 
L 70.509091 317.72 
L 74.725657 317.72 
L 78.942222 317.72 
L 83.158788 317.72 
L 87.375354 317.72 
L 91.591919 317.72 
L 95.808485 317.72 
L 100.025051 317.72 
L 104.241616 317.72 
L 108.458182 317.72 
L 112.674747 317.72 
L 116.891313 317.72 
L 121.107879 317.72 
L 125.324444 317.72 
L 129.54101 317.72 
L 133.757576 317.72 
L 137.974141 317.72 
L 142.190707 317.72 
L 146.407273 317.72 
L 150.623838 317.72 
L 154.840404 317.72 
L 159.05697 317.72 
L 163.273535 317.72 
L 167.490101 317.72 
L 171.706667 317.72 
L 175.923232 317.72 
L 180.139798 317.72 
L 184.356364 317.72 
L 188.572929 317.72 
L 192.789495 317.72 
L 197.006061 317.72 
L 201.222626 317.72 
L 205.439192 317.72 
L 209.655758 317.72 
L 213.872323 317.72 
L 218.088889 317.72 
L 222.305455 317.72 
L 226.52202 317.72 
L 230.738586 317.72 
L 234.955152 317.72 
L 239.171717 317.72 
L 243.388283 317.72 
L 247.604848 317.72 
L 251.821414 317.72 
L 256.03798 317.72 
L 260.254545 317.72 
L 264.471111 317.72 
L 268.687677 317.72 
L 272.904242 317.72 
L 277.120808 317.72 
L 281.337374 317.72 
L 285.553939 317.72 
L 289.770505 317.72 
L 293.987071 317.72 
L 298.203636 317.72 
L 302.420202 317.72 
L 306.636768 317.72 
L 310.853333 317.72 
L 315.069899 317.72 
L 319.286465 317.72 
L 323.50303 317.72 
L 327.719596 317.72 
L 331.936162 317.72 
L 336.152727 317.72 
L 340.369293 317.72 
L 344.585859 317.72 
L 348.802424 317.72 
L 353.01899 317.72 
L 357.235556 317.72 
L 361.452121 317.72 
L 365.668687 317.72 
L 369.885253 317.72 
L 374.101818 317.72 
L 378.318384 317.72 
L 382.534949 317.72 
L 386.751515 317.72 
L 390.968081 317.72 
L 395.184646 317.72 
L 399.401212 317.72 
L 403.617778 317.72 
L 407.834343 317.72 
L 412.050909 317.72 
L 416.267475 317.72 
L 420.48404 317.72 
L 424.700606 317.72 
L 428.917172 317.72 
L 433.133737 317.72 
L 437.350303 317.72 
L 441.566869 317.72 
L 445.783434 317.72 
L 450 317.72 
L 450 314.619798 
L 450 311.519596 
L 450 308.419394 
L 450 305.319192 
L 450 302.21899 
L 450 299.118788 
L 450 296.018586 
L 450 292.918384 
L 450 289.818182 
L 450 286.71798 
L 450 283.617778 
L 450 280.517576 
L 450 277.417374 
L 450 274.317172 
L 450 271.21697 
L 450 268.116768 
L 450 265.016566 
L 450 261.916364 
L 450 258.816162 
L 450 255.71596 
L 450 252.615758 
L 450 249.515556 
L 450 246.415354 
L 450 243.315152 
L 450 240.214949 
L 450 237.114747 
L 450 234.014545 
L 450 230.914343 
L 450 227.814141 
L 450 224.713939 
L 450 221.613737 
L 450 218.513535 
L 450 215.413333 
L 450 212.313131 
L 450 209.212929 
L 450 206.112727 
L 450 203.012525 
L 450 199.912323 
L 450 196.812121 
L 450 196.347091 
L 445.783434 196.347091 
L 441.566869 196.347091 
L 437.350303 196.347091 
L 433.133737 196.347091 
L 428.917172 196.347091 
L 424.700606 196.347091 
L 420.48404 196.347091 
L 416.267475 196.347091 
L 412.050909 196.347091 
L 407.834343 196.347091 
L 403.617778 196.347091 
L 399.401212 196.347091 
L 395.184646 196.347091 
L 390.968081 196.347091 
L 386.751515 196.347091 
L 382.534949 196.347091 
L 378.318384 196.347091 
L 374.101818 196.347091 
L 369.885253 196.347091 
L 365.668687 196.347091 
L 361.452121 196.347091 
L 357.235556 196.347091 
L 353.01899 196.347091 
L 348.802424 196.347091 
L 344.585859 196.347091 
L 340.369293 196.347091 
L 336.152727 196.347091 
L 331.936162 196.347091 
L 327.719596 196.347091 
L 323.50303 196.347091 
L 319.286465 196.347091 
L 315.069899 196.347091 
L 310.853333 196.347091 
L 306.636768 196.347091 
L 302.420202 196.347091 
L 298.203636 196.347091 
L 293.987071 196.347091 
L 289.770505 196.347091 
L 285.553939 196.347091 
L 281.337374 196.347091 
L 277.120808 196.347091 
L 272.904242 196.347091 
L 268.687677 196.347091 
L 264.471111 196.347091 
L 260.254545 196.347091 
L 256.03798 196.347091 
L 252.453899 193.711919 
L 252.453899 190.611717 
L 252.453899 187.511515 
L 252.453899 184.411313 
L 252.453899 181.311111 
L 252.453899 178.210909 
L 252.453899 175.110707 
L 252.453899 172.010505 
L 252.453899 168.910303 
L 252.453899 165.810101 
L 252.453899 162.709899 
L 252.453899 159.609697 
L 252.453899 156.509495 
L 252.453899 153.409293 
L 252.453899 150.309091 
L 252.453899 147.208889 
L 252.453899 144.108687 
L 252.453899 141.008485 
L 251.821414 140.543455 
L 247.604848 140.543455 
L 243.388283 140.543455 
L 239.804202 137.908283 
L 239.804202 134.808081 
L 239.804202 131.707879 
L 239.804202 128.607677 
L 239.804202 125.507475 
L 239.804202 122.407273 
L 239.804202 119.307071 
L 239.171717 118.84204 
L 234.955152 118.84204 
L 230.738586 118.84204 
L 226.52202 118.84204 
L 222.305455 118.84204 
L 218.088889 118.84204 
L 213.872323 118.84204 
L 209.655758 118.84204 
L 205.439192 118.84204 
L 201.222626 118.84204 
L 197.006061 118.84204 
L 192.789495 118.84204 
L 188.572929 118.84204 
L 184.356364 118.84204 
L 180.139798 118.84204 
L 175.923232 118.84204 
L 171.706667 118.84204 
L 167.490101 118.84204 
L 163.273535 118.84204 
L 159.05697 118.84204 
L 154.840404 118.84204 
L 150.623838 118.84204 
L 146.407273 118.84204 
L 142.190707 118.84204 
L 137.974141 118.84204 
L 133.757576 118.84204 
L 129.54101 118.84204 
L 125.324444 118.84204 
L 121.107879 118.84204 
L 116.891313 118.84204 
L 112.674747 118.84204 
L 108.458182 118.84204 
L 104.241616 118.84204 
L 100.025051 118.84204 
L 95.808485 118.84204 
L 91.591919 118.84204 
L 87.375354 118.84204 
L 83.158788 118.84204 
L 78.942222 118.84204 
L 74.725657 118.84204 
L 70.509091 118.84204 
L 66.292525 118.84204 
L 62.07596 118.84204 
L 57.859394 118.84204 
L 53.642828 118.84204 
L 49.426263 118.84204 
L 45.209697 118.84204 
L 40.993131 118.84204 
L 36.776566 118.84204 
L 32.56 118.84204 
L 32.56 119.307071 
L 32.56 122.407273 
L 32.56 125.507475 
L 32.56 128.607677 
L 32.56 131.707879 
L 32.56 134.808081 
L 32.56 137.908283 
L 32.56 141.008485 
L 32.56 144.108687 
L 32.56 147.208889 
L 32.56 150.309091 
L 32.56 153.409293 
L 32.56 156.509495 
L 32.56 159.609697 
L 32.56 162.709899 
L 32.56 165.810101 
L 32.56 168.910303 
L 32.56 172.010505 
L 32.56 175.110707 
L 32.56 178.210909 
L 32.56 181.311111 
L 32.56 184.411313 
L 32.56 187.511515 
L 32.56 190.611717 
L 32.56 193.711919 
L 32.56 196.812121 
L 32.56 199.912323 
L 32.56 203.012525 
L 32.56 206.112727 
L 32.56 209.212929 
L 32.56 212.313131 
L 32.56 215.413333 
L 32.56 218.513535 
L 32.56 221.613737 
L 32.56 224.713939 
L 32.56 227.814141 
L 32.56 230.914343 
L 32.56 234.014545 
L 32.56 237.114747 
L 32.56 240.214949 
L 32.56 243.315152 
L 32.56 246.415354 
L 32.56 249.515556 
L 32.56 252.615758 
L 32.56 255.71596 
L 32.56 258.816162 
L 32.56 261.916364 
L 32.56 265.016566 
L 32.56 268.116768 
L 32.56 271.21697 
L 32.56 274.317172 
L 32.56 277.417374 
L 32.56 280.517576 
L 32.56 283.617778 
L 32.56 286.71798 
L 32.56 289.818182 
L 32.56 292.918384 
L 32.56 296.018586 
L 32.56 299.118788 
L 32.56 302.21899 
L 32.56 305.319192 
L 32.56 308.419394 
L 32.56 311.519596 
L 32.56 314.619798 
L 32.56 317.72 
z
" clip-path="url(#p84d0432ca6)" style="fill: #2ca02c; fill-opacity: 0.33"/>
   </g>
   <g id="PathCollection_2">
    <path d="M 256.03798 196.347091 
L 260.254545 196.347091 
L 264.471111 196.347091 
L 268.687677 196.347091 
L 272.904242 196.347091 
L 277.120808 196.347091 
L 281.337374 196.347091 
L 285.553939 196.347091 
L 289.770505 196.347091 
L 293.987071 196.347091 
L 298.203636 196.347091 
L 302.420202 196.347091 
L 306.636768 196.347091 
L 310.853333 196.347091 
L 315.069899 196.347091 
L 319.286465 196.347091 
L 323.50303 196.347091 
L 327.719596 196.347091 
L 331.936162 196.347091 
L 336.152727 196.347091 
L 340.369293 196.347091 
L 344.585859 196.347091 
L 348.802424 196.347091 
L 353.01899 196.347091 
L 357.235556 196.347091 
L 361.452121 196.347091 
L 365.668687 196.347091 
L 369.885253 196.347091 
L 374.101818 196.347091 
L 378.318384 196.347091 
L 382.534949 196.347091 
L 386.751515 196.347091 
L 390.968081 196.347091 
L 395.184646 196.347091 
L 399.401212 196.347091 
L 403.617778 196.347091 
L 407.834343 196.347091 
L 412.050909 196.347091 
L 416.267475 196.347091 
L 420.48404 196.347091 
L 424.700606 196.347091 
L 428.917172 196.347091 
L 433.133737 196.347091 
L 437.350303 196.347091 
L 441.566869 196.347091 
L 445.783434 196.347091 
L 450 196.347091 
L 450 195.882061 
L 445.783434 195.882061 
L 441.566869 195.882061 
L 437.350303 195.882061 
L 433.133737 195.882061 
L 428.917172 195.882061 
L 424.700606 195.882061 
L 420.48404 195.882061 
L 416.267475 195.882061 
L 412.050909 195.882061 
L 407.834343 195.882061 
L 403.617778 195.882061 
L 399.401212 195.882061 
L 395.184646 195.882061 
L 390.968081 195.882061 
L 386.751515 195.882061 
L 382.534949 195.882061 
L 378.318384 195.882061 
L 374.101818 195.882061 
L 369.885253 195.882061 
L 365.668687 195.882061 
L 361.452121 195.882061 
L 357.235556 195.882061 
L 353.01899 195.882061 
L 348.802424 195.882061 
L 344.585859 195.882061 
L 340.369293 195.882061 
L 336.152727 195.882061 
L 331.936162 195.882061 
L 327.719596 195.882061 
L 323.50303 195.882061 
L 319.286465 195.882061 
L 315.069899 195.882061 
L 310.853333 195.882061 
L 306.636768 195.882061 
L 302.420202 195.882061 
L 298.203636 195.882061 
L 293.987071 195.882061 
L 289.770505 195.882061 
L 285.553939 195.882061 
L 281.337374 195.882061 
L 277.120808 195.882061 
L 272.904242 195.882061 
L 268.687677 195.882061 
L 264.471111 195.882061 
L 260.254545 195.882061 
L 256.03798 195.882061 
L 253.086384 193.711919 
L 253.086384 190.611717 
L 253.086384 187.511515 
L 253.086384 184.411313 
L 253.086384 181.311111 
L 253.086384 178.210909 
L 253.086384 175.110707 
L 253.086384 172.010505 
L 253.086384 168.910303 
L 253.086384 165.810101 
L 253.086384 162.709899 
L 253.086384 159.609697 
L 253.086384 156.509495 
L 253.086384 153.409293 
L 253.086384 150.309091 
L 253.086384 147.208889 
L 253.086384 144.108687 
L 253.086384 141.008485 
L 251.821414 140.078424 
L 247.604848 140.078424 
L 243.388283 140.078424 
L 240.436687 137.908283 
L 240.436687 134.808081 
L 240.436687 131.707879 
L 240.436687 128.607677 
L 240.436687 125.507475 
L 240.436687 122.407273 
L 240.436687 119.307071 
L 239.171717 118.37701 
L 234.955152 118.37701 
L 230.738586 118.37701 
L 226.52202 118.37701 
L 222.305455 118.37701 
L 218.088889 118.37701 
L 213.872323 118.37701 
L 209.655758 118.37701 
L 205.439192 118.37701 
L 201.222626 118.37701 
L 197.006061 118.37701 
L 192.789495 118.37701 
L 188.572929 118.37701 
L 184.356364 118.37701 
L 180.139798 118.37701 
L 175.923232 118.37701 
L 171.706667 118.37701 
L 167.490101 118.37701 
L 163.273535 118.37701 
L 159.05697 118.37701 
L 154.840404 118.37701 
L 150.623838 118.37701 
L 146.407273 118.37701 
L 142.190707 118.37701 
L 137.974141 118.37701 
L 133.757576 118.37701 
L 129.54101 118.37701 
L 125.324444 118.37701 
L 121.107879 118.37701 
L 116.891313 118.37701 
L 112.674747 118.37701 
L 108.458182 118.37701 
L 104.241616 118.37701 
L 100.025051 118.37701 
L 95.808485 118.37701 
L 91.591919 118.37701 
L 87.375354 118.37701 
L 83.158788 118.37701 
L 78.942222 118.37701 
L 74.725657 118.37701 
L 70.509091 118.37701 
L 66.292525 118.37701 
L 62.07596 118.37701 
L 57.859394 118.37701 
L 53.642828 118.37701 
L 49.426263 118.37701 
L 45.209697 118.37701 
L 40.993131 118.37701 
L 36.776566 118.37701 
L 32.56 118.37701 
L 32.56 118.84204 
L 36.776566 118.84204 
L 40.993131 118.84204 
L 45.209697 118.84204 
L 49.426263 118.84204 
L 53.642828 118.84204 
L 57.859394 118.84204 
L 62.07596 118.84204 
L 66.292525 118.84204 
L 70.509091 118.84204 
L 74.725657 118.84204 
L 78.942222 118.84204 
L 83.158788 118.84204 
L 87.375354 118.84204 
L 91.591919 118.84204 
L 95.808485 118.84204 
L 100.025051 118.84204 
L 104.241616 118.84204 
L 108.458182 118.84204 
L 112.674747 118.84204 
L 116.891313 118.84204 
L 121.107879 118.84204 
L 125.324444 118.84204 
L 129.54101 118.84204 
L 133.757576 118.84204 
L 137.974141 118.84204 
L 142.190707 118.84204 
L 146.407273 118.84204 
L 150.623838 118.84204 
L 154.840404 118.84204 
L 159.05697 118.84204 
L 163.273535 118.84204 
L 167.490101 118.84204 
L 171.706667 118.84204 
L 175.923232 118.84204 
L 180.139798 118.84204 
L 184.356364 118.84204 
L 188.572929 118.84204 
L 192.789495 118.84204 
L 197.006061 118.84204 
L 201.222626 118.84204 
L 205.439192 118.84204 
L 209.655758 118.84204 
L 213.872323 118.84204 
L 218.088889 118.84204 
L 222.305455 118.84204 
L 226.52202 118.84204 
L 230.738586 118.84204 
L 234.955152 118.84204 
L 239.171717 118.84204 
L 239.804202 119.307071 
L 239.804202 122.407273 
L 239.804202 125.507475 
L 239.804202 128.607677 
L 239.804202 131.707879 
L 239.804202 134.808081 
L 239.804202 137.908283 
L 243.388283 140.543455 
L 247.604848 140.543455 
L 251.821414 140.543455 
L 252.453899 141.008485 
L 252.453899 144.108687 
L 252.453899 147.208889 
L 252.453899 150.309091 
L 252.453899 153.409293 
L 252.453899 156.509495 
L 252.453899 159.609697 
L 252.453899 162.709899 
L 252.453899 165.810101 
L 252.453899 168.910303 
L 252.453899 172.010505 
L 252.453899 175.110707 
L 252.453899 178.210909 
L 252.453899 181.311111 
L 252.453899 184.411313 
L 252.453899 187.511515 
L 252.453899 190.611717 
L 252.453899 193.711919 
z
" clip-path="url(#p84d0432ca6)" style="fill: #2ca02c; fill-opacity: 0.33"/>
   </g>
   <g id="PathCollection_3">
    <path d="M 256.03798 195.882061 
L 260.254545 195.882061 
L 264.471111 195.882061 
L 268.687677 195.882061 
L 272.904242 195.882061 
L 277.120808 195.882061 
L 281.337374 195.882061 
L 285.553939 195.882061 
L 289.770505 195.882061 
L 293.987071 195.882061 
L 298.203636 195.882061 
L 302.420202 195.882061 
L 306.636768 195.882061 
L 310.853333 195.882061 
L 315.069899 195.882061 
L 319.286465 195.882061 
L 323.50303 195.882061 
L 327.719596 195.882061 
L 331.936162 195.882061 
L 336.152727 195.882061 
L 340.369293 195.882061 
L 344.585859 195.882061 
L 348.802424 195.882061 
L 353.01899 195.882061 
L 357.235556 195.882061 
L 361.452121 195.882061 
L 365.668687 195.882061 
L 369.885253 195.882061 
L 374.101818 195.882061 
L 378.318384 195.882061 
L 382.534949 195.882061 
L 386.751515 195.882061 
L 390.968081 195.882061 
L 395.184646 195.882061 
L 399.401212 195.882061 
L 403.617778 195.882061 
L 407.834343 195.882061 
L 412.050909 195.882061 
L 416.267475 195.882061 
L 420.48404 195.882061 
L 424.700606 195.882061 
L 428.917172 195.882061 
L 433.133737 195.882061 
L 437.350303 195.882061 
L 441.566869 195.882061 
L 445.783434 195.882061 
L 450 195.882061 
L 450 195.41703 
L 445.783434 195.41703 
L 441.566869 195.41703 
L 437.350303 195.41703 
L 433.133737 195.41703 
L 428.917172 195.41703 
L 424.700606 195.41703 
L 420.48404 195.41703 
L 416.267475 195.41703 
L 412.050909 195.41703 
L 407.834343 195.41703 
L 403.617778 195.41703 
L 399.401212 195.41703 
L 395.184646 195.41703 
L 390.968081 195.41703 
L 386.751515 195.41703 
L 382.534949 195.41703 
L 378.318384 195.41703 
L 374.101818 195.41703 
L 369.885253 195.41703 
L 365.668687 195.41703 
L 361.452121 195.41703 
L 357.235556 195.41703 
L 353.01899 195.41703 
L 348.802424 195.41703 
L 344.585859 195.41703 
L 340.369293 195.41703 
L 336.152727 195.41703 
L 331.936162 195.41703 
L 327.719596 195.41703 
L 323.50303 195.41703 
L 319.286465 195.41703 
L 315.069899 195.41703 
L 310.853333 195.41703 
L 306.636768 195.41703 
L 302.420202 195.41703 
L 298.203636 195.41703 
L 293.987071 195.41703 
L 289.770505 195.41703 
L 285.553939 195.41703 
L 281.337374 195.41703 
L 277.120808 195.41703 
L 272.904242 195.41703 
L 268.687677 195.41703 
L 264.471111 195.41703 
L 260.254545 195.41703 
L 256.03798 195.41703 
L 253.718869 193.711919 
L 253.718869 190.611717 
L 253.718869 187.511515 
L 253.718869 184.411313 
L 253.718869 181.311111 
L 253.718869 178.210909 
L 253.718869 175.110707 
L 253.718869 172.010505 
L 253.718869 168.910303 
L 253.718869 165.810101 
L 253.718869 162.709899 
L 253.718869 159.609697 
L 253.718869 156.509495 
L 253.718869 153.409293 
L 253.718869 150.309091 
L 253.718869 147.208889 
L 253.718869 144.108687 
L 253.718869 141.008485 
L 251.821414 139.613394 
L 247.604848 139.613394 
L 243.388283 139.613394 
L 241.069172 137.908283 
L 241.069172 134.808081 
L 241.069172 131.707879 
L 241.069172 128.607677 
L 241.069172 125.507475 
L 241.069172 122.407273 
L 241.069172 119.307071 
L 239.171717 117.91198 
L 234.955152 117.91198 
L 230.738586 117.91198 
L 226.52202 117.91198 
L 222.305455 117.91198 
L 218.088889 117.91198 
L 213.872323 117.91198 
L 209.655758 117.91198 
L 205.439192 117.91198 
L 201.222626 117.91198 
L 197.006061 117.91198 
L 192.789495 117.91198 
L 188.572929 117.91198 
L 184.356364 117.91198 
L 180.139798 117.91198 
L 175.923232 117.91198 
L 171.706667 117.91198 
L 167.490101 117.91198 
L 163.273535 117.91198 
L 159.05697 117.91198 
L 154.840404 117.91198 
L 150.623838 117.91198 
L 146.407273 117.91198 
L 142.190707 117.91198 
L 137.974141 117.91198 
L 133.757576 117.91198 
L 129.54101 117.91198 
L 125.324444 117.91198 
L 121.107879 117.91198 
L 116.891313 117.91198 
L 112.674747 117.91198 
L 108.458182 117.91198 
L 104.241616 117.91198 
L 100.025051 117.91198 
L 95.808485 117.91198 
L 91.591919 117.91198 
L 87.375354 117.91198 
L 83.158788 117.91198 
L 78.942222 117.91198 
L 74.725657 117.91198 
L 70.509091 117.91198 
L 66.292525 117.91198 
L 62.07596 117.91198 
L 57.859394 117.91198 
L 53.642828 117.91198 
L 49.426263 117.91198 
L 45.209697 117.91198 
L 40.993131 117.91198 
L 36.776566 117.91198 
L 32.56 117.91198 
L 32.56 118.37701 
L 36.776566 118.37701 
L 40.993131 118.37701 
L 45.209697 118.37701 
L 49.426263 118.37701 
L 53.642828 118.37701 
L 57.859394 118.37701 
L 62.07596 118.37701 
L 66.292525 118.37701 
L 70.509091 118.37701 
L 74.725657 118.37701 
L 78.942222 118.37701 
L 83.158788 118.37701 
L 87.375354 118.37701 
L 91.591919 118.37701 
L 95.808485 118.37701 
L 100.025051 118.37701 
L 104.241616 118.37701 
L 108.458182 118.37701 
L 112.674747 118.37701 
L 116.891313 118.37701 
L 121.107879 118.37701 
L 125.324444 118.37701 
L 129.54101 118.37701 
L 133.757576 118.37701 
L 137.974141 118.37701 
L 142.190707 118.37701 
L 146.407273 118.37701 
L 150.623838 118.37701 
L 154.840404 118.37701 
L 159.05697 118.37701 
L 163.273535 118.37701 
L 167.490101 118.37701 
L 171.706667 118.37701 
L 175.923232 118.37701 
L 180.139798 118.37701 
L 184.356364 118.37701 
L 188.572929 118.37701 
L 192.789495 118.37701 
L 197.006061 118.37701 
L 201.222626 118.37701 
L 205.439192 118.37701 
L 209.655758 118.37701 
L 213.872323 118.37701 
L 218.088889 118.37701 
L 222.305455 118.37701 
L 226.52202 118.37701 
L 230.738586 118.37701 
L 234.955152 118.37701 
L 239.171717 118.37701 
L 240.436687 119.307071 
L 240.436687 122.407273 
L 240.436687 125.507475 
L 240.436687 128.607677 
L 240.436687 131.707879 
L 240.436687 134.808081 
L 240.436687 137.908283 
L 243.388283 140.078424 
L 247.604848 140.078424 
L 251.821414 140.078424 
L 253.086384 141.008485 
L 253.086384 144.108687 
L 253.086384 147.208889 
L 253.086384 150.309091 
L 253.086384 153.409293 
L 253.086384 156.509495 
L 253.086384 159.609697 
L 253.086384 162.709899 
L 253.086384 165.810101 
L 253.086384 168.910303 
L 253.086384 172.010505 
L 253.086384 175.110707 
L 253.086384 178.210909 
L 253.086384 181.311111 
L 253.086384 184.411313 
L 253.086384 187.511515 
L 253.086384 190.611717 
L 253.086384 193.711919 
z
" clip-path="url(#p84d0432ca6)" style="fill: #2ca02c; fill-opacity: 0.33"/>
   </g>
   <g id="PathCollection_4">
    <path d="M 256.03798 195.41703 
L 260.254545 195.41703 
L 264.471111 195.41703 
L 268.687677 195.41703 
L 272.904242 195.41703 
L 277.120808 195.41703 
L 281.337374 195.41703 
L 285.553939 195.41703 
L 289.770505 195.41703 
L 293.987071 195.41703 
L 298.203636 195.41703 
L 302.420202 195.41703 
L 306.636768 195.41703 
L 310.853333 195.41703 
L 315.069899 195.41703 
L 319.286465 195.41703 
L 323.50303 195.41703 
L 327.719596 195.41703 
L 331.936162 195.41703 
L 336.152727 195.41703 
L 340.369293 195.41703 
L 344.585859 195.41703 
L 348.802424 195.41703 
L 353.01899 195.41703 
L 357.235556 195.41703 
L 361.452121 195.41703 
L 365.668687 195.41703 
L 369.885253 195.41703 
L 374.101818 195.41703 
L 378.318384 195.41703 
L 382.534949 195.41703 
L 386.751515 195.41703 
L 390.968081 195.41703 
L 395.184646 195.41703 
L 399.401212 195.41703 
L 403.617778 195.41703 
L 407.834343 195.41703 
L 412.050909 195.41703 
L 416.267475 195.41703 
L 420.48404 195.41703 
L 424.700606 195.41703 
L 428.917172 195.41703 
L 433.133737 195.41703 
L 437.350303 195.41703 
L 441.566869 195.41703 
L 445.783434 195.41703 
L 450 195.41703 
L 450 194.952 
L 445.783434 194.952 
L 441.566869 194.952 
L 437.350303 194.952 
L 433.133737 194.952 
L 428.917172 194.952 
L 424.700606 194.952 
L 420.48404 194.952 
L 416.267475 194.952 
L 412.050909 194.952 
L 407.834343 194.952 
L 403.617778 194.952 
L 399.401212 194.952 
L 395.184646 194.952 
L 390.968081 194.952 
L 386.751515 194.952 
L 382.534949 194.952 
L 378.318384 194.952 
L 374.101818 194.952 
L 369.885253 194.952 
L 365.668687 194.952 
L 361.452121 194.952 
L 357.235556 194.952 
L 353.01899 194.952 
L 348.802424 194.952 
L 344.585859 194.952 
L 340.369293 194.952 
L 336.152727 194.952 
L 331.936162 194.952 
L 327.719596 194.952 
L 323.50303 194.952 
L 319.286465 194.952 
L 315.069899 194.952 
L 310.853333 194.952 
L 306.636768 194.952 
L 302.420202 194.952 
L 298.203636 194.952 
L 293.987071 194.952 
L 289.770505 194.952 
L 285.553939 194.952 
L 281.337374 194.952 
L 277.120808 194.952 
L 272.904242 194.952 
L 268.687677 194.952 
L 264.471111 194.952 
L 260.254545 194.952 
L 256.03798 194.952 
L 254.351354 193.711919 
L 254.351354 190.611717 
L 254.351354 187.511515 
L 254.351354 184.411313 
L 254.351354 181.311111 
L 254.351354 178.210909 
L 254.351354 175.110707 
L 254.351354 172.010505 
L 254.351354 168.910303 
L 254.351354 165.810101 
L 254.351354 162.709899 
L 254.351354 159.609697 
L 254.351354 156.509495 
L 254.351354 153.409293 
L 254.351354 150.309091 
L 254.351354 147.208889 
L 254.351354 144.108687 
L 254.351354 141.008485 
L 251.821414 139.148364 
L 247.604848 139.148364 
L 243.388283 139.148364 
L 241.701657 137.908283 
L 241.701657 134.808081 
L 241.701657 131.707879 
L 241.701657 128.607677 
L 241.701657 125.507475 
L 241.701657 122.407273 
L 241.701657 119.307071 
L 239.171717 117.446949 
L 234.955152 117.446949 
L 230.738586 117.446949 
L 226.52202 117.446949 
L 222.305455 117.446949 
L 218.088889 117.446949 
L 213.872323 117.446949 
L 209.655758 117.446949 
L 205.439192 117.446949 
L 201.222626 117.446949 
L 197.006061 117.446949 
L 192.789495 117.446949 
L 188.572929 117.446949 
L 184.356364 117.446949 
L 180.139798 117.446949 
L 175.923232 117.446949 
L 171.706667 117.446949 
L 167.490101 117.446949 
L 163.273535 117.446949 
L 159.05697 117.446949 
L 154.840404 117.446949 
L 150.623838 117.446949 
L 146.407273 117.446949 
L 142.190707 117.446949 
L 137.974141 117.446949 
L 133.757576 117.446949 
L 129.54101 117.446949 
L 125.324444 117.446949 
L 121.107879 117.446949 
L 116.891313 117.446949 
L 112.674747 117.446949 
L 108.458182 117.446949 
L 104.241616 117.446949 
L 100.025051 117.446949 
L 95.808485 117.446949 
L 91.591919 117.446949 
L 87.375354 117.446949 
L 83.158788 117.446949 
L 78.942222 117.446949 
L 74.725657 117.446949 
L 70.509091 117.446949 
L 66.292525 117.446949 
L 62.07596 117.446949 
L 57.859394 117.446949 
L 53.642828 117.446949 
L 49.426263 117.446949 
L 45.209697 117.446949 
L 40.993131 117.446949 
L 36.776566 117.446949 
L 32.56 117.446949 
L 32.56 117.91198 
L 36.776566 117.91198 
L 40.993131 117.91198 
L 45.209697 117.91198 
L 49.426263 117.91198 
L 53.642828 117.91198 
L 57.859394 117.91198 
L 62.07596 117.91198 
L 66.292525 117.91198 
L 70.509091 117.91198 
L 74.725657 117.91198 
L 78.942222 117.91198 
L 83.158788 117.91198 
L 87.375354 117.91198 
L 91.591919 117.91198 
L 95.808485 117.91198 
L 100.025051 117.91198 
L 104.241616 117.91198 
L 108.458182 117.91198 
L 112.674747 117.91198 
L 116.891313 117.91198 
L 121.107879 117.91198 
L 125.324444 117.91198 
L 129.54101 117.91198 
L 133.757576 117.91198 
L 137.974141 117.91198 
L 142.190707 117.91198 
L 146.407273 117.91198 
L 150.623838 117.91198 
L 154.840404 117.91198 
L 159.05697 117.91198 
L 163.273535 117.91198 
L 167.490101 117.91198 
L 171.706667 117.91198 
L 175.923232 117.91198 
L 180.139798 117.91198 
L 184.356364 117.91198 
L 188.572929 117.91198 
L 192.789495 117.91198 
L 197.006061 117.91198 
L 201.222626 117.91198 
L 205.439192 117.91198 
L 209.655758 117.91198 
L 213.872323 117.91198 
L 218.088889 117.91198 
L 222.305455 117.91198 
L 226.52202 117.91198 
L 230.738586 117.91198 
L 234.955152 117.91198 
L 239.171717 117.91198 
L 241.069172 119.307071 
L 241.069172 122.407273 
L 241.069172 125.507475 
L 241.069172 128.607677 
L 241.069172 131.707879 
L 241.069172 134.808081 
L 241.069172 137.908283 
L 243.388283 139.613394 
L 247.604848 139.613394 
L 251.821414 139.613394 
L 253.718869 141.008485 
L 253.718869 144.108687 
L 253.718869 147.208889 
L 253.718869 150.309091 
L 253.718869 153.409293 
L 253.718869 156.509495 
L 253.718869 159.609697 
L 253.718869 162.709899 
L 253.718869 165.810101 
L 253.718869 168.910303 
L 253.718869 172.010505 
L 253.718869 175.110707 
L 253.718869 178.210909 
L 253.718869 181.311111 
L 253.718869 184.411313 
L 253.718869 187.511515 
L 253.718869 190.611717 
L 253.718869 193.711919 
z
" clip-path="url(#p84d0432ca6)" style="fill: #1f77b4; fill-opacity: 0.33"/>
   </g>
   <g id="PathCollection_5">
    <path d="M 256.03798 194.952 
L 260.254545 194.952 
L 264.471111 194.952 
L 268.687677 194.952 
L 272.904242 194.952 
L 277.120808 194.952 
L 281.337374 194.952 
L 285.553939 194.952 
L 289.770505 194.952 
L 293.987071 194.952 
L 298.203636 194.952 
L 302.420202 194.952 
L 306.636768 194.952 
L 310.853333 194.952 
L 315.069899 194.952 
L 319.286465 194.952 
L 323.50303 194.952 
L 327.719596 194.952 
L 331.936162 194.952 
L 336.152727 194.952 
L 340.369293 194.952 
L 344.585859 194.952 
L 348.802424 194.952 
L 353.01899 194.952 
L 357.235556 194.952 
L 361.452121 194.952 
L 365.668687 194.952 
L 369.885253 194.952 
L 374.101818 194.952 
L 378.318384 194.952 
L 382.534949 194.952 
L 386.751515 194.952 
L 390.968081 194.952 
L 395.184646 194.952 
L 399.401212 194.952 
L 403.617778 194.952 
L 407.834343 194.952 
L 412.050909 194.952 
L 416.267475 194.952 
L 420.48404 194.952 
L 424.700606 194.952 
L 428.917172 194.952 
L 433.133737 194.952 
L 437.350303 194.952 
L 441.566869 194.952 
L 445.783434 194.952 
L 450 194.952 
L 450 194.48697 
L 445.783434 194.48697 
L 441.566869 194.48697 
L 437.350303 194.48697 
L 433.133737 194.48697 
L 428.917172 194.48697 
L 424.700606 194.48697 
L 420.48404 194.48697 
L 416.267475 194.48697 
L 412.050909 194.48697 
L 407.834343 194.48697 
L 403.617778 194.48697 
L 399.401212 194.48697 
L 395.184646 194.48697 
L 390.968081 194.48697 
L 386.751515 194.48697 
L 382.534949 194.48697 
L 378.318384 194.48697 
L 374.101818 194.48697 
L 369.885253 194.48697 
L 365.668687 194.48697 
L 361.452121 194.48697 
L 357.235556 194.48697 
L 353.01899 194.48697 
L 348.802424 194.48697 
L 344.585859 194.48697 
L 340.369293 194.48697 
L 336.152727 194.48697 
L 331.936162 194.48697 
L 327.719596 194.48697 
L 323.50303 194.48697 
L 319.286465 194.48697 
L 315.069899 194.48697 
L 310.853333 194.48697 
L 306.636768 194.48697 
L 302.420202 194.48697 
L 298.203636 194.48697 
L 293.987071 194.48697 
L 289.770505 194.48697 
L 285.553939 194.48697 
L 281.337374 194.48697 
L 277.120808 194.48697 
L 272.904242 194.48697 
L 268.687677 194.48697 
L 264.471111 194.48697 
L 260.254545 194.48697 
L 256.03798 194.48697 
L 254.983838 193.711919 
L 254.983838 190.611717 
L 254.983838 187.511515 
L 254.983838 184.411313 
L 254.983838 181.311111 
L 254.983838 178.210909 
L 254.983838 175.110707 
L 254.983838 172.010505 
L 254.983838 168.910303 
L 254.983838 165.810101 
L 254.983838 162.709899 
L 254.983838 159.609697 
L 254.983838 156.509495 
L 254.983838 153.409293 
L 254.983838 150.309091 
L 254.983838 147.208889 
L 254.983838 144.108687 
L 254.983838 141.008485 
L 251.821414 138.683333 
L 247.604848 138.683333 
L 243.388283 138.683333 
L 242.334141 137.908283 
L 242.334141 134.808081 
L 242.334141 131.707879 
L 242.334141 128.607677 
L 242.334141 125.507475 
L 242.334141 122.407273 
L 242.334141 119.307071 
L 239.171717 116.981919 
L 234.955152 116.981919 
L 230.738586 116.981919 
L 226.52202 116.981919 
L 222.305455 116.981919 
L 218.088889 116.981919 
L 213.872323 116.981919 
L 209.655758 116.981919 
L 205.439192 116.981919 
L 201.222626 116.981919 
L 197.006061 116.981919 
L 192.789495 116.981919 
L 188.572929 116.981919 
L 184.356364 116.981919 
L 180.139798 116.981919 
L 175.923232 116.981919 
L 171.706667 116.981919 
L 167.490101 116.981919 
L 163.273535 116.981919 
L 159.05697 116.981919 
L 154.840404 116.981919 
L 150.623838 116.981919 
L 146.407273 116.981919 
L 142.190707 116.981919 
L 137.974141 116.981919 
L 133.757576 116.981919 
L 129.54101 116.981919 
L 125.324444 116.981919 
L 121.107879 116.981919 
L 116.891313 116.981919 
L 112.674747 116.981919 
L 108.458182 116.981919 
L 104.241616 116.981919 
L 100.025051 116.981919 
L 95.808485 116.981919 
L 91.591919 116.981919 
L 87.375354 116.981919 
L 83.158788 116.981919 
L 78.942222 116.981919 
L 74.725657 116.981919 
L 70.509091 116.981919 
L 66.292525 116.981919 
L 62.07596 116.981919 
L 57.859394 116.981919 
L 53.642828 116.981919 
L 49.426263 116.981919 
L 45.209697 116.981919 
L 40.993131 116.981919 
L 36.776566 116.981919 
L 32.56 116.981919 
L 32.56 117.446949 
L 36.776566 117.446949 
L 40.993131 117.446949 
L 45.209697 117.446949 
L 49.426263 117.446949 
L 53.642828 117.446949 
L 57.859394 117.446949 
L 62.07596 117.446949 
L 66.292525 117.446949 
L 70.509091 117.446949 
L 74.725657 117.446949 
L 78.942222 117.446949 
L 83.158788 117.446949 
L 87.375354 117.446949 
L 91.591919 117.446949 
L 95.808485 117.446949 
L 100.025051 117.446949 
L 104.241616 117.446949 
L 108.458182 117.446949 
L 112.674747 117.446949 
L 116.891313 117.446949 
L 121.107879 117.446949 
L 125.324444 117.446949 
L 129.54101 117.446949 
L 133.757576 117.446949 
L 137.974141 117.446949 
L 142.190707 117.446949 
L 146.407273 117.446949 
L 150.623838 117.446949 
L 154.840404 117.446949 
L 159.05697 117.446949 
L 163.273535 117.446949 
L 167.490101 117.446949 
L 171.706667 117.446949 
L 175.923232 117.446949 
L 180.139798 117.446949 
L 184.356364 117.446949 
L 188.572929 117.446949 
L 192.789495 117.446949 
L 197.006061 117.446949 
L 201.222626 117.446949 
L 205.439192 117.446949 
L 209.655758 117.446949 
L 213.872323 117.446949 
L 218.088889 117.446949 
L 222.305455 117.446949 
L 226.52202 117.446949 
L 230.738586 117.446949 
L 234.955152 117.446949 
L 239.171717 117.446949 
L 241.701657 119.307071 
L 241.701657 122.407273 
L 241.701657 125.507475 
L 241.701657 128.607677 
L 241.701657 131.707879 
L 241.701657 134.808081 
L 241.701657 137.908283 
L 243.388283 139.148364 
L 247.604848 139.148364 
L 251.821414 139.148364 
L 254.351354 141.008485 
L 254.351354 144.108687 
L 254.351354 147.208889 
L 254.351354 150.309091 
L 254.351354 153.409293 
L 254.351354 156.509495 
L 254.351354 159.609697 
L 254.351354 162.709899 
L 254.351354 165.810101 
L 254.351354 168.910303 
L 254.351354 172.010505 
L 254.351354 175.110707 
L 254.351354 178.210909 
L 254.351354 181.311111 
L 254.351354 184.411313 
L 254.351354 187.511515 
L 254.351354 190.611717 
L 254.351354 193.711919 
z
" clip-path="url(#p84d0432ca6)" style="fill: #1f77b4; fill-opacity: 0.33"/>
   </g>
   <g id="PathCollection_6">
    <path d="M 256.03798 194.48697 
L 260.254545 194.48697 
L 264.471111 194.48697 
L 268.687677 194.48697 
L 272.904242 194.48697 
L 277.120808 194.48697 
L 281.337374 194.48697 
L 285.553939 194.48697 
L 289.770505 194.48697 
L 293.987071 194.48697 
L 298.203636 194.48697 
L 302.420202 194.48697 
L 306.636768 194.48697 
L 310.853333 194.48697 
L 315.069899 194.48697 
L 319.286465 194.48697 
L 323.50303 194.48697 
L 327.719596 194.48697 
L 331.936162 194.48697 
L 336.152727 194.48697 
L 340.369293 194.48697 
L 344.585859 194.48697 
L 348.802424 194.48697 
L 353.01899 194.48697 
L 357.235556 194.48697 
L 361.452121 194.48697 
L 365.668687 194.48697 
L 369.885253 194.48697 
L 374.101818 194.48697 
L 378.318384 194.48697 
L 382.534949 194.48697 
L 386.751515 194.48697 
L 390.968081 194.48697 
L 395.184646 194.48697 
L 399.401212 194.48697 
L 403.617778 194.48697 
L 407.834343 194.48697 
L 412.050909 194.48697 
L 416.267475 194.48697 
L 420.48404 194.48697 
L 424.700606 194.48697 
L 428.917172 194.48697 
L 433.133737 194.48697 
L 437.350303 194.48697 
L 441.566869 194.48697 
L 445.783434 194.48697 
L 450 194.48697 
L 450 194.021939 
L 445.783434 194.021939 
L 441.566869 194.021939 
L 437.350303 194.021939 
L 433.133737 194.021939 
L 428.917172 194.021939 
L 424.700606 194.021939 
L 420.48404 194.021939 
L 416.267475 194.021939 
L 412.050909 194.021939 
L 407.834343 194.021939 
L 403.617778 194.021939 
L 399.401212 194.021939 
L 395.184646 194.021939 
L 390.968081 194.021939 
L 386.751515 194.021939 
L 382.534949 194.021939 
L 378.318384 194.021939 
L 374.101818 194.021939 
L 369.885253 194.021939 
L 365.668687 194.021939 
L 361.452121 194.021939 
L 357.235556 194.021939 
L 353.01899 194.021939 
L 348.802424 194.021939 
L 344.585859 194.021939 
L 340.369293 194.021939 
L 336.152727 194.021939 
L 331.936162 194.021939 
L 327.719596 194.021939 
L 323.50303 194.021939 
L 319.286465 194.021939 
L 315.069899 194.021939 
L 310.853333 194.021939 
L 306.636768 194.021939 
L 302.420202 194.021939 
L 298.203636 194.021939 
L 293.987071 194.021939 
L 289.770505 194.021939 
L 285.553939 194.021939 
L 281.337374 194.021939 
L 277.120808 194.021939 
L 272.904242 194.021939 
L 268.687677 194.021939 
L 264.471111 194.021939 
L 260.254545 194.021939 
L 256.03798 194.021939 
L 255.616323 193.711919 
L 255.616323 190.611717 
L 255.616323 187.511515 
L 255.616323 184.411313 
L 255.616323 181.311111 
L 255.616323 178.210909 
L 255.616323 175.110707 
L 255.616323 172.010505 
L 255.616323 168.910303 
L 255.616323 165.810101 
L 255.616323 162.709899 
L 255.616323 159.609697 
L 255.616323 156.509495 
L 255.616323 153.409293 
L 255.616323 150.309091 
L 255.616323 147.208889 
L 255.616323 144.108687 
L 255.616323 141.008485 
L 251.821414 138.218303 
L 247.604848 138.218303 
L 243.388283 138.218303 
L 242.966626 137.908283 
L 242.966626 134.808081 
L 242.966626 131.707879 
L 242.966626 128.607677 
L 242.966626 125.507475 
L 242.966626 122.407273 
L 242.966626 119.307071 
L 239.171717 116.516889 
L 234.955152 116.516889 
L 230.738586 116.516889 
L 226.52202 116.516889 
L 222.305455 116.516889 
L 218.088889 116.516889 
L 213.872323 116.516889 
L 209.655758 116.516889 
L 205.439192 116.516889 
L 201.222626 116.516889 
L 197.006061 116.516889 
L 192.789495 116.516889 
L 188.572929 116.516889 
L 184.356364 116.516889 
L 180.139798 116.516889 
L 175.923232 116.516889 
L 171.706667 116.516889 
L 167.490101 116.516889 
L 163.273535 116.516889 
L 159.05697 116.516889 
L 154.840404 116.516889 
L 150.623838 116.516889 
L 146.407273 116.516889 
L 142.190707 116.516889 
L 137.974141 116.516889 
L 133.757576 116.516889 
L 129.54101 116.516889 
L 125.324444 116.516889 
L 121.107879 116.516889 
L 116.891313 116.516889 
L 112.674747 116.516889 
L 108.458182 116.516889 
L 104.241616 116.516889 
L 100.025051 116.516889 
L 95.808485 116.516889 
L 91.591919 116.516889 
L 87.375354 116.516889 
L 83.158788 116.516889 
L 78.942222 116.516889 
L 74.725657 116.516889 
L 70.509091 116.516889 
L 66.292525 116.516889 
L 62.07596 116.516889 
L 57.859394 116.516889 
L 53.642828 116.516889 
L 49.426263 116.516889 
L 45.209697 116.516889 
L 40.993131 116.516889 
L 36.776566 116.516889 
L 32.56 116.516889 
L 32.56 116.981919 
L 36.776566 116.981919 
L 40.993131 116.981919 
L 45.209697 116.981919 
L 49.426263 116.981919 
L 53.642828 116.981919 
L 57.859394 116.981919 
L 62.07596 116.981919 
L 66.292525 116.981919 
L 70.509091 116.981919 
L 74.725657 116.981919 
L 78.942222 116.981919 
L 83.158788 116.981919 
L 87.375354 116.981919 
L 91.591919 116.981919 
L 95.808485 116.981919 
L 100.025051 116.981919 
L 104.241616 116.981919 
L 108.458182 116.981919 
L 112.674747 116.981919 
L 116.891313 116.981919 
L 121.107879 116.981919 
L 125.324444 116.981919 
L 129.54101 116.981919 
L 133.757576 116.981919 
L 137.974141 116.981919 
L 142.190707 116.981919 
L 146.407273 116.981919 
L 150.623838 116.981919 
L 154.840404 116.981919 
L 159.05697 116.981919 
L 163.273535 116.981919 
L 167.490101 116.981919 
L 171.706667 116.981919 
L 175.923232 116.981919 
L 180.139798 116.981919 
L 184.356364 116.981919 
L 188.572929 116.981919 
L 192.789495 116.981919 
L 197.006061 116.981919 
L 201.222626 116.981919 
L 205.439192 116.981919 
L 209.655758 116.981919 
L 213.872323 116.981919 
L 218.088889 116.981919 
L 222.305455 116.981919 
L 226.52202 116.981919 
L 230.738586 116.981919 
L 234.955152 116.981919 
L 239.171717 116.981919 
L 242.334141 119.307071 
L 242.334141 122.407273 
L 242.334141 125.507475 
L 242.334141 128.607677 
L 242.334141 131.707879 
L 242.334141 134.808081 
L 242.334141 137.908283 
L 243.388283 138.683333 
L 247.604848 138.683333 
L 251.821414 138.683333 
L 254.983838 141.008485 
L 254.983838 144.108687 
L 254.983838 147.208889 
L 254.983838 150.309091 
L 254.983838 153.409293 
L 254.983838 156.509495 
L 254.983838 159.609697 
L 254.983838 162.709899 
L 254.983838 165.810101 
L 254.983838 168.910303 
L 254.983838 172.010505 
L 254.983838 175.110707 
L 254.983838 178.210909 
L 254.983838 181.311111 
L 254.983838 184.411313 
L 254.983838 187.511515 
L 254.983838 190.611717 
L 254.983838 193.711919 
z
" clip-path="url(#p84d0432ca6)" style="fill: #1f77b4; fill-opacity: 0.33"/>
   </g>
   <g id="PathCollection_7">
    <path d="M 256.03798 194.021939 
L 260.254545 194.021939 
L 264.471111 194.021939 
L 268.687677 194.021939 
L 272.904242 194.021939 
L 277.120808 194.021939 
L 281.337374 194.021939 
L 285.553939 194.021939 
L 289.770505 194.021939 
L 293.987071 194.021939 
L 298.203636 194.021939 
L 302.420202 194.021939 
L 306.636768 194.021939 
L 310.853333 194.021939 
L 315.069899 194.021939 
L 319.286465 194.021939 
L 323.50303 194.021939 
L 327.719596 194.021939 
L 331.936162 194.021939 
L 336.152727 194.021939 
L 340.369293 194.021939 
L 344.585859 194.021939 
L 348.802424 194.021939 
L 353.01899 194.021939 
L 357.235556 194.021939 
L 361.452121 194.021939 
L 365.668687 194.021939 
L 369.885253 194.021939 
L 374.101818 194.021939 
L 378.318384 194.021939 
L 382.534949 194.021939 
L 386.751515 194.021939 
L 390.968081 194.021939 
L 395.184646 194.021939 
L 399.401212 194.021939 
L 403.617778 194.021939 
L 407.834343 194.021939 
L 412.050909 194.021939 
L 416.267475 194.021939 
L 420.48404 194.021939 
L 424.700606 194.021939 
L 428.917172 194.021939 
L 433.133737 194.021939 
L 437.350303 194.021939 
L 441.566869 194.021939 
L 445.783434 194.021939 
L 450 194.021939 
L 450 193.711919 
L 450 190.611717 
L 450 187.511515 
L 450 184.411313 
L 450 181.311111 
L 450 178.210909 
L 450 175.110707 
L 450 172.010505 
L 450 168.910303 
L 450 165.810101 
L 450 162.709899 
L 450 159.609697 
L 450 156.509495 
L 450 153.409293 
L 450 150.309091 
L 450 147.208889 
L 450 144.108687 
L 450 141.008485 
L 450 137.908283 
L 450 134.808081 
L 450 131.707879 
L 450 128.607677 
L 450 125.507475 
L 450 122.407273 
L 450 119.307071 
L 450 116.206869 
L 450 113.106667 
L 450 110.006465 
L 450 106.906263 
L 450 103.806061 
L 450 100.705859 
L 450 97.605657 
L 450 94.505455 
L 450 91.405253 
L 450 88.305051 
L 450 85.204848 
L 450 82.104646 
L 450 79.004444 
L 450 75.904242 
L 450 72.80404 
L 450 69.703838 
L 450 66.603636 
L 450 63.503434 
L 450 60.403232 
L 450 57.30303 
L 450 54.202828 
L 450 51.102626 
L 450 48.002424 
L 450 44.902222 
L 450 41.80202 
L 450 38.701818 
L 450 35.601616 
L 450 32.501414 
L 450 29.401212 
L 450 26.30101 
L 450 23.200808 
L 450 20.100606 
L 450 17.000404 
L 450 13.900202 
L 450 10.8 
L 445.783434 10.8 
L 441.566869 10.8 
L 437.350303 10.8 
L 433.133737 10.8 
L 428.917172 10.8 
L 424.700606 10.8 
L 420.48404 10.8 
L 416.267475 10.8 
L 412.050909 10.8 
L 407.834343 10.8 
L 403.617778 10.8 
L 399.401212 10.8 
L 395.184646 10.8 
L 390.968081 10.8 
L 386.751515 10.8 
L 382.534949 10.8 
L 378.318384 10.8 
L 374.101818 10.8 
L 369.885253 10.8 
L 365.668687 10.8 
L 361.452121 10.8 
L 357.235556 10.8 
L 353.01899 10.8 
L 348.802424 10.8 
L 344.585859 10.8 
L 340.369293 10.8 
L 336.152727 10.8 
L 331.936162 10.8 
L 327.719596 10.8 
L 323.50303 10.8 
L 319.286465 10.8 
L 315.069899 10.8 
L 310.853333 10.8 
L 306.636768 10.8 
L 302.420202 10.8 
L 298.203636 10.8 
L 293.987071 10.8 
L 289.770505 10.8 
L 285.553939 10.8 
L 281.337374 10.8 
L 277.120808 10.8 
L 272.904242 10.8 
L 268.687677 10.8 
L 264.471111 10.8 
L 260.254545 10.8 
L 256.03798 10.8 
L 251.821414 10.8 
L 247.604848 10.8 
L 243.388283 10.8 
L 239.171717 10.8 
L 234.955152 10.8 
L 230.738586 10.8 
L 226.52202 10.8 
L 222.305455 10.8 
L 218.088889 10.8 
L 213.872323 10.8 
L 209.655758 10.8 
L 205.439192 10.8 
L 201.222626 10.8 
L 197.006061 10.8 
L 192.789495 10.8 
L 188.572929 10.8 
L 184.356364 10.8 
L 180.139798 10.8 
L 175.923232 10.8 
L 171.706667 10.8 
L 167.490101 10.8 
L 163.273535 10.8 
L 159.05697 10.8 
L 154.840404 10.8 
L 150.623838 10.8 
L 146.407273 10.8 
L 142.190707 10.8 
L 137.974141 10.8 
L 133.757576 10.8 
L 129.54101 10.8 
L 125.324444 10.8 
L 121.107879 10.8 
L 116.891313 10.8 
L 112.674747 10.8 
L 108.458182 10.8 
L 104.241616 10.8 
L 100.025051 10.8 
L 95.808485 10.8 
L 91.591919 10.8 
L 87.375354 10.8 
L 83.158788 10.8 
L 78.942222 10.8 
L 74.725657 10.8 
L 70.509091 10.8 
L 66.292525 10.8 
L 62.07596 10.8 
L 57.859394 10.8 
L 53.642828 10.8 
L 49.426263 10.8 
L 45.209697 10.8 
L 40.993131 10.8 
L 36.776566 10.8 
L 32.56 10.8 
L 32.56 13.900202 
L 32.56 17.000404 
L 32.56 20.100606 
L 32.56 23.200808 
L 32.56 26.30101 
L 32.56 29.401212 
L 32.56 32.501414 
L 32.56 35.601616 
L 32.56 38.701818 
L 32.56 41.80202 
L 32.56 44.902222 
L 32.56 48.002424 
L 32.56 51.102626 
L 32.56 54.202828 
L 32.56 57.30303 
L 32.56 60.403232 
L 32.56 63.503434 
L 32.56 66.603636 
L 32.56 69.703838 
L 32.56 72.80404 
L 32.56 75.904242 
L 32.56 79.004444 
L 32.56 82.104646 
L 32.56 85.204848 
L 32.56 88.305051 
L 32.56 91.405253 
L 32.56 94.505455 
L 32.56 97.605657 
L 32.56 100.705859 
L 32.56 103.806061 
L 32.56 106.906263 
L 32.56 110.006465 
L 32.56 113.106667 
L 32.56 116.206869 
L 32.56 116.516889 
L 36.776566 116.516889 
L 40.993131 116.516889 
L 45.209697 116.516889 
L 49.426263 116.516889 
L 53.642828 116.516889 
L 57.859394 116.516889 
L 62.07596 116.516889 
L 66.292525 116.516889 
L 70.509091 116.516889 
L 74.725657 116.516889 
L 78.942222 116.516889 
L 83.158788 116.516889 
L 87.375354 116.516889 
L 91.591919 116.516889 
L 95.808485 116.516889 
L 100.025051 116.516889 
L 104.241616 116.516889 
L 108.458182 116.516889 
L 112.674747 116.516889 
L 116.891313 116.516889 
L 121.107879 116.516889 
L 125.324444 116.516889 
L 129.54101 116.516889 
L 133.757576 116.516889 
L 137.974141 116.516889 
L 142.190707 116.516889 
L 146.407273 116.516889 
L 150.623838 116.516889 
L 154.840404 116.516889 
L 159.05697 116.516889 
L 163.273535 116.516889 
L 167.490101 116.516889 
L 171.706667 116.516889 
L 175.923232 116.516889 
L 180.139798 116.516889 
L 184.356364 116.516889 
L 188.572929 116.516889 
L 192.789495 116.516889 
L 197.006061 116.516889 
L 201.222626 116.516889 
L 205.439192 116.516889 
L 209.655758 116.516889 
L 213.872323 116.516889 
L 218.088889 116.516889 
L 222.305455 116.516889 
L 226.52202 116.516889 
L 230.738586 116.516889 
L 234.955152 116.516889 
L 239.171717 116.516889 
L 242.966626 119.307071 
L 242.966626 122.407273 
L 242.966626 125.507475 
L 242.966626 128.607677 
L 242.966626 131.707879 
L 242.966626 134.808081 
L 242.966626 137.908283 
L 243.388283 138.218303 
L 247.604848 138.218303 
L 251.821414 138.218303 
L 255.616323 141.008485 
L 255.616323 144.108687 
L 255.616323 147.208889 
L 255.616323 150.309091 
L 255.616323 153.409293 
L 255.616323 156.509495 
L 255.616323 159.609697 
L 255.616323 162.709899 
L 255.616323 165.810101 
L 255.616323 168.910303 
L 255.616323 172.010505 
L 255.616323 175.110707 
L 255.616323 178.210909 
L 255.616323 181.311111 
L 255.616323 184.411313 
L 255.616323 187.511515 
L 255.616323 190.611717 
L 255.616323 193.711919 
z
" clip-path="url(#p84d0432ca6)" style="fill: #1f77b4; fill-opacity: 0.33"/>
   </g>
   <g id="matplotlib.axis_1">
    <g id="xtick_1">
     <g id="line2d_1">
      <path d="M 82.137389 317.72 
L 82.137389 10.8 
" clip-path="url(#p84d0432ca6)" style="fill: none; stroke: #b0b0b0; stroke-width: 0.8; stroke-linecap: square"/>
     </g>
     <g id="line2d_2">
      <defs>
       <path id="m6fdee85fc7" d="M 0 0 
L 0 3.5 
" style="stroke: #000000; stroke-width: 0.8"/>
      </defs>
      <g>
       <use xlink:href="#m6fdee85fc7" x="82.137389" y="317.72" style="stroke: #000000; stroke-width: 0.8"/>
      </g>
     </g>
     <g id="text_1">
      <!-- −3 -->
      <g transform="translate(74.766295 332.318437) scale(0.1 -0.1)">
       <defs>
        <path id="DejaVuSans-2212" d="M 678 2272 
L 4684 2272 
L 4684 1741 
L 678 1741 
L 678 2272 
z
" transform="scale(0.015625)"/>
        <path id="DejaVuSans-33" d="M 2597 2516 
Q 3050 2419 3304 2112 
Q 3559 1806 3559 1356 
Q 3559 666 3084 287 
Q 2609 -91 1734 -91 
Q 1441 -91 1130 -33 
Q 819 25 488 141 
L 488 750 
Q 750 597 1062 519 
Q 1375 441 1716 441 
Q 2309 441 2620 675 
Q 2931 909 2931 1356 
Q 2931 1769 2642 2001 
Q 2353 2234 1838 2234 
L 1294 2234 
L 1294 2753 
L 1863 2753 
Q 2328 2753 2575 2939 
Q 2822 3125 2822 3475 
Q 2822 3834 2567 4026 
Q 2313 4219 1838 4219 
Q 1578 4219 1281 4162 
Q 984 4106 628 3988 
L 628 4550 
Q 988 4650 1302 4700 
Q 1616 4750 1894 4750 
Q 2613 4750 3031 4423 
Q 3450 4097 3450 3541 
Q 3450 3153 3228 2886 
Q 3006 2619 2597 2516 
z
" transform="scale(0.015625)"/>
       </defs>
       <use xlink:href="#DejaVuSans-2212"/>
       <use xlink:href="#DejaVuSans-33" x="83.789062"/>
      </g>
     </g>
    </g>
    <g id="xtick_2">
     <g id="line2d_3">
      <path d="M 136.335588 317.72 
L 136.335588 10.8 
" clip-path="url(#p84d0432ca6)" style="fill: none; stroke: #b0b0b0; stroke-width: 0.8; stroke-linecap: square"/>
     </g>
     <g id="line2d_4">
      <g>
       <use xlink:href="#m6fdee85fc7" x="136.335588" y="317.72" style="stroke: #000000; stroke-width: 0.8"/>
      </g>
     </g>
     <g id="text_2">
      <!-- −2 -->
      <g transform="translate(128.964494 332.318437) scale(0.1 -0.1)">
       <defs>
        <path id="DejaVuSans-32" d="M 1228 531 
L 3431 531 
L 3431 0 
L 469 0 
L 469 531 
Q 828 903 1448 1529 
Q 2069 2156 2228 2338 
Q 2531 2678 2651 2914 
Q 2772 3150 2772 3378 
Q 2772 3750 2511 3984 
Q 2250 4219 1831 4219 
Q 1534 4219 1204 4116 
Q 875 4013 500 3803 
L 500 4441 
Q 881 4594 1212 4672 
Q 1544 4750 1819 4750 
Q 2544 4750 2975 4387 
Q 3406 4025 3406 3419 
Q 3406 3131 3298 2873 
Q 3191 2616 2906 2266 
Q 2828 2175 2409 1742 
Q 1991 1309 1228 531 
z
" transform="scale(0.015625)"/>
       </defs>
       <use xlink:href="#DejaVuSans-2212"/>
       <use xlink:href="#DejaVuSans-32" x="83.789062"/>
      </g>
     </g>
    </g>
    <g id="xtick_3">
     <g id="line2d_5">
      <path d="M 190.533787 317.72 
L 190.533787 10.8 
" clip-path="url(#p84d0432ca6)" style="fill: none; stroke: #b0b0b0; stroke-width: 0.8; stroke-linecap: square"/>
     </g>
     <g id="line2d_6">
      <g>
       <use xlink:href="#m6fdee85fc7" x="190.533787" y="317.72" style="stroke: #000000; stroke-width: 0.8"/>
      </g>
     </g>
     <g id="text_3">
      <!-- −1 -->
      <g transform="translate(183.162693 332.318437) scale(0.1 -0.1)">
       <defs>
        <path id="DejaVuSans-31" d="M 794 531 
L 1825 531 
L 1825 4091 
L 703 3866 
L 703 4441 
L 1819 4666 
L 2450 4666 
L 2450 531 
L 3481 531 
L 3481 0 
L 794 0 
L 794 531 
z
" transform="scale(0.015625)"/>
       </defs>
       <use xlink:href="#DejaVuSans-2212"/>
       <use xlink:href="#DejaVuSans-31" x="83.789062"/>
      </g>
     </g>
    </g>
    <g id="xtick_4">
     <g id="line2d_7">
      <path d="M 244.731986 317.72 
L 244.731986 10.8 
" clip-path="url(#p84d0432ca6)" style="fill: none; stroke: #b0b0b0; stroke-width: 0.8; stroke-linecap: square"/>
     </g>
     <g id="line2d_8">
      <g>
       <use xlink:href="#m6fdee85fc7" x="244.731986" y="317.72" style="stroke: #000000; stroke-width: 0.8"/>
      </g>
     </g>
     <g id="text_4">
      <!-- 0 -->
      <g transform="translate(241.550736 332.318437) scale(0.1 -0.1)">
       <defs>
        <path id="DejaVuSans-30" d="M 2034 4250 
Q 1547 4250 1301 3770 
Q 1056 3291 1056 2328 
Q 1056 1369 1301 889 
Q 1547 409 2034 409 
Q 2525 409 2770 889 
Q 3016 1369 3016 2328 
Q 3016 3291 2770 3770 
Q 2525 4250 2034 4250 
z
M 2034 4750 
Q 2819 4750 3233 4129 
Q 3647 3509 3647 2328 
Q 3647 1150 3233 529 
Q 2819 -91 2034 -91 
Q 1250 -91 836 529 
Q 422 1150 422 2328 
Q 422 3509 836 4129 
Q 1250 4750 2034 4750 
z
" transform="scale(0.015625)"/>
       </defs>
       <use xlink:href="#DejaVuSans-30"/>
      </g>
     </g>
    </g>
    <g id="xtick_5">
     <g id="line2d_9">
      <path d="M 298.930185 317.72 
L 298.930185 10.8 
" clip-path="url(#p84d0432ca6)" style="fill: none; stroke: #b0b0b0; stroke-width: 0.8; stroke-linecap: square"/>
     </g>
     <g id="line2d_10">
      <g>
       <use xlink:href="#m6fdee85fc7" x="298.930185" y="317.72" style="stroke: #000000; stroke-width: 0.8"/>
      </g>
     </g>
     <g id="text_5">
      <!-- 1 -->
      <g transform="translate(295.748935 332.318437) scale(0.1 -0.1)">
       <use xlink:href="#DejaVuSans-31"/>
      </g>
     </g>
    </g>
    <g id="xtick_6">
     <g id="line2d_11">
      <path d="M 353.128384 317.72 
L 353.128384 10.8 
" clip-path="url(#p84d0432ca6)" style="fill: none; stroke: #b0b0b0; stroke-width: 0.8; stroke-linecap: square"/>
     </g>
     <g id="line2d_12">
      <g>
       <use xlink:href="#m6fdee85fc7" x="353.128384" y="317.72" style="stroke: #000000; stroke-width: 0.8"/>
      </g>
     </g>
     <g id="text_6">
      <!-- 2 -->
      <g transform="translate(349.947134 332.318437) scale(0.1 -0.1)">
       <use xlink:href="#DejaVuSans-32"/>
      </g>
     </g>
    </g>
    <g id="xtick_7">
     <g id="line2d_13">
      <path d="M 407.326583 317.72 
L 407.326583 10.8 
" clip-path="url(#p84d0432ca6)" style="fill: none; stroke: #b0b0b0; stroke-width: 0.8; stroke-linecap: square"/>
     </g>
     <g id="line2d_14">
      <g>
       <use xlink:href="#m6fdee85fc7" x="407.326583" y="317.72" style="stroke: #000000; stroke-width: 0.8"/>
      </g>
     </g>
     <g id="text_7">
      <!-- 3 -->
      <g transform="translate(404.145333 332.318437) scale(0.1 -0.1)">
       <use xlink:href="#DejaVuSans-33"/>
      </g>
     </g>
    </g>
   </g>
   <g id="matplotlib.axis_2">
    <g id="ytick_1">
     <g id="line2d_15">
      <path d="M 32.56 296.25481 
L 450 296.25481 
" clip-path="url(#p84d0432ca6)" style="fill: none; stroke: #b0b0b0; stroke-width: 0.8; stroke-linecap: square"/>
     </g>
     <g id="line2d_16">
      <defs>
       <path id="ma40932b4c5" d="M 0 0 
L -3.5 0 
" style="stroke: #000000; stroke-width: 0.8"/>
      </defs>
      <g>
       <use xlink:href="#ma40932b4c5" x="32.56" y="296.25481" style="stroke: #000000; stroke-width: 0.8"/>
      </g>
     </g>
     <g id="text_8">
      <!-- −3 -->
      <g transform="translate(10.817813 300.054029) scale(0.1 -0.1)">
       <use xlink:href="#DejaVuSans-2212"/>
       <use xlink:href="#DejaVuSans-33" x="83.789062"/>
      </g>
     </g>
    </g>
    <g id="ytick_2">
     <g id="line2d_17">
      <path d="M 32.56 252.051129 
L 450 252.051129 
" clip-path="url(#p84d0432ca6)" style="fill: none; stroke: #b0b0b0; stroke-width: 0.8; stroke-linecap: square"/>
     </g>
     <g id="line2d_18">
      <g>
       <use xlink:href="#ma40932b4c5" x="32.56" y="252.051129" style="stroke: #000000; stroke-width: 0.8"/>
      </g>
     </g>
     <g id="text_9">
      <!-- −2 -->
      <g transform="translate(10.817813 255.850348) scale(0.1 -0.1)">
       <use xlink:href="#DejaVuSans-2212"/>
       <use xlink:href="#DejaVuSans-32" x="83.789062"/>
      </g>
     </g>
    </g>
    <g id="ytick_3">
     <g id="line2d_19">
      <path d="M 32.56 207.847449 
L 450 207.847449 
" clip-path="url(#p84d0432ca6)" style="fill: none; stroke: #b0b0b0; stroke-width: 0.8; stroke-linecap: square"/>
     </g>
     <g id="line2d_20">
      <g>
       <use xlink:href="#ma40932b4c5" x="32.56" y="207.847449" style="stroke: #000000; stroke-width: 0.8"/>
      </g>
     </g>
     <g id="text_10">
      <!-- −1 -->
      <g transform="translate(10.817813 211.646668) scale(0.1 -0.1)">
       <use xlink:href="#DejaVuSans-2212"/>
       <use xlink:href="#DejaVuSans-31" x="83.789062"/>
      </g>
     </g>
    </g>
    <g id="ytick_4">
     <g id="line2d_21">
      <path d="M 32.56 163.643768 
L 450 163.643768 
" clip-path="url(#p84d0432ca6)" style="fill: none; stroke: #b0b0b0; stroke-width: 0.8; stroke-linecap: square"/>
     </g>
     <g id="line2d_22">
      <g>
       <use xlink:href="#ma40932b4c5" x="32.56" y="163.643768" style="stroke: #000000; stroke-width: 0.8"/>
      </g>
     </g>
     <g id="text_11">
      <!-- 0 -->
      <g transform="translate(19.1975 167.442987) scale(0.1 -0.1)">
       <use xlink:href="#DejaVuSans-30"/>
      </g>
     </g>
    </g>
    <g id="ytick_5">
     <g id="line2d_23">
      <path d="M 32.56 119.440088 
L 450 119.440088 
" clip-path="url(#p84d0432ca6)" style="fill: none; stroke: #b0b0b0; stroke-width: 0.8; stroke-linecap: square"/>
     </g>
     <g id="line2d_24">
      <g>
       <use xlink:href="#ma40932b4c5" x="32.56" y="119.440088" style="stroke: #000000; stroke-width: 0.8"/>
      </g>
     </g>
     <g id="text_12">
      <!-- 1 -->
      <g transform="translate(19.1975 123.239307) scale(0.1 -0.1)">
       <use xlink:href="#DejaVuSans-31"/>
      </g>
     </g>
    </g>
    <g id="ytick_6">
     <g id="line2d_25">
      <path d="M 32.56 75.236407 
L 450 75.236407 
" clip-path="url(#p84d0432ca6)" style="fill: none; stroke: #b0b0b0; stroke-width: 0.8; stroke-linecap: square"/>
     </g>
     <g id="line2d_26">
      <g>
       <use xlink:href="#ma40932b4c5" x="32.56" y="75.236407" style="stroke: #000000; stroke-width: 0.8"/>
      </g>
     </g>
     <g id="text_13">
      <!-- 2 -->
      <g transform="translate(19.1975 79.035626) scale(0.1 -0.1)">
       <use xlink:href="#DejaVuSans-32"/>
      </g>
     </g>
    </g>
    <g id="ytick_7">
     <g id="line2d_27">
      <path d="M 32.56 31.032727 
L 450 31.032727 
" clip-path="url(#p84d0432ca6)" style="fill: none; stroke: #b0b0b0; stroke-width: 0.8; stroke-linecap: square"/>
     </g>
     <g id="line2d_28">
      <g>
       <use xlink:href="#ma40932b4c5" x="32.56" y="31.032727" style="stroke: #000000; stroke-width: 0.8"/>
      </g>
     </g>
     <g id="text_14">
      <!-- 3 -->
      <g transform="translate(19.1975 34.831946) scale(0.1 -0.1)">
       <use xlink:href="#DejaVuSans-33"/>
      </g>
     </g>
    </g>
   </g>
   <g id="line2d_29">
    <defs>
     <path id="m2287e6b22c" d="M 0 2.5 
C 0.663008 2.5 1.29895 2.236584 1.767767 1.767767 
C 2.236584 1.29895 2.5 0.663008 2.5 0 
C 2.5 -0.663008 2.236584 -1.29895 1.767767 -1.767767 
C 1.29895 -2.236584 0.663008 -2.5 0 -2.5 
C -0.663008 -2.5 -1.29895 -2.236584 -1.767767 -1.767767 
C -2.236584 -1.29895 -2.5 -0.663008 -2.5 0 
C -2.5 0.663008 -2.236584 1.29895 -1.767767 1.767767 
C -1.29895 2.236584 -0.663008 2.5 0 2.5 
z
" style="stroke: #2ca02c"/>
    </defs>
    <g clip-path="url(#p84d0432ca6)">
     <use xlink:href="#m2287e6b22c" x="196.83219" y="195.310317" style="fill: #2ca02c; stroke: #2ca02c"/>
     <use xlink:href="#m2287e6b22c" x="193.237622" y="197.819671" style="fill: #2ca02c; stroke: #2ca02c"/>
     <use xlink:href="#m2287e6b22c" x="252.839191" y="159.13415" style="fill: #2ca02c; stroke: #2ca02c"/>
     <use xlink:href="#m2287e6b22c" x="197.74592" y="221.167596" style="fill: #2ca02c; stroke: #2ca02c"/>
     <use xlink:href="#m2287e6b22c" x="238.449584" y="213.812454" style="fill: #2ca02c; stroke: #2ca02c"/>
     <use xlink:href="#m2287e6b22c" x="121.176208" y="143.17386" style="fill: #2ca02c; stroke: #2ca02c"/>
     <use xlink:href="#m2287e6b22c" x="153.653334" y="206.125316" style="fill: #2ca02c; stroke: #2ca02c"/>
     <use xlink:href="#m2287e6b22c" x="196.388963" y="159.634268" style="fill: #2ca02c; stroke: #2ca02c"/>
     <use xlink:href="#m2287e6b22c" x="169.770248" y="246.988665" style="fill: #2ca02c; stroke: #2ca02c"/>
     <use xlink:href="#m2287e6b22c" x="198.999883" y="175.469169" style="fill: #2ca02c; stroke: #2ca02c"/>
     <use xlink:href="#m2287e6b22c" x="206.888431" y="230.550794" style="fill: #2ca02c; stroke: #2ca02c"/>
     <use xlink:href="#m2287e6b22c" x="205.019599" y="184.422598" style="fill: #2ca02c; stroke: #2ca02c"/>
     <use xlink:href="#m2287e6b22c" x="225.671951" y="232.452268" style="fill: #2ca02c; stroke: #2ca02c"/>
     <use xlink:href="#m2287e6b22c" x="174.145188" y="167.32002" style="fill: #2ca02c; stroke: #2ca02c"/>
     <use xlink:href="#m2287e6b22c" x="266.447496" y="240.246908" style="fill: #2ca02c; stroke: #2ca02c"/>
     <use xlink:href="#m2287e6b22c" x="143.172019" y="177.982564" style="fill: #2ca02c; stroke: #2ca02c"/>
     <use xlink:href="#m2287e6b22c" x="240.543441" y="167.985238" style="fill: #2ca02c; stroke: #2ca02c"/>
     <use xlink:href="#m2287e6b22c" x="282.796246" y="256.063686" style="fill: #2ca02c; stroke: #2ca02c"/>
     <use xlink:href="#m2287e6b22c" x="157.480489" y="265.078482" style="fill: #2ca02c; stroke: #2ca02c"/>
     <use xlink:href="#m2287e6b22c" x="86.758199" y="186.178188" style="fill: #2ca02c; stroke: #2ca02c"/>
     <use xlink:href="#m2287e6b22c" x="230.318164" y="133.555654" style="fill: #2ca02c; stroke: #2ca02c"/>
     <use xlink:href="#m2287e6b22c" x="251.029228" y="144.993489" style="fill: #2ca02c; stroke: #2ca02c"/>
     <use xlink:href="#m2287e6b22c" x="229.153598" y="212.865358" style="fill: #2ca02c; stroke: #2ca02c"/>
     <use xlink:href="#m2287e6b22c" x="190.960598" y="148.640912" style="fill: #2ca02c; stroke: #2ca02c"/>
     <use xlink:href="#m2287e6b22c" x="176.391628" y="202.664049" style="fill: #2ca02c; stroke: #2ca02c"/>
     <use xlink:href="#m2287e6b22c" x="236.848886" y="248.785333" style="fill: #2ca02c; stroke: #2ca02c"/>
     <use xlink:href="#m2287e6b22c" x="174.789475" y="217.86962" style="fill: #2ca02c; stroke: #2ca02c"/>
     <use xlink:href="#m2287e6b22c" x="262.240132" y="194.581133" style="fill: #2ca02c; stroke: #2ca02c"/>
     <use xlink:href="#m2287e6b22c" x="203.259566" y="236.16308" style="fill: #2ca02c; stroke: #2ca02c"/>
     <use xlink:href="#m2287e6b22c" x="209.462336" y="258.778168" style="fill: #2ca02c; stroke: #2ca02c"/>
     <use xlink:href="#m2287e6b22c" x="124.268426" y="192.50494" style="fill: #2ca02c; stroke: #2ca02c"/>
     <use xlink:href="#m2287e6b22c" x="164.74945" y="219.87332" style="fill: #2ca02c; stroke: #2ca02c"/>
     <use xlink:href="#m2287e6b22c" x="189.388217" y="193.647065" style="fill: #2ca02c; stroke: #2ca02c"/>
     <use xlink:href="#m2287e6b22c" x="147.911525" y="254.924963" style="fill: #2ca02c; stroke: #2ca02c"/>
     <use xlink:href="#m2287e6b22c" x="154.134281" y="195.020563" style="fill: #2ca02c; stroke: #2ca02c"/>
     <use xlink:href="#m2287e6b22c" x="163.199178" y="219.767629" style="fill: #2ca02c; stroke: #2ca02c"/>
     <use xlink:href="#m2287e6b22c" x="186.33808" y="194.234975" style="fill: #2ca02c; stroke: #2ca02c"/>
     <use xlink:href="#m2287e6b22c" x="124.931019" y="214.900376" style="fill: #2ca02c; stroke: #2ca02c"/>
     <use xlink:href="#m2287e6b22c" x="139.609347" y="182.071497" style="fill: #2ca02c; stroke: #2ca02c"/>
     <use xlink:href="#m2287e6b22c" x="154.446495" y="273.51632" style="fill: #2ca02c; stroke: #2ca02c"/>
     <use xlink:href="#m2287e6b22c" x="221.468942" y="203.813586" style="fill: #2ca02c; stroke: #2ca02c"/>
     <use xlink:href="#m2287e6b22c" x="169.817114" y="222.370821" style="fill: #2ca02c; stroke: #2ca02c"/>
     <use xlink:href="#m2287e6b22c" x="208.576228" y="196.785224" style="fill: #2ca02c; stroke: #2ca02c"/>
     <use xlink:href="#m2287e6b22c" x="251.266083" y="214.649012" style="fill: #2ca02c; stroke: #2ca02c"/>
     <use xlink:href="#m2287e6b22c" x="177.869597" y="205.985413" style="fill: #2ca02c; stroke: #2ca02c"/>
     <use xlink:href="#m2287e6b22c" x="155.137059" y="227.037913" style="fill: #2ca02c; stroke: #2ca02c"/>
     <use xlink:href="#m2287e6b22c" x="192.393809" y="214.05311" style="fill: #2ca02c; stroke: #2ca02c"/>
     <use xlink:href="#m2287e6b22c" x="147.009139" y="172.889463" style="fill: #2ca02c; stroke: #2ca02c"/>
     <use xlink:href="#m2287e6b22c" x="195.692592" y="194.520392" style="fill: #2ca02c; stroke: #2ca02c"/>
     <use xlink:href="#m2287e6b22c" x="220.170333" y="203.571309" style="fill: #2ca02c; stroke: #2ca02c"/>
    </g>
   </g>
   <g id="line2d_30">
    <defs>
     <path id="mf6a13c2bb6" d="M 0 2.5 
C 0.663008 2.5 1.29895 2.236584 1.767767 1.767767 
C 2.236584 1.29895 2.5 0.663008 2.5 0 
C 2.5 -0.663008 2.236584 -1.29895 1.767767 -1.767767 
C 1.29895 -2.236584 0.663008 -2.5 0 -2.5 
C -0.663008 -2.5 -1.29895 -2.236584 -1.767767 -1.767767 
C -2.236584 -1.29895 -2.5 -0.663008 -2.5 0 
C -2.5 0.663008 -2.236584 1.29895 -1.767767 1.767767 
C -1.29895 2.236584 -0.663008 2.5 0 2.5 
z
" style="stroke: #1f77b4"/>
    </defs>
    <g clip-path="url(#p84d0432ca6)">
     <use xlink:href="#mf6a13c2bb6" x="272.767966" y="193.15204" style="fill: #1f77b4; stroke: #1f77b4"/>
     <use xlink:href="#mf6a13c2bb6" x="254.038494" y="117.710672" style="fill: #1f77b4; stroke: #1f77b4"/>
     <use xlink:href="#mf6a13c2bb6" x="280.413404" y="118.860606" style="fill: #1f77b4; stroke: #1f77b4"/>
     <use xlink:href="#mf6a13c2bb6" x="273.083901" y="97.014457" style="fill: #1f77b4; stroke: #1f77b4"/>
     <use xlink:href="#mf6a13c2bb6" x="347.221991" y="108.932565" style="fill: #1f77b4; stroke: #1f77b4"/>
     <use xlink:href="#mf6a13c2bb6" x="326.258059" y="105.931603" style="fill: #1f77b4; stroke: #1f77b4"/>
     <use xlink:href="#mf6a13c2bb6" x="294.928223" y="141.436225" style="fill: #1f77b4; stroke: #1f77b4"/>
     <use xlink:href="#mf6a13c2bb6" x="386.862804" y="75.130497" style="fill: #1f77b4; stroke: #1f77b4"/>
     <use xlink:href="#mf6a13c2bb6" x="296.156256" y="62.638047" style="fill: #1f77b4; stroke: #1f77b4"/>
     <use xlink:href="#mf6a13c2bb6" x="323.891682" y="88.866391" style="fill: #1f77b4; stroke: #1f77b4"/>
     <use xlink:href="#mf6a13c2bb6" x="322.367823" y="126.345767" style="fill: #1f77b4; stroke: #1f77b4"/>
     <use xlink:href="#mf6a13c2bb6" x="270.696939" y="124.400886" style="fill: #1f77b4; stroke: #1f77b4"/>
     <use xlink:href="#mf6a13c2bb6" x="267.634136" y="101.562489" style="fill: #1f77b4; stroke: #1f77b4"/>
     <use xlink:href="#mf6a13c2bb6" x="375.477717" y="164.122021" style="fill: #1f77b4; stroke: #1f77b4"/>
     <use xlink:href="#mf6a13c2bb6" x="251.244303" y="55.00368" style="fill: #1f77b4; stroke: #1f77b4"/>
     <use xlink:href="#mf6a13c2bb6" x="324.344999" y="172.552721" style="fill: #1f77b4; stroke: #1f77b4"/>
     <use xlink:href="#mf6a13c2bb6" x="330.302428" y="92.138652" style="fill: #1f77b4; stroke: #1f77b4"/>
     <use xlink:href="#mf6a13c2bb6" x="258.272782" y="170.653514" style="fill: #1f77b4; stroke: #1f77b4"/>
     <use xlink:href="#mf6a13c2bb6" x="246.377298" y="110.586614" style="fill: #1f77b4; stroke: #1f77b4"/>
     <use xlink:href="#mf6a13c2bb6" x="256.88961" y="96.843348" style="fill: #1f77b4; stroke: #1f77b4"/>
     <use xlink:href="#mf6a13c2bb6" x="395.801801" y="88.127986" style="fill: #1f77b4; stroke: #1f77b4"/>
     <use xlink:href="#mf6a13c2bb6" x="344.726413" y="155.242798" style="fill: #1f77b4; stroke: #1f77b4"/>
     <use xlink:href="#mf6a13c2bb6" x="245.440326" y="134.742892" style="fill: #1f77b4; stroke: #1f77b4"/>
     <use xlink:href="#mf6a13c2bb6" x="336.361852" y="108.873386" style="fill: #1f77b4; stroke: #1f77b4"/>
     <use xlink:href="#mf6a13c2bb6" x="311.053164" y="75.466734" style="fill: #1f77b4; stroke: #1f77b4"/>
     <use xlink:href="#mf6a13c2bb6" x="315.027323" y="155.678094" style="fill: #1f77b4; stroke: #1f77b4"/>
     <use xlink:href="#mf6a13c2bb6" x="297.333391" y="158.165612" style="fill: #1f77b4; stroke: #1f77b4"/>
     <use xlink:href="#mf6a13c2bb6" x="266.272667" y="142.300566" style="fill: #1f77b4; stroke: #1f77b4"/>
     <use xlink:href="#mf6a13c2bb6" x="249.117886" y="91.447124" style="fill: #1f77b4; stroke: #1f77b4"/>
     <use xlink:href="#mf6a13c2bb6" x="333.759192" y="141.023383" style="fill: #1f77b4; stroke: #1f77b4"/>
     <use xlink:href="#mf6a13c2bb6" x="281.241781" y="58.131891" style="fill: #1f77b4; stroke: #1f77b4"/>
     <use xlink:href="#mf6a13c2bb6" x="374.843934" y="89.402206" style="fill: #1f77b4; stroke: #1f77b4"/>
     <use xlink:href="#mf6a13c2bb6" x="282.117132" y="144.220278" style="fill: #1f77b4; stroke: #1f77b4"/>
     <use xlink:href="#mf6a13c2bb6" x="247.286686" y="87.301911" style="fill: #1f77b4; stroke: #1f77b4"/>
     <use xlink:href="#mf6a13c2bb6" x="268.656907" y="146.838807" style="fill: #1f77b4; stroke: #1f77b4"/>
     <use xlink:href="#mf6a13c2bb6" x="288.03621" y="92.836443" style="fill: #1f77b4; stroke: #1f77b4"/>
     <use xlink:href="#mf6a13c2bb6" x="377.095181" y="70.356936" style="fill: #1f77b4; stroke: #1f77b4"/>
     <use xlink:href="#mf6a13c2bb6" x="320.200674" y="125.127322" style="fill: #1f77b4; stroke: #1f77b4"/>
     <use xlink:href="#mf6a13c2bb6" x="263.922524" y="56.116162" style="fill: #1f77b4; stroke: #1f77b4"/>
     <use xlink:href="#mf6a13c2bb6" x="314.231374" y="155.888259" style="fill: #1f77b4; stroke: #1f77b4"/>
     <use xlink:href="#mf6a13c2bb6" x="271.519473" y="118.384817" style="fill: #1f77b4; stroke: #1f77b4"/>
     <use xlink:href="#mf6a13c2bb6" x="305.705237" y="98.387043" style="fill: #1f77b4; stroke: #1f77b4"/>
     <use xlink:href="#mf6a13c2bb6" x="337.522858" y="116.537523" style="fill: #1f77b4; stroke: #1f77b4"/>
     <use xlink:href="#mf6a13c2bb6" x="284.54081" y="165.023519" style="fill: #1f77b4; stroke: #1f77b4"/>
     <use xlink:href="#mf6a13c2bb6" x="252.287134" y="133.955031" style="fill: #1f77b4; stroke: #1f77b4"/>
     <use xlink:href="#mf6a13c2bb6" x="278.685838" y="55.470774" style="fill: #1f77b4; stroke: #1f77b4"/>
     <use xlink:href="#mf6a13c2bb6" x="268.867948" y="68.284895" style="fill: #1f77b4; stroke: #1f77b4"/>
     <use xlink:href="#mf6a13c2bb6" x="238.312578" y="104.87304" style="fill: #1f77b4; stroke: #1f77b4"/>
     <use xlink:href="#mf6a13c2bb6" x="261.825194" y="82.407915" style="fill: #1f77b4; stroke: #1f77b4"/>
     <use xlink:href="#mf6a13c2bb6" x="337.434698" y="124.5791" style="fill: #1f77b4; stroke: #1f77b4"/>
    </g>
   </g>
   <g id="patch_3">
    <path d="M 32.56 317.72 
L 32.56 10.8 
" style="fill: none; stroke: #000000; stroke-width: 0.8; stroke-linejoin: miter; stroke-linecap: square"/>
   </g>
   <g id="patch_4">
    <path d="M 450 317.72 
L 450 10.8 
" style="fill: none"/>
   </g>
   <g id="patch_5">
    <path d="M 32.56 317.72 
L 450 317.72 
" style="fill: none; stroke: #000000; stroke-width: 0.8; stroke-linejoin: miter; stroke-linecap: square"/>
   </g>
   <g id="patch_6">
    <path d="M 32.56 10.8 
L 450 10.8 
" style="fill: none"/>
   </g>
  </g>
 </g>
 <defs>
  <clipPath id="p84d0432ca6">
   <rect x="32.56" y="10.8" width="417.44" height="306.92"/>
  </clipPath>
 </defs>
</svg>
