<?xml version="1.0" encoding="UTF-8" standalone="no"?>
<!-- Created with Inkscape (http://www.inkscape.org/) -->

<svg
   xmlns:ns1="http://www.iki.fi/pav/software/textext/"
   xmlns:dc="http://purl.org/dc/elements/1.1/"
   xmlns:cc="http://creativecommons.org/ns#"
   xmlns:rdf="http://www.w3.org/1999/02/22-rdf-syntax-ns#"
   xmlns:svg="http://www.w3.org/2000/svg"
   xmlns="http://www.w3.org/2000/svg"
   xmlns:sodipodi="http://sodipodi.sourceforge.net/DTD/sodipodi-0.dtd"
   xmlns:inkscape="http://www.inkscape.org/namespaces/inkscape"
   width="469.17865mm"
   height="225.98532mm"
   viewBox="0 0 469.17865 225.98532"
   version="1.1"
   id="svg8827"
   inkscape:version="0.92.5 (2060ec1f9f, 2020-04-08)"
   sodipodi:docname="eij_gn.svg">
  <defs
     id="defs8821">
    <marker
       inkscape:stockid="Arrow1Mend"
       orient="auto"
       refY="0"
       refX="0"
       id="Arrow1Mend"
       style="overflow:visible"
       inkscape:isstock="true">
      <path
         id="path10175"
         d="M 0,0 5,-5 -12.5,0 5,5 Z"
         style="fill:#3465a4;fill-opacity:1;fill-rule:evenodd;stroke:#3465a4;stroke-width:1.00000003pt;stroke-opacity:1"
         transform="matrix(-0.4,0,0,-0.4,-4,0)"
         inkscape:connector-curvature="0" />
    </marker>
    <marker
       inkscape:stockid="Arrow1Mend"
       orient="auto"
       refY="0"
       refX="0"
       id="Arrow1Mend-4"
       style="overflow:visible"
       inkscape:isstock="true">
      <path
         inkscape:connector-curvature="0"
         id="path10175-3"
         d="M 0,0 5,-5 -12.5,0 5,5 Z"
         style="fill:#cc0000;fill-opacity:1;fill-rule:evenodd;stroke:#cc0000;stroke-width:1.00000003pt;stroke-opacity:1"
         transform="matrix(-0.4,0,0,-0.4,-4,0)" />
    </marker>
    <marker
       inkscape:stockid="Arrow1Mend"
       orient="auto"
       refY="0"
       refX="0"
       id="Arrow1Mend-4-3"
       style="overflow:visible"
       inkscape:isstock="true">
      <path
         inkscape:connector-curvature="0"
         id="path10175-3-8"
         d="M 0,0 5,-5 -12.5,0 5,5 Z"
         style="fill:#cc0000;fill-opacity:1;fill-rule:evenodd;stroke:#cc0000;stroke-width:1.00000003pt;stroke-opacity:1"
         transform="matrix(-0.4,0,0,-0.4,-4,0)" />
    </marker>
  </defs>
  <sodipodi:namedview
     id="base"
     pagecolor="#ffffff"
     bordercolor="#666666"
     borderopacity="1.0"
     inkscape:pageopacity="0.0"
     inkscape:pageshadow="2"
     inkscape:zoom="0.35"
     inkscape:cx="916.76535"
     inkscape:cy="557.61314"
     inkscape:document-units="mm"
     inkscape:current-layer="layer1"
     showgrid="false"
     inkscape:window-width="1920"
     inkscape:window-height="1016"
     inkscape:window-x="0"
     inkscape:window-y="27"
     inkscape:window-maximized="1"
     fit-margin-top="0"
     fit-margin-left="0"
     fit-margin-right="0"
     fit-margin-bottom="0" />
  <metadata
     id="metadata8824">
    <rdf:RDF>
      <cc:Work
         rdf:about="">
        <dc:format>image/svg+xml</dc:format>
        <dc:type
           rdf:resource="http://purl.org/dc/dcmitype/StillImage" />
        <dc:title></dc:title>
      </cc:Work>
    </rdf:RDF>
  </metadata>
  <g
     inkscape:label="Calque 1"
     inkscape:groupmode="layer"
     id="layer1"
     transform="translate(160.0166,15.205743)">
    <g
       id="g9292"
       ns1:jacobian_sqrt="3.527778"
       ns1:alignment="middle center"
       ns1:scale="10.0"
       ns1:preamble="/home/bgauzere/.config/inkscape/extensions/textext/default_packages.tex"
       ns1:text="$\\boldsymbol{h}_i^{(\\ell)}$\n"
       ns1:pdfconverter="pdf2svg"
       ns1:texconverter="pdflatex"
       ns1:version="0.11.0"
       transform="matrix(3.527778,0,0,3.527778,-424.21675,-350.05916)"
       style="fill:#cc0000">
      <g
         id="surface1"
         style="fill:#cc0000">
        <g
           id="g9273"
           style="fill:#cc0000;fill-opacity:1">
          <path
             id="path9271"
             transform="translate(148.712,135.207)"
             d="M 3.15625,-6.5625 C 3.1875,-6.703125 3.1875,-6.734375 3.1875,-6.734375 c 0,-0.140625 -0.109375,-0.1875 -0.21875,-0.1875 -0.03125,0 -0.046875,0 -0.0625,0.015625 l -1.296875,0.0625 c -0.140625,0 -0.3125,0.015625 -0.3125,0.296875 0,0.171875 0.171875,0.171875 0.265625,0.171875 0.109375,0 0.28125,0 0.40625,0.03125 l -1.4375,5.75 C 0.53125,-0.5625 0.5,-0.40625 0.5,-0.375 c 0,0.25 0.1875,0.453125 0.484375,0.453125 0.046875,0 0.5,0 0.640625,-0.5625 L 2.21875,-2.84375 c 0.046875,-0.1875 0.046875,-0.203125 0.203125,-0.40625 0.15625,-0.21875 0.65625,-0.890625 1.484375,-0.890625 0.265625,0 0.5,0.09375 0.5,0.578125 0,0.578125 -0.4375,1.75 -0.625,2.234375 -0.109375,0.265625 -0.140625,0.34375 -0.140625,0.515625 0,0.578125 0.578125,0.890625 1.125,0.890625 1.0625,0 1.546875,-1.359375 1.546875,-1.546875 0,-0.140625 -0.140625,-0.140625 -0.234375,-0.140625 -0.109375,0 -0.1875,0 -0.21875,0.125 -0.328125,1.109375 -0.875,1.203125 -1.03125,1.203125 -0.078125,0 -0.171875,0 -0.171875,-0.203125 0,-0.21875 0.109375,-0.5 0.171875,-0.65625 C 5.015625,-1.625 5.46875,-2.796875 5.46875,-3.34375 5.46875,-4.265625 4.703125,-4.5 3.984375,-4.5 c -0.21875,0 -0.828125,0 -1.5,0.609375 z m 0,0"
             style="fill:#cc0000;stroke:none;stroke-width:0"
             inkscape:connector-curvature="0" />
        </g>
        <g
           id="g9277"
           style="fill:#cc0000;fill-opacity:1">
          <path
             id="path9275"
             transform="translate(155.363,130.032)"
             d="M 2.46875,-5.21875 C 1.15625,-4.296875 0.796875,-2.8125 0.796875,-1.75 c 0,0.984375 0.296875,2.515625 1.671875,3.484375 0.0625,0 0.140625,0 0.140625,-0.078125 0,-0.046875 -0.015625,-0.0625 -0.0625,-0.109375 C 1.609375,0.703125 1.28125,-0.46875 1.28125,-1.734375 1.28125,-3.625 2,-4.546875 2.5625,-5.0625 2.59375,-5.09375 2.609375,-5.109375 2.609375,-5.140625 2.609375,-5.21875 2.53125,-5.21875 2.46875,-5.21875 Z m 0,0"
             style="fill:#cc0000;stroke:none;stroke-width:0"
             inkscape:connector-curvature="0" />
        </g>
        <g
           id="g9281"
           style="fill:#cc0000;fill-opacity:1">
          <path
             id="path9279"
             transform="translate(158.477,130.032)"
             d="M 0.828125,-0.953125 C 0.90625,-0.5 1.125,0.078125 1.71875,0.078125 1.9375,0.078125 2.1875,0 2.453125,-0.171875 2.5625,-0.234375 2.921875,-0.5 2.921875,-0.578125 c 0,-0.046875 -0.046875,-0.125 -0.109375,-0.125 -0.03125,0 -0.046875,0 -0.15625,0.09375 -0.296875,0.265625 -0.609375,0.5 -0.921875,0.5 C 1.25,-0.109375 1.25,-0.921875 1.25,-1.0625 c 0,-0.09375 0,-0.09375 0.015625,-0.234375 0.015625,-0.0625 0.015625,-0.078125 0.09375,-0.15625 0.375,-0.359375 1.703125,-1.640625 1.703125,-2.84375 0,-0.109375 0,-0.609375 -0.46875,-0.609375 C 2.015625,-4.90625 1.546875,-4 1.4375,-3.796875 1.140625,-3.203125 0.96875,-2.640625 0.90625,-2.28125 0.796875,-1.8125 0.796875,-1.578125 0.796875,-1.234375 0.75,-1.1875 0.34375,-0.828125 0.28125,-0.78125 c -0.109375,0.109375 -0.125,0.109375 -0.125,0.15625 0,0.046875 0.0625,0.125 0.125,0.125 0.046875,0 0.234375,-0.171875 0.28125,-0.21875 z m 0.5,-0.796875 C 1.453125,-2.453125 2,-4.703125 2.59375,-4.703125 c 0.15625,0 0.25,0.109375 0.25,0.359375 0,0.078125 0,0.703125 -0.609375,1.5625 C 1.875,-2.28125 1.5,-1.90625 1.328125,-1.75 Z m 0,0"
             style="fill:#cc0000;stroke:none;stroke-width:0"
             inkscape:connector-curvature="0" />
        </g>
        <g
           id="g9285"
           style="fill:#cc0000;fill-opacity:1">
          <path
             id="path9283"
             transform="translate(161.811,130.032)"
             d="m 0.625,-5.21875 c -0.046875,0 -0.125,0 -0.125,0.078125 0,0.03125 0.015625,0.046875 0.0625,0.109375 0.59375,0.546875 1.265625,1.484375 1.265625,3.28125 0,1.453125 -0.453125,2.5625 -1.203125,3.234375 -0.125,0.125 -0.125,0.125 -0.125,0.171875 0,0.03125 0.015625,0.078125 0.078125,0.078125 0.09375,0 0.75,-0.453125 1.21875,-1.328125 0.296875,-0.578125 0.5,-1.328125 0.5,-2.140625 C 2.296875,-2.71875 2,-4.25 0.625,-5.21875 Z m 0,0"
             style="fill:#cc0000;stroke:none;stroke-width:0"
             inkscape:connector-curvature="0" />
        </g>
        <g
           id="g9289"
           style="fill:#cc0000;fill-opacity:1">
          <path
             id="path9287"
             transform="translate(155.363,137.984)"
             d="m 2.265625,-4.359375 c 0,-0.109375 -0.09375,-0.265625 -0.28125,-0.265625 -0.1875,0 -0.390625,0.1875 -0.390625,0.390625 0,0.109375 0.078125,0.265625 0.28125,0.265625 0.1875,0 0.390625,-0.203125 0.390625,-0.390625 z M 0.84375,-0.8125 c -0.03125,0.09375 -0.0625,0.171875 -0.0625,0.296875 0,0.328125 0.265625,0.578125 0.65625,0.578125 0.6875,0 1,-0.953125 1,-1.0625 0,-0.09375 -0.09375,-0.09375 -0.109375,-0.09375 -0.09375,0 -0.109375,0.046875 -0.140625,0.125 -0.15625,0.5625 -0.453125,0.84375 -0.734375,0.84375 -0.140625,0 -0.171875,-0.09375 -0.171875,-0.25 0,-0.15625 0.046875,-0.28125 0.109375,-0.4375 C 1.46875,-1 1.546875,-1.1875 1.609375,-1.375 1.671875,-1.546875 1.9375,-2.171875 1.953125,-2.265625 1.984375,-2.328125 2,-2.40625 2,-2.484375 2,-2.8125 1.71875,-3.078125 1.34375,-3.078125 0.640625,-3.078125 0.328125,-2.125 0.328125,-2 c 0,0.078125 0.09375,0.078125 0.125,0.078125 0.09375,0 0.09375,-0.03125 0.125,-0.109375 C 0.75,-2.625 1.0625,-2.875 1.3125,-2.875 c 0.109375,0 0.171875,0.046875 0.171875,0.234375 0,0.171875 -0.03125,0.265625 -0.203125,0.703125 z m 0,0"
             style="fill:#cc0000;stroke:none;stroke-width:0"
             inkscape:connector-curvature="0" />
        </g>
      </g>
    </g>
    <g
       id="g8834"
       style="fill:#000000;fill-opacity:1"
       transform="matrix(3.527778,0,0,3.527778,-686.34829,-350.05916)">
      <path
         id="path8832"
         transform="translate(148.712,135.207)"
         d="m 2.21875,-2.171875 c 0.65625,0 1.3125,-0.0625 1.734375,-0.203125 C 4.796875,-2.65625 4.9375,-3.234375 4.9375,-3.546875 4.9375,-4.125 4.390625,-4.5 3.5625,-4.5 c -1.796875,0 -3.078125,1.234375 -3.078125,2.78125 0,1.15625 0.765625,1.796875 2.09375,1.796875 0.25,0 0.9375,-0.015625 1.53125,-0.234375 0.578125,-0.234375 0.984375,-0.640625 0.984375,-0.765625 0,-0.078125 -0.15625,-0.25 -0.25,-0.25 -0.0625,0 -0.078125,0.03125 -0.15625,0.109375 C 4.15625,-0.5 3.375,-0.28125 2.609375,-0.28125 1.890625,-0.28125 1.625,-0.671875 1.625,-1.25 c 0,-0.1875 0.046875,-0.515625 0.15625,-0.921875 z M 1.859375,-2.53125 c 0.1875,-0.734375 0.421875,-1 0.59375,-1.15625 0.34375,-0.34375 0.8125,-0.453125 1.109375,-0.453125 0.359375,0 0.78125,0.15625 0.78125,0.609375 0,1 -1.515625,1 -2.484375,1 z m 0,0"
         style="stroke:none;stroke-width:0"
         inkscape:connector-curvature="0" />
    </g>
    <g
       id="g8838"
       style="fill:#000000;fill-opacity:1"
       transform="matrix(3.527778,0,0,3.527778,-686.34829,-350.05916)">
      <path
         id="path8836"
         transform="translate(154.228,130.032)"
         d="M 2.46875,-5.21875 C 1.15625,-4.296875 0.796875,-2.8125 0.796875,-1.75 c 0,0.984375 0.296875,2.515625 1.671875,3.484375 0.0625,0 0.140625,0 0.140625,-0.078125 0,-0.046875 -0.015625,-0.0625 -0.0625,-0.109375 C 1.609375,0.703125 1.28125,-0.46875 1.28125,-1.734375 1.28125,-3.625 2,-4.546875 2.5625,-5.0625 2.59375,-5.09375 2.609375,-5.109375 2.609375,-5.140625 2.609375,-5.21875 2.53125,-5.21875 2.46875,-5.21875 Z m 0,0"
         style="stroke:none;stroke-width:0"
         inkscape:connector-curvature="0" />
    </g>
    <g
       id="g8842"
       style="fill:#000000;fill-opacity:1"
       transform="matrix(3.527778,0,0,3.527778,-686.34829,-350.05916)">
      <path
         id="path8840"
         transform="translate(157.341,130.032)"
         d="M 0.828125,-0.953125 C 0.90625,-0.5 1.125,0.078125 1.71875,0.078125 1.9375,0.078125 2.1875,0 2.453125,-0.171875 2.5625,-0.234375 2.921875,-0.5 2.921875,-0.578125 c 0,-0.046875 -0.046875,-0.125 -0.109375,-0.125 -0.03125,0 -0.046875,0 -0.15625,0.09375 -0.296875,0.265625 -0.609375,0.5 -0.921875,0.5 C 1.25,-0.109375 1.25,-0.921875 1.25,-1.0625 c 0,-0.09375 0,-0.09375 0.015625,-0.234375 0.015625,-0.0625 0.015625,-0.078125 0.09375,-0.15625 0.375,-0.359375 1.703125,-1.640625 1.703125,-2.84375 0,-0.109375 0,-0.609375 -0.46875,-0.609375 C 2.015625,-4.90625 1.546875,-4 1.4375,-3.796875 1.140625,-3.203125 0.96875,-2.640625 0.90625,-2.28125 0.796875,-1.8125 0.796875,-1.578125 0.796875,-1.234375 0.75,-1.1875 0.34375,-0.828125 0.28125,-0.78125 c -0.109375,0.109375 -0.125,0.109375 -0.125,0.15625 0,0.046875 0.0625,0.125 0.125,0.125 0.046875,0 0.234375,-0.171875 0.28125,-0.21875 z m 0.5,-0.796875 C 1.453125,-2.453125 2,-4.703125 2.59375,-4.703125 c 0.15625,0 0.25,0.109375 0.25,0.359375 0,0.078125 0,0.703125 -0.609375,1.5625 C 1.875,-2.28125 1.5,-1.90625 1.328125,-1.75 Z m 0,0"
         style="stroke:none;stroke-width:0"
         inkscape:connector-curvature="0" />
    </g>
    <g
       id="g8850"
       style="fill:#000000;fill-opacity:1"
       transform="matrix(3.527778,0,0,3.527778,-686.34829,-350.05916)">
      <path
         id="path8844"
         transform="translate(160.676,130.032)"
         d="m 3.21875,-1.578125 h 2.140625 c 0.09375,0 0.25,0 0.25,-0.15625 0,-0.1875 -0.15625,-0.1875 -0.25,-0.1875 H 3.21875 V -4.0625 c 0,-0.078125 0,-0.25 -0.15625,-0.25 -0.171875,0 -0.171875,0.15625 -0.171875,0.25 v 2.140625 H 0.75 c -0.09375,0 -0.265625,0 -0.265625,0.171875 0,0.171875 0.15625,0.171875 0.265625,0.171875 H 2.890625 V 0.5625 c 0,0.09375 0,0.265625 0.15625,0.265625 0.171875,0 0.171875,-0.171875 0.171875,-0.265625 z m 0,0"
         style="stroke:none;stroke-width:0"
         inkscape:connector-curvature="0" />
      <path
         id="path8846"
         transform="translate(166.79202,130.032)"
         d="m 2.328125,-4.4375 c 0,-0.1875 0,-0.1875 -0.203125,-0.1875 -0.453125,0.4375 -1.078125,0.4375 -1.359375,0.4375 v 0.25 c 0.15625,0 0.625,0 1,-0.1875 v 3.546875 c 0,0.234375 0,0.328125 -0.6875,0.328125 H 0.8125 V 0 c 0.125,0 0.984375,-0.03125 1.234375,-0.03125 0.21875,0 1.09375,0.03125 1.25,0.03125 V -0.25 H 3.03125 c -0.703125,0 -0.703125,-0.09375 -0.703125,-0.328125 z m 0,0"
         style="stroke:none;stroke-width:0"
         inkscape:connector-curvature="0" />
      <path
         id="path8848"
         transform="translate(170.7636,130.032)"
         d="m 0.625,-5.21875 c -0.046875,0 -0.125,0 -0.125,0.078125 0,0.03125 0.015625,0.046875 0.0625,0.109375 0.59375,0.546875 1.265625,1.484375 1.265625,3.28125 0,1.453125 -0.453125,2.5625 -1.203125,3.234375 -0.125,0.125 -0.125,0.125 -0.125,0.171875 0,0.03125 0.015625,0.078125 0.078125,0.078125 0.09375,0 0.75,-0.453125 1.21875,-1.328125 0.296875,-0.578125 0.5,-1.328125 0.5,-2.140625 C 2.296875,-2.71875 2,-4.25 0.625,-5.21875 Z m 0,0"
         style="stroke:none;stroke-width:0"
         inkscape:connector-curvature="0" />
    </g>
    <g
       id="g8856"
       style="fill:#000000;fill-opacity:1"
       transform="matrix(3.527778,0,0,3.527778,-686.34829,-350.05916)">
      <path
         id="path8852"
         transform="translate(154.228,137.984)"
         d="m 2.265625,-4.359375 c 0,-0.109375 -0.09375,-0.265625 -0.28125,-0.265625 -0.1875,0 -0.390625,0.1875 -0.390625,0.390625 0,0.109375 0.078125,0.265625 0.28125,0.265625 0.1875,0 0.390625,-0.203125 0.390625,-0.390625 z M 0.84375,-0.8125 c -0.03125,0.09375 -0.0625,0.171875 -0.0625,0.296875 0,0.328125 0.265625,0.578125 0.65625,0.578125 0.6875,0 1,-0.953125 1,-1.0625 0,-0.09375 -0.09375,-0.09375 -0.109375,-0.09375 -0.09375,0 -0.109375,0.046875 -0.140625,0.125 -0.15625,0.5625 -0.453125,0.84375 -0.734375,0.84375 -0.140625,0 -0.171875,-0.09375 -0.171875,-0.25 0,-0.15625 0.046875,-0.28125 0.109375,-0.4375 C 1.46875,-1 1.546875,-1.1875 1.609375,-1.375 1.671875,-1.546875 1.9375,-2.171875 1.953125,-2.265625 1.984375,-2.328125 2,-2.40625 2,-2.484375 2,-2.8125 1.71875,-3.078125 1.34375,-3.078125 0.640625,-3.078125 0.328125,-2.125 0.328125,-2 c 0,0.078125 0.09375,0.078125 0.125,0.078125 0.09375,0 0.09375,-0.03125 0.125,-0.109375 C 0.75,-2.625 1.0625,-2.875 1.3125,-2.875 c 0.109375,0 0.171875,0.046875 0.171875,0.234375 0,0.171875 -0.03125,0.265625 -0.203125,0.703125 z m 0,0"
         style="stroke:none;stroke-width:0"
         inkscape:connector-curvature="0" />
      <path
         id="path8854"
         transform="translate(157.04681,137.984)"
         d="M 3.0625,-4.359375 C 3.0625,-4.46875 2.96875,-4.625 2.78125,-4.625 c -0.203125,0 -0.390625,0.203125 -0.390625,0.390625 0,0.109375 0.078125,0.265625 0.28125,0.265625 0.1875,0 0.390625,-0.1875 0.390625,-0.390625 z M 1.578125,0.34375 C 1.46875,0.828125 1.09375,1.21875 0.6875,1.21875 c -0.09375,0 -0.171875,0 -0.25,-0.03125 0.171875,-0.09375 0.234375,-0.25 0.234375,-0.359375 0,-0.171875 -0.140625,-0.25 -0.28125,-0.25 C 0.1875,0.578125 0,0.765625 0,0.984375 c 0,0.265625 0.265625,0.4375 0.6875,0.4375 0.421875,0 1.234375,-0.25 1.453125,-1.09375 l 0.625,-2.5 c 0.015625,-0.078125 0.03125,-0.140625 0.03125,-0.25 0,-0.375 -0.328125,-0.65625 -0.734375,-0.65625 -0.78125,0 -1.21875,0.96875 -1.21875,1.078125 0,0.078125 0.09375,0.078125 0.109375,0.078125 0.078125,0 0.09375,-0.015625 0.140625,-0.125 C 1.265625,-2.453125 1.625,-2.875 2.03125,-2.875 c 0.171875,0 0.234375,0.109375 0.234375,0.34375 0,0.078125 0,0.171875 -0.015625,0.203125 z m 0,0"
         style="stroke:none;stroke-width:0"
         inkscape:connector-curvature="0" />
    </g>
    <g
       id="g8860"
       style="fill:#000000;fill-opacity:1"
       transform="matrix(3.527778,0,0,3.527778,-686.34829,-350.05916)">
      <path
         id="path8858"
         transform="translate(177.142,135.207)"
         d="m 6.84375,-3.265625 c 0.15625,0 0.34375,0 0.34375,-0.1875 C 7.1875,-3.65625 7,-3.65625 6.859375,-3.65625 h -5.96875 c -0.140625,0 -0.328125,0 -0.328125,0.203125 0,0.1875 0.1875,0.1875 0.328125,0.1875 z m 0.015625,1.9375 c 0.140625,0 0.328125,0 0.328125,-0.203125 0,-0.1875 -0.1875,-0.1875 -0.34375,-0.1875 H 0.890625 c -0.140625,0 -0.328125,0 -0.328125,0.1875 0,0.203125 0.1875,0.203125 0.328125,0.203125 z m 0,0"
         style="stroke:none;stroke-width:0"
         inkscape:connector-curvature="0" />
    </g>
    <g
       id="g8864"
       style="fill:#3465a4;fill-opacity:1;stroke:#3465a4"
       transform="matrix(3.527778,0,0,3.527778,-686.34829,-350.05916)">
      <path
         id="path8862"
         transform="translate(187.658,135.207)"
         d="M 4.6875,-3.765625 C 4.703125,-3.8125 4.71875,-3.875 4.71875,-3.9375 c 0,-0.171875 -0.109375,-0.265625 -0.28125,-0.265625 -0.09375,0 -0.375,0.0625 -0.40625,0.421875 -0.1875,-0.359375 -0.53125,-0.625 -0.9375,-0.625 -1.125,0 -2.359375,1.390625 -2.359375,2.828125 0,0.984375 0.59375,1.578125 1.3125,1.578125 0.59375,0 1.0625,-0.46875 1.15625,-0.578125 L 3.21875,-0.5625 C 3.015625,0.3125 2.890625,0.734375 2.890625,0.75 2.84375,0.84375 2.515625,1.828125 1.453125,1.828125 1.265625,1.828125 0.9375,1.8125 0.65625,1.71875 0.953125,1.640625 1.0625,1.375 1.0625,1.203125 c 0,-0.15625 -0.109375,-0.34375 -0.375,-0.34375 -0.21875,0 -0.53125,0.171875 -0.53125,0.578125 0,0.40625 0.359375,0.609375 1.3125,0.609375 1.25,0 1.96875,-0.78125 2.125,-1.375 z M 3.40625,-1.28125 C 3.34375,-1.015625 3.109375,-0.765625 2.890625,-0.578125 2.6875,-0.40625 2.375,-0.21875 2.078125,-0.21875 c -0.5,0 -0.640625,-0.515625 -0.640625,-0.921875 0,-0.46875 0.28125,-1.65625 0.5625,-2.15625 C 2.265625,-3.78125 2.6875,-4.1875 3.109375,-4.1875 c 0.65625,0 0.796875,0.8125 0.796875,0.859375 0,0.046875 -0.015625,0.109375 -0.03125,0.140625 z m 0,0"
         style="fill:#3465a4;stroke:#3465a4;stroke-width:0"
         inkscape:connector-curvature="0" />
    </g>
    <g
       id="g8868"
       style="fill:#3465a4;fill-opacity:1;stroke:#3465a4"
       transform="matrix(3.527778,0,0,3.527778,-689.52331,-346.88414)">
      <path
         id="path8866"
         transform="translate(192.41,136.702)"
         d="m 5.515625,-1.609375 c 0.046875,-0.09375 0.046875,-0.125 0.046875,-0.125 0,-0.046875 -0.03125,-0.09375 -0.125,-0.09375 -0.015625,0 -0.046875,0 -0.078125,0.015625 0,0.015625 -0.015625,0.03125 -0.09375,0.203125 C 4.8125,-0.59375 4.453125,-0.25 3.3125,-0.25 H 2.125 c -0.203125,0 -0.21875,-0.015625 -0.21875,-0.078125 0,0 0,-0.03125 0.03125,-0.140625 L 2.40625,-2.328125 H 3.1875 c 0.546875,0 0.625,0.078125 0.625,0.3125 0,0.078125 -0.015625,0.203125 -0.046875,0.3125 C 3.75,-1.640625 3.75,-1.625 3.75,-1.609375 c 0,0 0,0.09375 0.125,0.09375 0.09375,0 0.09375,-0.03125 0.125,-0.15625 l 0.390625,-1.53125 c 0.015625,-0.078125 0.015625,-0.09375 0.015625,-0.09375 0,-0.078125 -0.0625,-0.109375 -0.125,-0.109375 -0.09375,0 -0.09375,0.046875 -0.140625,0.1875 C 4,-2.671875 3.796875,-2.578125 3.203125,-2.578125 H 2.46875 L 2.890625,-4.25 c 0.046875,-0.203125 0.0625,-0.234375 0.34375,-0.234375 H 4.375 c 0.921875,0 1.140625,0.1875 1.140625,0.8125 0,0.1875 -0.03125,0.390625 -0.03125,0.421875 0,0.0625 0.03125,0.125 0.125,0.125 0.109375,0 0.109375,-0.0625 0.125,-0.1875 l 0.125,-1.203125 C 5.875,-4.734375 5.828125,-4.734375 5.65625,-4.734375 H 1.828125 c -0.140625,0 -0.21875,0 -0.21875,0.15625 0,0.09375 0.0625,0.09375 0.21875,0.09375 0.109375,0 0.140625,0 0.265625,0.015625 C 2.234375,-4.453125 2.25,-4.4375 2.25,-4.375 c 0,0.046875 -0.015625,0.125 -0.03125,0.15625 L 1.3125,-0.578125 C 1.234375,-0.296875 1.234375,-0.25 0.6875,-0.25 c -0.125,0 -0.203125,0 -0.203125,0.15625 C 0.484375,0 0.5625,0 0.6875,0 H 4.625 c 0.171875,0 0.1875,0 0.234375,-0.125 z m 0,0"
         style="fill:#3465a4;stroke:#3465a4;stroke-width:0"
         inkscape:connector-curvature="0" />
    </g>
    <g
       id="g8872"
       style="fill:#3465a4;fill-opacity:1;stroke:#3465a4"
       transform="matrix(3.527778,0,0,3.527778,-686.34829,-350.05916)">
      <path
         id="path8870"
         transform="translate(199.14,135.207)"
         d="m 3.296875,2.390625 c 0,-0.03125 0,-0.046875 -0.171875,-0.21875 C 1.890625,0.921875 1.5625,-0.96875 1.5625,-2.5 c 0,-1.734375 0.375,-3.46875 1.609375,-4.703125 0.125,-0.125 0.125,-0.140625 0.125,-0.171875 0,-0.078125 -0.03125,-0.109375 -0.09375,-0.109375 -0.109375,0 -1,0.6875 -1.59375,1.953125 -0.5,1.09375 -0.625,2.203125 -0.625,3.03125 0,0.78125 0.109375,1.984375 0.65625,3.125 C 2.25,1.84375 3.09375,2.5 3.203125,2.5 c 0.0625,0 0.09375,-0.03125 0.09375,-0.109375 z m 0,0"
         style="fill:#3465a4;stroke:#3465a4;stroke-width:0"
         inkscape:connector-curvature="0" />
    </g>
    <g
       id="g8876"
       style="fill:#000000;fill-opacity:1"
       transform="matrix(3.527778,0,0,3.527778,-686.34829,-350.05916)">
      <path
         id="path8874"
         transform="translate(203.014,135.207)"
         d="m 2.21875,-2.171875 c 0.65625,0 1.3125,-0.0625 1.734375,-0.203125 C 4.796875,-2.65625 4.9375,-3.234375 4.9375,-3.546875 4.9375,-4.125 4.390625,-4.5 3.5625,-4.5 c -1.796875,0 -3.078125,1.234375 -3.078125,2.78125 0,1.15625 0.765625,1.796875 2.09375,1.796875 0.25,0 0.9375,-0.015625 1.53125,-0.234375 0.578125,-0.234375 0.984375,-0.640625 0.984375,-0.765625 0,-0.078125 -0.15625,-0.25 -0.25,-0.25 -0.0625,0 -0.078125,0.03125 -0.15625,0.109375 C 4.15625,-0.5 3.375,-0.28125 2.609375,-0.28125 1.890625,-0.28125 1.625,-0.671875 1.625,-1.25 c 0,-0.1875 0.046875,-0.515625 0.15625,-0.921875 z M 1.859375,-2.53125 c 0.1875,-0.734375 0.421875,-1 0.59375,-1.15625 0.34375,-0.34375 0.8125,-0.453125 1.109375,-0.453125 0.359375,0 0.78125,0.15625 0.78125,0.609375 0,1 -1.515625,1 -2.484375,1 z m 0,0"
         style="stroke:none;stroke-width:0"
         inkscape:connector-curvature="0" />
    </g>
    <g
       id="g8880"
       style="fill:#000000;fill-opacity:1"
       transform="matrix(3.527778,0,0,3.527778,-686.34829,-350.05916)">
      <path
         id="path8878"
         transform="translate(208.53,130.032)"
         d="M 2.46875,-5.21875 C 1.15625,-4.296875 0.796875,-2.8125 0.796875,-1.75 c 0,0.984375 0.296875,2.515625 1.671875,3.484375 0.0625,0 0.140625,0 0.140625,-0.078125 0,-0.046875 -0.015625,-0.0625 -0.0625,-0.109375 C 1.609375,0.703125 1.28125,-0.46875 1.28125,-1.734375 1.28125,-3.625 2,-4.546875 2.5625,-5.0625 2.59375,-5.09375 2.609375,-5.109375 2.609375,-5.140625 2.609375,-5.21875 2.53125,-5.21875 2.46875,-5.21875 Z m 0,0"
         style="stroke:none;stroke-width:0"
         inkscape:connector-curvature="0" />
    </g>
    <g
       id="g8884"
       style="fill:#000000;fill-opacity:1"
       transform="matrix(3.527778,0,0,3.527778,-686.34829,-350.05916)">
      <path
         id="path8882"
         transform="translate(211.643,130.032)"
         d="M 0.828125,-0.953125 C 0.90625,-0.5 1.125,0.078125 1.71875,0.078125 1.9375,0.078125 2.1875,0 2.453125,-0.171875 2.5625,-0.234375 2.921875,-0.5 2.921875,-0.578125 c 0,-0.046875 -0.046875,-0.125 -0.109375,-0.125 -0.03125,0 -0.046875,0 -0.15625,0.09375 -0.296875,0.265625 -0.609375,0.5 -0.921875,0.5 C 1.25,-0.109375 1.25,-0.921875 1.25,-1.0625 c 0,-0.09375 0,-0.09375 0.015625,-0.234375 0.015625,-0.0625 0.015625,-0.078125 0.09375,-0.15625 0.375,-0.359375 1.703125,-1.640625 1.703125,-2.84375 0,-0.109375 0,-0.609375 -0.46875,-0.609375 C 2.015625,-4.90625 1.546875,-4 1.4375,-3.796875 1.140625,-3.203125 0.96875,-2.640625 0.90625,-2.28125 0.796875,-1.8125 0.796875,-1.578125 0.796875,-1.234375 0.75,-1.1875 0.34375,-0.828125 0.28125,-0.78125 c -0.109375,0.109375 -0.125,0.109375 -0.125,0.15625 0,0.046875 0.0625,0.125 0.125,0.125 0.046875,0 0.234375,-0.171875 0.28125,-0.21875 z m 0.5,-0.796875 C 1.453125,-2.453125 2,-4.703125 2.59375,-4.703125 c 0.15625,0 0.25,0.109375 0.25,0.359375 0,0.078125 0,0.703125 -0.609375,1.5625 C 1.875,-2.28125 1.5,-1.90625 1.328125,-1.75 Z m 0,0"
         style="stroke:none;stroke-width:0"
         inkscape:connector-curvature="0" />
    </g>
    <g
       id="g8888"
       style="fill:#000000;fill-opacity:1"
       transform="matrix(3.527778,0,0,3.527778,-686.34829,-350.05916)">
      <path
         id="path8886"
         transform="translate(214.978,130.032)"
         d="m 0.625,-5.21875 c -0.046875,0 -0.125,0 -0.125,0.078125 0,0.03125 0.015625,0.046875 0.0625,0.109375 0.59375,0.546875 1.265625,1.484375 1.265625,3.28125 0,1.453125 -0.453125,2.5625 -1.203125,3.234375 -0.125,0.125 -0.125,0.125 -0.125,0.171875 0,0.03125 0.015625,0.078125 0.078125,0.078125 0.09375,0 0.75,-0.453125 1.21875,-1.328125 0.296875,-0.578125 0.5,-1.328125 0.5,-2.140625 C 2.296875,-2.71875 2,-4.25 0.625,-5.21875 Z m 0,0"
         style="stroke:none;stroke-width:0"
         inkscape:connector-curvature="0" />
    </g>
    <g
       id="g8894"
       style="fill:#000000;fill-opacity:1"
       transform="matrix(3.527778,0,0,3.527778,-686.34829,-350.05916)">
      <path
         id="path8890"
         transform="translate(208.53,137.984)"
         d="m 2.265625,-4.359375 c 0,-0.109375 -0.09375,-0.265625 -0.28125,-0.265625 -0.1875,0 -0.390625,0.1875 -0.390625,0.390625 0,0.109375 0.078125,0.265625 0.28125,0.265625 0.1875,0 0.390625,-0.203125 0.390625,-0.390625 z M 0.84375,-0.8125 c -0.03125,0.09375 -0.0625,0.171875 -0.0625,0.296875 0,0.328125 0.265625,0.578125 0.65625,0.578125 0.6875,0 1,-0.953125 1,-1.0625 0,-0.09375 -0.09375,-0.09375 -0.109375,-0.09375 -0.09375,0 -0.109375,0.046875 -0.140625,0.125 -0.15625,0.5625 -0.453125,0.84375 -0.734375,0.84375 -0.140625,0 -0.171875,-0.09375 -0.171875,-0.25 0,-0.15625 0.046875,-0.28125 0.109375,-0.4375 C 1.46875,-1 1.546875,-1.1875 1.609375,-1.375 1.671875,-1.546875 1.9375,-2.171875 1.953125,-2.265625 1.984375,-2.328125 2,-2.40625 2,-2.484375 2,-2.8125 1.71875,-3.078125 1.34375,-3.078125 0.640625,-3.078125 0.328125,-2.125 0.328125,-2 c 0,0.078125 0.09375,0.078125 0.125,0.078125 0.09375,0 0.09375,-0.03125 0.125,-0.109375 C 0.75,-2.625 1.0625,-2.875 1.3125,-2.875 c 0.109375,0 0.171875,0.046875 0.171875,0.234375 0,0.171875 -0.03125,0.265625 -0.203125,0.703125 z m 0,0"
         style="stroke:none;stroke-width:0"
         inkscape:connector-curvature="0" />
      <path
         id="path8892"
         transform="translate(211.34881,137.984)"
         d="M 3.0625,-4.359375 C 3.0625,-4.46875 2.96875,-4.625 2.78125,-4.625 c -0.203125,0 -0.390625,0.203125 -0.390625,0.390625 0,0.109375 0.078125,0.265625 0.28125,0.265625 0.1875,0 0.390625,-0.1875 0.390625,-0.390625 z M 1.578125,0.34375 C 1.46875,0.828125 1.09375,1.21875 0.6875,1.21875 c -0.09375,0 -0.171875,0 -0.25,-0.03125 0.171875,-0.09375 0.234375,-0.25 0.234375,-0.359375 0,-0.171875 -0.140625,-0.25 -0.28125,-0.25 C 0.1875,0.578125 0,0.765625 0,0.984375 c 0,0.265625 0.265625,0.4375 0.6875,0.4375 0.421875,0 1.234375,-0.25 1.453125,-1.09375 l 0.625,-2.5 c 0.015625,-0.078125 0.03125,-0.140625 0.03125,-0.25 0,-0.375 -0.328125,-0.65625 -0.734375,-0.65625 -0.78125,0 -1.21875,0.96875 -1.21875,1.078125 0,0.078125 0.09375,0.078125 0.109375,0.078125 0.078125,0 0.09375,-0.015625 0.140625,-0.125 C 1.265625,-2.453125 1.625,-2.875 2.03125,-2.875 c 0.171875,0 0.234375,0.109375 0.234375,0.34375 0,0.078125 0,0.171875 -0.015625,0.203125 z m 0,0"
         style="stroke:none;stroke-width:0"
         inkscape:connector-curvature="0" />
    </g>
    <g
       id="g8898"
       style="fill:#000000;fill-opacity:1"
       transform="matrix(3.527778,0,0,3.527778,-686.34829,-350.05916)">
      <path
         id="path8896"
         transform="translate(218.589,135.207)"
         d="m 2.03125,-0.015625 c 0,-0.65625 -0.25,-1.046875 -0.640625,-1.046875 -0.328125,0 -0.53125,0.25 -0.53125,0.53125 C 0.859375,-0.265625 1.0625,0 1.390625,0 1.5,0 1.640625,-0.046875 1.734375,-0.125 1.765625,-0.15625 1.78125,-0.15625 1.78125,-0.15625 c 0.015625,0 0.015625,0 0.015625,0.140625 0,0.75 -0.34375,1.34375 -0.671875,1.671875 -0.109375,0.109375 -0.109375,0.125 -0.109375,0.15625 0,0.078125 0.046875,0.109375 0.09375,0.109375 0.109375,0 0.921875,-0.765625 0.921875,-1.9375 z m 0,0"
         style="stroke:none;stroke-width:0"
         inkscape:connector-curvature="0" />
    </g>
    <g
       id="g8926"
       style="fill:#cc0000;fill-opacity:1"
       transform="matrix(3.527778,0,0,3.527778,-720.74434,-350.05916)">
      <path
         id="path8924"
         transform="translate(246.919,135.207)"
         d="m 2.03125,-0.015625 c 0,-0.65625 -0.25,-1.046875 -0.640625,-1.046875 -0.328125,0 -0.53125,0.25 -0.53125,0.53125 C 0.859375,-0.265625 1.0625,0 1.390625,0 1.5,0 1.640625,-0.046875 1.734375,-0.125 1.765625,-0.15625 1.78125,-0.15625 1.78125,-0.15625 c 0.015625,0 0.015625,0 0.015625,0.140625 0,0.75 -0.34375,1.34375 -0.671875,1.671875 -0.109375,0.109375 -0.109375,0.125 -0.109375,0.15625 0,0.078125 0.046875,0.109375 0.09375,0.109375 0.109375,0 0.921875,-0.765625 0.921875,-1.9375 z m 0,0"
         style="fill:#cc0000;stroke:none;stroke-width:0"
         inkscape:connector-curvature="0" />
    </g>
    <g
       id="g8930"
       style="fill:#cc0000;fill-opacity:1"
       transform="matrix(3.527778,0,0,3.527778,-718.62766,-350.05916)">
      <path
         id="path8928"
         transform="translate(251.347,135.207)"
         d="M 3.15625,-6.5625 C 3.1875,-6.703125 3.1875,-6.734375 3.1875,-6.734375 c 0,-0.140625 -0.109375,-0.1875 -0.21875,-0.1875 -0.03125,0 -0.046875,0 -0.0625,0.015625 l -1.296875,0.0625 c -0.140625,0 -0.3125,0.015625 -0.3125,0.296875 0,0.171875 0.171875,0.171875 0.265625,0.171875 0.109375,0 0.28125,0 0.40625,0.03125 l -1.4375,5.75 C 0.53125,-0.5625 0.5,-0.40625 0.5,-0.375 c 0,0.25 0.1875,0.453125 0.484375,0.453125 0.046875,0 0.5,0 0.640625,-0.5625 L 2.21875,-2.84375 c 0.046875,-0.1875 0.046875,-0.203125 0.203125,-0.40625 0.15625,-0.21875 0.65625,-0.890625 1.484375,-0.890625 0.265625,0 0.5,0.09375 0.5,0.578125 0,0.578125 -0.4375,1.75 -0.625,2.234375 -0.109375,0.265625 -0.140625,0.34375 -0.140625,0.515625 0,0.578125 0.578125,0.890625 1.125,0.890625 1.0625,0 1.546875,-1.359375 1.546875,-1.546875 0,-0.140625 -0.140625,-0.140625 -0.234375,-0.140625 -0.109375,0 -0.1875,0 -0.21875,0.125 -0.328125,1.109375 -0.875,1.203125 -1.03125,1.203125 -0.078125,0 -0.171875,0 -0.171875,-0.203125 0,-0.21875 0.109375,-0.5 0.171875,-0.65625 C 5.015625,-1.625 5.46875,-2.796875 5.46875,-3.34375 5.46875,-4.265625 4.703125,-4.5 3.984375,-4.5 c -0.21875,0 -0.828125,0 -1.5,0.609375 z m 0,0"
         style="fill:#cc0000;stroke:none;stroke-width:0"
         inkscape:connector-curvature="0" />
    </g>
    <g
       id="g8934"
       style="fill:#cc0000;fill-opacity:1"
       transform="matrix(3.527778,0,0,3.527778,-718.62766,-350.05916)">
      <path
         id="path8932"
         transform="translate(257.998,130.752)"
         d="M 2.46875,-5.21875 C 1.15625,-4.296875 0.796875,-2.8125 0.796875,-1.75 c 0,0.984375 0.296875,2.515625 1.671875,3.484375 0.0625,0 0.140625,0 0.140625,-0.078125 0,-0.046875 -0.015625,-0.0625 -0.0625,-0.109375 C 1.609375,0.703125 1.28125,-0.46875 1.28125,-1.734375 1.28125,-3.625 2,-4.546875 2.5625,-5.0625 2.59375,-5.09375 2.609375,-5.109375 2.609375,-5.140625 2.609375,-5.21875 2.53125,-5.21875 2.46875,-5.21875 Z m 0,0"
         style="fill:#cc0000;stroke:none;stroke-width:0"
         inkscape:connector-curvature="0" />
    </g>
    <g
       id="g8938"
       style="fill:#cc0000;fill-opacity:1"
       transform="matrix(3.527778,0,0,3.527778,-718.62766,-350.05916)">
      <path
         id="path8936"
         transform="translate(261.111,130.752)"
         d="M 0.828125,-0.953125 C 0.90625,-0.5 1.125,0.078125 1.71875,0.078125 1.9375,0.078125 2.1875,0 2.453125,-0.171875 2.5625,-0.234375 2.921875,-0.5 2.921875,-0.578125 c 0,-0.046875 -0.046875,-0.125 -0.109375,-0.125 -0.03125,0 -0.046875,0 -0.15625,0.09375 -0.296875,0.265625 -0.609375,0.5 -0.921875,0.5 C 1.25,-0.109375 1.25,-0.921875 1.25,-1.0625 c 0,-0.09375 0,-0.09375 0.015625,-0.234375 0.015625,-0.0625 0.015625,-0.078125 0.09375,-0.15625 0.375,-0.359375 1.703125,-1.640625 1.703125,-2.84375 0,-0.109375 0,-0.609375 -0.46875,-0.609375 C 2.015625,-4.90625 1.546875,-4 1.4375,-3.796875 1.140625,-3.203125 0.96875,-2.640625 0.90625,-2.28125 0.796875,-1.8125 0.796875,-1.578125 0.796875,-1.234375 0.75,-1.1875 0.34375,-0.828125 0.28125,-0.78125 c -0.109375,0.109375 -0.125,0.109375 -0.125,0.15625 0,0.046875 0.0625,0.125 0.125,0.125 0.046875,0 0.234375,-0.171875 0.28125,-0.21875 z m 0.5,-0.796875 C 1.453125,-2.453125 2,-4.703125 2.59375,-4.703125 c 0.15625,0 0.25,0.109375 0.25,0.359375 0,0.078125 0,0.703125 -0.609375,1.5625 C 1.875,-2.28125 1.5,-1.90625 1.328125,-1.75 Z m 0,0"
         style="fill:#cc0000;stroke:none;stroke-width:0"
         inkscape:connector-curvature="0" />
    </g>
    <g
       id="g8942"
       style="fill:#cc0000;fill-opacity:1"
       transform="matrix(3.527778,0,0,3.527778,-718.62766,-350.05916)">
      <path
         id="path8940"
         transform="translate(264.446,130.752)"
         d="m 0.625,-5.21875 c -0.046875,0 -0.125,0 -0.125,0.078125 0,0.03125 0.015625,0.046875 0.0625,0.109375 0.59375,0.546875 1.265625,1.484375 1.265625,3.28125 0,1.453125 -0.453125,2.5625 -1.203125,3.234375 -0.125,0.125 -0.125,0.125 -0.125,0.171875 0,0.03125 0.015625,0.078125 0.078125,0.078125 0.09375,0 0.75,-0.453125 1.21875,-1.328125 0.296875,-0.578125 0.5,-1.328125 0.5,-2.140625 C 2.296875,-2.71875 2,-4.25 0.625,-5.21875 Z m 0,0"
         style="fill:#cc0000;stroke:none;stroke-width:0"
         inkscape:connector-curvature="0" />
    </g>
    <g
       id="g8950"
       style="fill:#cc0000;fill-opacity:1"
       transform="matrix(3.527778,0,0,3.527778,-768.89881,-345.29663)">
      <path
         id="path8948"
         transform="translate(271.932,136.702)"
         d="M 3.0625,-4.359375 C 3.0625,-4.46875 2.96875,-4.625 2.78125,-4.625 c -0.203125,0 -0.390625,0.203125 -0.390625,0.390625 0,0.109375 0.078125,0.265625 0.28125,0.265625 0.1875,0 0.390625,-0.1875 0.390625,-0.390625 z M 1.578125,0.34375 C 1.46875,0.828125 1.09375,1.21875 0.6875,1.21875 c -0.09375,0 -0.171875,0 -0.25,-0.03125 0.171875,-0.09375 0.234375,-0.25 0.234375,-0.359375 0,-0.171875 -0.140625,-0.25 -0.28125,-0.25 C 0.1875,0.578125 0,0.765625 0,0.984375 c 0,0.265625 0.265625,0.4375 0.6875,0.4375 0.421875,0 1.234375,-0.25 1.453125,-1.09375 l 0.625,-2.5 c 0.015625,-0.078125 0.03125,-0.140625 0.03125,-0.25 0,-0.375 -0.328125,-0.65625 -0.734375,-0.65625 -0.78125,0 -1.21875,0.96875 -1.21875,1.078125 0,0.078125 0.09375,0.078125 0.109375,0.078125 0.078125,0 0.09375,-0.015625 0.140625,-0.125 C 1.265625,-2.453125 1.625,-2.875 2.03125,-2.875 c 0.171875,0 0.234375,0.109375 0.234375,0.34375 0,0.078125 0,0.171875 -0.015625,0.203125 z m 0,0"
         style="fill:#cc0000;stroke:none;stroke-width:0"
         inkscape:connector-curvature="0" />
    </g>
    <g
       id="g8954"
       style="fill:#000000;fill-opacity:1"
       transform="matrix(3.527778,0,0,3.527778,-747.20284,-350.05916)">
      <path
         id="path8952"
         transform="translate(276.13,135.207)"
         d="m 2.03125,-0.015625 c 0,-0.65625 -0.25,-1.046875 -0.640625,-1.046875 -0.328125,0 -0.53125,0.25 -0.53125,0.53125 C 0.859375,-0.265625 1.0625,0 1.390625,0 1.5,0 1.640625,-0.046875 1.734375,-0.125 1.765625,-0.15625 1.78125,-0.15625 1.78125,-0.15625 c 0.015625,0 0.015625,0 0.015625,0.140625 0,0.75 -0.34375,1.34375 -0.671875,1.671875 -0.109375,0.109375 -0.109375,0.125 -0.109375,0.15625 0,0.078125 0.046875,0.109375 0.09375,0.109375 0.109375,0 0.921875,-0.765625 0.921875,-1.9375 z m 0,0"
         style="stroke:none;stroke-width:0"
         inkscape:connector-curvature="0" />
    </g>
    <g
       id="g8958"
       style="fill:#000000;fill-opacity:1"
       transform="matrix(3.527778,0,0,3.527778,-747.20284,-350.05916)">
      <path
         id="path8956"
         transform="translate(280.557,135.207)"
         d="m 2.40625,-3.40625 c 0.140625,0 0.265625,0 0.40625,0 0.390625,-0.015625 0.890625,-0.046875 1.28125,-0.0625 -0.28125,0.265625 -0.4375,0.421875 -1.4375,1.1875 -2.015625,1.53125 -2.234375,2.1875 -2.234375,2.21875 0,0.140625 0.140625,0.140625 0.21875,0.140625 0.171875,0 0.171875,-0.015625 0.25,-0.109375 0.359375,-0.5 0.71875,-0.5625 0.890625,-0.5625 0.265625,0 0.484375,0.171875 0.640625,0.28125 0.3125,0.21875 0.5625,0.390625 0.9375,0.390625 1.109375,0 1.84375,-1.21875 1.84375,-1.59375 0,-0.140625 -0.171875,-0.140625 -0.234375,-0.140625 -0.078125,0 -0.1875,0 -0.21875,0.09375 -0.078125,0.1875 -0.1875,0.4375 -0.859375,0.515625 -0.046875,0.015625 -2,0.09375 -2.21875,0.09375 0.28125,-0.265625 0.4375,-0.421875 1.453125,-1.1875 2.015625,-1.53125 2.234375,-2.1875 2.234375,-2.21875 C 5.359375,-4.5 5.21875,-4.5 5.140625,-4.5 c -0.15625,0 -0.171875,0 -0.234375,0.09375 -0.234375,0.34375 -0.4375,0.578125 -0.671875,0.578125 -0.25,0 -0.46875,-0.15625 -0.703125,-0.3125 C 3.296875,-4.328125 3.046875,-4.5 2.671875,-4.5 c -0.875,0 -1.453125,0.875 -1.453125,1.1875 0,0.140625 0.171875,0.140625 0.25,0.140625 0.09375,0 0.203125,0 0.21875,-0.125 C 1.828125,-3.375 1.90625,-3.375 2.203125,-3.40625 Z m 0,0"
         style="stroke:none;stroke-width:0"
         inkscape:connector-curvature="0" />
    </g>
    <g
       id="g8962"
       style="fill:#000000;fill-opacity:1"
       transform="matrix(3.527778,0,0,3.527778,-747.20284,-350.05916)">
      <path
         id="path8960"
         transform="translate(286.507,131.592)"
         d="M 2.46875,-5.21875 C 1.15625,-4.296875 0.796875,-2.8125 0.796875,-1.75 c 0,0.984375 0.296875,2.515625 1.671875,3.484375 0.0625,0 0.140625,0 0.140625,-0.078125 0,-0.046875 -0.015625,-0.0625 -0.0625,-0.109375 C 1.609375,0.703125 1.28125,-0.46875 1.28125,-1.734375 1.28125,-3.625 2,-4.546875 2.5625,-5.0625 2.59375,-5.09375 2.609375,-5.109375 2.609375,-5.140625 2.609375,-5.21875 2.53125,-5.21875 2.46875,-5.21875 Z m 0,0"
         style="stroke:none;stroke-width:0"
         inkscape:connector-curvature="0" />
    </g>
    <g
       id="g8966"
       style="fill:#000000;fill-opacity:1"
       transform="matrix(3.527778,0,0,3.527778,-747.20284,-350.05916)">
      <path
         id="path8964"
         transform="translate(289.621,131.592)"
         d="M 0.828125,-0.953125 C 0.90625,-0.5 1.125,0.078125 1.71875,0.078125 1.9375,0.078125 2.1875,0 2.453125,-0.171875 2.5625,-0.234375 2.921875,-0.5 2.921875,-0.578125 c 0,-0.046875 -0.046875,-0.125 -0.109375,-0.125 -0.03125,0 -0.046875,0 -0.15625,0.09375 -0.296875,0.265625 -0.609375,0.5 -0.921875,0.5 C 1.25,-0.109375 1.25,-0.921875 1.25,-1.0625 c 0,-0.09375 0,-0.09375 0.015625,-0.234375 0.015625,-0.0625 0.015625,-0.078125 0.09375,-0.15625 0.375,-0.359375 1.703125,-1.640625 1.703125,-2.84375 0,-0.109375 0,-0.609375 -0.46875,-0.609375 C 2.015625,-4.90625 1.546875,-4 1.4375,-3.796875 1.140625,-3.203125 0.96875,-2.640625 0.90625,-2.28125 0.796875,-1.8125 0.796875,-1.578125 0.796875,-1.234375 0.75,-1.1875 0.34375,-0.828125 0.28125,-0.78125 c -0.109375,0.109375 -0.125,0.109375 -0.125,0.15625 0,0.046875 0.0625,0.125 0.125,0.125 0.046875,0 0.234375,-0.171875 0.28125,-0.21875 z m 0.5,-0.796875 C 1.453125,-2.453125 2,-4.703125 2.59375,-4.703125 c 0.15625,0 0.25,0.109375 0.25,0.359375 0,0.078125 0,0.703125 -0.609375,1.5625 C 1.875,-2.28125 1.5,-1.90625 1.328125,-1.75 Z m 0,0"
         style="stroke:none;stroke-width:0"
         inkscape:connector-curvature="0" />
    </g>
    <g
       id="g8970"
       style="fill:#000000;fill-opacity:1"
       transform="matrix(3.527778,0,0,3.527778,-747.20284,-350.05916)">
      <path
         id="path8968"
         transform="translate(292.955,131.592)"
         d="m 0.625,-5.21875 c -0.046875,0 -0.125,0 -0.125,0.078125 0,0.03125 0.015625,0.046875 0.0625,0.109375 0.59375,0.546875 1.265625,1.484375 1.265625,3.28125 0,1.453125 -0.453125,2.5625 -1.203125,3.234375 -0.125,0.125 -0.125,0.125 -0.125,0.171875 0,0.03125 0.015625,0.078125 0.078125,0.078125 0.09375,0 0.75,-0.453125 1.21875,-1.328125 0.296875,-0.578125 0.5,-1.328125 0.5,-2.140625 C 2.296875,-2.71875 2,-4.25 0.625,-5.21875 Z m 0,0"
         style="stroke:none;stroke-width:0"
         inkscape:connector-curvature="0" />
    </g>
    <g
       id="g8974"
       style="fill:#3465a4;fill-opacity:1;stroke:#3465a4"
       transform="matrix(3.527778,0,0,3.527778,-747.20284,-350.05916)">
      <path
         id="path8972"
         transform="translate(296.567,135.207)"
         d="m 2.875,-2.5 c 0,-0.765625 -0.109375,-1.96875 -0.65625,-3.109375 -0.59375,-1.21875 -1.453125,-1.875 -1.546875,-1.875 -0.0625,0 -0.109375,0.046875 -0.109375,0.109375 0,0.03125 0,0.046875 0.1875,0.234375 0.984375,0.984375 1.546875,2.5625 1.546875,4.640625 0,1.71875 -0.359375,3.46875 -1.59375,4.71875 C 0.5625,2.34375 0.5625,2.359375 0.5625,2.390625 0.5625,2.453125 0.609375,2.5 0.671875,2.5 0.765625,2.5 1.671875,1.8125 2.25,0.546875 2.765625,-0.546875 2.875,-1.65625 2.875,-2.5 Z m 0,0"
         style="fill:#3465a4;stroke:#3465a4;stroke-width:0"
         inkscape:connector-curvature="0" />
    </g>
    <text
       xml:space="preserve"
       style="font-style:normal;font-variant:normal;font-weight:normal;font-stretch:normal;font-size:27.79713631px;line-height:1;font-family:'Libre Baskerville';-inkscape-font-specification:'Libre Baskerville';text-align:center;letter-spacing:0px;word-spacing:0px;text-anchor:middle;fill:#3465a4;fill-opacity:1;stroke:none;stroke-width:0.52119625"
       x="-9.6148081"
       y="7.86588"
       id="text9329"><tspan
         sodipodi:role="line"
         id="tspan9327"
         x="-5.6259356"
         y="7.86588"
         style="fill:#3465a4;stroke-width:0.52119625">update </tspan><tspan
         sodipodi:role="line"
         x="-9.6148062"
         y="35.663017"
         style="fill:#3465a4;stroke-width:0.52119625"
         id="tspan9331">function</tspan></text>
    <text
       xml:space="preserve"
       style="font-style:normal;font-variant:normal;font-weight:normal;font-stretch:normal;font-size:27.79713631px;line-height:1;font-family:'Libre Baskerville';-inkscape-font-specification:'Libre Baskerville';text-align:center;letter-spacing:0px;word-spacing:0px;text-anchor:middle;fill:#cc0000;fill-opacity:1;stroke:none;stroke-width:0.52119625"
       x="205.46248"
       y="203.55232"
       id="text9335"><tspan
         sodipodi:role="line"
         id="tspan9333"
         x="205.46248"
         y="203.55232"
         style="fill:#cc0000;stroke-width:0.52119625">aggregation</tspan></text>
    <path
       style="fill:none;stroke:#3465a4;stroke-width:3;stroke-linecap:butt;stroke-linejoin:miter;stroke-miterlimit:4;stroke-dasharray:none;stroke-opacity:1;marker-end:url(#Arrow1Mend)"
       d="m -33.865386,44.153092 c -5.975329,18.703695 -1.874007,37.285815 17.10525,59.333838"
       id="path9337"
       inkscape:connector-curvature="0"
       sodipodi:nodetypes="cc" />
    <path
       style="fill:none;stroke:#cc0000;stroke-width:3;stroke-linecap:butt;stroke-linejoin:miter;stroke-miterlimit:4;stroke-dasharray:none;stroke-opacity:1;marker-end:url(#Arrow1Mend-4)"
       d="M 180.9398,181.67081 C 170.87896,166.17436 165.70856,160.42118 142.45299,142.11492"
       id="path9337-3"
       inkscape:connector-curvature="0"
       sodipodi:nodetypes="cc" />
    <path
       style="fill:none;stroke:#cc0000;stroke-width:3;stroke-linecap:butt;stroke-linejoin:miter;stroke-miterlimit:4;stroke-dasharray:none;stroke-opacity:1;marker-end:url(#Arrow1Mend-4-3)"
       d="m 180.9398,181.67081 c -10.06085,-15.49645 -7.04358,-17.83267 -0.89952,-40.41524"
       id="path9337-3-6"
       inkscape:connector-curvature="0"
       sodipodi:nodetypes="cc" />
  </g>
</svg>
