<?xml version="1.0" encoding="UTF-8" standalone="no"?>
<!-- Created with Inkscape (http://www.inkscape.org/) -->

<svg
   width="2228.8682mm"
   height="2278.8513mm"
   viewBox="0 0 2228.8682 2278.8513"
   version="1.1"
   id="svg4731"
   xml:space="preserve"
   inkscape:version="1.2.2 (b0a8486541, 2022-12-01)"
   sodipodi:docname="epoch_batch_learning_rate.svg"
   xmlns:inkscape="http://www.inkscape.org/namespaces/inkscape"
   xmlns:sodipodi="http://sodipodi.sourceforge.net/DTD/sodipodi-0.dtd"
   xmlns="http://www.w3.org/2000/svg"
   xmlns:svg="http://www.w3.org/2000/svg"
   xmlns:ns3="http://www.iki.fi/pav/software/textext/"><sodipodi:namedview
     id="namedview4733"
     pagecolor="#ffffff"
     bordercolor="#000000"
     borderopacity="0.25"
     inkscape:showpageshadow="2"
     inkscape:pageopacity="0.0"
     inkscape:pagecheckerboard="0"
     inkscape:deskcolor="#d1d1d1"
     inkscape:document-units="mm"
     showgrid="false"
     inkscape:zoom="0.065109625"
     inkscape:cx="3716.8084"
     inkscape:cy="3547.8625"
     inkscape:window-width="1920"
     inkscape:window-height="1131"
     inkscape:window-x="0"
     inkscape:window-y="32"
     inkscape:window-maximized="1"
     inkscape:current-layer="layer1" /><defs
     id="defs4728"><marker
       style="overflow:visible"
       id="marker6548"
       refX="0"
       refY="0"
       orient="auto-start-reverse"
       inkscape:stockid="Arrow2"
       markerWidth="7.6999998"
       markerHeight="5.5999999"
       viewBox="0 0 7.7 5.6"
       inkscape:isstock="true"
       inkscape:collect="always"
       preserveAspectRatio="xMidYMid"><path
         transform="scale(0.7)"
         d="M -2,-4 9,0 -2,4 c 2,-2.33 2,-5.66 0,-8 z"
         style="fill:context-stroke;fill-rule:evenodd;stroke:none"
         id="path6546" /></marker><marker
       style="overflow:visible"
       id="Arrow2"
       refX="0"
       refY="0"
       orient="auto-start-reverse"
       inkscape:stockid="Arrow2"
       markerWidth="4"
       markerHeight="2.909091"
       viewBox="0 0 7.7 5.6"
       inkscape:isstock="true"
       inkscape:collect="always"
       preserveAspectRatio="xMidYMid"><path
         transform="scale(0.7)"
         d="M -2,-4 9,0 -2,4 c 2,-2.33 2,-5.66 0,-8 z"
         style="fill:context-stroke;fill-rule:evenodd;stroke:none"
         id="arrow2L" /></marker><marker
       id="arrowhead"
       markerWidth="10"
       markerHeight="7"
       refX="0"
       refY="3.5"
       orient="auto"
       markerUnits="userSpaceOnUse"
       viewBox="0 0 10 7"
       preserveAspectRatio="xMidYMid"><polygon
         points="10,3.5 0,7 0,0 "
         fill="#555555"
         id="polygon9076" /></marker><marker
       id="arrowhead-3"
       markerWidth="10"
       markerHeight="7"
       refX="0"
       refY="3.5"
       orient="auto"
       markerUnits="userSpaceOnUse"
       viewBox="0 0 10 7"
       preserveAspectRatio="xMidYMid"><polygon
         points="10,3.5 0,7 0,0 "
         fill="#555555"
         id="polygon9076-7" /></marker><marker
       id="arrowhead-9"
       markerWidth="10"
       markerHeight="7"
       refX="0"
       refY="3.5"
       orient="auto"
       markerUnits="userSpaceOnUse"
       viewBox="0 0 10 7"
       preserveAspectRatio="xMidYMid"><polygon
         points="10,3.5 0,7 0,0 "
         fill="#555555"
         id="polygon9076-2" /></marker><g
       id="id-1c4cab0b-1b9c-4732-93f6-4ab0d061fe04">
      <g
   id="id-ae095539-f57e-40d2-afec-eb33d79f5c41">
        <path
   d="M 7.78125,-6.59375 C 7.796875,-6.625 7.828125,-6.6875 7.828125,-6.734375 7.828125,-6.796875 7.8125,-6.8125 7.59375,-6.8125 H 0.703125 c -0.21875,0 -0.234375,0.015625 -0.234375,0.078125 0,0.046875 0.03125,0.109375 0.046875,0.140625 L 3.875,0.140625 c 0.078125,0.125 0.109375,0.1875 0.265625,0.1875 0.171875,0 0.203125,-0.0625 0.28125,-0.1875 z m -6.078125,0.5 h 5.46875 l -2.71875,5.484375 z m 0,0"
   id="id-a8268918-ffd4-45d2-9fd4-b844eee957ad" />
      </g>
    </g><marker
       style="overflow:visible"
       id="marker6548-6"
       refX="0"
       refY="0"
       orient="auto-start-reverse"
       inkscape:stockid="Arrow2"
       markerWidth="7.6999998"
       markerHeight="5.5999999"
       viewBox="0 0 7.7 5.6"
       inkscape:isstock="true"
       inkscape:collect="always"
       preserveAspectRatio="xMidYMid"><path
         transform="scale(0.7)"
         d="M -2,-4 9,0 -2,4 c 2,-2.33 2,-5.66 0,-8 z"
         style="fill:context-stroke;fill-rule:evenodd;stroke:none"
         id="path6546-2" /></marker><marker
       style="overflow:visible"
       id="marker6548-1"
       refX="0"
       refY="0"
       orient="auto-start-reverse"
       inkscape:stockid="Arrow2"
       markerWidth="7.6999998"
       markerHeight="5.5999999"
       viewBox="0 0 7.7 5.6"
       inkscape:isstock="true"
       inkscape:collect="always"
       preserveAspectRatio="xMidYMid"><path
         transform="scale(0.7)"
         d="M -2,-4 9,0 -2,4 c 2,-2.33 2,-5.66 0,-8 z"
         style="fill:context-stroke;fill-rule:evenodd;stroke:none"
         id="path6546-8" /></marker></defs><g
     inkscape:label="Calque 1"
     inkscape:groupmode="layer"
     id="layer1"
     transform="translate(1089.9152,953.02389)"><g
       inkscape:label="Calque 1"
       id="layer1-5"
       transform="translate(592.79362,-404.41075)"><g
         id="g9679"
         transform="translate(-287.74914,125.66587)"><circle
           cx="452.89023"
           cy="361.46344"
           r="123.23675"
           fill="#4caf50"
           id="circle9087"
           style="stroke-width:2.05395" /><g
           id="g6408"
           transform="matrix(8.8194444,0,0,8.8194444,347.12111,255.62657)"><path
             d="m 20.5,9 a 3.49,3.49 0 0 0 -3.45,3 h -1.1 A 2.49,2.49 0 0 0 11.554,10.948 L 8.878,9.731 12.021,5.506 a 2.458,2.458 0 0 0 2.98,-0.019 L 17.339,8 H 16 v 1 h 3 V 6 H 18 V 7.243 L 15.664,4.731 A 2.473,2.473 0 0 0 16,3.5 a 2.5,2.5 0 0 0 -5,0 2.474,2.474 0 0 0 0.343,1.243 L 7.947,9.308 4.955,7.947 A 2.404,2.404 0 0 0 4.794,6.509 L 8.498,5.124 8.058,6.495 9,6.828 10,4 7.172,3 6.838,3.943 7.848,4.3 4.189,5.668 A 2.498,2.498 0 1 0 3.507,9.785 l 2.085,2.688 -2.053,2.76 a 2.5,2.5 0 1 0 0.87,3.864 L 7.893,20.684 6.838,21.057 7.172,22 10,21 9,18.172 8.057,18.505 8.492,19.859 4.884,18.214 A 2.471,2.471 0 0 0 5,17.5 2.5,2.5 0 0 0 4.942,16.973 l 3.053,-1.405 3.476,4.48 a 2.498,2.498 0 1 0 4.113,0.075 L 18,17.707 V 19 h 1 v -3 h -3 v 1 h 1.293 l -2.416,2.416 A 2.466,2.466 0 0 0 12.21,19.369 l -3.283,-4.23 2.554,-1.176 A 2.494,2.494 0 0 0 15.95,13 h 1.1 A 3.493,3.493 0 1 0 20.5,9 Z m -7,-7 A 1.5,1.5 0 1 1 12,3.5 1.502,1.502 0 0 1 13.5,2 Z m 0,18 A 1.5,1.5 0 1 1 12,21.5 1.502,1.502 0 0 1 13.5,20 Z M 1,7.5 A 1.5,1.5 0 1 1 3.457,8.645 L 3.313,8.757 A 1.496,1.496 0 0 1 1,7.5 Z M 4.32,9.203 A 2.507,2.507 0 0 0 4.584,8.877 L 7.336,10.128 6.212,11.64 Z M 2.5,19 A 1.5,1.5 0 1 1 4,17.5 1.502,1.502 0 0 1 2.5,19 Z M 4.537,16.059 A 2.518,2.518 0 0 0 4.344,15.825 l 1.885,-2.532 1.136,1.464 z M 8.297,14.328 6.849,12.46 8.269,10.552 11.1,11.84 a 2.29,2.29 0 0 0 -0.033,1.213 z M 13.5,14 A 1.5,1.5 0 1 1 15,12.5 1.502,1.502 0 0 1 13.5,14 Z m 7,1 A 2.5,2.5 0 1 1 23,12.5 2.502,2.502 0 0 1 20.5,15 Z M 22,12.5 A 1.5,1.5 0 1 1 20.5,11 1.502,1.502 0 0 1 22,12.5 Z"
             id="path6396" /><path
             fill="none"
             d="M 0,0 H 24 V 24 H 0 Z"
             id="path6398" /></g></g><g
         id="g9662"
         transform="translate(-28.108614,111.80254)"><circle
           cx="-45.39875"
           cy="824.68658"
           r="123.39285"
           fill="#ff9800"
           id="circle9139"
           style="stroke-width:2.05655" /><g
           style="fill:none"
           id="g6422"
           transform="matrix(8.8194444,0,0,8.8194444,-151.23208,718.85326)"><path
             d="m 15,12 c 0,1.6569 -1.3431,3 -3,3 -1.6569,0 -3,-1.3431 -3,-3 0,-1.6569 1.3431,-3 3,-3 1.6569,0 3,1.3431 3,3 z"
             stroke="#000000"
             stroke-width="2"
             stroke-linecap="round"
             stroke-linejoin="round"
             id="path6410" /><path
             d="M 12.9046,3.06005 C 12.6988,3 12.4659,3 12,3 11.5341,3 11.3012,3 11.0954,3.06005 10.7942,3.14794 10.5281,3.32808 10.3346,3.57511 10.2024,3.74388 10.1159,3.96016 9.94291,4.39272 9.69419,5.01452 9.00393,5.33471 8.36857,5.123 L 7.79779,4.93281 C 7.3929,4.79785 7.19045,4.73036 6.99196,4.7188 6.70039,4.70181 6.4102,4.77032 6.15701,4.9159 5.98465,5.01501 5.83376,5.16591 5.53197,5.4677 5.21122,5.78845 5.05084,5.94882 4.94896,6.13189 4.79927,6.40084 4.73595,6.70934 4.76759,7.01551 4.78912,7.2239 4.87335,7.43449 5.04182,7.85566 5.30565,8.51523 5.05184,9.26878 4.44272,9.63433 L 4.16521,9.80087 C 3.74031,10.0558 3.52786,10.1833 3.37354,10.3588 3.23698,10.5141 3.13401,10.696 3.07109,10.893 3,11.1156 3,11.3658 3,11.8663 c 0,0.5926 0,0.8888 0.09462,1.1425 0.08361,0.2241 0.2196,0.4249 0.39662,0.5858 0.20034,0.182 0.47271,0.291 1.01742,0.5089 0.55668,0.2226 0.8433,0.8406 0.6537,1.4094 L 4.94721,16.1584 C 4.79819,16.6054 4.72367,16.829 4.7169,17.0486 4.70875,17.3127 4.77049,17.5742 4.89587,17.8067 5.00015,18.0002 5.16678,18.1668 5.5,18.5 c 0.33323,0.3332 0.49985,0.4998 0.69325,0.6041 0.23255,0.1254 0.49408,0.1872 0.75815,0.179 0.21962,-0.0068 0.44316,-0.0813 0.89024,-0.2303 l 0.52698,-0.1757 c 0.63531,-0.2117 1.32558,0.1084 1.57429,0.7302 0.17299,0.4325 0.25949,0.6488 0.39169,0.8176 0.1935,0.247 0.4596,0.4272 0.7608,0.5151 C 11.3012,21 11.5341,21 12,21 c 0.4659,0 0.6988,0 0.9046,-0.06 0.3012,-0.0879 0.5673,-0.2681 0.7608,-0.5151 0.1322,-0.1688 0.2187,-0.3851 0.3917,-0.8176 0.2487,-0.6218 0.939,-0.9419 1.5742,-0.73 l 0.5266,0.1756 c 0.4471,0.149 0.6707,0.2235 0.8903,0.2303 0.2641,0.0081 0.5256,-0.0536 0.7581,-0.179 0.1934,-0.1043 0.3601,-0.2709 0.6933,-0.6041 0.3332,-0.3332 0.4998,-0.4999 0.6041,-0.6933 0.1254,-0.2325 0.1871,-0.4941 0.179,-0.7581 -0.0068,-0.2196 -0.0813,-0.4432 -0.2303,-0.8903 l -0.215,-0.645 c -0.1897,-0.569 0.097,-1.1872 0.6539,-1.4099 0.5447,-0.2179 0.8171,-0.3269 1.0175,-0.5089 0.177,-0.1609 0.313,-0.3617 0.3966,-0.5858 C 21,12.7551 21,12.4589 21,11.8663 21,11.3658 21,11.1156 20.9289,10.893 20.866,10.696 20.763,10.5141 20.6265,10.3588 20.4721,10.1833 20.2597,10.0558 19.8348,9.80087 L 19.5569,9.63416 C 18.9478,9.26867 18.6939,8.51514 18.9578,7.85558 19.1262,7.43443 19.2105,7.22383 19.232,7.01543 19.2636,6.70926 19.2003,6.40077 19.0506,6.13181 18.9487,5.94875 18.7884,5.78837 18.4676,5.46762 18.1658,5.16584 18.0149,5.01494 17.8426,4.91583 17.5894,4.77024 17.2992,4.70174 17.0076,4.71872 16.8091,4.73029 16.6067,4.79777 16.2018,4.93273 L 15.6314,5.12287 C 14.9961,5.33464 14.3058,5.0145 14.0571,4.39272 13.8841,3.96016 13.7976,3.74388 13.6654,3.57511 13.4719,3.32808 13.2058,3.14794 12.9046,3.06005 Z"
             stroke="#000000"
             stroke-width="2"
             stroke-linecap="round"
             stroke-linejoin="round"
             id="path6412" /></g></g><g
         id="g9673"
         transform="translate(-192.99096,220.18674)"><circle
           cx="615.92456"
           cy="723.74072"
           r="123.22566"
           fill="#2196f3"
           id="circle9121"
           style="stroke-width:2.05376" /><g
           transform="matrix(21.820457,0,0,21.820457,535.63755,645.84578)"
           ns3:version="1.9.0"
           ns3:texconverter="pdflatex"
           ns3:pdfconverter="inkscape"
           ns3:text="$\\mathbf{\\nabla}$"
           ns3:preamble="/home/bgauzere/.config/inkscape/extensions/textext/default_packages.tex"
           ns3:scale="1.0"
           ns3:alignment="middle center"
           ns3:stroke-to-path="0"
           ns3:jacobian_sqrt="0.352778"
           id="g6450"><defs
   id="id-ccebbe8c-b9c6-4852-b3ef-bdbdc5fa00e4">
    <g
   id="g5012">
      <g
   id="g5010">
        <path
   d="M 7.78125,-6.59375 C 7.796875,-6.625 7.828125,-6.6875 7.828125,-6.734375 7.828125,-6.796875 7.8125,-6.8125 7.59375,-6.8125 H 0.703125 c -0.21875,0 -0.234375,0.015625 -0.234375,0.078125 0,0.046875 0.03125,0.109375 0.046875,0.140625 L 3.875,0.140625 c 0.078125,0.125 0.109375,0.1875 0.265625,0.1875 0.171875,0 0.203125,-0.0625 0.28125,-0.1875 z m -6.078125,0.5 h 5.46875 l -2.71875,5.484375 z m 0,0"
   id="path5008" />
      </g>
    </g>
  </defs>
  <g
   fill="#000000"
   fill-opacity="1"
   id="id-8c680951-579b-414a-b5c8-997ea98c47f3"
   transform="translate(-149.181,-127.953)">
    <g
   transform="translate(148.712,134.765)"
   id="g6447"><path
   d="M 7.78125,-6.59375 C 7.796875,-6.625 7.828125,-6.6875 7.828125,-6.734375 7.828125,-6.796875 7.8125,-6.8125 7.59375,-6.8125 H 0.703125 c -0.21875,0 -0.234375,0.015625 -0.234375,0.078125 0,0.046875 0.03125,0.109375 0.046875,0.140625 L 3.875,0.140625 c 0.078125,0.125 0.109375,0.1875 0.265625,0.1875 0.171875,0 0.203125,-0.0625 0.28125,-0.1875 z m -6.078125,0.5 h 5.46875 l -2.71875,5.484375 z m 0,0"
   id="id-c24df4c4-df78-4d21-9cb7-0be6b04ecf81" />
      </g></g>
</g></g><path
         d="m 300.05057,492.32202 c 134.06088,18.76635 159.7052,170.7439 149.56466,271.63395"
         stroke="#4caf50"
         stroke-width="3.74418"
         fill="none"
         marker-end="url(#arrowhead)"
         id="path9085"
         style="stroke:#010301;stroke-width:20;stroke-dasharray:none;stroke-opacity:1;marker-end:url(#Arrow2)"
         sodipodi:nodetypes="cc" /><path
         d="M -94.093242,800.14538 C -131.11891,621.14789 -75.393191,581.80624 -16.79565,533.40917"
         stroke="#4caf50"
         stroke-width="3.74418"
         fill="none"
         marker-end="url(#arrowhead-9)"
         id="path9085-2"
         style="stroke:#010301;stroke-width:20;stroke-dasharray:none;stroke-opacity:1;marker-end:url(#Arrow2)"
         sodipodi:nodetypes="cc" /><path
         d="m 315.96242,1035.9604 c -80.11038,41.6426 -151.78384,47.4136 -243.332846,13.1422"
         stroke="#4caf50"
         stroke-width="3.74418"
         fill="none"
         marker-end="url(#arrowhead-3)"
         id="path9085-5"
         style="stroke:#010301;stroke-width:20;stroke-dasharray:none;stroke-opacity:1;marker-end:url(#Arrow2)"
         sodipodi:nodetypes="cc" /></g><g
       style="fill:none"
       id="g5113"
       transform="matrix(24.611133,0,0,24.611133,-1237.582,5.3927713)"><path
         fill-rule="evenodd"
         clip-rule="evenodd"
         d="M 8.6231,5.93966 C 7.75276,6.37483 7.5,6.83725 7.5,7.125 7.5,7.41275 7.75276,7.87517 8.6231,8.31034 9.44857,8.72307 10.6414,9 12,9 13.3586,9 14.5514,8.72307 15.3769,8.31034 16.2472,7.87517 16.5,7.41275 16.5,7.125 16.5,6.83725 16.2472,6.37483 15.3769,5.93966 14.5514,5.52693 13.3586,5.25 12,5.25 10.6414,5.25 9.44857,5.52693 8.6231,5.93966 Z M 16.5,9.39844 C 16.3535,9.4904 16.2018,9.57494 16.0477,9.65198 14.9731,10.1893 13.5409,10.5 12,10.5 10.4591,10.5 9.02693,10.1893 7.95228,9.65198 7.79821,9.57494 7.64654,9.4904 7.5,9.39844 V 10.375 c 0,0.3405 0.27767,0.8307 1.13569,1.2802 0.8225,0.4308 2.01071,0.7198 3.36431,0.7198 1.3536,0 2.5418,-0.289 3.3643,-0.7198 C 16.2223,11.2057 16.5,10.7155 16.5,10.375 Z M 18,7.125 v 3.25 c 0,0.042 -0.0011,0.0837 -0.0034,0.125 H 18 v 2.875 c 0,0.042 -0.0011,0.0837 -0.0034,0.125 H 18 v 2.875 c 0,1.1782 -0.8976,2.0631 -1.9397,2.6089 C 14.9827,19.5484 13.5459,19.875 12,19.875 10.4541,19.875 9.01731,19.5484 7.93968,18.9839 6.89758,18.4381 6,17.5532 6,16.375 V 13.5 H 6.00339 C 6.00114,13.4587 6,13.417 6,13.375 V 10.5 H 6.00339 C 6.00114,10.4587 6,10.417 6,10.375 V 7.125 C 6,5.96301 6.92249,5.11292 7.95228,4.59802 9.02693,4.0607 10.4591,3.75 12,3.75 c 1.5409,0 2.9731,0.3107 4.0477,0.84802 C 17.0775,5.11292 18,5.96301 18,7.125 Z M 7.5,15.7267 v 0.6483 c 0,0.3405 0.27767,0.8307 1.13569,1.2802 0.8225,0.4308 2.01071,0.7198 3.36431,0.7198 1.3536,0 2.5418,-0.289 3.3643,-0.7198 C 16.2223,17.2057 16.5,16.7155 16.5,16.375 v -0.6483 c -0.142,0.0927 -0.2894,0.1785 -0.4397,0.2572 C 14.9827,16.5484 13.5459,16.875 12,16.875 10.4541,16.875 9.01731,16.5484 7.93968,15.9839 7.78936,15.9052 7.64205,15.8194 7.5,15.7267 Z m 8.5603,-2.7428 C 16.2106,12.9052 16.358,12.8194 16.5,12.7267 v 0.6483 c 0,0.3405 -0.2777,0.8307 -1.1357,1.2802 C 14.5418,15.086 13.3536,15.375 12,15.375 10.6464,15.375 9.45819,15.086 8.63569,14.6552 7.77767,14.2057 7.5,13.7155 7.5,13.375 v -0.6483 c 0.14205,0.0927 0.28936,0.1785 0.43968,0.2572 1.07763,0.5645 2.51442,0.8911 4.06032,0.8911 1.5459,0 2.9827,-0.3266 4.0603,-0.8911 z"
         fill="#080341"
         id="path5104" /></g><g
       id="g6785"
       transform="translate(2.8885193)"><rect
         style="opacity:1;fill:#00e798;fill-opacity:1;stroke:#010301;stroke-width:20;stroke-linecap:round;stroke-linejoin:round;stroke-dasharray:none"
         id="rect5115"
         width="450.22336"
         height="450.22336"
         x="-478.67557"
         y="34.856869"
         rx="23.381893"
         ry="20.017134" /><g
         id="g6778"><rect
           style="opacity:1;fill:#00e798;fill-opacity:1;stroke:#010301;stroke-width:20;stroke-linecap:round;stroke-linejoin:round;stroke-dasharray:none"
           id="rect5115-3"
           width="450.22336"
           height="450.22336"
           x="-421.9454"
           y="88.573685"
           rx="23.381893"
           ry="20.017134" /><rect
           style="opacity:1;fill:#00e798;fill-opacity:1;stroke:#010301;stroke-width:20;stroke-linecap:round;stroke-linejoin:round;stroke-dasharray:none"
           id="rect5115-5"
           width="450.22336"
           height="450.22336"
           x="-357.53372"
           y="132.52794"
           rx="23.381893"
           ry="20.017134" /><rect
           style="opacity:1;fill:#00e798;fill-opacity:1;stroke:#010301;stroke-width:20;stroke-linecap:round;stroke-linejoin:round;stroke-dasharray:none"
           id="rect5115-6"
           width="450.22336"
           height="450.22336"
           x="-291.34225"
           y="181.70094"
           rx="23.381893"
           ry="20.017134" /></g></g><g
       id="g6773"
       transform="translate(3.6839142)"><rect
         style="fill:#00e798;fill-opacity:1;stroke:#010301;stroke-width:20;stroke-linecap:round;stroke-linejoin:round;stroke-dasharray:none"
         id="rect5115-2"
         width="450.22336"
         height="450.22336"
         x="-479.47098"
         y="-678.21191"
         rx="23.381893"
         ry="20.017134" /><rect
         style="fill:#00e798;fill-opacity:1;stroke:#010301;stroke-width:20;stroke-linecap:round;stroke-linejoin:round;stroke-dasharray:none"
         id="rect5115-3-9"
         width="450.22336"
         height="450.22336"
         x="-422.74081"
         y="-624.49512"
         rx="23.381893"
         ry="20.017134" /><rect
         style="fill:#00e798;fill-opacity:1;stroke:#010301;stroke-width:20;stroke-linecap:round;stroke-linejoin:round;stroke-dasharray:none"
         id="rect5115-5-1"
         width="450.22336"
         height="450.22336"
         x="-358.3291"
         y="-580.54089"
         rx="23.381893"
         ry="20.017134" /><rect
         style="fill:#00e798;fill-opacity:1;stroke:#010301;stroke-width:20;stroke-linecap:round;stroke-linejoin:round;stroke-dasharray:none"
         id="rect5115-6-2"
         width="450.22336"
         height="450.22336"
         x="-292.13763"
         y="-531.36786"
         rx="23.381893"
         ry="20.017134" /></g><g
       id="g6791"><rect
         style="fill:#00e798;fill-opacity:1;stroke:#010301;stroke-width:20;stroke-linecap:round;stroke-linejoin:round;stroke-dasharray:none"
         id="rect5115-7"
         width="450.22336"
         height="450.22336"
         x="-475.78705"
         y="718.76001"
         rx="23.381893"
         ry="20.017134" /><rect
         style="fill:#00e798;fill-opacity:1;stroke:#010301;stroke-width:20;stroke-linecap:round;stroke-linejoin:round;stroke-dasharray:none"
         id="rect5115-3-0"
         width="450.22336"
         height="450.22336"
         x="-419.05688"
         y="772.47687"
         rx="23.381893"
         ry="20.017134" /><rect
         style="fill:#00e798;fill-opacity:1;stroke:#010301;stroke-width:20;stroke-linecap:round;stroke-linejoin:round;stroke-dasharray:none"
         id="rect5115-5-9"
         width="450.22336"
         height="450.22336"
         x="-354.6452"
         y="816.43109"
         rx="23.381893"
         ry="20.017134" /><rect
         style="fill:#00e798;fill-opacity:1;stroke:#010301;stroke-width:20;stroke-linecap:round;stroke-linejoin:round;stroke-dasharray:none"
         id="rect5115-6-3"
         width="450.22336"
         height="450.22336"
         x="-288.45374"
         y="865.60413"
         rx="23.381893"
         ry="20.017134" /></g><text
       xml:space="preserve"
       style="font-size:94.6556px;font-family:Roboto;-inkscape-font-specification:Roboto;text-align:center;text-anchor:middle;opacity:1;fill:#000000;fill-opacity:1;stroke:#010301;stroke-width:3.62991;stroke-linecap:round;stroke-linejoin:round;stroke-dasharray:none"
       x="244.1158"
       y="-620.53143"
       id="text6455"><tspan
         sodipodi:role="line"
         id="tspan6453"
         style="fill:#000000;fill-opacity:1;stroke-width:3.62991;stroke-dasharray:none"
         x="244.1158"
         y="-620.53143">Batch #1</tspan></text><text
       xml:space="preserve"
       style="font-size:94.6556px;font-family:Roboto;-inkscape-font-specification:Roboto;text-align:center;text-anchor:middle;fill:#000000;fill-opacity:1;stroke:#010301;stroke-width:3.62991;stroke-linecap:round;stroke-linejoin:round;stroke-dasharray:none"
       x="223.12366"
       y="85.676758"
       id="text6455-9"><tspan
         sodipodi:role="line"
         id="tspan6453-2"
         style="fill:#000000;fill-opacity:1;stroke-width:3.62991;stroke-dasharray:none"
         x="223.12366"
         y="85.676758">Batch #2</tspan></text><text
       xml:space="preserve"
       style="font-size:164.114px;font-family:Roboto;-inkscape-font-specification:Roboto;text-align:center;text-anchor:middle;fill:#000000;fill-opacity:1;stroke:#010301;stroke-width:6.29353;stroke-linecap:round;stroke-linejoin:round;stroke-dasharray:none"
       x="-286.25787"
       y="-826.79163"
       id="text6455-6"
       inkscape:transform-center-x="9.9518811e-06"
       inkscape:transform-center-y="-152.61972"><tspan
         sodipodi:role="line"
         style="fill:#000000;fill-opacity:1;stroke-width:6.29353;stroke-dasharray:none"
         x="-286.25787"
         y="-826.79163"
         id="tspan6490">Epoch</tspan></text><path
       style="opacity:1;fill:#000000;fill-opacity:1;stroke:#010301;stroke-width:15;stroke-linecap:round;stroke-linejoin:round;stroke-dasharray:none;marker-end:url(#marker6548)"
       d="m -747.09149,291.34309 211.3593,-395.94465"
       id="path6544" /><path
       style="fill:#000000;fill-opacity:1;stroke:#010301;stroke-width:15;stroke-linecap:round;stroke-linejoin:round;stroke-dasharray:none;marker-end:url(#marker6548-1)"
       d="m -748.16324,294.70113 166.41314,2.8121"
       id="path6544-7"
       sodipodi:nodetypes="cc" /><path
       style="fill:#000000;fill-opacity:1;stroke:#010301;stroke-width:15;stroke-linecap:round;stroke-linejoin:round;stroke-dasharray:none;marker-end:url(#marker6548-6)"
       d="m -747.66527,295.80661 211.3593,395.94465"
       id="path6544-6" /><path
       style="fill:none;fill-opacity:1;stroke:#010301;stroke-width:15;stroke-linecap:round;stroke-linejoin:round;stroke-dasharray:none;marker-start:url(#marker6548)"
       d="M 764.02667,-183.21186 C 768.23845,-523.19805 415.07233,-433.24022 216.9711,-336.30857"
       id="path6544-9"
       sodipodi:nodetypes="cc" /><path
       style="fill:none;fill-opacity:1;stroke:#010301;stroke-width:15;stroke-linecap:round;stroke-linejoin:round;stroke-dasharray:none;marker-start:url(#marker6548)"
       d="M 367.66945,331.85044 212.47063,325.82532"
       id="path6544-7-7"
       sodipodi:nodetypes="cc" /><path
       style="fill:none;fill-opacity:1;stroke:#010301;stroke-width:15;stroke-linecap:round;stroke-linejoin:round;stroke-dasharray:none;marker-start:url(#marker6548)"
       d="m 739.13372,792.6548 c -16.17026,285.1967 -151.48034,435.6971 -518.46989,324.2671"
       id="path6544-6-3"
       sodipodi:nodetypes="cc" /><text
       xml:space="preserve"
       style="font-size:94.6556px;font-family:Roboto;-inkscape-font-specification:Roboto;text-align:center;text-anchor:middle;fill:#000000;fill-opacity:1;stroke:#010301;stroke-width:3.62991;stroke-linecap:round;stroke-linejoin:round;stroke-dasharray:none"
       x="228.97913"
       y="777.64172"
       id="text6455-0"><tspan
         sodipodi:role="line"
         id="tspan6453-23"
         style="fill:#000000;fill-opacity:1;stroke-width:3.62991;stroke-dasharray:none"
         x="228.97913"
         y="777.64172">Batch #3</tspan><tspan
         sodipodi:role="line"
         style="fill:#000000;fill-opacity:1;stroke-width:3.62991;stroke-dasharray:none"
         x="228.97913"
         y="895.96124"
         id="tspan7029" /></text></g></svg>
