<?xml version="1.0" encoding="UTF-8" standalone="no"?>
<!-- Created with Inkscape (http://www.inkscape.org/) -->

<svg
   xmlns:dc="http://purl.org/dc/elements/1.1/"
   xmlns:cc="http://creativecommons.org/ns#"
   xmlns:rdf="http://www.w3.org/1999/02/22-rdf-syntax-ns#"
   xmlns:svg="http://www.w3.org/2000/svg"
   xmlns="http://www.w3.org/2000/svg"
   xmlns:sodipodi="http://sodipodi.sourceforge.net/DTD/sodipodi-0.dtd"
   xmlns:inkscape="http://www.inkscape.org/namespaces/inkscape"
   width="69.781525"
   height="32.131924"
   id="svg16604"
   version="1.1"
   inkscape:version="0.48.1 r9760"
   sodipodi:docname="fleche.svg">
  <defs
     id="defs16606" />
  <sodipodi:namedview
     id="base"
     pagecolor="#ffffff"
     bordercolor="#666666"
     borderopacity="1.0"
     inkscape:pageopacity="0.0"
     inkscape:pageshadow="2"
     inkscape:zoom="7.919596"
     inkscape:cx="5.2671857"
     inkscape:cy="28.501589"
     inkscape:document-units="px"
     inkscape:current-layer="layer1"
     showgrid="false"
     fit-margin-top="0"
     fit-margin-left="0"
     fit-margin-right="0"
     fit-margin-bottom="0"
     inkscape:window-width="1918"
     inkscape:window-height="1059"
     inkscape:window-x="0"
     inkscape:window-y="19"
     inkscape:window-maximized="1" />
  <metadata
     id="metadata16609">
    <rdf:RDF>
      <cc:Work
         rdf:about="">
        <dc:format>image/svg+xml</dc:format>
        <dc:type
           rdf:resource="http://purl.org/dc/dcmitype/StillImage" />
        <dc:title></dc:title>
      </cc:Work>
    </rdf:RDF>
  </metadata>
  <g
     inkscape:label="Layer 1"
     inkscape:groupmode="layer"
     id="layer1"
     transform="translate(-378.93736,-512.78075)">
    <path
       style="fill:#000000;fill-opacity:1;fill-rule:nonzero;stroke:#000000;stroke-width:0.20071037;stroke-linecap:round;stroke-linejoin:round;stroke-miterlimit:4;stroke-opacity:1;stroke-dasharray:none;stroke-dashoffset:0"
       d="m 387.02764,527.43434 c 1.3e-4,-1.23297 0.48302,-2.24997 1.0627,-2.24995 l 43.06241,0.002 c 0.022,-3.78348 0.062,-7.59172 0.1568,-11.37503 0.016,-1.11156 1.7889,-1.0673 2.1563,-0.68742 l 14.99921,15.53191 c 0.36719,0.38018 -0.017,1.29909 -0.84381,2.06251 l -14.2819,13.18684 c -0.8269,0.76335 -2.1493,1.20996 -2.1562,0.68735 -0.023,-4.02356 -0.055,-8.0391 -0.062,-12.06241 l -43.0312,-0.002 c -0.57968,-10e-6 -1.06244,-1.01712 -1.06238,-2.25002 l 1.5e-4,-2.8437 z"
       id="rect10449-31-4"
       inkscape:connector-curvature="0"
       inkscape:transform-center-y="-16.40323"
       inkscape:transform-center-x="-17.378218" />
    <path
       style="fill:#000000;fill-opacity:1;fill-rule:nonzero;stroke:#000000;stroke-width:0.20071037;stroke-linecap:round;stroke-linejoin:round;stroke-miterlimit:4;stroke-opacity:1;stroke-dasharray:none;stroke-dashoffset:0"
       d="m 440.60445,527.43434 c -1.3e-4,-1.23297 -0.48302,-2.24997 -1.0627,-2.24995 l -43.0624,0.002 c -0.022,-3.78348 -0.062,-7.59172 -0.15681,-11.37503 -0.016,-1.11156 -1.7889,-1.0673 -2.15629,-0.68742 l -14.99922,15.53191 c -0.36718,0.38018 0.017,1.29909 0.84382,2.06251 l 14.2819,13.18684 c 0.82689,0.76335 2.1493,1.20996 2.15619,0.68735 0.023,-4.02356 0.055,-8.0391 0.062,-12.06241 l 43.0312,-0.002 c 0.57968,-10e-6 1.06244,-1.01712 1.06238,-2.25002 l -1.5e-4,-2.8437 z"
       id="rect10449-31-4-0"
       inkscape:connector-curvature="0"
       inkscape:transform-center-y="-16.40323"
       inkscape:transform-center-x="17.378217" />
  </g>
</svg>
