<?xml version="1.0" encoding="UTF-8" standalone="no"?>
<!-- Created with Inkscape (http://www.inkscape.org/) -->

<svg
   xmlns:ns1="http://www.iki.fi/pav/software/textext/"
   xmlns:dc="http://purl.org/dc/elements/1.1/"
   xmlns:cc="http://creativecommons.org/ns#"
   xmlns:rdf="http://www.w3.org/1999/02/22-rdf-syntax-ns#"
   xmlns:svg="http://www.w3.org/2000/svg"
   xmlns="http://www.w3.org/2000/svg"
   xmlns:sodipodi="http://sodipodi.sourceforge.net/DTD/sodipodi-0.dtd"
   xmlns:inkscape="http://www.inkscape.org/namespaces/inkscape"
   width="196.7562mm"
   height="47.864998mm"
   id="svg2"
   version="1.1"
   inkscape:version="0.92.5 (2060ec1f9f, 2020-04-08)"
   sodipodi:docname="graph_level_function.svg">
  <sodipodi:namedview
     id="base"
     pagecolor="#ffffff"
     bordercolor="#666666"
     borderopacity="1.0"
     inkscape:pageopacity="0.0"
     inkscape:pageshadow="2"
     inkscape:zoom="0.7"
     inkscape:cx="652.07405"
     inkscape:cy="-12.176529"
     inkscape:document-units="px"
     inkscape:current-layer="layer1"
     showgrid="false"
     inkscape:window-width="1920"
     inkscape:window-height="1016"
     inkscape:window-x="0"
     inkscape:window-y="27"
     inkscape:window-maximized="1"
     fit-margin-top="0"
     fit-margin-left="0"
     fit-margin-right="0"
     fit-margin-bottom="0"
     units="mm" />
  <defs
     id="defs4">
    <inkscape:path-effect
       is_visible="true"
       id="path-effect10447"
       effect="spiro" />
  </defs>
  <metadata
     id="metadata7">
    <rdf:RDF>
      <cc:Work
         rdf:about="">
        <dc:format>image/svg+xml</dc:format>
        <dc:type
           rdf:resource="http://purl.org/dc/dcmitype/StillImage" />
        <dc:title></dc:title>
      </cc:Work>
    </rdf:RDF>
  </metadata>
  <g
     transform="translate(-158.78688,6.460015)"
     id="layer1"
     inkscape:groupmode="layer"
     inkscape:label="Layer 1">
    <text
       id="text3467"
       font-size="13"
       y="37.098953"
       x="380.1203"
       style="font-size:13px;font-family:sans-serif;fill:#0c0cff;stroke:#0c0cff;stroke-width:1" />
    <text
       id="text3471"
       font-size="13"
       y="150.69896"
       x="449.40234"
       style="font-size:13px;font-family:sans-serif;fill:#0c0cff;stroke:#0c0cff;stroke-width:1" />
    <g
       id="g5685"
       style="stroke-width:2;stroke-miterlimit:4;stroke-dasharray:none"
       transform="matrix(1.2709893,0,0,1.2709893,-13.54825,-18.866546)">
      <line
         id="line5687"
         y2="31.498955"
         x2="292.83826"
         y1="50.698952"
         x1="292.83826"
         style="font-family:sans-serif;stroke:#000000;stroke-width:2;stroke-linecap:round;stroke-miterlimit:4;stroke-dasharray:none" />
      <line
         id="line5689"
         y2="66.29895"
         x2="301.83826"
         y1="81.098953"
         x1="327.43826"
         style="font-family:sans-serif;stroke:#000000;stroke-width:2;stroke-linecap:round;stroke-miterlimit:4;stroke-dasharray:none" />
      <line
         id="line5691"
         y2="31.498955"
         x2="362.13828"
         y1="61.098953"
         x1="362.13828"
         style="font-family:sans-serif;stroke:#000000;stroke-width:2;stroke-linecap:round;stroke-miterlimit:4;stroke-dasharray:none" />
      <line
         id="line5693"
         y2="135.89896"
         x2="422.43826"
         y1="121.09895"
         x1="396.73825"
         style="font-family:sans-serif;stroke:#000000;stroke-width:2;stroke-linecap:round;stroke-miterlimit:4;stroke-dasharray:none" />
      <line
         id="line5695"
         y2="121.09895"
         x2="327.43826"
         y1="141.09895"
         x1="362.13828"
         style="font-family:sans-serif;stroke:#000000;stroke-width:2;stroke-linecap:round;stroke-miterlimit:4;stroke-dasharray:none" />
      <line
         id="line5697"
         y2="81.098953"
         x2="327.43826"
         y1="121.09895"
         x1="327.43826"
         style="font-family:sans-serif;stroke:#000000;stroke-width:2;stroke-linecap:round;stroke-miterlimit:4;stroke-dasharray:none" />
      <line
         id="line5699"
         y2="61.098953"
         x2="362.13828"
         y1="81.098953"
         x1="327.43826"
         style="font-family:sans-serif;stroke:#000000;stroke-width:2;stroke-linecap:round;stroke-miterlimit:4;stroke-dasharray:none" />
      <line
         id="line5701"
         y2="81.098953"
         x2="396.73825"
         y1="61.098953"
         x1="362.13828"
         style="font-family:sans-serif;stroke:#000000;stroke-width:2;stroke-linecap:round;stroke-miterlimit:4;stroke-dasharray:none" />
      <line
         id="line5703"
         y2="121.09895"
         x2="396.73825"
         y1="81.098953"
         x1="396.73825"
         style="font-family:sans-serif;stroke:#000000;stroke-width:2;stroke-linecap:round;stroke-miterlimit:4;stroke-dasharray:none" />
      <line
         id="line5705"
         y2="141.09895"
         x2="362.13828"
         y1="121.09895"
         x1="396.73825"
         style="font-family:sans-serif;stroke:#000000;stroke-width:2;stroke-linecap:round;stroke-miterlimit:4;stroke-dasharray:none" />
      <g
         id="g5707"
         style="stroke-width:2;stroke-miterlimit:4;stroke-dasharray:none">
        <ellipse
           style="opacity:1;fill:#ffffff;fill-opacity:1;stroke:#000000;stroke-width:2;stroke-linecap:round;stroke-linejoin:round;stroke-miterlimit:4;stroke-dasharray:none;stroke-dashoffset:0;stroke-opacity:1"
           id="ellipse5709"
           cx="295.53513"
           cy="60.074738"
           rx="11.033786"
           ry="10.81311" />
        <text
           style="font-size:16px;line-height:0%;font-family:sans-serif;fill:#ff0c0c;stroke:#ff0c0c;stroke-width:2;stroke-miterlimit:4;stroke-dasharray:none"
           x="289.23825"
           y="65.898956"
           font-size="16"
           id="text5711">O</text>
      </g>
      <g
         transform="translate(1.5152288)"
         id="g5713"
         style="stroke-width:2;stroke-miterlimit:4;stroke-dasharray:none">
        <ellipse
           style="opacity:1;fill:#ffffff;fill-opacity:1;stroke:#000000;stroke-width:2;stroke-linecap:round;stroke-linejoin:round;stroke-miterlimit:4;stroke-dasharray:none;stroke-dashoffset:0;stroke-opacity:1"
           id="ellipse5715"
           cx="291.93475"
           cy="21.574429"
           rx="11.033786"
           ry="10.81311" />
        <text
           style="font-size:16px;line-height:0%;font-family:sans-serif;fill:#666666;stroke:#666666;stroke-width:2;stroke-miterlimit:4;stroke-dasharray:none"
           x="286.33319"
           y="27.398647"
           font-size="16"
           id="text5717">C</text>
      </g>
      <g
         id="g5719"
         style="stroke-width:2;stroke-miterlimit:4;stroke-dasharray:none">
        <ellipse
           style="opacity:1;fill:#ffffff;fill-opacity:1;stroke:#000000;stroke-width:2;stroke-linecap:round;stroke-linejoin:round;stroke-miterlimit:4;stroke-dasharray:none;stroke-dashoffset:0;stroke-opacity:1"
           id="ellipse5721"
           cx="362.10468"
           cy="23.586922"
           rx="11.033786"
           ry="10.81311" />
        <text
           style="font-size:16px;line-height:0%;font-family:sans-serif;fill:#0c0cff;stroke:#0c0cff;stroke-width:2;stroke-miterlimit:4;stroke-dasharray:none"
           x="356.1203"
           y="29.418953"
           font-size="16"
           id="text5723">N</text>
      </g>
      <g
         id="g5725"
         transform="translate(70.130271,115.68678)"
         style="stroke-width:2;stroke-miterlimit:4;stroke-dasharray:none">
        <ellipse
           style="opacity:1;fill:#ffffff;fill-opacity:1;stroke:#000000;stroke-width:2;stroke-linecap:round;stroke-linejoin:round;stroke-miterlimit:4;stroke-dasharray:none;stroke-dashoffset:0;stroke-opacity:1"
           id="ellipse5727"
           cx="362.10468"
           cy="23.586922"
           rx="11.033786"
           ry="10.81311" />
        <text
           style="font-size:16px;line-height:0%;font-family:sans-serif;fill:#0c0cff;stroke:#0c0cff;stroke-width:2;stroke-miterlimit:4;stroke-dasharray:none"
           x="356.1203"
           y="29.418953"
           font-size="16"
           id="text5729">N</text>
      </g>
      <g
         transform="translate(71.104743,39.917522)"
         id="g5731"
         style="stroke-width:2;stroke-miterlimit:4;stroke-dasharray:none">
        <ellipse
           style="opacity:1;fill:#ffffff;fill-opacity:1;stroke:#000000;stroke-width:2;stroke-linecap:round;stroke-linejoin:round;stroke-miterlimit:4;stroke-dasharray:none;stroke-dashoffset:0;stroke-opacity:1"
           id="ellipse5733"
           cx="291.93475"
           cy="21.574429"
           rx="11.033786"
           ry="10.81311" />
        <text
           style="font-size:16px;line-height:0%;font-family:sans-serif;fill:#666666;stroke:#666666;stroke-width:2;stroke-miterlimit:4;stroke-dasharray:none"
           x="286.33319"
           y="27.398647"
           font-size="16"
           id="text5735">C</text>
      </g>
      <g
         transform="translate(35.749405,59.110421)"
         id="g5737"
         style="stroke-width:2;stroke-miterlimit:4;stroke-dasharray:none">
        <ellipse
           style="opacity:1;fill:#ffffff;fill-opacity:1;stroke:#000000;stroke-width:2;stroke-linecap:round;stroke-linejoin:round;stroke-miterlimit:4;stroke-dasharray:none;stroke-dashoffset:0;stroke-opacity:1"
           id="ellipse5739"
           cx="291.93475"
           cy="21.574429"
           rx="11.033786"
           ry="10.81311" />
        <text
           style="font-size:16px;line-height:0%;font-family:sans-serif;fill:#666666;stroke:#666666;stroke-width:2;stroke-miterlimit:4;stroke-dasharray:none"
           x="286.33319"
           y="27.398647"
           font-size="16"
           id="text5741">C</text>
      </g>
      <g
         transform="translate(35.244328,100.0216)"
         id="g5743"
         style="stroke-width:2;stroke-miterlimit:4;stroke-dasharray:none">
        <ellipse
           style="opacity:1;fill:#ffffff;fill-opacity:1;stroke:#000000;stroke-width:2;stroke-linecap:round;stroke-linejoin:round;stroke-miterlimit:4;stroke-dasharray:none;stroke-dashoffset:0;stroke-opacity:1"
           id="ellipse5745"
           cx="291.93475"
           cy="21.574429"
           rx="11.033786"
           ry="10.81311" />
        <text
           style="font-size:16px;line-height:0%;font-family:sans-serif;fill:#666666;stroke:#666666;stroke-width:2;stroke-miterlimit:4;stroke-dasharray:none"
           x="286.33319"
           y="27.398647"
           font-size="16"
           id="text5747">C</text>
      </g>
      <g
         transform="translate(70.094591,118.70942)"
         id="g5749"
         style="stroke-width:2;stroke-miterlimit:4;stroke-dasharray:none">
        <ellipse
           style="opacity:1;fill:#ffffff;fill-opacity:1;stroke:#000000;stroke-width:2;stroke-linecap:round;stroke-linejoin:round;stroke-miterlimit:4;stroke-dasharray:none;stroke-dashoffset:0;stroke-opacity:1"
           id="ellipse5751"
           cx="291.93475"
           cy="21.574429"
           rx="11.033786"
           ry="10.81311" />
        <text
           style="font-size:16px;line-height:0%;font-family:sans-serif;fill:#666666;stroke:#666666;stroke-width:2;stroke-miterlimit:4;stroke-dasharray:none"
           x="286.33319"
           y="27.398647"
           font-size="16"
           id="text5753">C</text>
      </g>
      <g
         transform="translate(104.94485,99.516523)"
         id="g5755"
         style="stroke-width:2;stroke-miterlimit:4;stroke-dasharray:none">
        <ellipse
           style="opacity:1;fill:#ffffff;fill-opacity:1;stroke:#000000;stroke-width:2;stroke-linecap:round;stroke-linejoin:round;stroke-miterlimit:4;stroke-dasharray:none;stroke-dashoffset:0;stroke-opacity:1"
           id="ellipse5757"
           cx="291.93475"
           cy="21.574429"
           rx="11.033786"
           ry="10.81311" />
        <text
           style="font-size:16px;line-height:0%;font-family:sans-serif;fill:#666666;stroke:#666666;stroke-width:2;stroke-miterlimit:4;stroke-dasharray:none"
           x="286.33319"
           y="27.398647"
           font-size="16"
           id="text5759">C</text>
      </g>
      <g
         transform="translate(104.43978,58.605345)"
         id="g5761"
         style="stroke-width:2;stroke-miterlimit:4;stroke-dasharray:none">
        <ellipse
           style="opacity:1;fill:#ffffff;fill-opacity:1;stroke:#000000;stroke-width:2;stroke-linecap:round;stroke-linejoin:round;stroke-miterlimit:4;stroke-dasharray:none;stroke-dashoffset:0;stroke-opacity:1"
           id="ellipse5763"
           cx="291.93475"
           cy="21.574429"
           rx="11.033786"
           ry="10.81311" />
        <text
           style="font-size:16px;line-height:0%;font-family:sans-serif;fill:#666666;stroke:#666666;stroke-width:2;stroke-miterlimit:4;stroke-dasharray:none"
           x="286.33319"
           y="27.398647"
           font-size="16"
           id="text5765">C</text>
      </g>
    </g>
    <path
       style="font-style:normal;font-variant:normal;font-weight:normal;font-stretch:normal;letter-spacing:normal;word-spacing:normal;text-anchor:start;fill:#000000;fill-opacity:1;fill-rule:evenodd;stroke:#000000;stroke-width:0;stroke-linecap:butt;stroke-linejoin:miter;stroke-miterlimit:10.43299961;stroke-dasharray:none;stroke-dashoffset:0;stroke-opacity:1"
       inkscape:connector-curvature="0"
       d="m 619.53326,83.993517 v -1.31247 -1.14841 l -0.16405,-1.31248 v -1.31248 l -0.16406,-2.789 -0.16406,-2.95306 -0.32812,-2.95309 -0.32812,-3.117116 -0.32812,-3.281187 -0.65624,-3.281198 -0.65624,-3.281186 -0.65623,-3.445243 -0.98435,-3.445256 -0.98437,-3.445247 -1.14841,-3.445248 -1.31248,-3.609307 -0.65624,-1.640594 -0.65623,-1.804654 -0.8203,-1.804655 -0.8203,-1.640593 C 598.86178,12.791733 584.75266,2.2919291 583.27613,2.2919291 c -0.98436,0 -1.80466,0.656238 -1.80466,1.640594 0,0.328119 0,0.656237 3.11714,3.609307 16.07782,16.2418839 25.42921,42.1632719 25.42921,76.4516869 0,27.890103 -6.07019,56.600513 -26.2495,77.272003 -2.29685,1.96871 -2.29685,2.29684 -2.29685,2.78901 0,0.98435 0.8203,1.64059 1.80466,1.64059 1.47653,0 16.24188,-11.15604 25.92139,-31.99158 8.36704,-17.88249 10.33574,-36.093083 10.33574,-49.710023 z"
       id="path4261" />
    <g
       ns1:preamble="/home/bgauzere/Documents/Presentations/slides_sspr_2016/head.ini"
       ns1:text="$\\mathbb{R}$"
       word-spacing="normal"
       letter-spacing="normal"
       font-size-adjust="none"
       font-stretch="normal"
       font-weight="normal"
       font-variant="normal"
       font-style="normal"
       stroke-miterlimit="10.433"
       xml:space="preserve"
       transform="matrix(16.36875,0,0,-16.36875,-2871.0824,11714.563)"
       id="g6136"
       style="font-style:normal;font-variant:normal;font-weight:normal;font-stretch:normal;letter-spacing:normal;word-spacing:normal;text-anchor:start;fill:none;fill-opacity:1;fill-rule:evenodd;stroke:#000000;stroke-width:0.18327606;stroke-linecap:butt;stroke-linejoin:miter;stroke-miterlimit:10.43299961;stroke-dasharray:none;stroke-dashoffset:0;stroke-opacity:1"><path
         id="path6138"
         d="m 226.1,710.25 v 0.35 2.46 c 0,0.21 0,0.54 0.62,0.54 0.85,0 1.27,-0.35 1.27,-1.53 h 0.34 c 0,0.48 -0.06,1.01 -0.37,1.42 0.4,-0.09 1.39,-0.4 1.39,-1.41 0,-0.64 -0.3,-1.15 -1.33,-1.34 v 0 c 0.28,0.37 0.31,0.9 0.31,1.33 h -0.34 c 0,-1.28 -0.31,-1.47 -1.89,-1.47 v -0.35 h 0.36 l 1.5,-2.31 c 0.09,-0.16 0.33,-0.55 0.44,-0.7 l 0.26,0.23 -1.79,2.78 c 0.07,0.01 0.11,0.02 0.19,0.02 0.15,0 0.37,0.02 0.52,0.04 0.15,-0.24 1.22,-2.01 2.05,-2.84 h -0.97 l -0.26,-0.23 c 0.07,-0.12 0.1,-0.12 0.33,-0.12 h 1.38 c 0.18,0 0.33,0 0.33,0.18 0,0.08 -0.06,0.15 -0.15,0.17 -0.37,0.08 -0.86,0.74 -1.1,1.06 -0.07,0.1 -0.57,0.75 -1.23,1.83 0.88,0.16 1.74,0.54 1.74,1.72 0,1.39 -1.47,1.87 -2.64,1.87 h -3.13 c -0.18,0 -0.34,0 -0.34,-0.18 0,-0.17 0.19,-0.17 0.27,-0.17 0.57,0 0.62,-0.07 0.62,-0.57 l 0.35,0.02 c 0,0.1 0,0.37 -0.08,0.55 h 1.13 c -0.13,-0.16 -0.13,-0.36 -0.13,-0.51 v -5.07 c 0,-0.1 0,-0.37 0.08,-0.55 h -1.08 c 0.08,0.18 0.08,0.46 0.08,0.55 v 5.03 l -0.35,-0.02 v -4.99 c 0,-0.5 -0.05,-0.57 -0.62,-0.57 -0.08,0 -0.27,0 -0.27,-0.17 0,-0.18 0.16,-0.18 0.34,-0.18 h 2.73 c 0.18,0 0.33,0 0.33,0.18 0,0.17 -0.17,0.17 -0.28,0.17 -0.57,0 -0.61,0.08 -0.61,0.57 z"
         inkscape:connector-curvature="0"
         style="fill:#000000;stroke-width:0.18327606;stroke-miterlimit:10.43299961;stroke-dasharray:none" /></g>    <g
       transform="matrix(2.2024688,0,0,2.2024688,-204.32428,-956.36971)"
       id="layer1-6"
       inkscape:label="Layer 1">
      <path
         inkscape:transform-center-x="-17.378218"
         inkscape:transform-center-y="-16.40323"
         inkscape:connector-curvature="0"
         id="rect10449-31-4"
         d="m 386.35445,470.9465 c 1.3e-4,-1.23297 0.48302,-2.24997 1.0627,-2.24995 l 43.06241,0.002 c 0.022,-3.78348 0.062,-7.59172 0.1568,-11.37503 0.016,-1.11156 1.7889,-1.0673 2.1563,-0.68742 l 14.99921,15.53191 c 0.36719,0.38018 -0.017,1.29909 -0.84381,2.06251 l -14.2819,13.18684 c -0.8269,0.76335 -2.1493,1.20996 -2.1562,0.68735 -0.023,-4.02356 -0.055,-8.0391 -0.062,-12.06241 l -43.0312,-0.002 c -0.57968,-10e-6 -1.06244,-1.01712 -1.06238,-2.25002 l 1.5e-4,-2.8437 z"
         style="fill:#000000;fill-opacity:1;fill-rule:nonzero;stroke:#000000;stroke-width:0.20071037;stroke-linecap:round;stroke-linejoin:round;stroke-miterlimit:4;stroke-dasharray:none;stroke-dashoffset:0;stroke-opacity:1" />
    </g>
    <path
       id="path5677"
       d="m 313.93387,164.05453 v -0.16406 0 -0.16405 0 0 0 l -0.16406,-0.16406 v 0 -0.16407 0 0 l -0.16406,-0.16406 v 0 -0.16405 h -0.16406 v -0.16406 l -0.16406,-0.16406 v 0 l -0.16405,-0.16407 v 0 -0.16405 h -0.16407 v -0.16406 h -0.16406 v 0 -0.16406 h -0.16406 v -0.16407 h -0.16405 v -0.16405 l -0.16407,-0.16406 v 0 l -0.16406,-0.16406 h -0.16405 v -0.16405 l -0.16406,-0.16407 h -0.16406 v -0.16406 l -0.16407,-0.16406 -0.16404,-0.16405 v 0 l -0.16407,-0.16407 c -20.50743,-20.67149 -25.75733,-51.51465 -25.75733,-76.451703 0,-28.546335 6.23426,-56.928614 26.41357,-77.4360425 2.13277,-1.9687142 2.13277,-2.2968329 2.13277,-2.6249515 0,-1.3124757 -0.65624,-1.6405943 -1.6406,-1.6405943 -1.64058,0 -16.40593,10.9919823 -26.08545,31.8275303 -8.20296,17.882481 -10.17168,36.093073 -10.17168,49.874058 0,12.632587 1.80465,32.483773 10.66387,50.858433 9.84356,20.1793 23.95268,30.84317 25.59326,30.84317 0.98436,0 1.6406,-0.49217 1.6406,-1.64059 z"
       inkscape:connector-curvature="0"
       style="font-style:normal;font-variant:normal;font-weight:normal;font-stretch:normal;letter-spacing:normal;word-spacing:normal;text-anchor:start;fill:#000000;fill-opacity:1;fill-rule:evenodd;stroke:#000000;stroke-width:0;stroke-linecap:butt;stroke-linejoin:miter;stroke-miterlimit:10.43299961;stroke-dasharray:none;stroke-dashoffset:0;stroke-opacity:1" />
    <g
       id="g978"
       transform="matrix(19.138965,0,0,19.138965,-1294.4288,-11093.039)">
      <g
         id="g976"
         transform="matrix(0.26910154,0,0,-0.26910154,-47.09277,698.02804)"
         xml:space="preserve"
         stroke-miterlimit="10.433"
         font-style="normal"
         font-variant="normal"
         font-weight="normal"
         font-stretch="normal"
         font-size-adjust="none"
         letter-spacing="normal"
         word-spacing="normal"
         style="font-style:normal;font-variant:normal;font-weight:normal;font-stretch:normal;letter-spacing:normal;word-spacing:normal;text-anchor:start;fill:none;fill-opacity:1;fill-rule:evenodd;stroke:#000000;stroke-linecap:butt;stroke-linejoin:miter;stroke-miterlimit:10.43299961;stroke-dasharray:none;stroke-dashoffset:0;stroke-opacity:1"><path
           d="m 464.24,427.67 v 5.78 c 0,4.39 2.39,6.78 4.58,6.78 0.15,0 0.9,0 1.65,-0.36 -0.61,-0.19 -1.5,-0.84 -1.5,-2.08 0,-1.15 0.8,-2.15 2.14,-2.15 1.44,0 2.19,1 2.19,2.2 0,1.84 -1.84,3.48 -4.48,3.48 -3.49,0 -7.72,-2.64 -7.72,-7.92 v -5.73 h -3.94 v -1.55 h 3.94 v -16.14 c 0,-2.23 -0.55,-2.23 -3.89,-2.23 v -1.55 c 1.95,0.05 4.29,0.16 5.68,0.16 1.99,0 4.33,0 6.33,-0.16 v 1.55 h -1.04 c -3.69,0 -3.79,0.54 -3.79,2.34 v 16.03 h 5.68 v 1.55 z"
           id="path974"
           inkscape:connector-curvature="0"
           style="fill:#000000;stroke-width:0" /></g>    </g>
    <g
       id="g1367"
       transform="matrix(19.138965,0,0,19.138965,-1294.4288,-11093.039)">
      <g
         word-spacing="normal"
         letter-spacing="normal"
         font-size-adjust="none"
         font-stretch="normal"
         font-weight="normal"
         font-variant="normal"
         font-style="normal"
         stroke-miterlimit="10.433"
         xml:space="preserve"
         transform="matrix(0.26910154,0,0,-0.26910154,-47.09277,698.02804)"
         id="g1365"
         style="font-style:normal;font-variant:normal;font-weight:normal;font-stretch:normal;letter-spacing:normal;word-spacing:normal;text-anchor:start;fill:none;fill-opacity:1;fill-rule:evenodd;stroke:#000000;stroke-linecap:butt;stroke-linejoin:miter;stroke-miterlimit:10.43299961;stroke-dasharray:none;stroke-dashoffset:0;stroke-opacity:1"><path
           id="path1363"
           d="m 464.24,427.67 v 5.78 c 0,4.39 2.39,6.78 4.58,6.78 0.15,0 0.9,0 1.65,-0.36 -0.61,-0.19 -1.5,-0.84 -1.5,-2.08 0,-1.15 0.8,-2.15 2.14,-2.15 1.44,0 2.19,1 2.19,2.2 0,1.84 -1.84,3.48 -4.48,3.48 -3.49,0 -7.72,-2.64 -7.72,-7.92 v -5.73 h -3.94 v -1.55 h 3.94 v -16.14 c 0,-2.23 -0.55,-2.23 -3.89,-2.23 v -1.55 c 1.95,0.05 4.29,0.16 5.68,0.16 1.99,0 4.33,0 6.33,-0.16 v 1.55 h -1.04 c -3.69,0 -3.79,0.54 -3.79,2.34 v 16.03 h 5.68 v 1.55 z"
           inkscape:connector-curvature="0"
           style="fill:#000000;stroke-width:0" /></g>    </g>
  </g>
</svg>
