<?xml version="1.0" encoding="UTF-8" standalone="no"?>
<!-- Created with Inkscape (http://www.inkscape.org/) -->

<svg
   xmlns:dc="http://purl.org/dc/elements/1.1/"
   xmlns:cc="http://creativecommons.org/ns#"
   xmlns:rdf="http://www.w3.org/1999/02/22-rdf-syntax-ns#"
   xmlns:svg="http://www.w3.org/2000/svg"
   xmlns="http://www.w3.org/2000/svg"
   xmlns:sodipodi="http://sodipodi.sourceforge.net/DTD/sodipodi-0.dtd"
   xmlns:inkscape="http://www.inkscape.org/namespaces/inkscape"
   width="276.71176mm"
   height="60.76368mm"
   viewBox="0 0 276.71176 60.76368"
   version="1.1"
   id="svg8"
   inkscape:version="0.92.5 (2060ec1f9f, 2020-04-08)"
   sodipodi:docname="graph_generator.svg">
  <defs
     id="defs2"><style
   id="style900"
   type="text/css">
   <![CDATA[
    .str2 {stroke:#28166F;stroke-width:6.48189;stroke-linecap:round;stroke-linejoin:round}
    .str1 {stroke:black;stroke-width:6.48189}
    .str0 {stroke:black;stroke-width:6.48189;stroke-linecap:round;stroke-linejoin:round}
    .fil1 {fill:none;fill-rule:nonzero}
    .fil0 {fill:white}
   ]]>
  </style>

  
  
  
 
   
   
  
    
    
    
    
   </defs>
  <sodipodi:namedview
     id="base"
     pagecolor="#ffffff"
     bordercolor="#666666"
     borderopacity="1.0"
     inkscape:pageopacity="0.0"
     inkscape:pageshadow="2"
     inkscape:zoom="0.7"
     inkscape:cx="512.21403"
     inkscape:cy="-89.109014"
     inkscape:document-units="mm"
     inkscape:current-layer="layer1"
     showgrid="false"
     fit-margin-top="0"
     fit-margin-left="0"
     fit-margin-right="0"
     fit-margin-bottom="0"
     inkscape:window-width="1920"
     inkscape:window-height="1016"
     inkscape:window-x="0"
     inkscape:window-y="27"
     inkscape:window-maximized="1" />
  <metadata
     id="metadata5">
    <rdf:RDF>
      <cc:Work
         rdf:about="">
        <dc:format>image/svg+xml</dc:format>
        <dc:type
           rdf:resource="http://purl.org/dc/dcmitype/StillImage" />
        <dc:title></dc:title>
      </cc:Work>
    </rdf:RDF>
  </metadata>
  <g
     inkscape:label="Calque 1"
     inkscape:groupmode="layer"
     id="layer1"
     transform="translate(25.605509,-55.549817)">
    <g
       id="g2707"
       transform="translate(3.4339718,-0.17987646)">
      <rect
         ry="1.5383199"
         y="69.577637"
         x="52.733608"
         height="33.067795"
         width="66.13559"
         id="rect815"
         style="opacity:1;fill:none;fill-opacity:1;stroke:#204a87;stroke-width:1.72670639;stroke-linecap:square;stroke-linejoin:round;stroke-miterlimit:4;stroke-dasharray:none;stroke-dashoffset:0;stroke-opacity:1;paint-order:fill markers stroke" />
      <text
         id="text819"
         y="89.867317"
         x="85.533119"
         style="font-style:normal;font-variant:normal;font-weight:normal;font-stretch:normal;font-size:9.75526905px;line-height:1;font-family:'Libre Baskerville';-inkscape-font-specification:'Libre Baskerville';text-align:center;letter-spacing:0px;word-spacing:0px;text-anchor:middle;fill:#000000;fill-opacity:1;stroke:none;stroke-width:0.18291128"
         xml:space="preserve"><tspan
           style="stroke-width:0.18291128"
           y="89.867317"
           x="85.533119"
           id="tspan817"
           sodipodi:role="line">Generator</tspan></text>
    </g>
    <path
       style="clip-rule:evenodd;fill:none;fill-rule:nonzero;stroke:#000000;stroke-width:0.75766784;stroke-linecap:round;stroke-linejoin:round;image-rendering:optimizeQuality;shape-rendering:geometricPrecision;text-rendering:geometricPrecision"
       inkscape:connector-curvature="0"
       id="_39579056"
       class="fil1 str2"
       d="m -25.22128,105.62321 0.05573,-0.001 0.05444,-0.002 0.05863,-0.002 0.05508,-0.001 0.0596,-0.002 0.05637,-0.002 0.05444,-0.002 0.05798,-0.002 0.05616,-0.001 0.05412,-0.002 0.05734,-0.002 0.05509,-0.002 0.05917,-0.004 0.05573,-0.002 0.05508,-0.002 0.05799,-0.003 0.05551,-0.004 0.05347,-0.002 0.05734,-0.004 0.05401,-0.002 0.05906,-0.004 0.0553,-0.002 0.05444,-0.004 0.05798,-0.004 0.05509,-0.002 0.05906,-0.005 0.05691,-0.004 0.05509,-0.004 0.05799,-0.003 0.05509,-0.004 0.05455,-0.004 0.05691,-0.005 0.05508,-0.004 0.05906,-0.005 0.05562,-0.004 0.05412,-0.005 0.05895,-0.004 0.05519,-0.004 0.05337,-0.005 0.0568,-0.006 0.05466,-0.004 0.05842,-0.004 0.05627,-0.006 0.05347,-0.005 0.05799,-0.006 0.05509,-0.005 0.05906,-0.006 0.05691,-0.006 0.05391,-0.006 0.05799,-0.005 0.05562,-0.007 0.0539,-0.006 0.05691,-0.007 0.05508,-0.005 0.05799,-0.008 0.05745,-0.006 0.05337,-0.007 0.05798,-0.007 0.05573,-0.007 0.05842,-0.007 0.05734,-0.008 0.05348,-0.008 0.05917,-0.008 0.05573,-0.008 0.05391,-0.008 0.0567,-0.007 0.05573,-0.009 0.05863,-0.009 0.0567,-0.009 0.05401,-0.0103 0.05798,-0.009 0.05573,-0.01 0.05347,-0.009 0.05734,-0.01 0.05455,-0.0102 0.05788,-0.0107 0.05638,-0.0103 0.05444,-0.0113 0.05745,-0.0108 0.05562,-0.0114 0.05863,-0.0119 0.05616,-0.0125 0.05509,-0.012 0.05799,-0.0125 0.05573,-0.013 0.05337,-0.0115 0.05745,-0.013 0.05562,-0.0137 0.05798,-0.0142 0.0568,-0.0142 0.05401,-0.0136 0.05799,-0.0154 0.05573,-0.0142 0.05842,-0.0171 0.05691,-0.0142 0.05573,-0.0152 0.05734,-0.0184 0.05573,-0.0154 0.05444,-0.0164 0.05745,-0.0171 0.05562,-0.0175 0.05745,-0.0189 0.05734,-0.0175 0.05401,-0.0182 0.05841,-0.0198 0.05573,-0.0189 0.05347,-0.0187 0.05734,-0.02 0.05466,-0.0204 0.05842,-0.0209 0.05627,-0.0222 0.05391,-0.0199 0.05756,-0.0222 0.05551,-0.022 0.05863,-0.0234 0.05734,-0.0245 0.05508,-0.022 0.05756,-0.0257 0.05551,-0.0245 0.05466,-0.0245 0.05616,-0.0255 0.05573,-0.0256 0.05852,-0.0267 0.0568,-0.0261 0.05466,-0.0279 0.05734,-0.0278 0.05573,-0.029 0.05391,-0.0266 0.05691,-0.03 0.05444,-0.0286 0.05799,-0.0312 0.05637,-0.0312 0.05444,-0.0306 0.05616,-0.0323 0.05573,-0.0324 0.05917,-0.0341 0.05616,-0.0346 0.05465,-0.0331 0.05842,-0.0357 0.05573,-0.0341 0.05401,-0.0346 0.0568,-0.0376 0.05466,-0.0368 0.0596,-0.0387 0.05573,-0.0387 0.05444,-0.038 0.0568,-0.0409 0.05573,-0.0387 0.0596,-0.045 0.05637,-0.042 0.05509,-0.0398 0.05798,-0.0454 0.05562,-0.0432 0.05455,-0.0433 0.05691,-0.046 0.05509,-0.0442 0.05906,-0.049 0.05627,-0.0477 0.05455,-0.0466 0.05734,-0.05 0.05627,-0.0495 0.0539,-0.0477 0.05637,-0.051 0.05444,-0.0512 0.05917,-0.0546 0.05573,-0.0533 0.0539,-0.0517 0.05799,-0.0557 0.05508,-0.0557 0.05917,-0.0596 0.0568,-0.0568 0.05401,-0.0563 0.05906,-0.0613 0.05573,-0.0598 0.05337,-0.058 0.05799,-0.0629 0.05455,-0.0614 0.05917,-0.0654 0.05551,-0.0652 0.05401,-0.0625 0.05798,-0.0677 0.05509,-0.0666 0.05455,-0.0642 0.05691,-0.0699 0.05455,-0.0664 0.05788,-0.0733 0.05573,-0.0722 0.05455,-0.0687 0.05799,-0.0756 0.05508,-0.0723 0.05798,-0.0789 0.05734,-0.0773 0.05347,-0.0744 0.05895,-0.0812 0.0553,-0.0791 0.0539,-0.076 0.05734,-0.0825 0.05401,-0.0796 0.05863,-0.087 0.05734,-0.0841 0.05347,-0.0823 0.05777,-0.0876 0.05573,-0.0863 0.05852,-0.0937 0.05745,-0.0898 0.05337,-0.0874 0.05863,-0.0944 0.0568,-0.0933 0.05283,-0.0886 0.05788,-0.0966 0.05519,-0.0942 0.05788,-0.10115 0.0568,-0.0978 0.05401,-0.0955 0.05799,-0.10276 0.05573,-0.10116 0.0539,-0.0966 0.05691,-0.10566 0.05509,-0.1005 0.05798,-0.11039 0.0568,-0.1063 0.05337,-0.10448 0.05745,-0.11082 0.05562,-0.10792 0.05863,-0.1165 0.0567,-0.11307 0.05455,-0.11082 0.05734,-0.11758 0.05691,-0.11414 0.05283,-0.11264 0.05799,-0.11984 0.05455,-0.1164 0.05852,-0.12499 0.0568,-0.12112 0.05466,-0.11876 0.05734,-0.12564 0.05573,-0.12434 0.05842,-0.13186 0.05691,-0.12907 0.05509,-0.12435 0.05798,-0.13304 0.0568,-0.13057 0.05283,-0.12564 0.05788,-0.13519 0.05573,-0.13121 0.05734,-0.14099 0.05745,-0.13638 0.05401,-0.13239 0.05841,-0.1426 0.05573,-0.1382 0.05283,-0.13401 0.05798,-0.14314 0.05466,-0.13873 0.05777,-0.1499 0.05637,-0.14432 0.05444,-0.14099 0.05756,-0.14947 0.05551,-0.14539 0.05863,-0.15688 0.0567,-0.15066 0.05466,-0.14764 0.05798,-0.15742 0.05616,-0.15216 0.05347,-0.14786 0.05734,-0.15742 0.05508,-0.15334 0.05917,-0.16429 0.05573,-0.15849 0.05455,-0.1528 0.05788,-0.16429 0.05573,-0.1601 0.05391,-0.1542 0.05637,-0.16525 0.05444,-0.15957 0.05863,-0.17106 0.05627,-0.16547 0.05391,-0.15956 0.05691,-0.17106 0.05573,-0.16654 0.05895,-0.17675 0.0568,-0.17148 0.05401,-0.1659 0.05798,-0.17739 0.05573,-0.17213 0.05455,-0.16548 0.05627,-0.17599 0.05508,-0.17224 0.05841,-0.18179 0.05637,-0.17782 0.05444,-0.17105 0.05756,-0.18298 0.05551,-0.176099 0.05917,-0.18813 0.05616,-0.18179 0.0553,-0.176211 0.05734,-0.188021 0.05616,-0.180719 0.05466,-0.175028 0.05616,-0.187485 0.05573,-0.180719 0.05917,-0.192638 0.05616,-0.18523 0.05466,-0.17943 0.05734,-0.191135 0.05573,-0.18523 0.05326,-0.17782 0.05691,-0.189739 0.05573,-0.182974 0.05842,-0.195537 0.05627,-0.188557 0.05412,-0.181901 0.05734,-0.193712 0.05509,-0.185874 0.05906,-0.198759 0.05627,-0.192209 0.05509,-0.185229 0.05798,-0.196504 0.05573,-0.189847 0.05326,-0.182973 0.05799,-0.19425 0.05412,-0.18641 0.0596,-0.199403 0.05573,-0.192102 0.05444,-0.18523 0.05799,-0.196719 0.05508,-0.188557 0.05917,-0.202302 0.05745,-0.19425 0.05401,-0.185229 0.05841,-0.198974 0.05627,-0.190383 0.05391,-0.183404 0.05756,-0.194893 0.05508,-0.187484 0.05906,-0.198974 0.05627,-0.191994 0.05455,-0.184048 0.05798,-0.195537 0.05562,-0.187484 0.05348,-0.180719 0.05734,-0.191994 0.05508,-0.183619 0.05799,-0.195431 0.05637,-0.186947 0.0539,-0.180718 0.05788,-0.191566 0.05519,-0.182973 0.05959,-0.194893 0.05627,-0.185659 0.05455,-0.179646 0.05798,-0.189202 0.05627,-0.181901 0.0539,-0.174921 0.05734,-0.184692 0.0553,-0.177176 0.05777,-0.187484 0.05691,-0.179646 0.05391,-0.172129 0.05799,-0.182545 0.05637,-0.174921 0.05337,-0.166545 0.0568,-0.177283 0.05466,-0.169767 0.05841,-0.178463 0.05691,-0.171056 0.05326,-0.164182 0.05756,-0.173311 0.05551,-0.165364 0.05863,-0.175565 0.0567,-0.166545 0.05412,-0.160317 0.05852,-0.168585 0.05573,-0.160318 0.05326,-0.154625 0.05691,-0.163002 0.05573,-0.153981 0.05841,-0.163646 0.05627,-0.156237 0.05347,-0.148291 0.05799,-0.156881 0.0568,-0.149472 0.05852,-0.156774 0.0568,-0.150546 0.05401,-0.142062 0.05842,-0.150654 0.05637,-0.142492 0.05401,-0.13648 0.0567,-0.143136 0.05573,-0.135298 0.05841,-0.143244 0.05691,-0.135727 0.0539,-0.129499 0.05799,-0.135298 0.05573,-0.129069 0.05401,-0.122091 0.0568,-0.127244 0.05508,-0.121554 0.05799,-0.127459 0.05627,-0.120909 0.05347,-0.113069 0.05798,-0.119836 0.05551,-0.113071 0.05917,-0.117795 0.05745,-0.112426 0.05337,-0.105124 0.05842,-0.110171 0.05637,-0.104051 0.05337,-0.09782 0.05745,-0.101581 0.05509,-0.096 0.05798,-0.100507 0.05734,-0.09396 0.05401,-0.08859 0.0568,-0.09213 0.05573,-0.08633 0.05401,-0.08118 0.0568,-0.0829 0.05562,-0.07914 0.05745,-0.08118 0.05562,-0.07484 0.05455,-0.07119 0.05734,-0.07334 0.05573,-0.06765 0.05734,-0.0699 0.05756,-0.06475 0.05509,-0.06024 0.05734,-0.06131 0.05616,-0.0567 0.05348,-0.0524 0.05691,-0.05326 0.05573,-0.04896 0.05734,-0.04886 0.0568,-0.04553 0.05444,-0.04091 0.05691,-0.0408 0.05573,-0.03748 0.05906,-0.03704 0.0567,-0.03243 0.0553,-0.02942 0.05777,-0.02856 0.05573,-0.02491 0.05466,-0.02094 0.0568,-0.02115 0.05509,-0.0175 0.05852,-0.016 0.0568,-0.01192 0.05401,-0.01031 0.02835,-0.0038 0.02964,-0.004 0.02899,-0.0023 0.02674,-0.0023 0.01299,-6.63e-4 H 0.0609 l 0.01482,-0.0012 h 0.0079 l 0.0068,-0.0011 h 0.05519 l 0.01471,0.0011 0.01192,0.0012 0.03007,6.63e-4 0.02899,0.0023 0.02566,0.0023 0.0568,0.0078 0.05401,0.01031 0.05841,0.0131 0.05573,0.01482 0.05401,0.0175 0.0568,0.01997 0.05466,0.02212 0.05841,0.02674 0.05584,0.02674 0.05444,0.02942 0.05798,0.0335 0.05509,0.03468 0.05906,0.03973 0.05691,0.03984 0.05455,0.04091 0.05798,0.04714 0.05562,0.04725 0.05455,0.04768 0.05627,0.05347 0.05573,0.05455 0.05842,0.05852 0.05691,0.06067 0.0539,0.05917 0.05799,0.06711 0.05508,0.06529 0.05347,0.06647 0.05799,0.07108 0.05444,0.0728 0.05863,0.07774 0.05562,0.07849 0.05347,0.07731 0.05799,0.08408 0.05509,0.08451 0.05906,0.09106 0.05627,0.08966 0.05455,0.08988 0.05798,0.096 0.05562,0.09535 0.05412,0.09374 0.05734,0.102332 0.05455,0.09997 0.05852,0.10856 0.0568,0.106844 0.05401,0.104695 0.05798,0.114036 0.05508,0.110816 0.1164,0.238704 0.05466,0.115325 0.05734,0.124989 0.05616,0.122198 0.05401,0.118761 0.05745,0.128963 0.05509,0.126171 0.05917,0.135297 0.110815,0.261362 0.05798,0.138519 0.05509,0.135942 0.05326,0.132291 0.05799,0.142707 0.05401,0.137983 0.05863,0.149043 0.0567,0.145392 0.05347,0.141418 0.05799,0.151082 0.05573,0.147754 0.05777,0.157954 0.05691,0.154626 0.05455,0.149471 0.05852,0.161392 0.05573,0.155163 0.0539,0.152157 0.05691,0.162035 0.05573,0.158492 0.05777,0.168156 0.05691,0.16429 0.05391,0.159028 0.05798,0.170519 0.05573,0.1659 0.05283,0.159136 0.05734,0.171592 0.05466,0.166331 0.05842,0.178035 0.05637,0.171485 0.05337,0.166545 0.05734,0.179001 0.05573,0.172128 0.05863,0.184156 0.05616,0.178464 0.05508,0.17331 0.05734,0.184048 0.05637,0.178356 0.05337,0.172129 0.0568,0.184155 0.05573,0.178465 0.05798,0.190383 0.05627,0.182974 0.05444,0.17782 0.112533,0.372713 0.05917,0.194356 0.0568,0.188665 0.05509,0.181149 0.05734,0.19382 0.05627,0.187484 0.05412,0.179539 0.0567,0.192638 0.05573,0.18523 0.05798,0.198329 0.05734,0.190383 0.0539,0.183619 0.05756,0.195323 0.05616,0.18931 0.05348,0.181793 0.05669,0.193174 0.05509,0.186947 0.05799,0.197793 0.05627,0.19135 0.05412,0.183619 0.05734,0.196504 0.05509,0.188772 0.05906,0.199941 0.05691,0.193282 0.05455,0.185658 0.05734,0.197793 0.05627,0.190384 0.05391,0.18233 0.05691,0.194463 0.05508,0.187485 0.05863,0.197793 0.05552,0.190812 0.0553,0.184156 0.05734,0.195537 0.05552,0.187484 0.05917,0.198222 0.0568,0.191994 0.05508,0.183619 0.05799,0.194893 0.05573,0.187484 0.05401,0.180719 0.05734,0.191565 0.05455,0.182974 0.05959,0.194249 0.05638,0.187484 0.05444,0.179108 0.05755,0.191351 0.05616,0.1819 0.05347,0.175565 0.0567,0.185874 0.05466,0.178464 0.0596,0.189739 0.05573,0.18115 0.0539,0.173961 0.05798,0.18523 0.05509,0.1762 0.05863,0.187489 0.0567,0.18007 0.05466,0.17224 0.05841,0.18297 0.0553,0.17374 0.05444,0.16773 0.05637,0.17782 0.05551,0.17106 0.05863,0.17953 0.0567,0.17331 0.05412,0.16419 0.05788,0.17503 0.05519,0.16772 0.05337,0.16139 0.05745,0.16923 0.05444,0.16193 0.05852,0.17213 0.05573,0.16429 0.05455,0.15785 0.05734,0.16654 0.05509,0.15967 0.05863,0.1688 0.0567,0.16075 0.0553,0.15409 0.05734,0.16418 0.05616,0.1557 0.05347,0.14883 0.05691,0.15849 0.05509,0.15065 0.05841,0.15914 0.05691,0.15173 0.05347,0.14657 0.05777,0.15334 0.0553,0.14786 0.05906,0.15398 0.05734,0.1499 0.05401,0.14099 0.05842,0.14947 0.05508,0.14314 0.05466,0.13691 0.05798,0.14432 0.0539,0.13755 0.05981,0.14485 0.05616,0.13927 0.05466,0.13294 0.05777,0.13981 0.0553,0.13347 0.0539,0.12617 0.05734,0.13573 0.05401,0.12724 0.05863,0.1353 0.0567,0.13014 0.05348,0.12327 0.05798,0.12961 0.05552,0.12435 0.05798,0.13014 0.05691,0.12391 0.05455,0.11995 0.05788,0.12552 0.05637,0.11866 0.05283,0.11436 0.05799,0.11983 0.05508,0.11425 0.05841,0.12113 0.05638,0.11414 0.05401,0.11017 0.05777,0.11533 0.05573,0.10974 0.05917,0.11532 0.05734,0.11028 0.05347,0.10502 0.05841,0.10974 0.05691,0.10566 0.05348,0.10115 0.05798,0.10513 0.05509,0.10115 0.05841,0.10566 0.05691,0.10051 0.0539,0.0956 0.05852,0.10116 0.05573,0.0954 0.05283,0.092 0.05798,0.0955 0.05509,0.092 0.05799,0.0967 0.05616,0.0908 0.05347,0.0876 0.05799,0.0915 0.05573,0.0874 0.05852,0.0908 0.05734,0.0876 0.05455,0.0824 0.05798,0.0874 0.05627,0.0825 0.05347,0.0785 0.05734,0.0834 0.05573,0.079 0.05777,0.0818 0.05637,0.0789 0.05509,0.0756 0.05734,0.0773 0.05573,0.0744 0.05283,0.071 0.05799,0.0744 0.05466,0.0711 0.05777,0.0732 0.05691,0.0711 0.05348,0.0665 0.05734,0.0711 0.05573,0.0665 0.05842,0.0699 0.05627,0.0659 0.05509,0.0631 0.05798,0.0664 0.05573,0.0631 0.0539,0.0602 0.05691,0.062 0.05509,0.0601 0.05842,0.0609 0.05637,0.0602 0.05444,0.0562 0.05691,0.058 0.05573,0.0563 0.05906,0.0591 0.05691,0.0557 0.05509,0.0517 0.05798,0.0555 0.05552,0.0524 0.05466,0.05 0.0568,0.0522 0.05509,0.0489 0.05852,0.0517 0.05745,0.049 0.05401,0.0466 0.05734,0.0477 0.05616,0.0467 0.05412,0.0432 0.05627,0.047 0.05509,0.0433 0.05799,0.0454 0.05616,0.0432 0.05466,0.0399 0.0568,0.0432 0.05562,0.0404 0.0597,0.0432 0.05627,0.0399 0.05509,0.038 0.113714,0.0761 0.05326,0.0357 0.05755,0.0376 0.05509,0.0357 0.05906,0.0364 0.05562,0.0346 0.05455,0.0331 0.05798,0.0346 0.05573,0.0335 0.05337,0.0306 0.05616,0.0326 0.0553,0.0306 0.05842,0.0312 0.05627,0.0312 0.05348,0.0279 0.05799,0.0306 0.05509,0.029 m -7.07e-4,0 0.0597,0.029 0.05562,0.0278 0.05519,0.0267 0.05798,0.0273 0.05562,0.0267 0.05347,0.0245 0.05734,0.0255 0.05509,0.0244 0.05863,0.0256 0.05551,0.0245 0.05412,0.0232 0.05788,0.0234 0.05519,0.022 0.05917,0.0234 0.0567,0.0222 0.05509,0.0209 0.05745,0.0222 0.05627,0.0204 0.0539,0.0199 0.05734,0.02 0.0553,0.0198 0.05841,0.02 0.05627,0.0187 0.05455,0.0183 0.05852,0.0188 0.05509,0.0176 0.05347,0.0164 0.0568,0.0171 0.05465,0.0164 0.05842,0.0164 0.05691,0.0171 0.05326,0.0155 0.05798,0.0152 0.05509,0.016 0.05917,0.0152 0.05616,0.0142 0.05465,0.0137 0.05863,0.0142 0.05551,0.0136 0.05401,0.0131 0.0568,0.0135 0.05509,0.0132 0.05863,0.013 0.05627,0.0125 0.05391,0.0107 0.05798,0.0125 0.05573,0.0119 0.05917,0.0125 0.05734,0.0109 0.05326,0.0101 0.05863,0.0115 0.05691,0.01 0.05326,0.0101 0.05798,0.0109 0.05508,0.009 0.05863,0.01 0.05627,0.009 0.05444,0.0103 0.05798,0.009 0.05637,0.009 0.05283,0.008 0.05734,0.009 0.05455,0.008 0.05917,0.008 0.05616,0.008 0.05337,0.007 0.05798,0.008 0.05573,0.007 0.05799,0.007 0.05734,0.008 0.0539,0.006 0.05863,0.007 0.05562,0.007 0.05391,0.006 0.05691,0.007 0.05573,0.006 0.05842,0.007 0.05691,0.005 0.05348,0.006 0.05798,0.006 0.05552,0.006 0.05401,0.005 0.0568,0.005 0.05509,0.005 0.05798,0.007 0.05627,0.005 0.05348,0.004 0.05734,0.005 0.05573,0.005 0.05906,0.005 0.05627,0.005 0.05509,0.005 0.0568,0.004 0.05691,0.004 0.05348,0.004 0.05734,0.004 0.05455,0.004 0.05788,0.005 0.0568,0.003 0.05466,0.004 0.05734,0.004 0.05573,0.004 0.05841,0.004 0.05734,0.004 0.05412,0.004 0.05798,0.002 0.0567,0.004 0.05401,0.002 0.0568,0.004 0.05573,0.002 0.05798,0.004 0.05691,0.003 0.05444,0.002 0.05798,0.002 0.05573,0.004 0.05326,0.002 0.05637,0.002 0.05562,0.002 0.05863,0.001 0.05616,0.002 0.05401,0.002 0.05734,0.002 0.05519,0.002 0.05917,0.001 0.0567,0.002 0.05455,8.8e-4 0.05734,0.002 0.05627,0.002 0.05412,0.002 0.0567,8.8e-4 0.05519,0.001 0.05895,8.9e-4 0.05637,0.002 0.05401,0.001 0.05734,8.9e-4 0.05573,0.001 0.06024,0.002 0.05616,0.001 0.05509,8.8e-4 0.05755,0.001 0.05616,8.9e-4 0.05401,10e-4 0.05734,8.9e-4 0.05573,8.8e-4 0.115325,0.002 0.0539,0.001 0.05799,8.8e-4 0.05573,0.001 h 0.05337" />
    <line
       style="font-family:sans-serif;stroke:#000000;stroke-width:0.40527582"
       x1="42.277332"
       y1="-218.49292"
       x2="34.505756"
       y2="-218.49854"
       id="line141998-9" />
    <text
       font-size="18.000000"
       x="160.51965"
       y="-192.96231"
       id="text6405"
       style="font-size:4.76249981px;font-family:sans-serif;fill:#000000;stroke:#000000;stroke-width:0.26458332" />
    <path
       style="font-family:sans-serif;fill:#000000;fill-opacity:1;fill-rule:nonzero;stroke:#000000;stroke-width:0.09349918;stroke-linecap:round;stroke-linejoin:round;stroke-miterlimit:4;stroke-dasharray:none;stroke-dashoffset:0;stroke-opacity:1"
       d="m -292.60672,-134.86663 c -0.1166,-0.008 -0.21591,0.0347 -0.21496,0.14058 l 0.0331,4.35736 h -20.10833 c -1.2933,0 -2.33163,0.58811 -2.33164,1.31464 l 10e-6,1.15756 c -2e-5,0.72654 1.03832,1.30638 2.33163,1.30639 l 20.11662,-2e-5 -0.0414,4.36564 c -0.002,0.21172 0.38772,0.1497 0.53742,0 l 5.98631,-5.97783 c 0.14971,-0.14971 0.14972,-0.39599 0,-0.5457 l -5.98631,-5.97783 c -0.0748,-0.0748 -0.2058,-0.13283 -0.32245,-0.14055 z"
       id="rect142310"
       inkscape:connector-curvature="0"
       sodipodi:nodetypes="cccsccccccccccc" />
    <g
       style="font-family:sans-serif;stroke:#000000;stroke-width:1"
       id="g142227"
       transform="matrix(0.40527581,0,0,0.40527581,163.3957,-237.00295)">
      <line
         id="line137532"
         y2="73.636253"
         x2="32.929691"
         y1="73.636253"
         x1="62.52969"
         style="font-family:sans-serif;stroke:#000000;stroke-width:1" />
      <line
         id="line137534"
         y2="13.33625"
         x2="67.729691"
         y1="38.936249"
         x1="82.529694"
         style="font-family:sans-serif;stroke:#000000;stroke-width:1" />
      <line
         id="line137536"
         y2="11.83625"
         x2="134.72969"
         y1="37.436249"
         x1="119.92969"
         style="font-family:sans-serif;stroke:#000000;stroke-width:1" />
      <line
         id="line137538"
         y2="14.83625"
         x2="139.92969"
         y1="40.436249"
         x1="125.1297"
         style="font-family:sans-serif;stroke:#000000;stroke-width:1" />
      <line
         id="line137540"
         y2="203.13626"
         x2="137.3297"
         y1="177.53625"
         x1="122.52969"
         style="font-family:sans-serif;stroke:#000000;stroke-width:1" />
      <line
         id="line137542"
         y2="212.13626"
         x2="172.1297"
         y1="212.13626"
         x1="152.92969"
         style="font-family:sans-serif;stroke:#000000;stroke-width:1" />
      <line
         id="line137544"
         y2="241.73624"
         x2="185.52969"
         y1="222.53625"
         x1="185.52969"
         style="font-family:sans-serif;stroke:#000000;stroke-width:1" />
      <line
         id="line137546"
         y2="241.73624"
         x2="179.52969"
         y1="222.53625"
         x1="179.52969"
         style="font-family:sans-serif;stroke:#000000;stroke-width:1" />
      <line
         id="line137548"
         y2="212.13626"
         x2="212.1297"
         y1="212.13626"
         x1="192.92969"
         style="font-family:sans-serif;stroke:#000000;stroke-width:1" />
      <line
         id="line137550"
         y2="246.83624"
         x2="242.52969"
         y1="221.23624"
         x1="227.72969"
         style="font-family:sans-serif;stroke:#000000;stroke-width:1" />
      <line
         id="line137552"
         y2="246.83624"
         x2="272.1297"
         y1="246.83624"
         x1="242.52969"
         style="font-family:sans-serif;stroke:#000000;stroke-width:1" />
      <line
         id="line137554"
         y2="182.53625"
         x2="182.52969"
         y1="201.73624"
         x1="182.52969"
         style="font-family:sans-serif;stroke:#000000;stroke-width:1" />
      <line
         id="line137556"
         y2="152.13626"
         x2="217.1297"
         y1="166.93625"
         x1="191.52969"
         style="font-family:sans-serif;stroke:#000000;stroke-width:1" />
      <line
         id="line137558"
         y2="166.93625"
         x2="242.82968"
         y1="152.13626"
         x1="217.1297"
         style="font-family:sans-serif;stroke:#000000;stroke-width:1" />
      <line
         id="line137560"
         y2="38.936249"
         x2="82.529694"
         y1="73.636253"
         x1="62.52969"
         style="font-family:sans-serif;stroke:#000000;stroke-width:1" />
      <line
         id="line137562"
         y2="47.736252"
         x2="85.729691"
         y1="72.036247"
         x1="71.729691"
         style="font-family:sans-serif;stroke:#000000;stroke-width:1" />
      <line
         id="line137564"
         y2="38.936249"
         x2="122.52969"
         y1="38.936249"
         x1="82.529694"
         style="font-family:sans-serif;stroke:#000000;stroke-width:1" />
      <line
         id="line137566"
         y2="64.636253"
         x2="137.3297"
         y1="38.936249"
         x1="122.52969"
         style="font-family:sans-serif;stroke:#000000;stroke-width:1" />
      <line
         id="line137568"
         y2="108.23624"
         x2="122.52969"
         y1="82.636253"
         x1="137.3297"
         style="font-family:sans-serif;stroke:#000000;stroke-width:1" />
      <line
         id="line137570"
         y2="108.23624"
         x2="82.529694"
         y1="108.23624"
         x1="122.52969"
         style="font-family:sans-serif;stroke:#000000;stroke-width:1" />
      <line
         id="line137572"
         y2="101.03625"
         x2="88.529694"
         y1="101.03625"
         x1="116.52969"
         style="font-family:sans-serif;stroke:#000000;stroke-width:1" />
      <line
         id="line137574"
         y2="73.636253"
         x2="62.52969"
         y1="108.23624"
         x1="82.529694"
         style="font-family:sans-serif;stroke:#000000;stroke-width:1" />
      <line
         id="line137576"
         y2="177.53625"
         x2="82.529694"
         y1="177.53625"
         x1="122.52969"
         style="font-family:sans-serif;stroke:#000000;stroke-width:1" />
      <line
         id="line137578"
         y2="142.93625"
         x2="62.52969"
         y1="177.53625"
         x1="82.529694"
         style="font-family:sans-serif;stroke:#000000;stroke-width:1" />
      <line
         id="line137580"
         y2="144.53625"
         x2="71.729691"
         y1="168.73624"
         x1="85.729691"
         style="font-family:sans-serif;stroke:#000000;stroke-width:1" />
      <line
         id="line137582"
         y2="108.23624"
         x2="82.529694"
         y1="142.93625"
         x1="62.52969"
         style="font-family:sans-serif;stroke:#000000;stroke-width:1" />
      <line
         id="line137584"
         y2="142.93625"
         x2="142.52969"
         y1="108.23624"
         x1="122.52969"
         style="font-family:sans-serif;stroke:#000000;stroke-width:1" />
      <line
         id="line137586"
         y2="177.53625"
         x2="122.52969"
         y1="142.93625"
         x1="142.52969"
         style="font-family:sans-serif;stroke:#000000;stroke-width:1" />
      <line
         id="line137588"
         y2="168.73624"
         x2="119.3297"
         y1="144.53625"
         x1="133.3297"
         style="font-family:sans-serif;stroke:#000000;stroke-width:1" />
      <text
         id="text137590"
         font-size="16"
         y="81.938293"
         x="-1.0703125"
         style="font-size:16px;line-height:0%;font-family:sans-serif;fill:#666666;stroke:#666666;stroke-width:1">H</text>
      <text
         id="text137592"
         font-size="13"
         y="89.618279"
         x="10.929688"
         style="font-size:13px;line-height:0%;font-family:sans-serif;fill:#666666;stroke:#666666;stroke-width:1">3</text>
      <text
         id="text137594"
         font-size="16"
         y="81.938293"
         x="17.429691"
         style="font-size:16px;line-height:0%;font-family:sans-serif;fill:#666666;stroke:#666666;stroke-width:1">C</text>
      <text
         id="text137596"
         font-size="16"
         y="12.65625"
         x="46.929691"
         style="font-size:16px;line-height:0%;font-family:sans-serif;fill:#1eef1e;stroke:#1eef1e;stroke-width:1">Cl</text>
      <text
         id="text137598"
         font-size="16"
         y="12.65625"
         x="136.52969"
         style="font-size:16px;line-height:0%;font-family:sans-serif;fill:#ff0c0c;stroke:#ff0c0c;stroke-width:1">O</text>
      <text
         id="text137600"
         font-size="16"
         y="78.418282"
         x="136.52969"
         style="font-size:16px;line-height:0%;font-family:sans-serif;fill:#ff0c0c;stroke:#ff0c0c;stroke-width:1">O</text>
      <text
         id="text137602"
         font-size="16"
         y="216.98236"
         x="138.92969"
         style="font-size:16px;line-height:0%;font-family:sans-serif;fill:#ff0c0c;stroke:#ff0c0c;stroke-width:1">O</text>
      <text
         id="text137604"
         font-size="16"
         y="216.98236"
         x="176.52969"
         style="font-size:16px;line-height:0%;font-family:sans-serif;fill:#ff7f00;stroke:#ff7f00;stroke-width:1">P</text>
      <text
         id="text137606"
         font-size="16"
         y="256.98233"
         x="176.52969"
         style="font-size:16px;line-height:0%;font-family:sans-serif;fill:#b2b200;stroke:#b2b200;stroke-width:1">S</text>
      <text
         id="text137608"
         font-size="16"
         y="220.50235"
         x="216.52969"
         style="font-size:16px;line-height:0%;font-family:sans-serif;fill:#ff0c0c;stroke:#ff0c0c;stroke-width:1">O</text>
      <text
         id="text137610"
         font-size="16"
         y="251.62335"
         x="276.52969"
         style="font-size:16px;line-height:0%;font-family:sans-serif;fill:#666666;stroke:#666666;stroke-width:1">CH</text>
      <text
         id="text137612"
         font-size="13"
         y="256.42337"
         x="300.52969"
         style="font-size:13px;line-height:0%;font-family:sans-serif;fill:#666666;stroke:#666666;stroke-width:1">3</text>
      <text
         id="text137614"
         font-size="16"
         y="180.50235"
         x="178.92969"
         style="font-size:16px;line-height:0%;font-family:sans-serif;fill:#ff0c0c;stroke:#ff0c0c;stroke-width:1">O</text>
      <text
         id="text137616"
         font-size="16"
         y="176.98236"
         x="245.81174"
         style="font-size:16px;line-height:0%;font-family:sans-serif;fill:#666666;stroke:#666666;stroke-width:1">CH</text>
      <text
         id="text137618"
         font-size="13"
         y="181.78235"
         x="269.81174"
         style="font-size:13px;line-height:0%;font-family:sans-serif;fill:#666666;stroke:#666666;stroke-width:1">3</text>
    </g>
    <line
       style="font-family:sans-serif;stroke:#000000;stroke-width:0.40527582"
       x1="93.905762"
       y1="-150.31453"
       x2="93.905762"
       y2="-158.09583"
       id="line141974" />
    <line
       style="font-family:sans-serif;stroke:#000000;stroke-width:0.40527582"
       x1="96.33741"
       y1="-150.31453"
       x2="96.33741"
       y2="-158.09583"
       id="line141976" />
    <line
       style="font-family:sans-serif;stroke:#000000;stroke-width:0.40527582"
       x1="99.336456"
       y1="-162.3107"
       x2="107.11776"
       y2="-162.3107"
       id="line141978" />
    <line
       style="font-family:sans-serif;stroke:#000000;stroke-width:0.40527582"
       x1="113.44005"
       y1="-158.66322"
       x2="119.43813"
       y2="-148.28815"
       id="line141980" />
    <line
       style="font-family:sans-serif;stroke:#000000;stroke-width:0.40527582"
       x1="119.43813"
       y1="-148.28815"
       x2="131.4343"
       y2="-148.28815"
       id="line141982" />
    <line
       style="font-family:sans-serif;stroke:#000000;stroke-width:0.40527582"
       x1="95.121597"
       y1="-166.52557"
       x2="95.121597"
       y2="-174.30685"
       id="line141984" />
    <line
       style="font-family:sans-serif;stroke:#000000;stroke-width:0.40527582"
       x1="98.769081"
       y1="-180.62917"
       x2="109.14414"
       y2="-186.62724"
       id="line141986" />
    <line
       style="font-family:sans-serif;stroke:#000000;stroke-width:0.40527582"
       x1="109.14414"
       y1="-186.62724"
       x2="119.55972"
       y2="-180.62917"
       id="line141988" />
    <line
       style="font-family:sans-serif;stroke:#000000;stroke-width:0.40527582"
       x1="90.906723"
       y1="-162.3107"
       x2="83.125427"
       y2="-162.3107"
       id="line141990" />
    <line
       style="font-family:sans-serif;stroke:#000000;stroke-width:0.40527582"
       x1="76.803123"
       y1="-165.95819"
       x2="70.805046"
       y2="-176.33324"
       id="line141992" />
    <line
       style="font-family:sans-serif;stroke:#000000;stroke-width:0.40527582"
       x1="54.594017"
       y1="-204.41885"
       x2="48.595924"
       y2="-214.83444"
       id="line141994" />
    <line
       style="font-family:sans-serif;stroke:#000000;stroke-width:0.40527582"
       x1="47.54221"
       y1="-222.73732"
       x2="51.432854"
       y2="-229.4649"
       id="line141996" />
    <line
       style="font-family:sans-serif;stroke:#000000;stroke-width:0.40527582"
       x1="49.649647"
       y1="-221.5215"
       x2="53.540302"
       y2="-228.24907"
       id="line141998" />
    <line
       style="font-family:sans-serif;stroke:#000000;stroke-width:0.40527582"
       x1="70.805046"
       y1="-176.33324"
       x2="54.594017"
       y2="-176.33324"
       id="line142002" />
    <line
       style="font-family:sans-serif;stroke:#000000;stroke-width:0.40527582"
       x1="68.37339"
       y1="-179.25122"
       x2="57.025665"
       y2="-179.25122"
       id="line142004" />
    <line
       style="font-family:sans-serif;stroke:#000000;stroke-width:0.40527582"
       x1="54.594017"
       y1="-176.33324"
       x2="46.488503"
       y2="-190.39632"
       id="line142006" />
    <line
       style="font-family:sans-serif;stroke:#000000;stroke-width:0.40527582"
       x1="46.488503"
       y1="-190.39632"
       x2="54.594017"
       y2="-204.41885"
       id="line142008" />
    <line
       style="font-family:sans-serif;stroke:#000000;stroke-width:0.40527582"
       x1="50.21703"
       y1="-191.04475"
       x2="55.890892"
       y2="-200.85243"
       id="line142010" />
    <line
       style="font-family:sans-serif;stroke:#000000;stroke-width:0.40527582"
       x1="54.594017"
       y1="-204.41885"
       x2="70.805046"
       y2="-204.41885"
       id="line142012" />
    <line
       style="font-family:sans-serif;stroke:#000000;stroke-width:0.40527582"
       x1="70.805046"
       y1="-204.41885"
       x2="78.910568"
       y2="-190.39632"
       id="line142014" />
    <line
       style="font-family:sans-serif;stroke:#000000;stroke-width:0.40527582"
       x1="69.508156"
       y1="-200.85243"
       x2="75.182022"
       y2="-191.04475"
       id="line142016" />
    <line
       style="font-family:sans-serif;stroke:#000000;stroke-width:0.40527582"
       x1="78.910568"
       y1="-190.39632"
       x2="70.805046"
       y2="-176.33324"
       id="line142018" />
    <text
       style="font-size:6.48441315px;line-height:0%;font-family:sans-serif;fill:#b2b200;stroke:#b2b200;stroke-width:0.40527582"
       x="92.689926"
       y="-144.15228"
       font-size="16"
       id="text142020">S</text>
    <text
       style="font-size:6.48441315px;line-height:0%;font-family:sans-serif;fill:#ff7f00;stroke:#ff7f00;stroke-width:0.40527582"
       x="92.689926"
       y="-160.36331"
       font-size="16"
       id="text142022">P</text>
    <text
       style="font-size:6.48441315px;line-height:0%;font-family:sans-serif;fill:#ff0c0c;stroke:#ff0c0c;stroke-width:0.40527582"
       x="108.90097"
       y="-158.93674"
       font-size="16"
       id="text142024">O</text>
    <text
       style="font-size:6.48441315px;line-height:0%;font-family:sans-serif;fill:#666666;stroke:#666666;stroke-width:0.40527582"
       x="133.21751"
       y="-146.32416"
       font-size="16"
       id="text142026">CH</text>
    <text
       style="font-size:5.26858521px;line-height:0%;font-family:sans-serif;fill:#666666;stroke:#666666;stroke-width:0.40527582"
       x="142.94412"
       y="-144.37883"
       font-size="13"
       id="text142028">3</text>
    <text
       style="font-size:6.48441315px;line-height:0%;font-family:sans-serif;fill:#ff0c0c;stroke:#ff0c0c;stroke-width:0.40527582"
       x="93.66259"
       y="-175.14778"
       font-size="16"
       id="text142030">O</text>
    <text
       style="font-size:6.48441315px;line-height:0%;font-family:sans-serif;fill:#666666;stroke:#666666;stroke-width:0.40527582"
       x="120.76827"
       y="-176.57434"
       font-size="16"
       id="text142032">CH</text>
    <text
       style="font-size:5.26858521px;line-height:0%;font-family:sans-serif;fill:#666666;stroke:#666666;stroke-width:0.40527582"
       x="130.49489"
       y="-174.62901"
       font-size="13"
       id="text142034">3</text>
    <text
       style="font-size:6.48441315px;line-height:0%;font-family:sans-serif;fill:#ff0c0c;stroke:#ff0c0c;stroke-width:0.40527582"
       x="77.451569"
       y="-160.36331"
       font-size="16"
       id="text142036">O</text>
    <text
       style="font-size:6.48441315px;line-height:0%;font-family:sans-serif;fill:#0c0cff;stroke:#0c0cff;stroke-width:0.40527582"
       x="44.056843"
       y="-215.09341"
       font-size="16"
       id="text142038">N</text>
    <text
       style="font-size:6.48441315px;line-height:0%;font-family:sans-serif;fill:#ff0c0c;stroke:#ff0c0c;stroke-width:0.40527582"
       x="51.634674"
       y="-229.39642"
       font-size="16"
       id="text142040">O</text>
    <text
       style="font-size:6.48441315px;line-height:0%;font-family:sans-serif;fill:#ff0c0c;stroke:#ff0c0c;stroke-width:0.40527582"
       x="28.188498"
       y="-215.09341"
       font-size="16"
       id="text142042">O</text>
    <g
       id="g2702"
       transform="translate(41.159515,123.75556)">
      <line
         id="line141974-6"
         y2="-21.680075"
         x2="157.77559"
         y1="-13.898787"
         x1="157.77559"
         style="font-family:sans-serif;stroke:#000000;stroke-width:0.40527582" />
      <line
         id="line141976-7"
         y2="-21.680075"
         x2="160.20724"
         y1="-13.898787"
         x1="160.20724"
         style="font-family:sans-serif;stroke:#000000;stroke-width:0.40527582" />
      <line
         id="line141978-6"
         y2="-25.894953"
         x2="170.98759"
         y1="-25.894953"
         x1="163.20628"
         style="font-family:sans-serif;stroke:#000000;stroke-width:0.40527582" />
      <line
         id="line141980-0"
         y2="-11.872407"
         x2="183.30797"
         y1="-22.247471"
         x1="177.30989"
         style="font-family:sans-serif;stroke:#000000;stroke-width:0.40527582" />
      <line
         id="line141982-1"
         y2="-11.872407"
         x2="195.30414"
         y1="-11.872407"
         x1="183.30797"
         style="font-family:sans-serif;stroke:#000000;stroke-width:0.40527582" />
      <line
         id="line141984-0"
         y2="-37.891106"
         x2="158.99142"
         y1="-30.109819"
         x1="158.99142"
         style="font-family:sans-serif;stroke:#000000;stroke-width:0.40527582" />
      <line
         id="line141986-1"
         y2="-50.211502"
         x2="173.01396"
         y1="-44.213413"
         x1="162.6389"
         style="font-family:sans-serif;stroke:#000000;stroke-width:0.40527582" />
      <line
         id="line141988-0"
         y2="-44.213413"
         x2="183.42955"
         y1="-50.211502"
         x1="173.01396"
         style="font-family:sans-serif;stroke:#000000;stroke-width:0.40527582" />
      <line
         id="line141990-0"
         y2="-25.894953"
         x2="146.99525"
         y1="-25.894953"
         x1="154.77657"
         style="font-family:sans-serif;stroke:#000000;stroke-width:0.40527582" />
      <line
         id="line141992-0"
         y2="-39.917484"
         x2="134.67488"
         y1="-29.542435"
         x1="140.67296"
         style="font-family:sans-serif;stroke:#000000;stroke-width:0.40527582" />
      <line
         id="line142002-0"
         y2="-39.917484"
         x2="118.46384"
         y1="-39.917484"
         x1="134.67488"
         style="font-family:sans-serif;stroke:#000000;stroke-width:0.40527582" />
      <line
         id="line142004-4"
         y2="-42.835476"
         x2="120.8955"
         y1="-42.835476"
         x1="132.24323"
         style="font-family:sans-serif;stroke:#000000;stroke-width:0.40527582" />
      <line
         id="line142006-4"
         y2="-53.98056"
         x2="110.35833"
         y1="-39.917484"
         x1="118.46384"
         style="font-family:sans-serif;stroke:#000000;stroke-width:0.40527582" />
      <line
         id="line142008-0"
         y2="-68.003105"
         x2="118.46384"
         y1="-53.98056"
         x1="110.35833"
         style="font-family:sans-serif;stroke:#000000;stroke-width:0.40527582" />
      <line
         id="line142010-8"
         y2="-64.436684"
         x2="119.76072"
         y1="-54.629005"
         x1="114.08686"
         style="font-family:sans-serif;stroke:#000000;stroke-width:0.40527582" />
      <line
         id="line142012-9"
         y2="-68.003105"
         x2="134.67488"
         y1="-68.003105"
         x1="118.46384"
         style="font-family:sans-serif;stroke:#000000;stroke-width:0.40527582" />
      <line
         id="line142014-2"
         y2="-53.98056"
         x2="142.7804"
         y1="-68.003105"
         x1="134.67488"
         style="font-family:sans-serif;stroke:#000000;stroke-width:0.40527582" />
      <line
         id="line142016-0"
         y2="-54.629005"
         x2="139.05185"
         y1="-64.436684"
         x1="133.37799"
         style="font-family:sans-serif;stroke:#000000;stroke-width:0.40527582" />
      <line
         id="line142018-4"
         y2="-39.917484"
         x2="134.67488"
         y1="-53.98056"
         x1="142.7804"
         style="font-family:sans-serif;stroke:#000000;stroke-width:0.40527582" />
      <text
         id="text142020-0"
         font-size="16"
         y="-7.7365236"
         x="156.55977"
         style="font-size:6.48441315px;line-height:0%;font-family:sans-serif;fill:#b2b200;stroke:#b2b200;stroke-width:0.40527582">S</text>
      <text
         id="text142022-3"
         font-size="16"
         y="-23.947569"
         x="156.55977"
         style="font-size:6.48441315px;line-height:0%;font-family:sans-serif;fill:#ff7f00;stroke:#ff7f00;stroke-width:0.40527582">P</text>
      <text
         id="text142024-5"
         font-size="16"
         y="-22.52099"
         x="172.7708"
         style="font-size:6.48441315px;line-height:0%;font-family:sans-serif;fill:#ff0c0c;stroke:#ff0c0c;stroke-width:0.40527582">O</text>
      <text
         id="text142026-8"
         font-size="16"
         y="-9.9084005"
         x="197.08734"
         style="font-size:6.48441315px;line-height:0%;font-family:sans-serif;fill:#666666;stroke:#666666;stroke-width:0.40527582">CH</text>
      <text
         id="text142028-6"
         font-size="13"
         y="-7.9630566"
         x="206.81396"
         style="font-size:5.26858568px;line-height:0%;font-family:sans-serif;fill:#666666;stroke:#666666;stroke-width:0.40527582">3</text>
      <text
         id="text142030-6"
         font-size="16"
         y="-38.732021"
         x="157.53242"
         style="font-size:6.48441315px;line-height:0%;font-family:sans-serif;fill:#ff0c0c;stroke:#ff0c0c;stroke-width:0.40527582">O</text>
      <text
         id="text142032-0"
         font-size="16"
         y="-40.1586"
         x="184.63811"
         style="font-size:6.48441315px;line-height:0%;font-family:sans-serif;fill:#666666;stroke:#666666;stroke-width:0.40527582">CH</text>
      <text
         id="text142034-5"
         font-size="13"
         y="-38.213268"
         x="194.36472"
         style="font-size:5.26858568px;line-height:0%;font-family:sans-serif;fill:#666666;stroke:#666666;stroke-width:0.40527582">3</text>
      <text
         id="text142036-9"
         font-size="16"
         y="-23.947569"
         x="141.3214"
         style="font-size:6.48441315px;line-height:0%;font-family:sans-serif;fill:#ff0c0c;stroke:#ff0c0c;stroke-width:0.40527582">O</text>
    </g>
    <path
       style="font-family:sans-serif;fill:#000000;fill-opacity:1;fill-rule:nonzero;stroke:#000000;stroke-width:0.11628231;stroke-linecap:round;stroke-linejoin:round;stroke-miterlimit:4;stroke-dasharray:none;stroke-dashoffset:0;stroke-opacity:1"
       d="m 134.34521,-132.07686 c -0.70545,-0.0153 -1.53009,0.35291 -2.19697,1.05538 -1.06699,1.12394 -1.31737,2.66855 -0.56734,3.4586 l 23.8165,25.0876 v 16.631821 l -6.19828,-0.04875 c -0.61517,0.286678 -0.53276,0.732552 -0.13993,1.142494 l 8.70417,5.785319 c 0.21857,0.158612 0.57814,0.158604 0.7967,0 l 8.65753,-5.8786 c 0.21856,-0.158605 0.19248,-1.028335 -0.11661,-1.025893 l -6.3736,0.03813 0.18657,-16.631821 23.82858,-25.10031 c 0.75002,-0.79006 0.49965,-2.33466 -0.56735,-3.4586 -1.067,-1.12395 -2.53335,-1.38768 -3.28337,-0.59763 l -22.7301,23.94322 -22.7301,-23.9432 c -0.28126,-0.29627 -0.66313,-0.44855 -1.0864,-0.45776 z"
       id="rect142310-5"
       inkscape:connector-curvature="0"
       sodipodi:nodetypes="cssccccccccccssscscc" />
    <rect
       style="font-family:sans-serif;fill:#000000;fill-opacity:1;fill-rule:nonzero;stroke:#000000;stroke-width:0.15875;stroke-linecap:round;stroke-linejoin:round;stroke-miterlimit:4;stroke-dasharray:none;stroke-dashoffset:0;stroke-opacity:1"
       id="rect143113"
       width="53.730766"
       height="3.3581729"
       x="-109.50502"
       y="-178.23909"
       rx="2.3344829"
       ry="1.3114235" />
    <line
       style="font-family:sans-serif;stroke:#000000;stroke-width:0.40527582"
       x1="42.278118"
       y1="-216.05992"
       x2="34.506538"
       y2="-216.06554"
       id="line141996-0" />
    <line
       style="font-family:sans-serif;stroke:#000000;stroke-width:0.40527582"
       x1="-44.904289"
       y1="-280.66476"
       x2="-52.675869"
       y2="-280.67038"
       id="line141998-9-3" />
    <line
       style="font-family:sans-serif;stroke:#000000;stroke-width:0.40527582"
       x1="-10.378499"
       y1="-228.13002"
       x2="-16.376575"
       y2="-238.50508"
       id="line141992-6" />
    <line
       style="font-family:sans-serif;stroke:#000000;stroke-width:0.40527582"
       x1="-32.587608"
       y1="-266.5907"
       x2="-38.585697"
       y2="-277.00629"
       id="line141994-7" />
    <line
       style="font-family:sans-serif;stroke:#000000;stroke-width:0.40527582"
       x1="-39.639416"
       y1="-284.90918"
       x2="-35.748764"
       y2="-291.63675"
       id="line141996-5" />
    <line
       style="font-family:sans-serif;stroke:#000000;stroke-width:0.40527582"
       x1="-37.531979"
       y1="-283.69333"
       x2="-33.641323"
       y2="-290.42093"
       id="line141998-3" />
    <line
       style="font-family:sans-serif;stroke:#000000;stroke-width:0.40527582"
       x1="-16.376575"
       y1="-238.50508"
       x2="-32.587608"
       y2="-238.50508"
       id="line142002-5" />
    <line
       style="font-family:sans-serif;stroke:#000000;stroke-width:0.40527582"
       x1="-18.808229"
       y1="-241.42308"
       x2="-30.155956"
       y2="-241.42308"
       id="line142004-6" />
    <line
       style="font-family:sans-serif;stroke:#000000;stroke-width:0.40527582"
       x1="-32.587608"
       y1="-238.50508"
       x2="-40.693123"
       y2="-252.56816"
       id="line142006-2" />
    <line
       style="font-family:sans-serif;stroke:#000000;stroke-width:0.40527582"
       x1="-40.693123"
       y1="-252.56816"
       x2="-32.587608"
       y2="-266.5907"
       id="line142008-9" />
    <line
       style="font-family:sans-serif;stroke:#000000;stroke-width:0.40527582"
       x1="-36.964596"
       y1="-253.2166"
       x2="-31.290731"
       y2="-263.02426"
       id="line142010-1" />
    <line
       style="font-family:sans-serif;stroke:#000000;stroke-width:0.40527582"
       x1="-32.587608"
       y1="-266.5907"
       x2="-16.376575"
       y2="-266.5907"
       id="line142012-2" />
    <line
       style="font-family:sans-serif;stroke:#000000;stroke-width:0.40527582"
       x1="-16.376575"
       y1="-266.5907"
       x2="-8.2710581"
       y2="-252.56816"
       id="line142014-7" />
    <line
       style="font-family:sans-serif;stroke:#000000;stroke-width:0.40527582"
       x1="-17.673464"
       y1="-263.02426"
       x2="-11.999601"
       y2="-253.2166"
       id="line142016-09" />
    <line
       style="font-family:sans-serif;stroke:#000000;stroke-width:0.40527582"
       x1="-8.2710581"
       y1="-252.56816"
       x2="-16.376575"
       y2="-238.50508"
       id="line142018-3" />
    <text
       style="font-size:6.48441315px;line-height:0%;font-family:sans-serif;fill:#ff0c0c;stroke:#ff0c0c;stroke-width:0.40527582"
       x="-9.7300529"
       y="-222.53516"
       font-size="16"
       id="text142036-6">O</text>
    <text
       style="font-size:6.48441315px;line-height:0%;font-family:sans-serif;fill:#0c0cff;stroke:#0c0cff;stroke-width:0.40527582"
       x="-43.124779"
       y="-277.26526"
       font-size="16"
       id="text142038-0">N</text>
    <text
       style="font-size:6.48441315px;line-height:0%;font-family:sans-serif;fill:#ff0c0c;stroke:#ff0c0c;stroke-width:0.40527582"
       x="-35.546947"
       y="-291.56827"
       font-size="16"
       id="text142040-6">O</text>
    <text
       style="font-size:6.48441315px;line-height:0%;font-family:sans-serif;fill:#ff0c0c;stroke:#ff0c0c;stroke-width:0.40527582"
       x="-58.993126"
       y="-277.26526"
       font-size="16"
       id="text142042-2">O</text>
    <line
       style="font-family:sans-serif;stroke:#000000;stroke-width:0.40527582"
       x1="-44.903507"
       y1="-278.23175"
       x2="-52.675087"
       y2="-278.23737"
       id="line141996-0-6" />
    <path
       style="font-family:sans-serif;fill:#000000;fill-opacity:1;fill-rule:nonzero;stroke:#000000;stroke-width:0.06740589;stroke-linecap:round;stroke-linejoin:round;stroke-miterlimit:4;stroke-dasharray:none;stroke-dashoffset:0;stroke-opacity:1"
       d="m 47.056181,81.325765 c -0.08406,-0.0058 -0.155655,0.02502 -0.15497,0.101347 l 0.02386,3.14133 H 32.428477 c -0.932372,0 -1.68093,0.423983 -1.680937,0.947756 l 7e-6,0.834514 c -1.4e-5,0.523781 0.748551,0.941802 1.68093,0.941809 l 14.502573,-1.4e-5 -0.02985,3.147299 c -0.0014,0.152634 0.279517,0.107922 0.387439,0 l 4.315679,-4.309567 c 0.107931,-0.10793 0.107939,-0.285479 0,-0.393409 l -4.315679,-4.309566 c -0.05392,-0.05393 -0.148366,-0.09576 -0.232462,-0.101326 z"
       id="rect142310-3"
       inkscape:connector-curvature="0"
       sodipodi:nodetypes="cccsccccccccccc" />
    <path
       style="font-family:sans-serif;fill:#000000;fill-opacity:1;fill-rule:nonzero;stroke:#000000;stroke-width:0.06740589;stroke-linecap:round;stroke-linejoin:round;stroke-miterlimit:4;stroke-dasharray:none;stroke-dashoffset:0;stroke-opacity:1"
       d="m 143.09416,81.325765 c -0.0841,-0.0058 -0.15565,0.02502 -0.15497,0.101348 l 0.0239,3.141329 h -14.4966 c -0.93237,0 -1.68093,0.423983 -1.68094,0.947757 l 1e-5,0.834514 c -1e-5,0.523781 0.74855,0.941802 1.68093,0.941809 l 14.50257,-1.5e-5 -0.0298,3.147299 c -10e-4,0.152634 0.27951,0.107923 0.38744,0 l 4.31568,-4.309566 c 0.10793,-0.10793 0.10793,-0.28548 0,-0.393409 l -4.31568,-4.309567 c -0.0539,-0.05392 -0.14837,-0.09576 -0.23247,-0.101326 z"
       id="rect142310-6"
       inkscape:connector-curvature="0"
       sodipodi:nodetypes="cccsccccccccccc" />
  </g>
</svg>
