<?xml version="1.0" encoding="UTF-8" standalone="no"?>
<!-- Created with matplotlib (https://matplotlib.org/) -->

<svg
   xmlns:dc="http://purl.org/dc/elements/1.1/"
   xmlns:cc="http://creativecommons.org/ns#"
   xmlns:rdf="http://www.w3.org/1999/02/22-rdf-syntax-ns#"
   xmlns:svg="http://www.w3.org/2000/svg"
   xmlns="http://www.w3.org/2000/svg"
   xmlns:xlink="http://www.w3.org/1999/xlink"
   xmlns:sodipodi="http://sodipodi.sourceforge.net/DTD/sodipodi-0.dtd"
   xmlns:inkscape="http://www.inkscape.org/namespaces/inkscape"
   height="232.58063pt"
   version="1.1"
   viewBox="0 0 395.31311 232.58063"
   width="395.31311pt"
   id="svg1347"
   sodipodi:docname="linear_separable_margin.svg"
   inkscape:version="0.92.5 (2060ec1f9f, 2020-04-08)">
  <metadata
     id="metadata1351">
    <rdf:RDF>
      <cc:Work
         rdf:about="">
        <dc:format>image/svg+xml</dc:format>
        <dc:type
           rdf:resource="http://purl.org/dc/dcmitype/StillImage" />
        <dc:title></dc:title>
      </cc:Work>
    </rdf:RDF>
  </metadata>
  <sodipodi:namedview
     pagecolor="#ffffff"
     bordercolor="#666666"
     borderopacity="1"
     objecttolerance="10"
     gridtolerance="10"
     guidetolerance="10"
     inkscape:pageopacity="0"
     inkscape:pageshadow="2"
     inkscape:window-width="1920"
     inkscape:window-height="1016"
     id="namedview1349"
     showgrid="false"
     inkscape:zoom="1.1119792"
     inkscape:cx="680.31996"
     inkscape:cy="88.544231"
     inkscape:window-x="0"
     inkscape:window-y="27"
     inkscape:window-maximized="1"
     inkscape:current-layer="svg1347"
     fit-margin-top="0"
     fit-margin-left="0"
     fit-margin-right="0"
     fit-margin-bottom="0" />
  <defs
     id="defs1105"
     style="stroke-linecap:butt;stroke-linejoin:round">
    <marker
       inkscape:stockid="Arrow1Send"
       orient="auto"
       refY="0.0"
       refX="0.0"
       id="Arrow1Send"
       style="overflow:visible;"
       inkscape:isstock="true">
      <path
         id="path2766"
         d="M 0.0,0.0 L 5.0,-5.0 L -12.5,0.0 L 5.0,5.0 L 0.0,0.0 z "
         style="fill-rule:evenodd;stroke:#4e9a06;stroke-width:1pt;stroke-opacity:1;fill:#4e9a06;fill-opacity:1"
         transform="scale(0.2) rotate(180) translate(6,0)" />
    </marker>
    <marker
       inkscape:stockid="Arrow1Sstart"
       orient="auto"
       refY="0.0"
       refX="0.0"
       id="Arrow1Sstart"
       style="overflow:visible"
       inkscape:isstock="true">
      <path
         id="path2763"
         d="M 0.0,0.0 L 5.0,-5.0 L -12.5,0.0 L 5.0,5.0 L 0.0,0.0 z "
         style="fill-rule:evenodd;stroke:#4e9a06;stroke-width:1pt;stroke-opacity:1;fill:#4e9a06;fill-opacity:1"
         transform="scale(0.2) translate(6,0)" />
    </marker>
    <marker
       inkscape:stockid="Arrow1Mend"
       orient="auto"
       refY="0"
       refX="0"
       id="Arrow1Mend"
       style="overflow:visible;stroke-linecap:butt;stroke-linejoin:round"
       inkscape:isstock="true">
      <path
         id="path2760"
         d="M 0,0 5,-5 -12.5,0 5,5 Z"
         style="fill:#000000;fill-opacity:1;fill-rule:evenodd;stroke:#000000;stroke-width:1.00000003pt;stroke-linecap:butt;stroke-linejoin:round;stroke-opacity:1"
         transform="matrix(-0.4,0,0,-0.4,-4,0)"
         inkscape:connector-curvature="0" />
    </marker>
    <style
       type="text/css"
       id="style1103">
*{stroke-linecap:butt;stroke-linejoin:round;}
  </style>
    <defs
       id="defs1140">
      <path
         inkscape:connector-curvature="0"
         style="stroke:#ff7f0e;stroke-linecap:butt;stroke-linejoin:round"
         id="m6061742142"
         d="M 0,3 C 0.795609,3 1.55874,2.683901 2.12132,2.12132 2.683901,1.55874 3,0.795609 3,0 3,-0.795609 2.683901,-1.55874 2.12132,-2.12132 1.55874,-2.683901 0.795609,-3 0,-3 -0.795609,-3 -1.55874,-2.683901 -2.12132,-2.12132 -2.683901,-1.55874 -3,-0.795609 -3,0 -3,0.795609 -2.683901,1.55874 -2.12132,2.12132 -1.55874,2.683901 -0.795609,3 0,3 Z" />
    </defs>
    <defs
       id="defs1114">
      <path
         inkscape:connector-curvature="0"
         style="stroke:#1f77b4;stroke-linecap:butt;stroke-linejoin:round"
         id="m99565466c9"
         d="M 0,3 C 0.795609,3 1.55874,2.683901 2.12132,2.12132 2.683901,1.55874 3,0.795609 3,0 3,-0.795609 2.683901,-1.55874 2.12132,-2.12132 1.55874,-2.683901 0.795609,-3 0,-3 -0.795609,-3 -1.55874,-2.683901 -2.12132,-2.12132 -2.683901,-1.55874 -3,-0.795609 -3,0 -3,0.795609 -2.683901,1.55874 -2.12132,2.12132 -1.55874,2.683901 -0.795609,3 0,3 Z" />
    </defs>
    <defs
       id="defs1247">
      <path
         style="stroke-linecap:butt;stroke-linejoin:round"
         inkscape:connector-curvature="0"
         id="DejaVuSans-51"
         d="M 40.578125,39.3125 Q 47.65625,37.796875 51.625,33 q 3.984375,-4.78125 3.984375,-11.8125 0,-10.78125 -7.421875,-16.703125 -7.421875,-5.90625 -21.09375,-5.90625 -4.578125,0 -9.4375,0.90625 -4.859375,0.90625 -10.03125,2.71875 v 9.515625 q 4.09375,-2.390625 8.96875,-3.609375 4.890625,-1.21875 10.21875,-1.21875 9.265625,0 14.125,3.65625 4.859375,3.65625 4.859375,10.640625 0,6.453125 -4.515625,10.078125 -4.515625,3.640625 -12.5625,3.640625 h -8.5 v 8.109375 h 8.890625 q 7.265625,0 11.125,2.90625 3.859375,2.90625 3.859375,8.375 0,5.609375 -3.984375,8.609375 -3.96875,3.015625 -11.390625,3.015625 -4.0625,0 -8.703125,-0.890625 Q 15.375,64.15625 9.8125,62.3125 v 8.78125 q 5.625,1.5625 10.53125,2.34375 4.90625,0.78125 9.25,0.78125 11.234375,0 17.765625,-5.109375 6.546875,-5.09375 6.546875,-13.78125 0,-6.0625 -3.46875,-10.234375 -3.46875,-4.171875 -9.859375,-5.78125 z" />
    </defs>
    <defs
       id="defs1239">
      <path
         inkscape:connector-curvature="0"
         style="stroke:#000000;stroke-width:0.80000001;stroke-linecap:butt;stroke-linejoin:round"
         id="md190aae12c"
         d="M 0,0 H -3.5" />
    </defs>
    <defs
       id="defs1175">
      <path
         style="stroke-linecap:butt;stroke-linejoin:round"
         inkscape:connector-curvature="0"
         id="DejaVuSans-8722"
         d="M 10.59375,35.5 H 73.1875 V 27.203125 H 10.59375 Z" />
      <path
         style="stroke-linecap:butt;stroke-linejoin:round"
         inkscape:connector-curvature="0"
         id="DejaVuSans-50"
         d="M 19.1875,8.296875 H 53.609375 V 0 H 7.328125 v 8.296875 q 5.609375,5.8125 15.296875,15.59375 9.703125,9.796875 12.1875,12.640625 4.734375,5.3125 6.609375,9 1.890625,3.6875 1.890625,7.25 0,5.8125 -4.078125,9.46875 -4.078125,3.671875 -10.625,3.671875 -4.640625,0 -9.796875,-1.609375 -5.140625,-1.609375 -11,-4.890625 v 9.96875 Q 13.765625,71.78125 18.9375,73 q 5.1875,1.21875 9.484375,1.21875 11.328125,0 18.0625,-5.671875 6.734375,-5.65625 6.734375,-15.125 0,-4.5 -1.6875,-8.53125 Q 49.859375,40.875 45.40625,35.40625 44.1875,33.984375 37.640625,27.21875 31.109375,20.453125 19.1875,8.296875 Z" />
    </defs>
    <defs
       id="defs1166">
      <path
         inkscape:connector-curvature="0"
         style="stroke:#000000;stroke-width:0.80000001;stroke-linecap:butt;stroke-linejoin:round"
         id="m6fbaaca22b"
         d="M 0,0 V 3.5" />
    </defs>
    <defs
       id="defs1191">
      <path
         style="stroke-linecap:butt;stroke-linejoin:round"
         inkscape:connector-curvature="0"
         id="DejaVuSans-49"
         d="m 12.40625,8.296875 h 16.109375 v 55.625 L 10.984375,60.40625 v 8.984375 l 17.4375,3.515625 H 38.28125 V 8.296875 H 54.390625 V 0 H 12.40625 Z" />
    </defs>
    <defs
       id="defs1207">
      <path
         style="stroke-linecap:butt;stroke-linejoin:round"
         inkscape:connector-curvature="0"
         id="DejaVuSans-48"
         d="m 31.78125,66.40625 q -7.609375,0 -11.453125,-7.5 Q 16.5,51.421875 16.5,36.375 q 0,-14.984375 3.828125,-22.484375 3.84375,-7.5 11.453125,-7.5 7.671875,0 11.5,7.5 3.84375,7.5 3.84375,22.484375 0,15.046875 -3.84375,22.53125 -3.828125,7.5 -11.5,7.5 z m 0,7.8125 q 12.265625,0 18.734375,-9.703125 6.46875,-9.6875 6.46875,-28.140625 0,-18.40625 -6.46875,-28.109375 -6.46875,-9.6875 -18.734375,-9.6875 -12.25,0 -18.71875,9.6875 Q 6.59375,17.96875 6.59375,36.375 q 0,18.453125 6.46875,28.140625 6.46875,9.703125 18.71875,9.703125 z" />
    </defs>
  </defs>
  <use
     style="fill:#1f77b4;stroke:#1f77b4;stroke-linecap:butt;stroke-linejoin:round"
     x="327.07126"
     xlink:href="#m99565466c9"
     y="194.40318"
     id="use1116"
     width="100%"
     height="100%"
     transform="translate(-21.24506,-34.16)" />
  <use
     style="fill:#1f77b4;stroke:#1f77b4;stroke-linecap:butt;stroke-linejoin:round"
     x="271.5874"
     xlink:href="#m99565466c9"
     y="204.64914"
     id="use1118"
     width="100%"
     height="100%"
     transform="translate(-21.24506,-34.16)" />
  <use
     style="fill:#1f77b4;stroke:#1f77b4;stroke-linecap:butt;stroke-linejoin:round"
     x="323.06879"
     xlink:href="#m99565466c9"
     y="204.86166"
     id="use1120"
     width="100%"
     height="100%"
     transform="translate(-21.24506,-34.16)" />
  <use
     style="fill:#1f77b4;stroke:#1f77b4;stroke-linecap:butt;stroke-linejoin:round"
     x="233.22531"
     xlink:href="#m99565466c9"
     y="215.8427"
     id="use1122"
     width="100%"
     height="100%"
     transform="translate(-21.24506,-34.16)" />
  <use
     style="fill:#1f77b4;stroke:#1f77b4;stroke-linecap:butt;stroke-linejoin:round"
     x="138.5524"
     xlink:href="#m99565466c9"
     y="176.61217"
     id="use1124"
     width="100%"
     height="100%"
     transform="translate(-21.24506,-34.16)" />
  <use
     style="fill:#1f77b4;stroke:#1f77b4;stroke-linecap:butt;stroke-linejoin:round"
     x="218.52431"
     xlink:href="#m99565466c9"
     y="193.42334"
     id="use1126"
     width="100%"
     height="100%"
     transform="translate(-21.24506,-34.16)" />
  <use
     style="fill:#1f77b4;stroke:#1f77b4;stroke-linecap:butt;stroke-linejoin:round"
     x="69.218185"
     xlink:href="#m99565466c9"
     y="232.41052"
     id="use1128"
     width="100%"
     height="100%"
     transform="translate(-21.24506,-34.16)" />
  <use
     style="fill:#1f77b4;stroke:#1f77b4;stroke-linecap:butt;stroke-linejoin:round"
     x="183.49942"
     xlink:href="#m99565466c9"
     y="242.11636"
     id="use1130"
     width="100%"
     height="100%"
     transform="translate(-21.24506,-34.16)" />
  <use
     style="fill:#1f77b4;stroke:#1f77b4;stroke-linecap:butt;stroke-linejoin:round"
     x="284.89209"
     xlink:href="#m99565466c9"
     y="216.42584"
     id="use1132"
     width="100%"
     height="100%"
     transform="translate(-21.24506,-34.16)" />
  <use
     style="fill:#1f77b4;stroke:#1f77b4;stroke-linecap:butt;stroke-linejoin:round"
     x="373.58182"
     xlink:href="#m99565466c9"
     y="234.51732"
     id="use1134"
     width="100%"
     height="100%"
     transform="translate(-21.24506,-34.16)" />
  <use
     style="fill:#ff7f0e;stroke:#ff7f0e;stroke-linecap:butt;stroke-linejoin:round"
     x="211.25916"
     xlink:href="#m6061742142"
     y="104.03578"
     id="use1142"
     width="100%"
     height="100%"
     transform="translate(-21.24506,-34.16)" />
  <use
     style="fill:#ff7f0e;stroke:#ff7f0e;stroke-linecap:butt;stroke-linejoin:round"
     x="208.38074"
     xlink:href="#m6061742142"
     y="71.096085"
     id="use1144"
     width="100%"
     height="100%"
     transform="translate(-21.24506,-34.16)" />
  <use
     style="fill:#ff7f0e;stroke:#ff7f0e;stroke-linecap:butt;stroke-linejoin:round"
     x="174.3093"
     xlink:href="#m6061742142"
     y="63.04681"
     id="use1146"
     width="100%"
     height="100%"
     transform="translate(-21.24506,-34.16)" />
  <use
     style="fill:#ff7f0e;stroke:#ff7f0e;stroke-linecap:butt;stroke-linejoin:round"
     x="240.20468"
     xlink:href="#m6061742142"
     y="73.892471"
     id="use1148"
     width="100%"
     height="100%"
     transform="translate(-21.24506,-34.16)" />
  <use
     style="fill:#ff7f0e;stroke:#ff7f0e;stroke-linecap:butt;stroke-linejoin:round"
     x="254.20335"
     xlink:href="#m6061742142"
     y="45.453827"
     id="use1150"
     width="100%"
     height="100%"
     transform="translate(-21.24506,-34.16)" />
  <use
     style="fill:#ff7f0e;stroke:#ff7f0e;stroke-linecap:butt;stroke-linejoin:round"
     x="240.11623"
     xlink:href="#m6061742142"
     y="78.704933"
     id="use1152"
     width="100%"
     height="100%"
     transform="translate(-21.24506,-34.16)" />
  <use
     style="fill:#ff7f0e;stroke:#ff7f0e;stroke-linecap:butt;stroke-linejoin:round"
     x="306.21976"
     xlink:href="#m6061742142"
     y="87.567001"
     id="use1154"
     width="100%"
     height="100%"
     transform="translate(-21.24506,-34.16)" />
  <use
     style="fill:#ff7f0e;stroke:#ff7f0e;stroke-linecap:butt;stroke-linejoin:round"
     x="105.32933"
     xlink:href="#m6061742142"
     y="79.272606"
     id="use1156"
     width="100%"
     height="100%"
     transform="translate(-21.24506,-34.16)" />
  <use
     style="fill:#ff7f0e;stroke:#ff7f0e;stroke-linecap:butt;stroke-linejoin:round"
     x="307.9812"
     xlink:href="#m6061742142"
     y="44.443638"
     id="use1158"
     width="100%"
     height="100%"
     transform="translate(-21.24506,-34.16)" />
  <use
     style="fill:#ff7f0e;stroke:#ff7f0e;stroke-linecap:butt;stroke-linejoin:round"
     x="205.89328"
     xlink:href="#m6061742142"
     y="74.415428"
     id="use1160"
     width="100%"
     height="100%"
     transform="translate(-21.24506,-34.16)" />
  <use
     style="stroke:#000000;stroke-width:0.80000001;stroke-linecap:butt;stroke-linejoin:round"
     x="104.11739"
     xlink:href="#m6fbaaca22b"
     y="252"
     id="use1168"
     width="100%"
     height="100%"
     transform="translate(-21.24506,-34.16)" />
  <use
     xlink:href="#DejaVuSans-8722"
     id="use1177"
     style="stroke-linecap:butt;stroke-linejoin:round"
     x="0"
     y="0"
     width="100%"
     height="100%"
     transform="matrix(0.1,0,0,-0.1,75.501242,232.43844)" />
  <use
     x="83.789062"
     xlink:href="#DejaVuSans-50"
     id="use1179"
     style="stroke-linecap:butt;stroke-linejoin:round"
     y="0"
     width="100%"
     height="100%"
     transform="matrix(0.1,0,0,-0.1,75.501242,232.43844)" />
  <use
     style="stroke:#000000;stroke-width:0.80000001;stroke-linecap:butt;stroke-linejoin:round"
     x="167.22745"
     xlink:href="#m6fbaaca22b"
     y="252"
     id="use1185"
     width="100%"
     height="100%"
     transform="translate(-21.24506,-34.16)" />
  <use
     xlink:href="#DejaVuSans-8722"
     id="use1193"
     style="stroke-linecap:butt;stroke-linejoin:round"
     x="0"
     y="0"
     width="100%"
     height="100%"
     transform="matrix(0.1,0,0,-0.1,138.61129,232.43844)" />
  <use
     x="83.789062"
     xlink:href="#DejaVuSans-49"
     id="use1195"
     style="stroke-linecap:butt;stroke-linejoin:round"
     y="0"
     width="100%"
     height="100%"
     transform="matrix(0.1,0,0,-0.1,138.61129,232.43844)" />
  <use
     style="stroke:#000000;stroke-width:0.80000001;stroke-linecap:butt;stroke-linejoin:round"
     x="230.33749"
     xlink:href="#m6fbaaca22b"
     y="252"
     id="use1201"
     width="100%"
     height="100%"
     transform="translate(-21.24506,-34.16)" />
  <use
     xlink:href="#DejaVuSans-48"
     id="use1209"
     style="stroke-linecap:butt;stroke-linejoin:round"
     x="0"
     y="0"
     width="100%"
     height="100%"
     transform="matrix(0.1,0,0,-0.1,205.91118,232.43844)" />
  <use
     style="stroke:#000000;stroke-width:0.80000001;stroke-linecap:butt;stroke-linejoin:round"
     x="293.44754"
     xlink:href="#m6fbaaca22b"
     y="252"
     id="use1215"
     width="100%"
     height="100%"
     transform="translate(-21.24506,-34.16)" />
  <use
     xlink:href="#DejaVuSans-49"
     id="use1220"
     style="stroke-linecap:butt;stroke-linejoin:round"
     x="0"
     y="0"
     width="100%"
     height="100%"
     transform="matrix(0.1,0,0,-0.1,269.02123,232.43844)" />
  <use
     style="stroke:#000000;stroke-width:0.80000001;stroke-linecap:butt;stroke-linejoin:round"
     x="356.55759"
     xlink:href="#m6fbaaca22b"
     y="252"
     id="use1226"
     width="100%"
     height="100%"
     transform="translate(-21.24506,-34.16)" />
  <use
     xlink:href="#DejaVuSans-50"
     id="use1231"
     style="stroke-linecap:butt;stroke-linejoin:round"
     x="0"
     y="0"
     width="100%"
     height="100%"
     transform="matrix(0.1,0,0,-0.1,332.13128,232.43844)" />
  <use
     style="stroke:#000000;stroke-width:0.80000001;stroke-linecap:butt;stroke-linejoin:round"
     x="54"
     xlink:href="#md190aae12c"
     y="225.04005"
     id="use1241"
     width="100%"
     height="100%"
     transform="translate(-21.24506,-34.16)" />
  <use
     xlink:href="#DejaVuSans-8722"
     id="use1249"
     style="stroke-linecap:butt;stroke-linejoin:round"
     x="0"
     y="0"
     width="100%"
     height="100%"
     transform="matrix(0.1,0,0,-0.1,11.012752,194.67928)" />
  <use
     x="83.789062"
     xlink:href="#DejaVuSans-51"
     id="use1251"
     style="stroke-linecap:butt;stroke-linejoin:round"
     y="0"
     width="100%"
     height="100%"
     transform="matrix(0.1,0,0,-0.1,11.012752,194.67928)" />
  <use
     style="stroke:#000000;stroke-width:0.80000001;stroke-linecap:butt;stroke-linejoin:round"
     x="54"
     xlink:href="#md190aae12c"
     y="196.50415"
     id="use1257"
     width="100%"
     height="100%"
     transform="translate(-21.24506,-34.16)" />
  <use
     xlink:href="#DejaVuSans-8722"
     id="use1262"
     style="stroke-linecap:butt;stroke-linejoin:round"
     x="0"
     y="0"
     width="100%"
     height="100%"
     transform="matrix(0.1,0,0,-0.1,11.012752,166.14336)" />
  <use
     x="83.789062"
     xlink:href="#DejaVuSans-50"
     id="use1264"
     style="stroke-linecap:butt;stroke-linejoin:round"
     y="0"
     width="100%"
     height="100%"
     transform="matrix(0.1,0,0,-0.1,11.012752,166.14336)" />
  <use
     style="stroke:#000000;stroke-width:0.80000001;stroke-linecap:butt;stroke-linejoin:round"
     x="54"
     xlink:href="#md190aae12c"
     y="167.96823"
     id="use1270"
     width="100%"
     height="100%"
     transform="translate(-21.24506,-34.16)" />
  <use
     xlink:href="#DejaVuSans-8722"
     id="use1275"
     style="stroke-linecap:butt;stroke-linejoin:round"
     x="0"
     y="0"
     width="100%"
     height="100%"
     transform="matrix(0.1,0,0,-0.1,11.012752,137.60745)" />
  <use
     x="83.789062"
     xlink:href="#DejaVuSans-49"
     id="use1277"
     style="stroke-linecap:butt;stroke-linejoin:round"
     y="0"
     width="100%"
     height="100%"
     transform="matrix(0.1,0,0,-0.1,11.012752,137.60745)" />
  <use
     style="stroke:#000000;stroke-width:0.80000001;stroke-linecap:butt;stroke-linejoin:round"
     x="54"
     xlink:href="#md190aae12c"
     y="139.43231"
     id="use1283"
     width="100%"
     height="100%"
     transform="translate(-21.24506,-34.16)" />
  <use
     xlink:href="#DejaVuSans-48"
     id="use1288"
     style="stroke-linecap:butt;stroke-linejoin:round"
     x="0"
     y="0"
     width="100%"
     height="100%"
     transform="matrix(0.1,0,0,-0.1,19.39244,109.07153)" />
  <use
     style="stroke:#000000;stroke-width:0.80000001;stroke-linecap:butt;stroke-linejoin:round"
     x="54"
     xlink:href="#md190aae12c"
     y="110.89639"
     id="use1294"
     width="100%"
     height="100%"
     transform="translate(-21.24506,-34.16)" />
  <use
     xlink:href="#DejaVuSans-49"
     id="use1299"
     style="stroke-linecap:butt;stroke-linejoin:round"
     x="0"
     y="0"
     width="100%"
     height="100%"
     transform="matrix(0.1,0,0,-0.1,19.39244,80.53562)" />
  <use
     style="stroke:#000000;stroke-width:0.80000001;stroke-linecap:butt;stroke-linejoin:round"
     x="54"
     xlink:href="#md190aae12c"
     y="82.360481"
     id="use1305"
     width="100%"
     height="100%"
     transform="translate(-21.24506,-34.16)" />
  <use
     xlink:href="#DejaVuSans-50"
     id="use1310"
     style="stroke-linecap:butt;stroke-linejoin:round"
     x="0"
     y="0"
     width="100%"
     height="100%"
     transform="matrix(0.1,0,0,-0.1,19.39244,51.999698)" />
  <use
     style="stroke:#000000;stroke-width:0.80000001;stroke-linecap:butt;stroke-linejoin:round"
     x="54"
     xlink:href="#md190aae12c"
     y="53.824562"
     id="use1316"
     width="100%"
     height="100%"
     transform="translate(-21.24506,-34.16)" />
  <use
     xlink:href="#DejaVuSans-51"
     id="use1321"
     style="stroke-linecap:butt;stroke-linejoin:round"
     x="0"
     y="0"
     width="100%"
     height="100%"
     transform="matrix(0.1,0,0,-0.1,19.39244,23.463782)" />
  <path
     inkscape:connector-curvature="0"
     id="path1328"
     style="fill:none;stroke:#000000;stroke-width:0.80000001;stroke-linecap:square;stroke-linejoin:miter"
     d="M 32.75494,217.84 V 0.40000001" />
  <path
     inkscape:connector-curvature="0"
     id="path1331"
     style="fill:none;stroke:#000000;stroke-width:0.80000001;stroke-linecap:square;stroke-linejoin:miter"
     d="M 367.55494,217.84 V 0.40000001" />
  <path
     inkscape:connector-curvature="0"
     id="path1334"
     style="fill:none;stroke:#000000;stroke-width:0.80000001;stroke-linecap:square;stroke-linejoin:miter"
     d="m 32.75494,217.84 h 334.8" />
  <path
     inkscape:connector-curvature="0"
     id="path1337"
     style="fill:none;stroke:#000000;stroke-width:0.80000001;stroke-linecap:square;stroke-linejoin:miter"
     d="m 32.75494,0.40000001 h 334.8" />
  <defs
     id="defs1345">
    <clipPath
       id="p47f3ae2311"
       style="stroke-linecap:butt;stroke-linejoin:round">
      <rect
         height="217.44"
         width="334.79999"
         x="54"
         y="34.560001"
         id="rect1342"
         style="stroke-linecap:butt;stroke-linejoin:round" />
    </clipPath>
  </defs>
  <path
     style="fill:none;stroke:#000000;stroke-width:2.83464575;stroke-linecap:butt;stroke-linejoin:miter;stroke-miterlimit:4;stroke-dasharray:none;stroke-opacity:1"
     d="M 417.50789,105.08356 -7.0811258,105.50511"
     id="path1410"
     inkscape:connector-curvature="0"
     sodipodi:nodetypes="cc" />
  <text
     xml:space="preserve"
     style="font-style:normal;font-variant:normal;font-weight:normal;font-stretch:normal;font-size:40px;line-height:1;font-family:'Libre Baskerville';-inkscape-font-specification:'Libre Baskerville';text-align:center;letter-spacing:0px;word-spacing:0px;text-anchor:middle;fill:#000000;fill-opacity:1;stroke:none;stroke-width:0.75;stroke-linecap:butt;stroke-linejoin:round"
     x="276.19757"
     y="153.68074"
     id="text1414"><tspan
       sodipodi:role="line"
       id="tspan1412"
       style="stroke-width:0.75;stroke-linecap:butt;stroke-linejoin:round"
       x="276.19757"
       y="184.97107" /></text>
  <path
     style="fill:none;stroke:#000000;stroke-width:2.25;stroke-linecap:butt;stroke-linejoin:miter;stroke-miterlimit:4;stroke-dasharray:6.75, 6.75;stroke-dashoffset:0;stroke-opacity:1"
     d="m 402.07025,142.2344 -422.725987,1.26464"
     id="path1410-7"
     inkscape:connector-curvature="0"
     sodipodi:nodetypes="cc" />
  <path
     style="fill:none;stroke:#000000;stroke-width:2.25;stroke-linecap:butt;stroke-linejoin:miter;stroke-miterlimit:4;stroke-dasharray:6.75, 6.75;stroke-dashoffset:0;stroke-opacity:1"
     d="m 395.31311,70.69574 -409.740075,0"
     id="path1410-5"
     inkscape:connector-curvature="0"
     sodipodi:nodetypes="cc" />
  <path
     style="fill:#4e9a06;stroke:#4e9a06;stroke-width:2.24999993;stroke-linecap:butt;stroke-linejoin:miter;stroke-miterlimit:4;stroke-dasharray:none;stroke-dashoffset:0;stroke-opacity:1;marker-start:url(#Arrow1Sstart);marker-end:url(#Arrow1Send)"
     d="m 261.95407,138.86468 0,-66.955846"
     id="path4662"
     inkscape:connector-curvature="0"
     sodipodi:nodetypes="cc" />
  <g
     id="g5515"
     style="fill:#4e9a06;fill-opacity:1;stroke-linecap:butt;stroke-linejoin:round"
     transform="matrix(1.974193,0,0,1.974193,-27.503514,-140.54937)">
    <path
       id="path5513"
       transform="translate(155.314,130.842)"
       d="M 3.515625,-1.265625 H 3.28125 c -0.015625,0.15625 -0.09375,0.5625 -0.1875,0.625 C 3.046875,-0.59375 2.515625,-0.59375 2.40625,-0.59375 H 1.125 c 0.734375,-0.640625 0.984375,-0.84375 1.390625,-1.171875 0.515625,-0.40625 1,-0.84375 1,-1.5 0,-0.84375 -0.734375,-1.359375 -1.625,-1.359375 -0.859375,0 -1.453125,0.609375 -1.453125,1.25 0,0.34375 0.296875,0.390625 0.375,0.390625 0.15625,0 0.359375,-0.125 0.359375,-0.375 0,-0.125 -0.046875,-0.375 -0.40625,-0.375 C 0.984375,-4.21875 1.453125,-4.375 1.78125,-4.375 c 0.703125,0 1.0625,0.546875 1.0625,1.109375 0,0.609375 -0.4375,1.078125 -0.65625,1.328125 L 0.515625,-0.265625 C 0.4375,-0.203125 0.4375,-0.1875 0.4375,0 h 2.875 z m 0,0"
       style="fill:#4e9a06;stroke:none;stroke-width:0;stroke-linecap:butt;stroke-linejoin:round"
       inkscape:connector-curvature="0" />
  </g>
  <path
     id="path5517"
     d="M 268.44035,120.58392 H 297.6291"
     style="fill:#4e9a06;stroke:#4e9a06;stroke-width:0.78572875;stroke-linecap:butt;stroke-linejoin:miter;stroke-miterlimit:10;stroke-opacity:1"
     inkscape:connector-curvature="0" />
  <g
     id="g5521"
     style="fill:#4e9a06;fill-opacity:1;stroke-linecap:butt;stroke-linejoin:round"
     transform="matrix(1.974193,0,0,1.974193,-27.503514,-140.54937)">
    <path
       id="path5519"
       transform="translate(149.908,138.2)"
       d="m 1.4375,-4.96875 c 0,-0.09375 0,-0.25 -0.171875,-0.25 -0.171875,0 -0.171875,0.171875 -0.171875,0.296875 V 1.4375 c 0,0.125 0,0.296875 0.171875,0.296875 0.171875,0 0.171875,-0.15625 0.171875,-0.265625 z m 1.53125,0.046875 c 0,-0.125 0,-0.296875 -0.171875,-0.296875 -0.15625,0 -0.15625,0.15625 -0.15625,0.25 v 6.4375 c 0,0.109375 0,0.265625 0.15625,0.265625 0.171875,0 0.171875,-0.171875 0.171875,-0.296875 z m 0,0"
       style="fill:#4e9a06;stroke:none;stroke-width:0;stroke-linecap:butt;stroke-linejoin:round"
       inkscape:connector-curvature="0" />
  </g>
  <g
     id="g5525"
     style="fill:#4e9a06;fill-opacity:1;stroke-linecap:butt;stroke-linejoin:round"
     transform="matrix(1.974193,0,0,1.974193,-27.503514,-140.54937)">
    <path
       id="path5523"
       transform="translate(153.99,138.2)"
       d="M 5.78125,-2.578125 C 5.828125,-2.671875 5.828125,-2.671875 5.953125,-2.6875 6.0625,-2.703125 6.109375,-2.703125 6.25,-2.703125 V -3.09375 c -0.1875,0.015625 -0.375,0.03125 -0.578125,0.03125 -0.234375,0 -0.46875,-0.015625 -0.71875,-0.03125 v 0.390625 c 0.203125,0 0.265625,0.015625 0.375,0.046875 l -0.8125,1.875 -0.84375,-1.921875 H 4.03125 V -3.09375 C 4,-3.09375 3.5,-3.0625 3.203125,-3.0625 3,-3.0625 2.703125,-3.078125 2.5,-3.09375 v 0.390625 H 2.921875 C 3,-2.546875 3,-2.53125 3,-2.515625 3,-2.484375 2.96875,-2.4375 2.96875,-2.421875 l -0.640625,1.46875 -0.765625,-1.75 H 1.921875 V -3.09375 c -0.3125,0.015625 -0.609375,0.03125 -0.90625,0.03125 -0.265625,0 -0.75,-0.03125 -0.78125,-0.03125 v 0.390625 h 0.40625 L 1.75,-0.140625 c 0.09375,0.1875 0.1875,0.1875 0.359375,0.1875 0.15625,0 0.265625,0 0.34375,-0.1875 l 0.78125,-1.8125 0.78125,1.796875 c 0.09375,0.203125 0.1875,0.203125 0.359375,0.203125 0.15625,0 0.265625,0 0.34375,-0.1875 z m 0,0"
       style="fill:#4e9a06;stroke:none;stroke-width:0;stroke-linecap:butt;stroke-linejoin:round"
       inkscape:connector-curvature="0" />
  </g>
  <g
     id="g5529"
     style="fill:#4e9a06;fill-opacity:1;stroke-linecap:butt;stroke-linejoin:round"
     transform="matrix(1.974193,0,0,1.974193,-27.503514,-140.54937)">
    <path
       id="path5527"
       transform="translate(160.609,138.2)"
       d="m 1.4375,-4.96875 c 0,-0.09375 0,-0.25 -0.171875,-0.25 -0.171875,0 -0.171875,0.171875 -0.171875,0.296875 V 1.4375 c 0,0.125 0,0.296875 0.171875,0.296875 0.171875,0 0.171875,-0.15625 0.171875,-0.265625 z m 1.53125,0.046875 c 0,-0.125 0,-0.296875 -0.171875,-0.296875 -0.15625,0 -0.15625,0.15625 -0.15625,0.25 v 6.4375 c 0,0.109375 0,0.265625 0.15625,0.265625 0.171875,0 0.171875,-0.171875 0.171875,-0.296875 z m 0,0"
       style="fill:#4e9a06;stroke:none;stroke-width:0;stroke-linecap:butt;stroke-linejoin:round"
       inkscape:connector-curvature="0" />
  </g>
</svg>
