<?xml version="1.0" encoding="UTF-8" standalone="no"?>
<svg
   width="460.8pt"
   height="345.6pt"
   viewBox="0 0 460.8 345.6"
   version="1.1"
   id="svg1598"
   sodipodi:docname="linear_separable_h2.svg"
   inkscape:version="1.1.2 (0a00cf5339, 2022-02-04)"
   xmlns:inkscape="http://www.inkscape.org/namespaces/inkscape"
   xmlns:sodipodi="http://sodipodi.sourceforge.net/DTD/sodipodi-0.dtd"
   xmlns:xlink="http://www.w3.org/1999/xlink"
   xmlns="http://www.w3.org/2000/svg"
   xmlns:svg="http://www.w3.org/2000/svg"
   xmlns:rdf="http://www.w3.org/1999/02/22-rdf-syntax-ns#"
   xmlns:cc="http://creativecommons.org/ns#"
   xmlns:dc="http://purl.org/dc/elements/1.1/">
  <sodipodi:namedview
     id="namedview1600"
     pagecolor="#ffffff"
     bordercolor="#666666"
     borderopacity="1.0"
     inkscape:pageshadow="2"
     inkscape:pageopacity="0.0"
     inkscape:pagecheckerboard="0"
     inkscape:document-units="pt"
     showgrid="false"
     inkscape:zoom="1.122482"
     inkscape:cx="264.14676"
     inkscape:cy="151.00464"
     inkscape:window-width="1920"
     inkscape:window-height="1016"
     inkscape:window-x="0"
     inkscape:window-y="27"
     inkscape:window-maximized="1"
     inkscape:current-layer="svg1598" />
  <metadata
     id="metadata1229">
    <rdf:RDF>
      <cc:Work>
        <dc:type
           rdf:resource="http://purl.org/dc/dcmitype/StillImage" />
        <dc:date>2023-03-27T10:21:34.877700</dc:date>
        <dc:format>image/svg+xml</dc:format>
        <dc:creator>
          <cc:Agent>
            <dc:title>Matplotlib v3.7.1, https://matplotlib.org/</dc:title>
          </cc:Agent>
        </dc:creator>
      </cc:Work>
    </rdf:RDF>
  </metadata>
  <defs
     id="defs1233">
    <marker
       style="overflow:visible"
       id="Arrow1Mstart"
       refX="0.0"
       refY="0.0"
       orient="auto"
       inkscape:stockid="Arrow1Mstart"
       inkscape:isstock="true">
      <path
         transform="scale(0.4) translate(10,0)"
         style="fill-rule:evenodd;fill:context-stroke;stroke:context-stroke;stroke-width:1.0pt"
         d="M 0.0,0.0 L 5.0,-5.0 L -12.5,0.0 L 5.0,5.0 L 0.0,0.0 z "
         id="path1799" />
    </marker>
    <marker
       style="overflow:visible;"
       id="Arrow1Mend"
       refX="0.0"
       refY="0.0"
       orient="auto"
       inkscape:stockid="Arrow1Mend"
       inkscape:isstock="true">
      <path
         transform="scale(0.4) rotate(180) translate(10,0)"
         style="fill-rule:evenodd;fill:context-stroke;stroke:context-stroke;stroke-width:1.0pt;"
         d="M 0.0,0.0 L 5.0,-5.0 L -12.5,0.0 L 5.0,5.0 L 0.0,0.0 z "
         id="path1802" />
    </marker>
    <style
       type="text/css"
       id="style1231">*{stroke-linejoin: round; stroke-linecap: butt}</style>
    <defs
       id="defs1499">
      <path
         id="mdb65744ed4"
         d="M 0,5 C 1.326016,5 2.597899,4.473168 3.535534,3.535534 4.473168,2.597899 5,1.326016 5,0 5,-1.326016 4.473168,-2.597899 3.535534,-3.535534 2.597899,-4.473168 1.326016,-5 0,-5 -1.326016,-5 -2.597899,-4.473168 -3.535534,-3.535534 -4.473168,-2.597899 -5,-1.326016 -5,0 -5,1.326016 -4.473168,2.597899 -3.535534,3.535534 -2.597899,4.473168 -1.326016,5 0,5 Z"
         style="stroke:#2ca02c" />
    </defs>
    <defs
       id="defs1535">
      <path
         id="m810dfcf8d6"
         d="M 0,5 C 1.326016,5 2.597899,4.473168 3.535534,3.535534 4.473168,2.597899 5,1.326016 5,0 5,-1.326016 4.473168,-2.597899 3.535534,-3.535534 2.597899,-4.473168 1.326016,-5 0,-5 -1.326016,-5 -2.597899,-4.473168 -3.535534,-3.535534 -4.473168,-2.597899 -5,-1.326016 -5,0 -5,1.326016 -4.473168,2.597899 -3.535534,3.535534 -2.597899,4.473168 -1.326016,5 0,5 Z"
         style="stroke:#1f77b4" />
    </defs>
    <defs
       id="defs1366">
      <path
         id="m801cfbeb66"
         d="M 0,0 H -3.5"
         style="stroke:#000000;stroke-width:0.8" />
    </defs>
    <defs
       id="defs1242">
      <path
         id="mf2e381ca6a"
         d="M 0,0 V 3.5"
         style="stroke:#000000;stroke-width:0.8" />
    </defs>
    <defs
       id="defs1253">
      <path
         id="DejaVuSans-2212"
         d="M 678,2272 H 4684 V 1741 H 678 Z"
         transform="scale(0.015625)" />
      <path
         id="DejaVuSans-31"
         d="M 794,531 H 1825 V 4091 L 703,3866 v 575 l 1116,225 h 631 V 531 H 3481 V 0 H 794 Z"
         transform="scale(0.015625)" />
      <path
         id="DejaVuSans-2e"
         d="m 684,794 h 660 V 0 H 684 Z"
         transform="scale(0.015625)" />
      <path
         id="DejaVuSans-35"
         d="M 691,4666 H 3169 V 4134 H 1269 V 2991 q 137,47 274,70 138,23 276,23 781,0 1237,-428 457,-428 457,-1159 Q 3513,744 3044,326 2575,-91 1722,-91 1428,-91 1123,-41 819,9 494,109 v 635 q 281,-153 581,-228 300,-75 634,-75 541,0 856,284 316,284 316,772 0,487 -316,771 -315,285 -856,285 -253,0 -505,-56 -251,-56 -513,-175 z"
         transform="scale(0.015625)" />
    </defs>
    <defs
       id="defs1485">
      <path
         id="DejaVuSans-32"
         d="M 1228,531 H 3431 V 0 H 469 v 531 q 359,372 979,998 621,627 780,809 303,340 423,576 121,236 121,464 0,372 -261,606 -261,235 -680,235 -297,0 -627,-103 -329,-103 -704,-313 v 638 q 381,153 712,231 332,78 607,78 725,0 1156,-363 431,-362 431,-968 0,-288 -108,-546 -107,-257 -392,-607 -78,-91 -497,-524 Q 1991,1309 1228,531 Z"
         transform="scale(0.015625)" />
    </defs>
    <defs
       id="defs1273">
      <path
         id="DejaVuSans-30"
         d="m 2034,4250 q -487,0 -733,-480 -245,-479 -245,-1442 0,-959 245,-1439 246,-480 733,-480 491,0 736,480 246,480 246,1439 0,963 -246,1442 -245,480 -736,480 z m 0,500 q 785,0 1199,-621 414,-620 414,-1801 0,-1178 -414,-1799 -414,-620 -1199,-620 -784,0 -1198,620 -414,621 -414,1799 0,1181 414,1801 414,621 1198,621 z"
         transform="scale(0.015625)" />
    </defs>
  </defs>
  <use
     xlink:href="#mf2e381ca6a"
     x="78.399246"
     y="317.72"
     style="stroke:#000000;stroke-width:0.8"
     id="use1244"
     width="100%"
     height="100%" />
  <use
     xlink:href="#DejaVuSans-2212"
     id="use1255"
     x="0"
     y="0"
     width="100%"
     height="100%"
     transform="matrix(0.1,0,0,-0.1,66.257843,332.31844)" />
  <use
     xlink:href="#DejaVuSans-31"
     x="83.789062"
     id="use1257"
     y="0"
     width="100%"
     height="100%"
     transform="matrix(0.1,0,0,-0.1,66.257843,332.31844)" />
  <use
     xlink:href="#DejaVuSans-2e"
     x="147.41211"
     id="use1259"
     y="0"
     width="100%"
     height="100%"
     transform="matrix(0.1,0,0,-0.1,66.257843,332.31844)" />
  <use
     xlink:href="#DejaVuSans-35"
     x="179.19922"
     id="use1261"
     y="0"
     width="100%"
     height="100%"
     transform="matrix(0.1,0,0,-0.1,66.257843,332.31844)" />
  <use
     xlink:href="#mf2e381ca6a"
     x="133.63217"
     y="317.72"
     style="stroke:#000000;stroke-width:0.8"
     id="use1267"
     width="100%"
     height="100%" />
  <use
     xlink:href="#DejaVuSans-2212"
     id="use1275"
     x="0"
     y="0"
     width="100%"
     height="100%"
     transform="matrix(0.1,0,0,-0.1,121.49077,332.31844)" />
  <use
     xlink:href="#DejaVuSans-31"
     x="83.789062"
     id="use1277"
     y="0"
     width="100%"
     height="100%"
     transform="matrix(0.1,0,0,-0.1,121.49077,332.31844)" />
  <use
     xlink:href="#DejaVuSans-2e"
     x="147.41211"
     id="use1279"
     y="0"
     width="100%"
     height="100%"
     transform="matrix(0.1,0,0,-0.1,121.49077,332.31844)" />
  <use
     xlink:href="#DejaVuSans-30"
     x="179.19922"
     id="use1281"
     y="0"
     width="100%"
     height="100%"
     transform="matrix(0.1,0,0,-0.1,121.49077,332.31844)" />
  <use
     xlink:href="#mf2e381ca6a"
     x="188.8651"
     y="317.72"
     style="stroke:#000000;stroke-width:0.8"
     id="use1287"
     width="100%"
     height="100%" />
  <use
     xlink:href="#DejaVuSans-2212"
     id="use1292"
     x="0"
     y="0"
     width="100%"
     height="100%"
     transform="matrix(0.1,0,0,-0.1,176.72369,332.31844)" />
  <use
     xlink:href="#DejaVuSans-30"
     x="83.789062"
     id="use1294"
     y="0"
     width="100%"
     height="100%"
     transform="matrix(0.1,0,0,-0.1,176.72369,332.31844)" />
  <use
     xlink:href="#DejaVuSans-2e"
     x="147.41211"
     id="use1296"
     y="0"
     width="100%"
     height="100%"
     transform="matrix(0.1,0,0,-0.1,176.72369,332.31844)" />
  <use
     xlink:href="#DejaVuSans-35"
     x="179.19922"
     id="use1298"
     y="0"
     width="100%"
     height="100%"
     transform="matrix(0.1,0,0,-0.1,176.72369,332.31844)" />
  <use
     xlink:href="#mf2e381ca6a"
     x="244.09802"
     y="317.72"
     style="stroke:#000000;stroke-width:0.8"
     id="use1304"
     width="100%"
     height="100%" />
  <use
     xlink:href="#DejaVuSans-30"
     id="use1309"
     x="0"
     y="0"
     width="100%"
     height="100%"
     transform="matrix(0.1,0,0,-0.1,236.14646,332.31844)" />
  <use
     xlink:href="#DejaVuSans-2e"
     x="63.623047"
     id="use1311"
     y="0"
     width="100%"
     height="100%"
     transform="matrix(0.1,0,0,-0.1,236.14646,332.31844)" />
  <use
     xlink:href="#DejaVuSans-30"
     x="95.410156"
     id="use1313"
     y="0"
     width="100%"
     height="100%"
     transform="matrix(0.1,0,0,-0.1,236.14646,332.31844)" />
  <use
     xlink:href="#mf2e381ca6a"
     x="299.33093"
     y="317.72"
     style="stroke:#000000;stroke-width:0.8"
     id="use1319"
     width="100%"
     height="100%" />
  <use
     xlink:href="#DejaVuSans-30"
     id="use1324"
     x="0"
     y="0"
     width="100%"
     height="100%"
     transform="matrix(0.1,0,0,-0.1,291.37938,332.31844)" />
  <use
     xlink:href="#DejaVuSans-2e"
     x="63.623047"
     id="use1326"
     y="0"
     width="100%"
     height="100%"
     transform="matrix(0.1,0,0,-0.1,291.37938,332.31844)" />
  <use
     xlink:href="#DejaVuSans-35"
     x="95.410156"
     id="use1328"
     y="0"
     width="100%"
     height="100%"
     transform="matrix(0.1,0,0,-0.1,291.37938,332.31844)" />
  <use
     xlink:href="#mf2e381ca6a"
     x="354.56387"
     y="317.72"
     style="stroke:#000000;stroke-width:0.8"
     id="use1334"
     width="100%"
     height="100%" />
  <use
     xlink:href="#DejaVuSans-31"
     id="use1339"
     x="0"
     y="0"
     width="100%"
     height="100%"
     transform="matrix(0.1,0,0,-0.1,346.6123,332.31844)" />
  <use
     xlink:href="#DejaVuSans-2e"
     x="63.623047"
     id="use1341"
     y="0"
     width="100%"
     height="100%"
     transform="matrix(0.1,0,0,-0.1,346.6123,332.31844)" />
  <use
     xlink:href="#DejaVuSans-30"
     x="95.410156"
     id="use1343"
     y="0"
     width="100%"
     height="100%"
     transform="matrix(0.1,0,0,-0.1,346.6123,332.31844)" />
  <use
     xlink:href="#mf2e381ca6a"
     x="409.79678"
     y="317.72"
     style="stroke:#000000;stroke-width:0.8"
     id="use1349"
     width="100%"
     height="100%" />
  <use
     xlink:href="#DejaVuSans-31"
     id="use1354"
     x="0"
     y="0"
     width="100%"
     height="100%"
     transform="matrix(0.1,0,0,-0.1,401.84522,332.31844)" />
  <use
     xlink:href="#DejaVuSans-2e"
     x="63.623047"
     id="use1356"
     y="0"
     width="100%"
     height="100%"
     transform="matrix(0.1,0,0,-0.1,401.84522,332.31844)" />
  <use
     xlink:href="#DejaVuSans-35"
     x="95.410156"
     id="use1358"
     y="0"
     width="100%"
     height="100%"
     transform="matrix(0.1,0,0,-0.1,401.84522,332.31844)" />
  <use
     xlink:href="#m801cfbeb66"
     x="42.009998"
     y="298.6557"
     style="stroke:#000000;stroke-width:0.8"
     id="use1368"
     width="100%"
     height="100%" />
  <use
     xlink:href="#DejaVuSans-2212"
     id="use1373"
     x="0"
     y="0"
     width="100%"
     height="100%"
     transform="matrix(0.1,0,0,-0.1,10.727187,302.45491)" />
  <use
     xlink:href="#DejaVuSans-31"
     x="83.789062"
     id="use1375"
     y="0"
     width="100%"
     height="100%"
     transform="matrix(0.1,0,0,-0.1,10.727187,302.45491)" />
  <use
     xlink:href="#DejaVuSans-2e"
     x="147.41211"
     id="use1377"
     y="0"
     width="100%"
     height="100%"
     transform="matrix(0.1,0,0,-0.1,10.727187,302.45491)" />
  <use
     xlink:href="#DejaVuSans-35"
     x="179.19922"
     id="use1379"
     y="0"
     width="100%"
     height="100%"
     transform="matrix(0.1,0,0,-0.1,10.727187,302.45491)" />
  <use
     xlink:href="#m801cfbeb66"
     x="42.009998"
     y="260.09192"
     style="stroke:#000000;stroke-width:0.8"
     id="use1385"
     width="100%"
     height="100%" />
  <use
     xlink:href="#DejaVuSans-2212"
     id="use1390"
     x="0"
     y="0"
     width="100%"
     height="100%"
     transform="matrix(0.1,0,0,-0.1,10.727187,263.89112)" />
  <use
     xlink:href="#DejaVuSans-31"
     x="83.789062"
     id="use1392"
     y="0"
     width="100%"
     height="100%"
     transform="matrix(0.1,0,0,-0.1,10.727187,263.89112)" />
  <use
     xlink:href="#DejaVuSans-2e"
     x="147.41211"
     id="use1394"
     y="0"
     width="100%"
     height="100%"
     transform="matrix(0.1,0,0,-0.1,10.727187,263.89112)" />
  <use
     xlink:href="#DejaVuSans-30"
     x="179.19922"
     id="use1396"
     y="0"
     width="100%"
     height="100%"
     transform="matrix(0.1,0,0,-0.1,10.727187,263.89112)" />
  <use
     xlink:href="#m801cfbeb66"
     x="42.009998"
     y="221.52812"
     style="stroke:#000000;stroke-width:0.8"
     id="use1402"
     width="100%"
     height="100%" />
  <use
     xlink:href="#DejaVuSans-2212"
     id="use1407"
     x="0"
     y="0"
     width="100%"
     height="100%"
     transform="matrix(0.1,0,0,-0.1,10.727187,225.32734)" />
  <use
     xlink:href="#DejaVuSans-30"
     x="83.789062"
     id="use1409"
     y="0"
     width="100%"
     height="100%"
     transform="matrix(0.1,0,0,-0.1,10.727187,225.32734)" />
  <use
     xlink:href="#DejaVuSans-2e"
     x="147.41211"
     id="use1411"
     y="0"
     width="100%"
     height="100%"
     transform="matrix(0.1,0,0,-0.1,10.727187,225.32734)" />
  <use
     xlink:href="#DejaVuSans-35"
     x="179.19922"
     id="use1413"
     y="0"
     width="100%"
     height="100%"
     transform="matrix(0.1,0,0,-0.1,10.727187,225.32734)" />
  <use
     xlink:href="#m801cfbeb66"
     x="42.009998"
     y="182.96434"
     style="stroke:#000000;stroke-width:0.8"
     id="use1419"
     width="100%"
     height="100%" />
  <use
     xlink:href="#DejaVuSans-30"
     id="use1424"
     x="0"
     y="0"
     width="100%"
     height="100%"
     transform="matrix(0.1,0,0,-0.1,19.106875,186.76356)" />
  <use
     xlink:href="#DejaVuSans-2e"
     x="63.623047"
     id="use1426"
     y="0"
     width="100%"
     height="100%"
     transform="matrix(0.1,0,0,-0.1,19.106875,186.76356)" />
  <use
     xlink:href="#DejaVuSans-30"
     x="95.410156"
     id="use1428"
     y="0"
     width="100%"
     height="100%"
     transform="matrix(0.1,0,0,-0.1,19.106875,186.76356)" />
  <use
     xlink:href="#m801cfbeb66"
     x="42.009998"
     y="144.40056"
     style="stroke:#000000;stroke-width:0.8"
     id="use1434"
     width="100%"
     height="100%" />
  <use
     xlink:href="#DejaVuSans-30"
     id="use1439"
     x="0"
     y="0"
     width="100%"
     height="100%"
     transform="matrix(0.1,0,0,-0.1,19.106875,148.19977)" />
  <use
     xlink:href="#DejaVuSans-2e"
     x="63.623047"
     id="use1441"
     y="0"
     width="100%"
     height="100%"
     transform="matrix(0.1,0,0,-0.1,19.106875,148.19977)" />
  <use
     xlink:href="#DejaVuSans-35"
     x="95.410156"
     id="use1443"
     y="0"
     width="100%"
     height="100%"
     transform="matrix(0.1,0,0,-0.1,19.106875,148.19977)" />
  <use
     xlink:href="#m801cfbeb66"
     x="42.009998"
     y="105.83677"
     style="stroke:#000000;stroke-width:0.8"
     id="use1449"
     width="100%"
     height="100%" />
  <use
     xlink:href="#DejaVuSans-31"
     id="use1454"
     x="0"
     y="0"
     width="100%"
     height="100%"
     transform="matrix(0.1,0,0,-0.1,19.106875,109.63599)" />
  <use
     xlink:href="#DejaVuSans-2e"
     x="63.623047"
     id="use1456"
     y="0"
     width="100%"
     height="100%"
     transform="matrix(0.1,0,0,-0.1,19.106875,109.63599)" />
  <use
     xlink:href="#DejaVuSans-30"
     x="95.410156"
     id="use1458"
     y="0"
     width="100%"
     height="100%"
     transform="matrix(0.1,0,0,-0.1,19.106875,109.63599)" />
  <use
     xlink:href="#m801cfbeb66"
     x="42.009998"
     y="67.27298"
     style="stroke:#000000;stroke-width:0.8"
     id="use1464"
     width="100%"
     height="100%" />
  <use
     xlink:href="#DejaVuSans-31"
     id="use1469"
     x="0"
     y="0"
     width="100%"
     height="100%"
     transform="matrix(0.1,0,0,-0.1,19.106875,71.072202)" />
  <use
     xlink:href="#DejaVuSans-2e"
     x="63.623047"
     id="use1471"
     y="0"
     width="100%"
     height="100%"
     transform="matrix(0.1,0,0,-0.1,19.106875,71.072202)" />
  <use
     xlink:href="#DejaVuSans-35"
     x="95.410156"
     id="use1473"
     y="0"
     width="100%"
     height="100%"
     transform="matrix(0.1,0,0,-0.1,19.106875,71.072202)" />
  <use
     xlink:href="#m801cfbeb66"
     x="42.009998"
     y="28.709198"
     style="stroke:#000000;stroke-width:0.8"
     id="use1479"
     width="100%"
     height="100%" />
  <use
     xlink:href="#DejaVuSans-32"
     id="use1487"
     x="0"
     y="0"
     width="100%"
     height="100%"
     transform="matrix(0.1,0,0,-0.1,19.106875,32.508417)" />
  <use
     xlink:href="#DejaVuSans-2e"
     x="63.623047"
     id="use1489"
     y="0"
     width="100%"
     height="100%"
     transform="matrix(0.1,0,0,-0.1,19.106875,32.508417)" />
  <use
     xlink:href="#DejaVuSans-30"
     x="95.410156"
     id="use1491"
     y="0"
     width="100%"
     height="100%"
     transform="matrix(0.1,0,0,-0.1,19.106875,32.508417)" />
  <use
     xlink:href="#mdb65744ed4"
     x="121.82684"
     y="50.521984"
     style="fill:#2ca02c;stroke:#2ca02c"
     id="use1501"
     width="100%"
     height="100%" />
  <use
     xlink:href="#mdb65744ed4"
     x="125.65285"
     y="242.36424"
     style="fill:#2ca02c;stroke:#2ca02c"
     id="use1503"
     width="100%"
     height="100%" />
  <use
     xlink:href="#mdb65744ed4"
     x="132.51056"
     y="116.78177"
     style="fill:#2ca02c;stroke:#2ca02c"
     id="use1505"
     width="100%"
     height="100%" />
  <use
     xlink:href="#mdb65744ed4"
     x="160.06595"
     y="298.16492"
     style="fill:#2ca02c;stroke:#2ca02c"
     id="use1507"
     width="100%"
     height="100%" />
  <use
     xlink:href="#mdb65744ed4"
     x="138.37057"
     y="261.18109"
     style="fill:#2ca02c;stroke:#2ca02c"
     id="use1509"
     width="100%"
     height="100%" />
  <use
     xlink:href="#mdb65744ed4"
     x="130.88196"
     y="85.815193"
     style="fill:#2ca02c;stroke:#2ca02c"
     id="use1511"
     width="100%"
     height="100%" />
  <use
     xlink:href="#mdb65744ed4"
     x="139.01591"
     y="108.45978"
     style="fill:#2ca02c;stroke:#2ca02c"
     id="use1513"
     width="100%"
     height="100%" />
  <use
     xlink:href="#mdb65744ed4"
     x="103.56175"
     y="162.95351"
     style="fill:#2ca02c;stroke:#2ca02c"
     id="use1515"
     width="100%"
     height="100%" />
  <use
     xlink:href="#mdb65744ed4"
     x="210.82358"
     y="50.432468"
     style="fill:#2ca02c;stroke:#2ca02c"
     id="use1517"
     width="100%"
     height="100%" />
  <use
     xlink:href="#mdb65744ed4"
     x="76.637512"
     y="184.88338"
     style="fill:#2ca02c;stroke:#2ca02c"
     id="use1519"
     width="100%"
     height="100%" />
  <use
     xlink:href="#mdb65744ed4"
     x="60.555"
     y="147.22395"
     style="fill:#2ca02c;stroke:#2ca02c"
     id="use1521"
     width="100%"
     height="100%" />
  <use
     xlink:href="#mdb65744ed4"
     x="188.62361"
     y="24.75091"
     style="fill:#2ca02c;stroke:#2ca02c"
     id="use1523"
     width="100%"
     height="100%" />
  <use
     xlink:href="#mdb65744ed4"
     x="149.71968"
     y="34.651009"
     style="fill:#2ca02c;stroke:#2ca02c"
     id="use1525"
     width="100%"
     height="100%" />
  <use
     xlink:href="#mdb65744ed4"
     x="86.828964"
     y="152.74222"
     style="fill:#2ca02c;stroke:#2ca02c"
     id="use1527"
     width="100%"
     height="100%" />
  <use
     xlink:href="#mdb65744ed4"
     x="112.69714"
     y="153.37767"
     style="fill:#2ca02c;stroke:#2ca02c"
     id="use1529"
     width="100%"
     height="100%" />
  <use
     xlink:href="#m810dfcf8d6"
     x="391.1712"
     y="234.00471"
     style="fill:#1f77b4;stroke:#1f77b4"
     id="use1537"
     width="100%"
     height="100%" />
  <use
     xlink:href="#m810dfcf8d6"
     x="424.31992"
     y="97.5411"
     style="fill:#1f77b4;stroke:#1f77b4"
     id="use1539"
     width="100%"
     height="100%" />
  <use
     xlink:href="#m810dfcf8d6"
     x="431.45499"
     y="160.48376"
     style="fill:#1f77b4;stroke:#1f77b4"
     id="use1541"
     width="100%"
     height="100%" />
  <use
     xlink:href="#m810dfcf8d6"
     x="356.48355"
     y="264.88998"
     style="fill:#1f77b4;stroke:#1f77b4"
     id="use1543"
     width="100%"
     height="100%" />
  <use
     xlink:href="#m810dfcf8d6"
     x="362.86087"
     y="260.19763"
     style="fill:#1f77b4;stroke:#1f77b4"
     id="use1545"
     width="100%"
     height="100%" />
  <use
     xlink:href="#m810dfcf8d6"
     x="345.85495"
     y="265.50684"
     style="fill:#1f77b4;stroke:#1f77b4"
     id="use1547"
     width="100%"
     height="100%" />
  <use
     xlink:href="#m810dfcf8d6"
     x="367.84058"
     y="278.61639"
     style="fill:#1f77b4;stroke:#1f77b4"
     id="use1549"
     width="100%"
     height="100%" />
  <use
     xlink:href="#m810dfcf8d6"
     x="345.21103"
     y="117.12015"
     style="fill:#1f77b4;stroke:#1f77b4"
     id="use1551"
     width="100%"
     height="100%" />
  <use
     xlink:href="#m810dfcf8d6"
     x="396.7804"
     y="221.24625"
     style="fill:#1f77b4;stroke:#1f77b4"
     id="use1553"
     width="100%"
     height="100%" />
  <use
     xlink:href="#m810dfcf8d6"
     x="314.10941"
     y="160.80302"
     style="fill:#1f77b4;stroke:#1f77b4"
     id="use1555"
     width="100%"
     height="100%" />
  <use
     xlink:href="#m810dfcf8d6"
     x="338.61816"
     y="259.42459"
     style="fill:#1f77b4;stroke:#1f77b4"
     id="use1557"
     width="100%"
     height="100%" />
  <use
     xlink:href="#m810dfcf8d6"
     x="340.83038"
     y="123.93874"
     style="fill:#1f77b4;stroke:#1f77b4"
     id="use1559"
     width="100%"
     height="100%" />
  <use
     xlink:href="#m810dfcf8d6"
     x="297.27029"
     y="217.38852"
     style="fill:#1f77b4;stroke:#1f77b4"
     id="use1561"
     width="100%"
     height="100%" />
  <use
     xlink:href="#m810dfcf8d6"
     x="403.37256"
     y="226.16237"
     style="fill:#1f77b4;stroke:#1f77b4"
     id="use1563"
     width="100%"
     height="100%" />
  <use
     xlink:href="#m810dfcf8d6"
     x="270.94754"
     y="303.7691"
     style="fill:#1f77b4;stroke:#1f77b4"
     id="use1565"
     width="100%"
     height="100%" />
  <path
     d="M 42.01,317.72 V 10.8"
     style="fill:none;stroke:#000000;stroke-width:0.8;stroke-linecap:square;stroke-linejoin:miter"
     id="path1579" />
  <path
     d="M 450,317.72 V 10.8"
     style="fill:none;stroke:#000000;stroke-width:0.8;stroke-linecap:square;stroke-linejoin:miter"
     id="path1582" />
  <path
     d="M 42.01,317.72 H 450"
     style="fill:none;stroke:#000000;stroke-width:0.8;stroke-linecap:square;stroke-linejoin:miter"
     id="path1585" />
  <path
     d="M 42.01,10.8 H 450"
     style="fill:none;stroke:#000000;stroke-width:0.8;stroke-linecap:square;stroke-linejoin:miter"
     id="path1588" />
  <defs
     id="defs1596">
    <clipPath
       id="p6cfe2d486a">
      <rect
         x="42.01"
         y="10.8"
         width="407.99"
         height="306.92"
         id="rect1593" />
    </clipPath>
  </defs>
  <path
     style="fill:none;stroke:#000000;stroke-width:2.83465;stroke-linecap:butt;stroke-linejoin:miter;stroke-miterlimit:4;stroke-dasharray:none;stroke-opacity:1"
     d="M 172.94264,319.35706 C 399.92439,11.942146 399.92439,11.942146 399.92439,11.942146"
     id="path4801" />
  <path
     style="fill:none;stroke:#000000;stroke-width:2.83465;stroke-linecap:butt;stroke-linejoin:miter;stroke-miterlimit:4;stroke-dasharray:8.50395, 2.83465;stroke-dashoffset:0;stroke-opacity:1"
     d="M 196.8346,320.39706 C 423.81636,12.982142 423.81636,12.982142 423.81636,12.982142"
     id="path4801-5" />
  <path
     style="fill:none;stroke:#000000;stroke-width:2.83465;stroke-linecap:butt;stroke-linejoin:miter;stroke-miterlimit:4;stroke-dasharray:8.50395, 2.83465;stroke-dashoffset:0;stroke-opacity:1"
     d="M 147.55059,318.84717 C 374.53235,11.432259 374.53235,11.432259 374.53235,11.432259"
     id="path4801-5-5" />
</svg>
