<?xml version="1.0" encoding="UTF-8" standalone="no"?>
<svg
   width="460.8pt"
   height="345.6pt"
   viewBox="0 0 460.8 345.6"
   version="1.1"
   id="svg1598"
   sodipodi:docname="linear_separable_h1.svg"
   inkscape:version="1.1.2 (0a00cf5339, 2022-02-04)"
   xmlns:inkscape="http://www.inkscape.org/namespaces/inkscape"
   xmlns:sodipodi="http://sodipodi.sourceforge.net/DTD/sodipodi-0.dtd"
   xmlns:xlink="http://www.w3.org/1999/xlink"
   xmlns="http://www.w3.org/2000/svg"
   xmlns:svg="http://www.w3.org/2000/svg"
   xmlns:rdf="http://www.w3.org/1999/02/22-rdf-syntax-ns#"
   xmlns:cc="http://creativecommons.org/ns#"
   xmlns:dc="http://purl.org/dc/elements/1.1/">
  <sodipodi:namedview
     id="namedview1600"
     pagecolor="#ffffff"
     bordercolor="#666666"
     borderopacity="1.0"
     inkscape:pageshadow="2"
     inkscape:pageopacity="0.0"
     inkscape:pagecheckerboard="0"
     inkscape:document-units="pt"
     showgrid="false"
     inkscape:zoom="1.070035"
     inkscape:cx="195.788"
     inkscape:cy="186.44251"
     inkscape:window-width="1920"
     inkscape:window-height="1016"
     inkscape:window-x="0"
     inkscape:window-y="27"
     inkscape:window-maximized="1"
     inkscape:current-layer="svg1598" />
  <metadata
     id="metadata1229">
    <rdf:RDF>
      <cc:Work>
        <dc:type
           rdf:resource="http://purl.org/dc/dcmitype/StillImage" />
        <dc:date>2023-03-27T10:21:34.877700</dc:date>
        <dc:format>image/svg+xml</dc:format>
        <dc:creator>
          <cc:Agent>
            <dc:title>Matplotlib v3.7.1, https://matplotlib.org/</dc:title>
          </cc:Agent>
        </dc:creator>
      </cc:Work>
    </rdf:RDF>
  </metadata>
  <defs
     id="defs1233">
    <marker
       style="overflow:visible"
       id="Arrow1Mstart"
       refX="0.0"
       refY="0.0"
       orient="auto"
       inkscape:stockid="Arrow1Mstart"
       inkscape:isstock="true">
      <path
         transform="scale(0.4) translate(10,0)"
         style="fill-rule:evenodd;fill:context-stroke;stroke:context-stroke;stroke-width:1.0pt"
         d="M 0.0,0.0 L 5.0,-5.0 L -12.5,0.0 L 5.0,5.0 L 0.0,0.0 z "
         id="path1799" />
    </marker>
    <marker
       style="overflow:visible;"
       id="Arrow1Mend"
       refX="0.0"
       refY="0.0"
       orient="auto"
       inkscape:stockid="Arrow1Mend"
       inkscape:isstock="true">
      <path
         transform="scale(0.4) rotate(180) translate(10,0)"
         style="fill-rule:evenodd;fill:context-stroke;stroke:context-stroke;stroke-width:1.0pt;"
         d="M 0.0,0.0 L 5.0,-5.0 L -12.5,0.0 L 5.0,5.0 L 0.0,0.0 z "
         id="path1802" />
    </marker>
    <style
       type="text/css"
       id="style1231">*{stroke-linejoin: round; stroke-linecap: butt}</style>
  </defs>
  <g
     id="figure_1">
    <g
       id="patch_1">
      <path
         d="M 0 345.6  L 460.8 345.6  L 460.8 0  L 0 0  z "
         style="fill: #ffffff"
         id="path1235" />
    </g>
    <g
       id="axes_1">
      <g
         id="patch_2">
        <path
           d="M 42.01 317.72  L 450 317.72  L 450 10.8  L 42.01 10.8  z "
           style="fill: #ffffff"
           id="path1238" />
      </g>
      <g
         id="matplotlib.axis_1">
        <g
           id="xtick_1">
          <g
             id="line2d_1">
            <defs
               id="defs1242">
              <path
                 id="mf2e381ca6a"
                 d="M 0 0  L 0 3.5  "
                 style="stroke: #000000; stroke-width: 0.8" />
            </defs>
            <g
               id="g1246">
              <use
                 xlink:href="#mf2e381ca6a"
                 x="78.39925"
                 y="317.72"
                 style="stroke: #000000; stroke-width: 0.8"
                 id="use1244" />
            </g>
          </g>
          <g
             id="text_1">
            <!-- −1.5 -->
            <g
               transform="translate(66.257843 332.318437) scale(0.1 -0.1)"
               id="g1263">
              <defs
                 id="defs1253">
                <path
                   id="DejaVuSans-2212"
                   d="M 678 2272  L 4684 2272  L 4684 1741  L 678 1741  L 678 2272  z "
                   transform="scale(0.015625)" />
                <path
                   id="DejaVuSans-31"
                   d="M 794 531  L 1825 531  L 1825 4091  L 703 3866  L 703 4441  L 1819 4666  L 2450 4666  L 2450 531  L 3481 531  L 3481 0  L 794 0  L 794 531  z "
                   transform="scale(0.015625)" />
                <path
                   id="DejaVuSans-2e"
                   d="M 684 794  L 1344 794  L 1344 0  L 684 0  L 684 794  z "
                   transform="scale(0.015625)" />
                <path
                   id="DejaVuSans-35"
                   d="M 691 4666  L 3169 4666  L 3169 4134  L 1269 4134  L 1269 2991  Q 1406 3038 1543 3061  Q 1681 3084 1819 3084  Q 2600 3084 3056 2656  Q 3513 2228 3513 1497  Q 3513 744 3044 326  Q 2575 -91 1722 -91  Q 1428 -91 1123 -41  Q 819 9 494 109  L 494 744  Q 775 591 1075 516  Q 1375 441 1709 441  Q 2250 441 2565 725  Q 2881 1009 2881 1497  Q 2881 1984 2565 2268  Q 2250 2553 1709 2553  Q 1456 2553 1204 2497  Q 953 2441 691 2322  L 691 4666  z "
                   transform="scale(0.015625)" />
              </defs>
              <use
                 xlink:href="#DejaVuSans-2212"
                 id="use1255" />
              <use
                 xlink:href="#DejaVuSans-31"
                 x="83.789062"
                 id="use1257" />
              <use
                 xlink:href="#DejaVuSans-2e"
                 x="147.412109"
                 id="use1259" />
              <use
                 xlink:href="#DejaVuSans-35"
                 x="179.199219"
                 id="use1261" />
            </g>
          </g>
        </g>
        <g
           id="xtick_2">
          <g
             id="line2d_2">
            <g
               id="g1269">
              <use
                 xlink:href="#mf2e381ca6a"
                 x="133.632173"
                 y="317.72"
                 style="stroke: #000000; stroke-width: 0.8"
                 id="use1267" />
            </g>
          </g>
          <g
             id="text_2">
            <!-- −1.0 -->
            <g
               transform="translate(121.490766 332.318437) scale(0.1 -0.1)"
               id="g1283">
              <defs
                 id="defs1273">
                <path
                   id="DejaVuSans-30"
                   d="M 2034 4250  Q 1547 4250 1301 3770  Q 1056 3291 1056 2328  Q 1056 1369 1301 889  Q 1547 409 2034 409  Q 2525 409 2770 889  Q 3016 1369 3016 2328  Q 3016 3291 2770 3770  Q 2525 4250 2034 4250  z M 2034 4750  Q 2819 4750 3233 4129  Q 3647 3509 3647 2328  Q 3647 1150 3233 529  Q 2819 -91 2034 -91  Q 1250 -91 836 529  Q 422 1150 422 2328  Q 422 3509 836 4129  Q 1250 4750 2034 4750  z "
                   transform="scale(0.015625)" />
              </defs>
              <use
                 xlink:href="#DejaVuSans-2212"
                 id="use1275" />
              <use
                 xlink:href="#DejaVuSans-31"
                 x="83.789062"
                 id="use1277" />
              <use
                 xlink:href="#DejaVuSans-2e"
                 x="147.412109"
                 id="use1279" />
              <use
                 xlink:href="#DejaVuSans-30"
                 x="179.199219"
                 id="use1281" />
            </g>
          </g>
        </g>
        <g
           id="xtick_3">
          <g
             id="line2d_3">
            <g
               id="g1289">
              <use
                 xlink:href="#mf2e381ca6a"
                 x="188.865095"
                 y="317.72"
                 style="stroke: #000000; stroke-width: 0.8"
                 id="use1287" />
            </g>
          </g>
          <g
             id="text_3">
            <!-- −0.5 -->
            <g
               transform="translate(176.723689 332.318437) scale(0.1 -0.1)"
               id="g1300">
              <use
                 xlink:href="#DejaVuSans-2212"
                 id="use1292" />
              <use
                 xlink:href="#DejaVuSans-30"
                 x="83.789062"
                 id="use1294" />
              <use
                 xlink:href="#DejaVuSans-2e"
                 x="147.412109"
                 id="use1296" />
              <use
                 xlink:href="#DejaVuSans-35"
                 x="179.199219"
                 id="use1298" />
            </g>
          </g>
        </g>
        <g
           id="xtick_4">
          <g
             id="line2d_4">
            <g
               id="g1306">
              <use
                 xlink:href="#mf2e381ca6a"
                 x="244.098018"
                 y="317.72"
                 style="stroke: #000000; stroke-width: 0.8"
                 id="use1304" />
            </g>
          </g>
          <g
             id="text_4">
            <!-- 0.0 -->
            <g
               transform="translate(236.146456 332.318437) scale(0.1 -0.1)"
               id="g1315">
              <use
                 xlink:href="#DejaVuSans-30"
                 id="use1309" />
              <use
                 xlink:href="#DejaVuSans-2e"
                 x="63.623047"
                 id="use1311" />
              <use
                 xlink:href="#DejaVuSans-30"
                 x="95.410156"
                 id="use1313" />
            </g>
          </g>
        </g>
        <g
           id="xtick_5">
          <g
             id="line2d_5">
            <g
               id="g1321">
              <use
                 xlink:href="#mf2e381ca6a"
                 x="299.330941"
                 y="317.72"
                 style="stroke: #000000; stroke-width: 0.8"
                 id="use1319" />
            </g>
          </g>
          <g
             id="text_5">
            <!-- 0.5 -->
            <g
               transform="translate(291.379378 332.318437) scale(0.1 -0.1)"
               id="g1330">
              <use
                 xlink:href="#DejaVuSans-30"
                 id="use1324" />
              <use
                 xlink:href="#DejaVuSans-2e"
                 x="63.623047"
                 id="use1326" />
              <use
                 xlink:href="#DejaVuSans-35"
                 x="95.410156"
                 id="use1328" />
            </g>
          </g>
        </g>
        <g
           id="xtick_6">
          <g
             id="line2d_6">
            <g
               id="g1336">
              <use
                 xlink:href="#mf2e381ca6a"
                 x="354.563864"
                 y="317.72"
                 style="stroke: #000000; stroke-width: 0.8"
                 id="use1334" />
            </g>
          </g>
          <g
             id="text_6">
            <!-- 1.0 -->
            <g
               transform="translate(346.612301 332.318437) scale(0.1 -0.1)"
               id="g1345">
              <use
                 xlink:href="#DejaVuSans-31"
                 id="use1339" />
              <use
                 xlink:href="#DejaVuSans-2e"
                 x="63.623047"
                 id="use1341" />
              <use
                 xlink:href="#DejaVuSans-30"
                 x="95.410156"
                 id="use1343" />
            </g>
          </g>
        </g>
        <g
           id="xtick_7">
          <g
             id="line2d_7">
            <g
               id="g1351">
              <use
                 xlink:href="#mf2e381ca6a"
                 x="409.796787"
                 y="317.72"
                 style="stroke: #000000; stroke-width: 0.8"
                 id="use1349" />
            </g>
          </g>
          <g
             id="text_7">
            <!-- 1.5 -->
            <g
               transform="translate(401.845224 332.318437) scale(0.1 -0.1)"
               id="g1360">
              <use
                 xlink:href="#DejaVuSans-31"
                 id="use1354" />
              <use
                 xlink:href="#DejaVuSans-2e"
                 x="63.623047"
                 id="use1356" />
              <use
                 xlink:href="#DejaVuSans-35"
                 x="95.410156"
                 id="use1358" />
            </g>
          </g>
        </g>
      </g>
      <g
         id="matplotlib.axis_2">
        <g
           id="ytick_1">
          <g
             id="line2d_8">
            <defs
               id="defs1366">
              <path
                 id="m801cfbeb66"
                 d="M 0 0  L -3.5 0  "
                 style="stroke: #000000; stroke-width: 0.8" />
            </defs>
            <g
               id="g1370">
              <use
                 xlink:href="#m801cfbeb66"
                 x="42.01"
                 y="298.655691"
                 style="stroke: #000000; stroke-width: 0.8"
                 id="use1368" />
            </g>
          </g>
          <g
             id="text_8">
            <!-- −1.5 -->
            <g
               transform="translate(10.727187 302.45491) scale(0.1 -0.1)"
               id="g1381">
              <use
                 xlink:href="#DejaVuSans-2212"
                 id="use1373" />
              <use
                 xlink:href="#DejaVuSans-31"
                 x="83.789062"
                 id="use1375" />
              <use
                 xlink:href="#DejaVuSans-2e"
                 x="147.412109"
                 id="use1377" />
              <use
                 xlink:href="#DejaVuSans-35"
                 x="179.199219"
                 id="use1379" />
            </g>
          </g>
        </g>
        <g
           id="ytick_2">
          <g
             id="line2d_9">
            <g
               id="g1387">
              <use
                 xlink:href="#m801cfbeb66"
                 x="42.01"
                 y="260.091906"
                 style="stroke: #000000; stroke-width: 0.8"
                 id="use1385" />
            </g>
          </g>
          <g
             id="text_9">
            <!-- −1.0 -->
            <g
               transform="translate(10.727187 263.891125) scale(0.1 -0.1)"
               id="g1398">
              <use
                 xlink:href="#DejaVuSans-2212"
                 id="use1390" />
              <use
                 xlink:href="#DejaVuSans-31"
                 x="83.789062"
                 id="use1392" />
              <use
                 xlink:href="#DejaVuSans-2e"
                 x="147.412109"
                 id="use1394" />
              <use
                 xlink:href="#DejaVuSans-30"
                 x="179.199219"
                 id="use1396" />
            </g>
          </g>
        </g>
        <g
           id="ytick_3">
          <g
             id="line2d_10">
            <g
               id="g1404">
              <use
                 xlink:href="#m801cfbeb66"
                 x="42.01"
                 y="221.528122"
                 style="stroke: #000000; stroke-width: 0.8"
                 id="use1402" />
            </g>
          </g>
          <g
             id="text_10">
            <!-- −0.5 -->
            <g
               transform="translate(10.727187 225.32734) scale(0.1 -0.1)"
               id="g1415">
              <use
                 xlink:href="#DejaVuSans-2212"
                 id="use1407" />
              <use
                 xlink:href="#DejaVuSans-30"
                 x="83.789062"
                 id="use1409" />
              <use
                 xlink:href="#DejaVuSans-2e"
                 x="147.412109"
                 id="use1411" />
              <use
                 xlink:href="#DejaVuSans-35"
                 x="179.199219"
                 id="use1413" />
            </g>
          </g>
        </g>
        <g
           id="ytick_4">
          <g
             id="line2d_11">
            <g
               id="g1421">
              <use
                 xlink:href="#m801cfbeb66"
                 x="42.01"
                 y="182.964337"
                 style="stroke: #000000; stroke-width: 0.8"
                 id="use1419" />
            </g>
          </g>
          <g
             id="text_11">
            <!-- 0.0 -->
            <g
               transform="translate(19.106875 186.763556) scale(0.1 -0.1)"
               id="g1430">
              <use
                 xlink:href="#DejaVuSans-30"
                 id="use1424" />
              <use
                 xlink:href="#DejaVuSans-2e"
                 x="63.623047"
                 id="use1426" />
              <use
                 xlink:href="#DejaVuSans-30"
                 x="95.410156"
                 id="use1428" />
            </g>
          </g>
        </g>
        <g
           id="ytick_5">
          <g
             id="line2d_12">
            <g
               id="g1436">
              <use
                 xlink:href="#m801cfbeb66"
                 x="42.01"
                 y="144.400552"
                 style="stroke: #000000; stroke-width: 0.8"
                 id="use1434" />
            </g>
          </g>
          <g
             id="text_12">
            <!-- 0.5 -->
            <g
               transform="translate(19.106875 148.199771) scale(0.1 -0.1)"
               id="g1445">
              <use
                 xlink:href="#DejaVuSans-30"
                 id="use1439" />
              <use
                 xlink:href="#DejaVuSans-2e"
                 x="63.623047"
                 id="use1441" />
              <use
                 xlink:href="#DejaVuSans-35"
                 x="95.410156"
                 id="use1443" />
            </g>
          </g>
        </g>
        <g
           id="ytick_6">
          <g
             id="line2d_13">
            <g
               id="g1451">
              <use
                 xlink:href="#m801cfbeb66"
                 x="42.01"
                 y="105.836768"
                 style="stroke: #000000; stroke-width: 0.8"
                 id="use1449" />
            </g>
          </g>
          <g
             id="text_13">
            <!-- 1.0 -->
            <g
               transform="translate(19.106875 109.635986) scale(0.1 -0.1)"
               id="g1460">
              <use
                 xlink:href="#DejaVuSans-31"
                 id="use1454" />
              <use
                 xlink:href="#DejaVuSans-2e"
                 x="63.623047"
                 id="use1456" />
              <use
                 xlink:href="#DejaVuSans-30"
                 x="95.410156"
                 id="use1458" />
            </g>
          </g>
        </g>
        <g
           id="ytick_7">
          <g
             id="line2d_14">
            <g
               id="g1466">
              <use
                 xlink:href="#m801cfbeb66"
                 x="42.01"
                 y="67.272983"
                 style="stroke: #000000; stroke-width: 0.8"
                 id="use1464" />
            </g>
          </g>
          <g
             id="text_14">
            <!-- 1.5 -->
            <g
               transform="translate(19.106875 71.072202) scale(0.1 -0.1)"
               id="g1475">
              <use
                 xlink:href="#DejaVuSans-31"
                 id="use1469" />
              <use
                 xlink:href="#DejaVuSans-2e"
                 x="63.623047"
                 id="use1471" />
              <use
                 xlink:href="#DejaVuSans-35"
                 x="95.410156"
                 id="use1473" />
            </g>
          </g>
        </g>
        <g
           id="ytick_8">
          <g
             id="line2d_15">
            <g
               id="g1481">
              <use
                 xlink:href="#m801cfbeb66"
                 x="42.01"
                 y="28.709198"
                 style="stroke: #000000; stroke-width: 0.8"
                 id="use1479" />
            </g>
          </g>
          <g
             id="text_15">
            <!-- 2.0 -->
            <g
               transform="translate(19.106875 32.508417) scale(0.1 -0.1)"
               id="g1493">
              <defs
                 id="defs1485">
                <path
                   id="DejaVuSans-32"
                   d="M 1228 531  L 3431 531  L 3431 0  L 469 0  L 469 531  Q 828 903 1448 1529  Q 2069 2156 2228 2338  Q 2531 2678 2651 2914  Q 2772 3150 2772 3378  Q 2772 3750 2511 3984  Q 2250 4219 1831 4219  Q 1534 4219 1204 4116  Q 875 4013 500 3803  L 500 4441  Q 881 4594 1212 4672  Q 1544 4750 1819 4750  Q 2544 4750 2975 4387  Q 3406 4025 3406 3419  Q 3406 3131 3298 2873  Q 3191 2616 2906 2266  Q 2828 2175 2409 1742  Q 1991 1309 1228 531  z "
                   transform="scale(0.015625)" />
              </defs>
              <use
                 xlink:href="#DejaVuSans-32"
                 id="use1487" />
              <use
                 xlink:href="#DejaVuSans-2e"
                 x="63.623047"
                 id="use1489" />
              <use
                 xlink:href="#DejaVuSans-30"
                 x="95.410156"
                 id="use1491" />
            </g>
          </g>
        </g>
      </g>
      <g
         id="line2d_16">
        <defs
           id="defs1499">
          <path
             id="mdb65744ed4"
             d="M 0 5  C 1.326016 5 2.597899 4.473168 3.535534 3.535534  C 4.473168 2.597899 5 1.326016 5 0  C 5 -1.326016 4.473168 -2.597899 3.535534 -3.535534  C 2.597899 -4.473168 1.326016 -5 0 -5  C -1.326016 -5 -2.597899 -4.473168 -3.535534 -3.535534  C -4.473168 -2.597899 -5 -1.326016 -5 0  C -5 1.326016 -4.473168 2.597899 -3.535534 3.535534  C -2.597899 4.473168 -1.326016 5 0 5  z "
             style="stroke: #2ca02c" />
        </defs>
        <g
           clip-path="url(#p6cfe2d486a)"
           id="g1531">
          <use
             xlink:href="#mdb65744ed4"
             x="121.826842"
             y="50.521986"
             style="fill: #2ca02c; stroke: #2ca02c"
             id="use1501" />
          <use
             xlink:href="#mdb65744ed4"
             x="125.652845"
             y="242.364235"
             style="fill: #2ca02c; stroke: #2ca02c"
             id="use1503" />
          <use
             xlink:href="#mdb65744ed4"
             x="132.510556"
             y="116.781767"
             style="fill: #2ca02c; stroke: #2ca02c"
             id="use1505" />
          <use
             xlink:href="#mdb65744ed4"
             x="160.065955"
             y="298.16491"
             style="fill: #2ca02c; stroke: #2ca02c"
             id="use1507" />
          <use
             xlink:href="#mdb65744ed4"
             x="138.370576"
             y="261.18109"
             style="fill: #2ca02c; stroke: #2ca02c"
             id="use1509" />
          <use
             xlink:href="#mdb65744ed4"
             x="130.881959"
             y="85.815191"
             style="fill: #2ca02c; stroke: #2ca02c"
             id="use1511" />
          <use
             xlink:href="#mdb65744ed4"
             x="139.015916"
             y="108.459776"
             style="fill: #2ca02c; stroke: #2ca02c"
             id="use1513" />
          <use
             xlink:href="#mdb65744ed4"
             x="103.561751"
             y="162.953507"
             style="fill: #2ca02c; stroke: #2ca02c"
             id="use1515" />
          <use
             xlink:href="#mdb65744ed4"
             x="210.823578"
             y="50.432469"
             style="fill: #2ca02c; stroke: #2ca02c"
             id="use1517" />
          <use
             xlink:href="#mdb65744ed4"
             x="76.637515"
             y="184.883374"
             style="fill: #2ca02c; stroke: #2ca02c"
             id="use1519" />
          <use
             xlink:href="#mdb65744ed4"
             x="60.555"
             y="147.223949"
             style="fill: #2ca02c; stroke: #2ca02c"
             id="use1521" />
          <use
             xlink:href="#mdb65744ed4"
             x="188.623617"
             y="24.750909"
             style="fill: #2ca02c; stroke: #2ca02c"
             id="use1523" />
          <use
             xlink:href="#mdb65744ed4"
             x="149.719684"
             y="34.651007"
             style="fill: #2ca02c; stroke: #2ca02c"
             id="use1525" />
          <use
             xlink:href="#mdb65744ed4"
             x="86.828961"
             y="152.742218"
             style="fill: #2ca02c; stroke: #2ca02c"
             id="use1527" />
          <use
             xlink:href="#mdb65744ed4"
             x="112.69714"
             y="153.377667"
             style="fill: #2ca02c; stroke: #2ca02c"
             id="use1529" />
        </g>
      </g>
      <g
         id="line2d_17">
        <defs
           id="defs1535">
          <path
             id="m810dfcf8d6"
             d="M 0 5  C 1.326016 5 2.597899 4.473168 3.535534 3.535534  C 4.473168 2.597899 5 1.326016 5 0  C 5 -1.326016 4.473168 -2.597899 3.535534 -3.535534  C 2.597899 -4.473168 1.326016 -5 0 -5  C -1.326016 -5 -2.597899 -4.473168 -3.535534 -3.535534  C -4.473168 -2.597899 -5 -1.326016 -5 0  C -5 1.326016 -4.473168 2.597899 -3.535534 3.535534  C -2.597899 4.473168 -1.326016 5 0 5  z "
             style="stroke: #1f77b4" />
        </defs>
        <g
           clip-path="url(#p6cfe2d486a)"
           id="g1567">
          <use
             xlink:href="#m810dfcf8d6"
             x="391.171195"
             y="234.004718"
             style="fill: #1f77b4; stroke: #1f77b4"
             id="use1537" />
          <use
             xlink:href="#m810dfcf8d6"
             x="424.319913"
             y="97.541102"
             style="fill: #1f77b4; stroke: #1f77b4"
             id="use1539" />
          <use
             xlink:href="#m810dfcf8d6"
             x="431.455"
             y="160.483772"
             style="fill: #1f77b4; stroke: #1f77b4"
             id="use1541" />
          <use
             xlink:href="#m810dfcf8d6"
             x="356.483543"
             y="264.889979"
             style="fill: #1f77b4; stroke: #1f77b4"
             id="use1543" />
          <use
             xlink:href="#m810dfcf8d6"
             x="362.860885"
             y="260.197641"
             style="fill: #1f77b4; stroke: #1f77b4"
             id="use1545" />
          <use
             xlink:href="#m810dfcf8d6"
             x="345.854963"
             y="265.506844"
             style="fill: #1f77b4; stroke: #1f77b4"
             id="use1547" />
          <use
             xlink:href="#m810dfcf8d6"
             x="367.840562"
             y="278.616394"
             style="fill: #1f77b4; stroke: #1f77b4"
             id="use1549" />
          <use
             xlink:href="#m810dfcf8d6"
             x="345.21102"
             y="117.120149"
             style="fill: #1f77b4; stroke: #1f77b4"
             id="use1551" />
          <use
             xlink:href="#m810dfcf8d6"
             x="396.780381"
             y="221.246251"
             style="fill: #1f77b4; stroke: #1f77b4"
             id="use1553" />
          <use
             xlink:href="#m810dfcf8d6"
             x="314.109408"
             y="160.803027"
             style="fill: #1f77b4; stroke: #1f77b4"
             id="use1555" />
          <use
             xlink:href="#m810dfcf8d6"
             x="338.618159"
             y="259.424601"
             style="fill: #1f77b4; stroke: #1f77b4"
             id="use1557" />
          <use
             xlink:href="#m810dfcf8d6"
             x="340.830385"
             y="123.938738"
             style="fill: #1f77b4; stroke: #1f77b4"
             id="use1559" />
          <use
             xlink:href="#m810dfcf8d6"
             x="297.270293"
             y="217.388519"
             style="fill: #1f77b4; stroke: #1f77b4"
             id="use1561" />
          <use
             xlink:href="#m810dfcf8d6"
             x="403.372563"
             y="226.162373"
             style="fill: #1f77b4; stroke: #1f77b4"
             id="use1563" />
          <use
             xlink:href="#m810dfcf8d6"
             x="270.947527"
             y="303.769091"
             style="fill: #1f77b4; stroke: #1f77b4"
             id="use1565" />
        </g>
      </g>
      <g
         id="PathCollection_1">
        <path
           d="M 156.044452 317.72  L 158.213736 307.136552  L 160.38302 296.553103  L 162.552304 285.969655  L 164.721588 275.386207  L 166.890871 264.802759  L 168.627586 256.329717  L 169.060155 254.21931  L 171.229439 243.635862  L 173.398723 233.052414  L 175.568007 222.468966  L 177.737291 211.885517  L 179.906574 201.302069  L 182.075858 190.718621  L 182.696207 187.692079  L 184.245142 180.135172  L 186.414426 169.551724  L 188.58371 158.968276  L 190.752994 148.384828  L 192.922277 137.801379  L 195.091561 127.217931  L 196.764828 119.054441  L 197.260845 116.634483  L 199.430129 106.051034  L 201.599413 95.467586  L 203.768697 84.884138  L 205.93798 74.30069  L 208.107264 63.717241  L 210.276548 53.133793  L 210.833448 50.416802  L 212.445832 42.550345  L 214.615116 31.966897  L 216.7844 21.383448  L 218.953683 10.8  "
           clip-path="url(#p6cfe2d486a)"
           style="fill: none; stroke-dasharray: 7.4,3.2; stroke-dashoffset: 0; stroke: #000000; stroke-width: 2"
           id="path1570" />
      </g>
      <g
         id="PathCollection_2">
        <path
           d="M 212.06956 317.72  L 214.238843 307.136552  L 216.408127 296.553103  L 218.577411 285.969655  L 220.746695 275.386207  L 222.915979 264.802759  L 224.902069 255.113071  L 225.085263 254.21931  L 227.254547 243.635862  L 229.42383 233.052414  L 231.593114 222.468966  L 233.762398 211.885517  L 235.931682 201.302069  L 238.100966 190.718621  L 238.97069 186.475433  L 240.27025 180.135172  L 242.439533 169.551724  L 244.608817 158.968276  L 246.778101 148.384828  L 248.947385 137.801379  L 251.116669 127.217931  L 253.03931 117.837795  L 253.285953 116.634483  L 255.455236 106.051034  L 257.62452 95.467586  L 259.793804 84.884138  L 261.963088 74.30069  L 264.132372 63.717241  L 266.301656 53.133793  L 267.107931 49.200156  L 268.470939 42.550345  L 270.640223 31.966897  L 272.809507 21.383448  L 274.978791 10.8  "
           clip-path="url(#p6cfe2d486a)"
           style="fill: none; stroke: #000000; stroke-width: 2"
           id="path1573" />
      </g>
      <g
         id="PathCollection_3">
        <path
           d="M 268.094667 317.72  L 270.263951 307.136552  L 272.433235 296.553103  L 274.602519 285.969655  L 276.771802 275.386207  L 278.941086 264.802759  L 281.11037 254.21931  L 281.176552 253.896425  L 283.279654 243.635862  L 285.448938 233.052414  L 287.618222 222.468966  L 289.787505 211.885517  L 291.956789 201.302069  L 294.126073 190.718621  L 295.245172 185.258787  L 296.295357 180.135172  L 298.464641 169.551724  L 300.633925 158.968276  L 302.803208 148.384828  L 304.972492 137.801379  L 307.141776 127.217931  L 309.31106 116.634483  L 309.313793 116.621149  L 311.480344 106.051034  L 313.649628 95.467586  L 315.818912 84.884138  L 317.988195 74.30069  L 320.157479 63.717241  L 322.326763 53.133793  L 323.382414 47.98351  L 324.496047 42.550345  L 326.665331 31.966897  L 328.834615 21.383448  L 331.003898 10.8  "
           clip-path="url(#p6cfe2d486a)"
           style="fill: none; stroke-dasharray: 7.4,3.2; stroke-dashoffset: 0; stroke: #000000; stroke-width: 2"
           id="path1576" />
      </g>
      <g
         id="patch_3">
        <path
           d="M 42.01 317.72  L 42.01 10.8  "
           style="fill: none; stroke: #000000; stroke-width: 0.8; stroke-linejoin: miter; stroke-linecap: square"
           id="path1579" />
      </g>
      <g
         id="patch_4">
        <path
           d="M 450 317.72  L 450 10.8  "
           style="fill: none; stroke: #000000; stroke-width: 0.8; stroke-linejoin: miter; stroke-linecap: square"
           id="path1582" />
      </g>
      <g
         id="patch_5">
        <path
           d="M 42.01 317.72  L 450 317.72  "
           style="fill: none; stroke: #000000; stroke-width: 0.8; stroke-linejoin: miter; stroke-linecap: square"
           id="path1585" />
      </g>
      <g
         id="patch_6">
        <path
           d="M 42.01 10.8  L 450 10.8  "
           style="fill: none; stroke: #000000; stroke-width: 0.8; stroke-linejoin: miter; stroke-linecap: square"
           id="path1588" />
      </g>
    </g>
  </g>
  <defs
     id="defs1596">
    <clipPath
       id="p6cfe2d486a">
      <rect
         x="42.01"
         y="10.8"
         width="407.99"
         height="306.92"
         id="rect1593" />
    </clipPath>
  </defs>
  <path
     style="fill:#ef2929;stroke:#ef2929;stroke-width:2.83464567;stroke-linecap:butt;stroke-linejoin:miter;stroke-opacity:1;stroke-miterlimit:4;stroke-dasharray:none;marker-end:url(#Arrow1Mend);marker-start:url(#Arrow1Mstart)"
     d="m 189.57781,152.87107 105.9401,18.82584"
     id="path1715"
     sodipodi:nodetypes="cc" />
</svg>
