<?xml version="1.0" encoding="utf-8" standalone="no"?>
<!DOCTYPE svg PUBLIC "-//W3C//DTD SVG 1.1//EN"
  "http://www.w3.org/Graphics/SVG/1.1/DTD/svg11.dtd">
<!-- Created with matplotlib (http://matplotlib.org/) -->
<svg height="345pt" version="1.1" viewBox="0 0 460 345" width="460pt" xmlns="http://www.w3.org/2000/svg" xmlns:xlink="http://www.w3.org/1999/xlink">
 <defs>
  <style type="text/css">
*{stroke-linecap:butt;stroke-linejoin:round;}
  </style>
 </defs>
 <g id="figure_1">
  <g id="patch_1">
   <path d="M 0 345.6 
L 460.8 345.6 
L 460.8 0 
L 0 0 
z
" style="fill:#ffffff;"/>
  </g>
  <g id="axes_1">
   <g id="patch_2">
    <path d="M 57.6 307.584 
L 414.72 307.584 
L 414.72 41.472 
L 57.6 41.472 
z
" style="fill:#ffffff;"/>
   </g>
   <g id="PathCollection_1">
    <defs>
     <path d="M 0 3 
C 0.795609 3 1.55874 2.683901 2.12132 2.12132 
C 2.683901 1.55874 3 0.795609 3 0 
C 3 -0.795609 2.683901 -1.55874 2.12132 -2.12132 
C 1.55874 -2.683901 0.795609 -3 0 -3 
C -0.795609 -3 -1.55874 -2.683901 -2.12132 -2.12132 
C -2.683901 -1.55874 -3 -0.795609 -3 0 
C -3 0.795609 -2.683901 1.55874 -2.12132 2.12132 
C -1.55874 2.683901 -0.795609 3 0 3 
z
" id="ma11f33d564" style="stroke:#000000;"/>
    </defs>
    <g clip-path="url(#p4865c18b72)">
     <use style="stroke:#000000;" x="367.243837" xlink:href="#ma11f33d564" y="124.669715"/>
     <use style="stroke:#000000;" x="149.104322" xlink:href="#ma11f33d564" y="255.778538"/>
     <use style="stroke:#000000;" x="243.16448" xlink:href="#ma11f33d564" y="237.312507"/>
     <use style="stroke:#000000;" x="147.103042" xlink:href="#ma11f33d564" y="199.457142"/>
     <use style="stroke:#000000;" x="159.110722" xlink:href="#ma11f33d564" y="229.002793"/>
     <use style="stroke:#000000;" x="233.15808" xlink:href="#ma11f33d564" y="277.937776"/>
     <use style="stroke:#000000;" x="387.256636" xlink:href="#ma11f33d564" y="53.575494"/>
     <use style="stroke:#000000;" x="161.112002" xlink:href="#ma11f33d564" y="253.008633"/>
     <use style="stroke:#000000;" x="117.083843" xlink:href="#ma11f33d564" y="170.834794"/>
     <use style="stroke:#000000;" x="165.114562" xlink:href="#ma11f33d564" y="278.861077"/>
     <use style="stroke:#000000;" x="325.216958" xlink:href="#ma11f33d564" y="180.067809"/>
     <use style="stroke:#000000;" x="111.080003" xlink:href="#ma11f33d564" y="273.321268"/>
     <use style="stroke:#000000;" x="225.15296" xlink:href="#ma11f33d564" y="294.557204"/>
     <use style="stroke:#000000;" x="179.123521" xlink:href="#ma11f33d564" y="280.707681"/>
     <use style="stroke:#000000;" x="85.063364" xlink:href="#ma11f33d564" y="295.480506"/>
     <use style="stroke:#000000;" x="259.174719" xlink:href="#ma11f33d564" y="175.451302"/>
     <use style="stroke:#000000;" x="193.132481" xlink:href="#ma11f33d564" y="243.775618"/>
     <use style="stroke:#000000;" x="193.132481" xlink:href="#ma11f33d564" y="217.923174"/>
     <use style="stroke:#000000;" x="295.197758" xlink:href="#ma11f33d564" y="136.672636"/>
     <use style="stroke:#000000;" x="87.064644" xlink:href="#ma11f33d564" y="287.170792"/>
    </g>
   </g>
   <g id="matplotlib.axis_1"/>
   <g id="matplotlib.axis_2"/>
   <g id="line2d_1">
    <path clip-path="url(#p4865c18b72)" d="M 367.243837 131.157534 
L 149.104322 232.929009 
L 243.16448 189.045896 
L 147.103042 233.862692 
L 159.110722 228.260593 
L 233.15808 193.714312 
L 387.256636 121.820701 
L 161.112002 227.32691 
L 117.083843 247.867941 
L 165.114562 225.459543 
L 325.216958 150.764882 
L 111.080003 250.668991 
L 225.15296 197.449045 
L 179.123521 218.92376 
L 85.063364 262.806873 
L 259.174719 181.57643 
L 193.132481 212.387977 
L 193.132481 212.387977 
L 295.197758 164.770131 
L 87.064644 261.87319 
" style="fill:none;stroke:#0000ff;stroke-linecap:square;stroke-width:3;"/>
   </g>
   <g id="patch_3">
    <path d="M 57.6 307.584 
L 57.6 41.472 
" style="fill:none;stroke:#000000;stroke-linecap:square;stroke-linejoin:miter;stroke-width:0.8;"/>
   </g>
   <g id="patch_4">
    <path d="M 414.72 307.584 
L 414.72 41.472 
" style="fill:none;stroke:#000000;stroke-linecap:square;stroke-linejoin:miter;stroke-width:0.8;"/>
   </g>
   <g id="patch_5">
    <path d="M 57.6 307.584 
L 414.72 307.584 
" style="fill:none;stroke:#000000;stroke-linecap:square;stroke-linejoin:miter;stroke-width:0.8;"/>
   </g>
   <g id="patch_6">
    <path d="M 57.6 41.472 
L 414.72 41.472 
" style="fill:none;stroke:#000000;stroke-linecap:square;stroke-linejoin:miter;stroke-width:0.8;"/>
   </g>
  </g>
 </g>
 <defs>
  <clipPath id="p4865c18b72">
   <rect height="266.112" width="357.12" x="57.6" y="41.472"/>
  </clipPath>
 </defs>
</svg>
