<?xml version="1.0" encoding="utf-8" standalone="no"?>
<!DOCTYPE svg PUBLIC "-//W3C//DTD SVG 1.1//EN"
  "http://www.w3.org/Graphics/SVG/1.1/DTD/svg11.dtd">
<!-- Created with matplotlib (https://matplotlib.org/) -->
<svg height="288pt" version="1.1" viewBox="0 0 432 288" width="432pt" xmlns="http://www.w3.org/2000/svg" xmlns:xlink="http://www.w3.org/1999/xlink">
 <defs>
  <style type="text/css">
*{stroke-linecap:butt;stroke-linejoin:round;}
  </style>
 </defs>
 <g id="figure_1">
  <g id="patch_1">
   <path d="M 0 288 
L 432 288 
L 432 0 
L 0 0 
z
" style="fill:#ffffff;"/>
  </g>
  <g id="axes_1">
   <g id="patch_2">
    <path d="M 54 252 
L 388.8 252 
L 388.8 34.56 
L 54 34.56 
z
" style="fill:#ffffff;"/>
   </g>
   <g id="PathCollection_1">
    <defs>
     <path d="M 0 3 
C 0.795609 3 1.55874 2.683901 2.12132 2.12132 
C 2.683901 1.55874 3 0.795609 3 0 
C 3 -0.795609 2.683901 -1.55874 2.12132 -2.12132 
C 1.55874 -2.683901 0.795609 -3 0 -3 
C -0.795609 -3 -1.55874 -2.683901 -2.12132 -2.12132 
C -2.683901 -1.55874 -3 -0.795609 -3 0 
C -3 0.795609 -2.683901 1.55874 -2.12132 2.12132 
C -1.55874 2.683901 -0.795609 3 0 3 
z
" id="m32f9dae2f8" style="stroke:#000080;stroke-opacity:0.8;stroke-width:2;"/>
    </defs>
    <g clip-path="url(#p7ee6a588e0)">
     <use style="fill:#000080;fill-opacity:0.8;stroke:#000080;stroke-opacity:0.8;stroke-width:2;" x="348.090375" xlink:href="#m32f9dae2f8" y="126.108025"/>
     <use style="fill:#000080;fill-opacity:0.8;stroke:#000080;stroke-opacity:0.8;stroke-width:2;" x="338.899921" xlink:href="#m32f9dae2f8" y="168.829134"/>
     <use style="fill:#000080;fill-opacity:0.8;stroke:#000080;stroke-opacity:0.8;stroke-width:2;" x="353.068513" xlink:href="#m32f9dae2f8" y="156.531843"/>
     <use style="fill:#000080;fill-opacity:0.8;stroke:#000080;stroke-opacity:0.8;stroke-width:2;" x="349.825081" xlink:href="#m32f9dae2f8" y="165.988646"/>
     <use style="fill:#000080;fill-opacity:0.8;stroke:#000080;stroke-opacity:0.8;stroke-width:2;" x="354.349638" xlink:href="#m32f9dae2f8" y="119.933616"/>
     <use style="fill:#000080;fill-opacity:0.8;stroke:#000080;stroke-opacity:0.8;stroke-width:2;" x="338.633313" xlink:href="#m32f9dae2f8" y="88.754416"/>
     <use style="fill:#000080;fill-opacity:0.8;stroke:#000080;stroke-opacity:0.8;stroke-width:2;" x="357.059966" xlink:href="#m32f9dae2f8" y="142.112611"/>
     <use style="fill:#000080;fill-opacity:0.8;stroke:#000080;stroke-opacity:0.8;stroke-width:2;" x="346.497008" xlink:href="#m32f9dae2f8" y="135.616355"/>
     <use style="fill:#000080;fill-opacity:0.8;stroke:#000080;stroke-opacity:0.8;stroke-width:2;" x="351.588541" xlink:href="#m32f9dae2f8" y="185.159885"/>
     <use style="fill:#000080;fill-opacity:0.8;stroke:#000080;stroke-opacity:0.8;stroke-width:2;" x="344.070169" xlink:href="#m32f9dae2f8" y="161.23664"/>
     <use style="fill:#000080;fill-opacity:0.8;stroke:#000080;stroke-opacity:0.8;stroke-width:2;" x="343.168934" xlink:href="#m32f9dae2f8" y="105.244063"/>
     <use style="fill:#000080;fill-opacity:0.8;stroke:#000080;stroke-opacity:0.8;stroke-width:2;" x="351.162904" xlink:href="#m32f9dae2f8" y="138.950276"/>
     <use style="fill:#000080;fill-opacity:0.8;stroke:#000080;stroke-opacity:0.8;stroke-width:2;" x="345.776931" xlink:href="#m32f9dae2f8" y="170.848022"/>
     <use style="fill:#000080;fill-opacity:0.8;stroke:#000080;stroke-opacity:0.8;stroke-width:2;" x="366.517027" xlink:href="#m32f9dae2f8" y="179.466219"/>
     <use style="fill:#000080;fill-opacity:0.8;stroke:#000080;stroke-opacity:0.8;stroke-width:2;" x="344.791055" xlink:href="#m32f9dae2f8" y="75.02635"/>
     <use style="fill:#000080;fill-opacity:0.8;stroke:#000080;stroke-opacity:0.8;stroke-width:2;" x="347.965915" xlink:href="#m32f9dae2f8" y="44.443636"/>
     <use style="fill:#000080;fill-opacity:0.8;stroke:#000080;stroke-opacity:0.8;stroke-width:2;" x="345.233571" xlink:href="#m32f9dae2f8" y="88.960521"/>
     <use style="fill:#000080;fill-opacity:0.8;stroke:#000080;stroke-opacity:0.8;stroke-width:2;" x="344.371346" xlink:href="#m32f9dae2f8" y="125.78186"/>
     <use style="fill:#000080;fill-opacity:0.8;stroke:#000080;stroke-opacity:0.8;stroke-width:2;" x="329.777118" xlink:href="#m32f9dae2f8" y="91.869542"/>
     <use style="fill:#000080;fill-opacity:0.8;stroke:#000080;stroke-opacity:0.8;stroke-width:2;" x="352.02513" xlink:href="#m32f9dae2f8" y="102.128937"/>
     <use style="fill:#000080;fill-opacity:0.8;stroke:#000080;stroke-opacity:0.8;stroke-width:2;" x="330.564957" xlink:href="#m32f9dae2f8" y="128.742407"/>
     <use style="fill:#000080;fill-opacity:0.8;stroke:#000080;stroke-opacity:0.8;stroke-width:2;" x="345.204818" xlink:href="#m32f9dae2f8" y="109.669905"/>
     <use style="fill:#000080;fill-opacity:0.8;stroke:#000080;stroke-opacity:0.8;stroke-width:2;" x="373.581818" xlink:href="#m32f9dae2f8" y="126.910616"/>
     <use style="fill:#000080;fill-opacity:0.8;stroke:#000080;stroke-opacity:0.8;stroke-width:2;" x="325.780529" xlink:href="#m32f9dae2f8" y="140.709216"/>
     <use style="fill:#000080;fill-opacity:0.8;stroke:#000080;stroke-opacity:0.8;stroke-width:2;" x="346.212711" xlink:href="#m32f9dae2f8" y="138.795697"/>
     <use style="fill:#000080;fill-opacity:0.8;stroke:#000080;stroke-opacity:0.8;stroke-width:2;" x="332.441812" xlink:href="#m32f9dae2f8" y="167.033358"/>
     <use style="fill:#000080;fill-opacity:0.8;stroke:#000080;stroke-opacity:0.8;stroke-width:2;" x="337.408886" xlink:href="#m32f9dae2f8" y="134.912499"/>
     <use style="fill:#000080;fill-opacity:0.8;stroke:#000080;stroke-opacity:0.8;stroke-width:2;" x="343.28233" xlink:href="#m32f9dae2f8" y="124.363775"/>
     <use style="fill:#000080;fill-opacity:0.8;stroke:#000080;stroke-opacity:0.8;stroke-width:2;" x="341.831111" xlink:href="#m32f9dae2f8" y="132.282433"/>
     <use style="fill:#000080;fill-opacity:0.8;stroke:#000080;stroke-opacity:0.8;stroke-width:2;" x="348.118319" xlink:href="#m32f9dae2f8" y="156.377264"/>
     <use style="fill:#000080;fill-opacity:0.8;stroke:#000080;stroke-opacity:0.8;stroke-width:2;" x="341.859056" xlink:href="#m32f9dae2f8" y="162.551673"/>
     <use style="fill:#000080;fill-opacity:0.8;stroke:#000080;stroke-opacity:0.8;stroke-width:2;" x="326.427028" xlink:href="#m32f9dae2f8" y="128.19313"/>
     <use style="fill:#000080;fill-opacity:0.8;stroke:#000080;stroke-opacity:0.8;stroke-width:2;" x="365.609056" xlink:href="#m32f9dae2f8" y="77.487146"/>
     <use style="fill:#000080;fill-opacity:0.8;stroke:#000080;stroke-opacity:0.8;stroke-width:2;" x="357.167433" xlink:href="#m32f9dae2f8" y="64.267204"/>
     <use style="fill:#000080;fill-opacity:0.8;stroke:#000080;stroke-opacity:0.8;stroke-width:2;" x="340.35114" xlink:href="#m32f9dae2f8" y="160.910475"/>
     <use style="fill:#000080;fill-opacity:0.8;stroke:#000080;stroke-opacity:0.8;stroke-width:2;" x="345.244636" xlink:href="#m32f9dae2f8" y="151.505198"/>
     <use style="fill:#000080;fill-opacity:0.8;stroke:#000080;stroke-opacity:0.8;stroke-width:2;" x="337.108517" xlink:href="#m32f9dae2f8" y="119.388656"/>
     <use style="fill:#000080;fill-opacity:0.8;stroke:#000080;stroke-opacity:0.8;stroke-width:2;" x="361.226648" xlink:href="#m32f9dae2f8" y="121.952505"/>
     <use style="fill:#000080;fill-opacity:0.8;stroke:#000080;stroke-opacity:0.8;stroke-width:2;" x="356.339889" xlink:href="#m32f9dae2f8" y="177.344279"/>
     <use style="fill:#000080;fill-opacity:0.8;stroke:#000080;stroke-opacity:0.8;stroke-width:2;" x="343.339027" xlink:href="#m32f9dae2f8" y="133.923631"/>
     <use style="fill:#000080;fill-opacity:0.8;stroke:#000080;stroke-opacity:0.8;stroke-width:2;" x="349.179391" xlink:href="#m32f9dae2f8" y="127.52611"/>
     <use style="fill:#000080;fill-opacity:0.8;stroke:#000080;stroke-opacity:0.8;stroke-width:2;" x="327.753899" xlink:href="#m32f9dae2f8" y="230.395316"/>
     <use style="fill:#000080;fill-opacity:0.8;stroke:#000080;stroke-opacity:0.8;stroke-width:2;" x="362.542454" xlink:href="#m32f9dae2f8" y="161.610014"/>
     <use style="fill:#000080;fill-opacity:0.8;stroke:#000080;stroke-opacity:0.8;stroke-width:2;" x="333.072111" xlink:href="#m32f9dae2f8" y="126.393037"/>
     <use style="fill:#000080;fill-opacity:0.8;stroke:#000080;stroke-opacity:0.8;stroke-width:2;" x="341.705843" xlink:href="#m32f9dae2f8" y="101.596667"/>
     <use style="fill:#000080;fill-opacity:0.8;stroke:#000080;stroke-opacity:0.8;stroke-width:2;" x="338.338873" xlink:href="#m32f9dae2f8" y="170.195693"/>
     <use style="fill:#000080;fill-opacity:0.8;stroke:#000080;stroke-opacity:0.8;stroke-width:2;" x="354.094094" xlink:href="#m32f9dae2f8" y="102.403576"/>
     <use style="fill:#000080;fill-opacity:0.8;stroke:#000080;stroke-opacity:0.8;stroke-width:2;" x="354.576429" xlink:href="#m32f9dae2f8" y="158.17304"/>
     <use style="fill:#000080;fill-opacity:0.8;stroke:#000080;stroke-opacity:0.8;stroke-width:2;" x="346.326915" xlink:href="#m32f9dae2f8" y="106.936787"/>
     <use style="fill:#000080;fill-opacity:0.8;stroke:#000080;stroke-opacity:0.8;stroke-width:2;" x="345.04579" xlink:href="#m32f9dae2f8" y="143.535013"/>
    </g>
   </g>
   <g id="PathCollection_2">
    <defs>
     <path d="M 0 3 
C 0.795609 3 1.55874 2.683901 2.12132 2.12132 
C 2.683901 1.55874 3 0.795609 3 0 
C 3 -0.795609 2.683901 -1.55874 2.12132 -2.12132 
C 1.55874 -2.683901 0.795609 -3 0 -3 
C -0.795609 -3 -1.55874 -2.683901 -2.12132 -2.12132 
C -2.683901 -1.55874 -3 -0.795609 -3 0 
C -3 0.795609 -2.683901 1.55874 -2.12132 2.12132 
C -1.55874 2.683901 -0.795609 3 0 3 
z
" id="m2b8b254123" style="stroke:#40e0d0;stroke-opacity:0.8;stroke-width:2;"/>
    </defs>
    <g clip-path="url(#p7ee6a588e0)">
     <use style="fill:#40e0d0;fill-opacity:0.8;stroke:#40e0d0;stroke-opacity:0.8;stroke-width:2;" x="179.704421" xlink:href="#m2b8b254123" y="111.933328"/>
     <use style="fill:#40e0d0;fill-opacity:0.8;stroke:#40e0d0;stroke-opacity:0.8;stroke-width:2;" x="198.233405" xlink:href="#m2b8b254123" y="121.866558"/>
     <use style="fill:#40e0d0;fill-opacity:0.8;stroke:#40e0d0;stroke-opacity:0.8;stroke-width:2;" x="172.741961" xlink:href="#m2b8b254123" y="121.063967"/>
     <use style="fill:#40e0d0;fill-opacity:0.8;stroke:#40e0d0;stroke-opacity:0.8;stroke-width:2;" x="214.432064" xlink:href="#m2b8b254123" y="208.815223"/>
     <use style="fill:#40e0d0;fill-opacity:0.8;stroke:#40e0d0;stroke-opacity:0.8;stroke-width:2;" x="181.020228" xlink:href="#m2b8b254123" y="151.590837"/>
     <use style="fill:#40e0d0;fill-opacity:0.8;stroke:#40e0d0;stroke-opacity:0.8;stroke-width:2;" x="215.372195" xlink:href="#m2b8b254123" y="165.836483"/>
     <use style="fill:#40e0d0;fill-opacity:0.8;stroke:#40e0d0;stroke-opacity:0.8;stroke-width:2;" x="197.47351" xlink:href="#m2b8b254123" y="115.262932"/>
     <use style="fill:#40e0d0;fill-opacity:0.8;stroke:#40e0d0;stroke-opacity:0.8;stroke-width:2;" x="259.188768" xlink:href="#m2b8b254123" y="212.443611"/>
     <use style="fill:#40e0d0;fill-opacity:0.8;stroke:#40e0d0;stroke-opacity:0.8;stroke-width:2;" x="188.401588" xlink:href="#m2b8b254123" y="142.683311"/>
     <use style="fill:#40e0d0;fill-opacity:0.8;stroke:#40e0d0;stroke-opacity:0.8;stroke-width:2;" x="234.242172" xlink:href="#m2b8b254123" y="182.150226"/>
     <use style="fill:#40e0d0;fill-opacity:0.8;stroke:#40e0d0;stroke-opacity:0.8;stroke-width:2;" x="240.325527" xlink:href="#m2b8b254123" y="242.116364"/>
     <use style="fill:#40e0d0;fill-opacity:0.8;stroke:#40e0d0;stroke-opacity:0.8;stroke-width:2;" x="212.770935" xlink:href="#m2b8b254123" y="146.21902"/>
     <use style="fill:#40e0d0;fill-opacity:0.8;stroke:#40e0d0;stroke-opacity:0.8;stroke-width:2;" x="206.697965" xlink:href="#m2b8b254123" y="209.197231"/>
     <use style="fill:#40e0d0;fill-opacity:0.8;stroke:#40e0d0;stroke-opacity:0.8;stroke-width:2;" x="198.822398" xlink:href="#m2b8b254123" y="150.769239"/>
     <use style="fill:#40e0d0;fill-opacity:0.8;stroke:#40e0d0;stroke-opacity:0.8;stroke-width:2;" x="236.482038" xlink:href="#m2b8b254123" y="160.12581"/>
     <use style="fill:#40e0d0;fill-opacity:0.8;stroke:#40e0d0;stroke-opacity:0.8;stroke-width:2;" x="191.027274" xlink:href="#m2b8b254123" y="125.03321"/>
     <use style="fill:#40e0d0;fill-opacity:0.8;stroke:#40e0d0;stroke-opacity:0.8;stroke-width:2;" x="217.294683" xlink:href="#m2b8b254123" y="151.142612"/>
     <use style="fill:#40e0d0;fill-opacity:0.8;stroke:#40e0d0;stroke-opacity:0.8;stroke-width:2;" x="226.870276" xlink:href="#m2b8b254123" y="173.195491"/>
     <use style="fill:#40e0d0;fill-opacity:0.8;stroke:#40e0d0;stroke-opacity:0.8;stroke-width:2;" x="173.536537" xlink:href="#m2b8b254123" y="203.923328"/>
     <use style="fill:#40e0d0;fill-opacity:0.8;stroke:#40e0d0;stroke-opacity:0.8;stroke-width:2;" x="226.564771" xlink:href="#m2b8b254123" y="192.09209"/>
     <use style="fill:#40e0d0;fill-opacity:0.8;stroke:#40e0d0;stroke-opacity:0.8;stroke-width:2;" x="197.916027" xlink:href="#m2b8b254123" y="129.197104"/>
     <use style="fill:#40e0d0;fill-opacity:0.8;stroke:#40e0d0;stroke-opacity:0.8;stroke-width:2;" x="210.990595" xlink:href="#m2b8b254123" y="159.323219"/>
     <use style="fill:#40e0d0;fill-opacity:0.8;stroke:#40e0d0;stroke-opacity:0.8;stroke-width:2;" x="173.082147" xlink:href="#m2b8b254123" y="178.423103"/>
     <use style="fill:#40e0d0;fill-opacity:0.8;stroke:#40e0d0;stroke-opacity:0.8;stroke-width:2;" x="203.159172" xlink:href="#m2b8b254123" y="159.2887"/>
     <use style="fill:#40e0d0;fill-opacity:0.8;stroke:#40e0d0;stroke-opacity:0.8;stroke-width:2;" x="199.667743" xlink:href="#m2b8b254123" y="146.223337"/>
     <use style="fill:#40e0d0;fill-opacity:0.8;stroke:#40e0d0;stroke-opacity:0.8;stroke-width:2;" x="191.083971" xlink:href="#m2b8b254123" y="134.593066"/>
     <use style="fill:#40e0d0;fill-opacity:0.8;stroke:#40e0d0;stroke-opacity:0.8;stroke-width:2;" x="171.965187" xlink:href="#m2b8b254123" y="146.735779"/>
     <use style="fill:#40e0d0;fill-opacity:0.8;stroke:#40e0d0;stroke-opacity:0.8;stroke-width:2;" x="166.868517" xlink:href="#m2b8b254123" y="131.612691"/>
     <use style="fill:#40e0d0;fill-opacity:0.8;stroke:#40e0d0;stroke-opacity:0.8;stroke-width:2;" x="201.561478" xlink:href="#m2b8b254123" y="152.23885"/>
     <use style="fill:#40e0d0;fill-opacity:0.8;stroke:#40e0d0;stroke-opacity:0.8;stroke-width:2;" x="236.82736" xlink:href="#m2b8b254123" y="183.064504"/>
     <use style="fill:#40e0d0;fill-opacity:0.8;stroke:#40e0d0;stroke-opacity:0.8;stroke-width:2;" x="228.271533" xlink:href="#m2b8b254123" y="201.703473"/>
     <use style="fill:#40e0d0;fill-opacity:0.8;stroke:#40e0d0;stroke-opacity:0.8;stroke-width:2;" x="233.640627" xlink:href="#m2b8b254123" y="202.081164"/>
     <use style="fill:#40e0d0;fill-opacity:0.8;stroke:#40e0d0;stroke-opacity:0.8;stroke-width:2;" x="222.732347" xlink:href="#m2b8b254123" y="172.646214"/>
     <use style="fill:#40e0d0;fill-opacity:0.8;stroke:#40e0d0;stroke-opacity:0.8;stroke-width:2;" x="181.739497" xlink:href="#m2b8b254123" y="167.337792"/>
     <use style="fill:#40e0d0;fill-opacity:0.8;stroke:#40e0d0;stroke-opacity:0.8;stroke-width:2;" x="223.610644" xlink:href="#m2b8b254123" y="154.52806"/>
     <use style="fill:#40e0d0;fill-opacity:0.8;stroke:#40e0d0;stroke-opacity:0.8;stroke-width:2;" x="213.348864" xlink:href="#m2b8b254123" y="112.577024"/>
     <use style="fill:#40e0d0;fill-opacity:0.8;stroke:#40e0d0;stroke-opacity:0.8;stroke-width:2;" x="182.358051" xlink:href="#m2b8b254123" y="124.552467"/>
     <use style="fill:#40e0d0;fill-opacity:0.8;stroke:#40e0d0;stroke-opacity:0.8;stroke-width:2;" x="182.567962" xlink:href="#m2b8b254123" y="195.067328"/>
     <use style="fill:#40e0d0;fill-opacity:0.8;stroke:#40e0d0;stroke-opacity:0.8;stroke-width:2;" x="231.332999" xlink:href="#m2b8b254123" y="152.001047"/>
     <use style="fill:#40e0d0;fill-opacity:0.8;stroke:#40e0d0;stroke-opacity:0.8;stroke-width:2;" x="220.634629" xlink:href="#m2b8b254123" y="193.080958"/>
     <use style="fill:#40e0d0;fill-opacity:0.8;stroke:#40e0d0;stroke-opacity:0.8;stroke-width:2;" x="220.854683" xlink:href="#m2b8b254123" y="185.333886"/>
     <use style="fill:#40e0d0;fill-opacity:0.8;stroke:#40e0d0;stroke-opacity:0.8;stroke-width:2;" x="203.573745" xlink:href="#m2b8b254123" y="142.953632"/>
     <use style="fill:#40e0d0;fill-opacity:0.8;stroke:#40e0d0;stroke-opacity:0.8;stroke-width:2;" x="217.981" xlink:href="#m2b8b254123" y="180.46182"/>
     <use style="fill:#40e0d0;fill-opacity:0.8;stroke:#40e0d0;stroke-opacity:0.8;stroke-width:2;" x="252.929504" xlink:href="#m2b8b254123" y="218.618019"/>
     <use style="fill:#40e0d0;fill-opacity:0.8;stroke:#40e0d0;stroke-opacity:0.8;stroke-width:2;" x="220.379086" xlink:href="#m2b8b254123" y="175.550918"/>
     <use style="fill:#40e0d0;fill-opacity:0.8;stroke:#40e0d0;stroke-opacity:0.8;stroke-width:2;" x="230.243983" xlink:href="#m2b8b254123" y="150.582962"/>
     <use style="fill:#40e0d0;fill-opacity:0.8;stroke:#40e0d0;stroke-opacity:0.8;stroke-width:2;" x="223.423671" xlink:href="#m2b8b254123" y="158.123929"/>
     <use style="fill:#40e0d0;fill-opacity:0.8;stroke:#40e0d0;stroke-opacity:0.8;stroke-width:2;" x="205.983704" xlink:href="#m2b8b254123" y="149.608784"/>
     <use style="fill:#40e0d0;fill-opacity:0.8;stroke:#40e0d0;stroke-opacity:0.8;stroke-width:2;" x="257.205254" xlink:href="#m2b8b254123" y="201.019445"/>
     <use style="fill:#40e0d0;fill-opacity:0.8;stroke:#40e0d0;stroke-opacity:0.8;stroke-width:2;" x="221.972453" xlink:href="#m2b8b254123" y="166.042588"/>
    </g>
   </g>
   <g id="PathCollection_3">
    <defs>
     <path d="M 0 3 
C 0.795609 3 1.55874 2.683901 2.12132 2.12132 
C 2.683901 1.55874 3 0.795609 3 0 
C 3 -0.795609 2.683901 -1.55874 2.12132 -2.12132 
C 1.55874 -2.683901 0.795609 -3 0 -3 
C -0.795609 -3 -1.55874 -2.683901 -2.12132 -2.12132 
C -2.683901 -1.55874 -3 -0.795609 -3 0 
C -3 0.795609 -2.683901 1.55874 -2.12132 2.12132 
C -1.55874 2.683901 -0.795609 3 0 3 
z
" id="m4ab5084f7b" style="stroke:#ff8c00;stroke-opacity:0.8;stroke-width:2;"/>
    </defs>
    <g clip-path="url(#p7ee6a588e0)">
     <use style="fill:#ff8c00;fill-opacity:0.8;stroke:#ff8c00;stroke-opacity:0.8;stroke-width:2;" x="142.551412" xlink:href="#m4ab5084f7b" y="111.657608"/>
     <use style="fill:#ff8c00;fill-opacity:0.8;stroke:#ff8c00;stroke-opacity:0.8;stroke-width:2;" x="176.898371" xlink:href="#m4ab5084f7b" y="169.744745"/>
     <use style="fill:#ff8c00;fill-opacity:0.8;stroke:#ff8c00;stroke-opacity:0.8;stroke-width:2;" x="124.509899" xlink:href="#m4ab5084f7b" y="123.073401"/>
     <use style="fill:#ff8c00;fill-opacity:0.8;stroke:#ff8c00;stroke-opacity:0.8;stroke-width:2;" x="162.77974" xlink:href="#m4ab5084f7b" y="145.615396"/>
     <use style="fill:#ff8c00;fill-opacity:0.8;stroke:#ff8c00;stroke-opacity:0.8;stroke-width:2;" x="141.388818" xlink:href="#m4ab5084f7b" y="132.955104"/>
     <use style="fill:#ff8c00;fill-opacity:0.8;stroke:#ff8c00;stroke-opacity:0.8;stroke-width:2;" x="97.169545" xlink:href="#m4ab5084f7b" y="114.249099"/>
     <use style="fill:#ff8c00;fill-opacity:0.8;stroke:#ff8c00;stroke-opacity:0.8;stroke-width:2;" x="216.456075" xlink:href="#m4ab5084f7b" y="201.67501"/>
     <use style="fill:#ff8c00;fill-opacity:0.8;stroke:#ff8c00;stroke-opacity:0.8;stroke-width:2;" x="119.649484" xlink:href="#m4ab5084f7b" y="128.327475"/>
     <use style="fill:#ff8c00;fill-opacity:0.8;stroke:#ff8c00;stroke-opacity:0.8;stroke-width:2;" x="134.442558" xlink:href="#m4ab5084f7b" y="170.209978"/>
     <use style="fill:#ff8c00;fill-opacity:0.8;stroke:#ff8c00;stroke-opacity:0.8;stroke-width:2;" x="121.783371" xlink:href="#m4ab5084f7b" y="72.770172"/>
     <use style="fill:#ff8c00;fill-opacity:0.8;stroke:#ff8c00;stroke-opacity:0.8;stroke-width:2;" x="166.579893" xlink:href="#m4ab5084f7b" y="118.233853"/>
     <use style="fill:#ff8c00;fill-opacity:0.8;stroke:#ff8c00;stroke-opacity:0.8;stroke-width:2;" x="154.650359" xlink:href="#m4ab5084f7b" y="159.485351"/>
     <use style="fill:#ff8c00;fill-opacity:0.8;stroke:#ff8c00;stroke-opacity:0.8;stroke-width:2;" x="140.584099" xlink:href="#m4ab5084f7b" y="128.357677"/>
     <use style="fill:#ff8c00;fill-opacity:0.8;stroke:#ff8c00;stroke-opacity:0.8;stroke-width:2;" x="171.784821" xlink:href="#m4ab5084f7b" y="186.897095"/>
     <use style="fill:#ff8c00;fill-opacity:0.8;stroke:#ff8c00;stroke-opacity:0.8;stroke-width:2;" x="161.404509" xlink:href="#m4ab5084f7b" y="160.246789"/>
     <use style="fill:#ff8c00;fill-opacity:0.8;stroke:#ff8c00;stroke-opacity:0.8;stroke-width:2;" x="155.280658" xlink:href="#m4ab5084f7b" y="118.84503"/>
     <use style="fill:#ff8c00;fill-opacity:0.8;stroke:#ff8c00;stroke-opacity:0.8;stroke-width:2;" x="161.215127" xlink:href="#m4ab5084f7b" y="134.414342"/>
     <use style="fill:#ff8c00;fill-opacity:0.8;stroke:#ff8c00;stroke-opacity:0.8;stroke-width:2;" x="113.452734" xlink:href="#m4ab5084f7b" y="49.241626"/>
     <use style="fill:#ff8c00;fill-opacity:0.8;stroke:#ff8c00;stroke-opacity:0.8;stroke-width:2;" x="69.218182" xlink:href="#m4ab5084f7b" y="143.217996"/>
     <use style="fill:#ff8c00;fill-opacity:0.8;stroke:#ff8c00;stroke-opacity:0.8;stroke-width:2;" x="171.602176" xlink:href="#m4ab5084f7b" y="207.051145"/>
     <use style="fill:#ff8c00;fill-opacity:0.8;stroke:#ff8c00;stroke-opacity:0.8;stroke-width:2;" x="132.890497" xlink:href="#m4ab5084f7b" y="110.175306"/>
     <use style="fill:#ff8c00;fill-opacity:0.8;stroke:#ff8c00;stroke-opacity:0.8;stroke-width:2;" x="185.896715" xlink:href="#m4ab5084f7b" y="165.039948"/>
     <use style="fill:#ff8c00;fill-opacity:0.8;stroke:#ff8c00;stroke-opacity:0.8;stroke-width:2;" x="89.877963" xlink:href="#m4ab5084f7b" y="128.565278"/>
     <use style="fill:#ff8c00;fill-opacity:0.8;stroke:#ff8c00;stroke-opacity:0.8;stroke-width:2;" x="168.127626" xlink:href="#m4ab5084f7b" y="161.710344"/>
     <use style="fill:#ff8c00;fill-opacity:0.8;stroke:#ff8c00;stroke-opacity:0.8;stroke-width:2;" x="149.745799" xlink:href="#m4ab5084f7b" y="106.345951"/>
     <use style="fill:#ff8c00;fill-opacity:0.8;stroke:#ff8c00;stroke-opacity:0.8;stroke-width:2;" x="137.061507" xlink:href="#m4ab5084f7b" y="106.573381"/>
     <use style="fill:#ff8c00;fill-opacity:0.8;stroke:#ff8c00;stroke-opacity:0.8;stroke-width:2;" x="176.036954" xlink:href="#m4ab5084f7b" y="155.587462"/>
     <use style="fill:#ff8c00;fill-opacity:0.8;stroke:#ff8c00;stroke-opacity:0.8;stroke-width:2;" x="183.747436" xlink:href="#m4ab5084f7b" y="141.494395"/>
     <use style="fill:#ff8c00;fill-opacity:0.8;stroke:#ff8c00;stroke-opacity:0.8;stroke-width:2;" x="145.36339" xlink:href="#m4ab5084f7b" y="150.81131"/>
     <use style="fill:#ff8c00;fill-opacity:0.8;stroke:#ff8c00;stroke-opacity:0.8;stroke-width:2;" x="141.597128" xlink:href="#m4ab5084f7b" y="123.063027"/>
     <use style="fill:#ff8c00;fill-opacity:0.8;stroke:#ff8c00;stroke-opacity:0.8;stroke-width:2;" x="112.971321" xlink:href="#m4ab5084f7b" y="134.278771"/>
     <use style="fill:#ff8c00;fill-opacity:0.8;stroke:#ff8c00;stroke-opacity:0.8;stroke-width:2;" x="119.525024" xlink:href="#m4ab5084f7b" y="46.663087"/>
     <use style="fill:#ff8c00;fill-opacity:0.8;stroke:#ff8c00;stroke-opacity:0.8;stroke-width:2;" x="141.644362" xlink:href="#m4ab5084f7b" y="150.485145"/>
     <use style="fill:#ff8c00;fill-opacity:0.8;stroke:#ff8c00;stroke-opacity:0.8;stroke-width:2;" x="179.085867" xlink:href="#m4ab5084f7b" y="154.718654"/>
     <use style="fill:#ff8c00;fill-opacity:0.8;stroke:#ff8c00;stroke-opacity:0.8;stroke-width:2;" x="174.667968" xlink:href="#m4ab5084f7b" y="173.906899"/>
     <use style="fill:#ff8c00;fill-opacity:0.8;stroke:#ff8c00;stroke-opacity:0.8;stroke-width:2;" x="94.823829" xlink:href="#m4ab5084f7b" y="112.161676"/>
     <use style="fill:#ff8c00;fill-opacity:0.8;stroke:#ff8c00;stroke-opacity:0.8;stroke-width:2;" x="155.971982" xlink:href="#m4ab5084f7b" y="104.322746"/>
     <use style="fill:#ff8c00;fill-opacity:0.8;stroke:#ff8c00;stroke-opacity:0.8;stroke-width:2;" x="167.47439" xlink:href="#m4ab5084f7b" y="128.239934"/>
     <use style="fill:#ff8c00;fill-opacity:0.8;stroke:#ff8c00;stroke-opacity:0.8;stroke-width:2;" x="188.555481" xlink:href="#m4ab5084f7b" y="143.238644"/>
     <use style="fill:#ff8c00;fill-opacity:0.8;stroke:#ff8c00;stroke-opacity:0.8;stroke-width:2;" x="142.177465" xlink:href="#m4ab5084f7b" y="118.849347"/>
     <use style="fill:#ff8c00;fill-opacity:0.8;stroke:#ff8c00;stroke-opacity:0.8;stroke-width:2;" x="134.036211" xlink:href="#m4ab5084f7b" y="121.153248"/>
     <use style="fill:#ff8c00;fill-opacity:0.8;stroke:#ff8c00;stroke-opacity:0.8;stroke-width:2;" x="139.689601" xlink:href="#m4ab5084f7b" y="118.351596"/>
     <use style="fill:#ff8c00;fill-opacity:0.8;stroke:#ff8c00;stroke-opacity:0.8;stroke-width:2;" x="176.898371" xlink:href="#m4ab5084f7b" y="169.744745"/>
     <use style="fill:#ff8c00;fill-opacity:0.8;stroke:#ff8c00;stroke-opacity:0.8;stroke-width:2;" x="132.748349" xlink:href="#m4ab5084f7b" y="111.764978"/>
     <use style="fill:#ff8c00;fill-opacity:0.8;stroke:#ff8c00;stroke-opacity:0.8;stroke-width:2;" x="134.869683" xlink:href="#m4ab5084f7b" y="105.041292"/>
     <use style="fill:#ff8c00;fill-opacity:0.8;stroke:#ff8c00;stroke-opacity:0.8;stroke-width:2;" x="141.254215" xlink:href="#m4ab5084f7b" y="129.552649"/>
     <use style="fill:#ff8c00;fill-opacity:0.8;stroke:#ff8c00;stroke-opacity:0.8;stroke-width:2;" x="156.555967" xlink:href="#m4ab5084f7b" y="177.066917"/>
     <use style="fill:#ff8c00;fill-opacity:0.8;stroke:#ff8c00;stroke-opacity:0.8;stroke-width:2;" x="158.727263" xlink:href="#m4ab5084f7b" y="133.916591"/>
     <use style="fill:#ff8c00;fill-opacity:0.8;stroke:#ff8c00;stroke-opacity:0.8;stroke-width:2;" x="166.14912" xlink:href="#m4ab5084f7b" y="106.444687"/>
     <use style="fill:#ff8c00;fill-opacity:0.8;stroke:#ff8c00;stroke-opacity:0.8;stroke-width:2;" x="186.763268" xlink:href="#m4ab5084f7b" y="144.77679"/>
    </g>
   </g>
   <g id="matplotlib.axis_1">
    <g id="xtick_1">
     <g id="line2d_1">
      <defs>
       <path d="M 0 0 
L 0 3.5 
" id="m750cdec97f" style="stroke:#000000;stroke-width:0.8;"/>
      </defs>
      <g>
       <use style="stroke:#000000;stroke-width:0.8;" x="84.75866" xlink:href="#m750cdec97f" y="252"/>
      </g>
     </g>
     <g id="text_1">
      <!-- −3 -->
      <defs>
       <path d="M 10.59375 35.5 
L 73.1875 35.5 
L 73.1875 27.203125 
L 10.59375 27.203125 
z
" id="DejaVuSans-8722"/>
       <path d="M 40.578125 39.3125 
Q 47.65625 37.796875 51.625 33 
Q 55.609375 28.21875 55.609375 21.1875 
Q 55.609375 10.40625 48.1875 4.484375 
Q 40.765625 -1.421875 27.09375 -1.421875 
Q 22.515625 -1.421875 17.65625 -0.515625 
Q 12.796875 0.390625 7.625 2.203125 
L 7.625 11.71875 
Q 11.71875 9.328125 16.59375 8.109375 
Q 21.484375 6.890625 26.8125 6.890625 
Q 36.078125 6.890625 40.9375 10.546875 
Q 45.796875 14.203125 45.796875 21.1875 
Q 45.796875 27.640625 41.28125 31.265625 
Q 36.765625 34.90625 28.71875 34.90625 
L 20.21875 34.90625 
L 20.21875 43.015625 
L 29.109375 43.015625 
Q 36.375 43.015625 40.234375 45.921875 
Q 44.09375 48.828125 44.09375 54.296875 
Q 44.09375 59.90625 40.109375 62.90625 
Q 36.140625 65.921875 28.71875 65.921875 
Q 24.65625 65.921875 20.015625 65.03125 
Q 15.375 64.15625 9.8125 62.3125 
L 9.8125 71.09375 
Q 15.4375 72.65625 20.34375 73.4375 
Q 25.25 74.21875 29.59375 74.21875 
Q 40.828125 74.21875 47.359375 69.109375 
Q 53.90625 64.015625 53.90625 55.328125 
Q 53.90625 49.265625 50.4375 45.09375 
Q 46.96875 40.921875 40.578125 39.3125 
z
" id="DejaVuSans-51"/>
      </defs>
      <g transform="translate(77.387567 266.598437)scale(0.1 -0.1)">
       <use xlink:href="#DejaVuSans-8722"/>
       <use x="83.789062" xlink:href="#DejaVuSans-51"/>
      </g>
     </g>
    </g>
    <g id="xtick_2">
     <g id="line2d_2">
      <g>
       <use style="stroke:#000000;stroke-width:0.8;" x="134.777004" xlink:href="#m750cdec97f" y="252"/>
      </g>
     </g>
     <g id="text_2">
      <!-- −2 -->
      <defs>
       <path d="M 19.1875 8.296875 
L 53.609375 8.296875 
L 53.609375 0 
L 7.328125 0 
L 7.328125 8.296875 
Q 12.9375 14.109375 22.625 23.890625 
Q 32.328125 33.6875 34.8125 36.53125 
Q 39.546875 41.84375 41.421875 45.53125 
Q 43.3125 49.21875 43.3125 52.78125 
Q 43.3125 58.59375 39.234375 62.25 
Q 35.15625 65.921875 28.609375 65.921875 
Q 23.96875 65.921875 18.8125 64.3125 
Q 13.671875 62.703125 7.8125 59.421875 
L 7.8125 69.390625 
Q 13.765625 71.78125 18.9375 73 
Q 24.125 74.21875 28.421875 74.21875 
Q 39.75 74.21875 46.484375 68.546875 
Q 53.21875 62.890625 53.21875 53.421875 
Q 53.21875 48.921875 51.53125 44.890625 
Q 49.859375 40.875 45.40625 35.40625 
Q 44.1875 33.984375 37.640625 27.21875 
Q 31.109375 20.453125 19.1875 8.296875 
z
" id="DejaVuSans-50"/>
      </defs>
      <g transform="translate(127.40591 266.598437)scale(0.1 -0.1)">
       <use xlink:href="#DejaVuSans-8722"/>
       <use x="83.789062" xlink:href="#DejaVuSans-50"/>
      </g>
     </g>
    </g>
    <g id="xtick_3">
     <g id="line2d_3">
      <g>
       <use style="stroke:#000000;stroke-width:0.8;" x="184.795348" xlink:href="#m750cdec97f" y="252"/>
      </g>
     </g>
     <g id="text_3">
      <!-- −1 -->
      <defs>
       <path d="M 12.40625 8.296875 
L 28.515625 8.296875 
L 28.515625 63.921875 
L 10.984375 60.40625 
L 10.984375 69.390625 
L 28.421875 72.90625 
L 38.28125 72.90625 
L 38.28125 8.296875 
L 54.390625 8.296875 
L 54.390625 0 
L 12.40625 0 
z
" id="DejaVuSans-49"/>
      </defs>
      <g transform="translate(177.424254 266.598437)scale(0.1 -0.1)">
       <use xlink:href="#DejaVuSans-8722"/>
       <use x="83.789062" xlink:href="#DejaVuSans-49"/>
      </g>
     </g>
    </g>
    <g id="xtick_4">
     <g id="line2d_4">
      <g>
       <use style="stroke:#000000;stroke-width:0.8;" x="234.813691" xlink:href="#m750cdec97f" y="252"/>
      </g>
     </g>
     <g id="text_4">
      <!-- 0 -->
      <defs>
       <path d="M 31.78125 66.40625 
Q 24.171875 66.40625 20.328125 58.90625 
Q 16.5 51.421875 16.5 36.375 
Q 16.5 21.390625 20.328125 13.890625 
Q 24.171875 6.390625 31.78125 6.390625 
Q 39.453125 6.390625 43.28125 13.890625 
Q 47.125 21.390625 47.125 36.375 
Q 47.125 51.421875 43.28125 58.90625 
Q 39.453125 66.40625 31.78125 66.40625 
z
M 31.78125 74.21875 
Q 44.046875 74.21875 50.515625 64.515625 
Q 56.984375 54.828125 56.984375 36.375 
Q 56.984375 17.96875 50.515625 8.265625 
Q 44.046875 -1.421875 31.78125 -1.421875 
Q 19.53125 -1.421875 13.0625 8.265625 
Q 6.59375 17.96875 6.59375 36.375 
Q 6.59375 54.828125 13.0625 64.515625 
Q 19.53125 74.21875 31.78125 74.21875 
z
" id="DejaVuSans-48"/>
      </defs>
      <g transform="translate(231.632441 266.598437)scale(0.1 -0.1)">
       <use xlink:href="#DejaVuSans-48"/>
      </g>
     </g>
    </g>
    <g id="xtick_5">
     <g id="line2d_5">
      <g>
       <use style="stroke:#000000;stroke-width:0.8;" x="284.832035" xlink:href="#m750cdec97f" y="252"/>
      </g>
     </g>
     <g id="text_5">
      <!-- 1 -->
      <g transform="translate(281.650785 266.598437)scale(0.1 -0.1)">
       <use xlink:href="#DejaVuSans-49"/>
      </g>
     </g>
    </g>
    <g id="xtick_6">
     <g id="line2d_6">
      <g>
       <use style="stroke:#000000;stroke-width:0.8;" x="334.850379" xlink:href="#m750cdec97f" y="252"/>
      </g>
     </g>
     <g id="text_6">
      <!-- 2 -->
      <g transform="translate(331.669129 266.598437)scale(0.1 -0.1)">
       <use xlink:href="#DejaVuSans-50"/>
      </g>
     </g>
    </g>
    <g id="xtick_7">
     <g id="line2d_7">
      <g>
       <use style="stroke:#000000;stroke-width:0.8;" x="384.868722" xlink:href="#m750cdec97f" y="252"/>
      </g>
     </g>
     <g id="text_7">
      <!-- 3 -->
      <g transform="translate(381.687472 266.598437)scale(0.1 -0.1)">
       <use xlink:href="#DejaVuSans-51"/>
      </g>
     </g>
    </g>
   </g>
   <g id="matplotlib.axis_2">
    <g id="ytick_1">
     <g id="line2d_8">
      <defs>
       <path d="M 0 0 
L -3.5 0 
" id="m245103b6be" style="stroke:#000000;stroke-width:0.8;"/>
      </defs>
      <g>
       <use style="stroke:#000000;stroke-width:0.8;" x="54" xlink:href="#m245103b6be" y="217.905932"/>
      </g>
     </g>
     <g id="text_8">
      <!-- −2 -->
      <g transform="translate(32.257812 221.70515)scale(0.1 -0.1)">
       <use xlink:href="#DejaVuSans-8722"/>
       <use x="83.789062" xlink:href="#DejaVuSans-50"/>
      </g>
     </g>
    </g>
    <g id="ytick_2">
     <g id="line2d_9">
      <g>
       <use style="stroke:#000000;stroke-width:0.8;" x="54" xlink:href="#m245103b6be" y="180.891044"/>
      </g>
     </g>
     <g id="text_9">
      <!-- −1 -->
      <g transform="translate(32.257812 184.690262)scale(0.1 -0.1)">
       <use xlink:href="#DejaVuSans-8722"/>
       <use x="83.789062" xlink:href="#DejaVuSans-49"/>
      </g>
     </g>
    </g>
    <g id="ytick_3">
     <g id="line2d_10">
      <g>
       <use style="stroke:#000000;stroke-width:0.8;" x="54" xlink:href="#m245103b6be" y="143.876156"/>
      </g>
     </g>
     <g id="text_10">
      <!-- 0 -->
      <g transform="translate(40.6375 147.675374)scale(0.1 -0.1)">
       <use xlink:href="#DejaVuSans-48"/>
      </g>
     </g>
    </g>
    <g id="ytick_4">
     <g id="line2d_11">
      <g>
       <use style="stroke:#000000;stroke-width:0.8;" x="54" xlink:href="#m245103b6be" y="106.861268"/>
      </g>
     </g>
     <g id="text_11">
      <!-- 1 -->
      <g transform="translate(40.6375 110.660486)scale(0.1 -0.1)">
       <use xlink:href="#DejaVuSans-49"/>
      </g>
     </g>
    </g>
    <g id="ytick_5">
     <g id="line2d_12">
      <g>
       <use style="stroke:#000000;stroke-width:0.8;" x="54" xlink:href="#m245103b6be" y="69.84638"/>
      </g>
     </g>
     <g id="text_12">
      <!-- 2 -->
      <g transform="translate(40.6375 73.645598)scale(0.1 -0.1)">
       <use xlink:href="#DejaVuSans-50"/>
      </g>
     </g>
    </g>
   </g>
   <g id="patch_3">
    <path d="M 54 252 
L 54 34.56 
" style="fill:none;stroke:#000000;stroke-linecap:square;stroke-linejoin:miter;stroke-width:0.8;"/>
   </g>
   <g id="patch_4">
    <path d="M 388.8 252 
L 388.8 34.56 
" style="fill:none;stroke:#000000;stroke-linecap:square;stroke-linejoin:miter;stroke-width:0.8;"/>
   </g>
   <g id="patch_5">
    <path d="M 54 252 
L 388.8 252 
" style="fill:none;stroke:#000000;stroke-linecap:square;stroke-linejoin:miter;stroke-width:0.8;"/>
   </g>
   <g id="patch_6">
    <path d="M 54 34.56 
L 388.8 34.56 
" style="fill:none;stroke:#000000;stroke-linecap:square;stroke-linejoin:miter;stroke-width:0.8;"/>
   </g>
   <g id="legend_1">
    <g id="patch_7">
     <path d="M 61 247 
L 141.795312 247 
Q 143.795312 247 143.795312 245 
L 143.795312 201.965625 
Q 143.795312 199.965625 141.795312 199.965625 
L 61 199.965625 
Q 59 199.965625 59 201.965625 
L 59 245 
Q 59 247 61 247 
z
" style="fill:#ffffff;opacity:0.8;stroke:#cccccc;stroke-linejoin:miter;"/>
    </g>
    <g id="PathCollection_4">
     <g>
      <use style="fill:#000080;fill-opacity:0.8;stroke:#000080;stroke-opacity:0.8;stroke-width:2;" x="73" xlink:href="#m32f9dae2f8" y="208.939063"/>
     </g>
    </g>
    <g id="text_13">
     <!-- setosa -->
     <defs>
      <path d="M 44.28125 53.078125 
L 44.28125 44.578125 
Q 40.484375 46.53125 36.375 47.5 
Q 32.28125 48.484375 27.875 48.484375 
Q 21.1875 48.484375 17.84375 46.4375 
Q 14.5 44.390625 14.5 40.28125 
Q 14.5 37.15625 16.890625 35.375 
Q 19.28125 33.59375 26.515625 31.984375 
L 29.59375 31.296875 
Q 39.15625 29.25 43.1875 25.515625 
Q 47.21875 21.78125 47.21875 15.09375 
Q 47.21875 7.46875 41.1875 3.015625 
Q 35.15625 -1.421875 24.609375 -1.421875 
Q 20.21875 -1.421875 15.453125 -0.5625 
Q 10.6875 0.296875 5.421875 2 
L 5.421875 11.28125 
Q 10.40625 8.6875 15.234375 7.390625 
Q 20.0625 6.109375 24.8125 6.109375 
Q 31.15625 6.109375 34.5625 8.28125 
Q 37.984375 10.453125 37.984375 14.40625 
Q 37.984375 18.0625 35.515625 20.015625 
Q 33.0625 21.96875 24.703125 23.78125 
L 21.578125 24.515625 
Q 13.234375 26.265625 9.515625 29.90625 
Q 5.8125 33.546875 5.8125 39.890625 
Q 5.8125 47.609375 11.28125 51.796875 
Q 16.75 56 26.8125 56 
Q 31.78125 56 36.171875 55.265625 
Q 40.578125 54.546875 44.28125 53.078125 
z
" id="DejaVuSans-115"/>
      <path d="M 56.203125 29.59375 
L 56.203125 25.203125 
L 14.890625 25.203125 
Q 15.484375 15.921875 20.484375 11.0625 
Q 25.484375 6.203125 34.421875 6.203125 
Q 39.59375 6.203125 44.453125 7.46875 
Q 49.3125 8.734375 54.109375 11.28125 
L 54.109375 2.78125 
Q 49.265625 0.734375 44.1875 -0.34375 
Q 39.109375 -1.421875 33.890625 -1.421875 
Q 20.796875 -1.421875 13.15625 6.1875 
Q 5.515625 13.8125 5.515625 26.8125 
Q 5.515625 40.234375 12.765625 48.109375 
Q 20.015625 56 32.328125 56 
Q 43.359375 56 49.78125 48.890625 
Q 56.203125 41.796875 56.203125 29.59375 
z
M 47.21875 32.234375 
Q 47.125 39.59375 43.09375 43.984375 
Q 39.0625 48.390625 32.421875 48.390625 
Q 24.90625 48.390625 20.390625 44.140625 
Q 15.875 39.890625 15.1875 32.171875 
z
" id="DejaVuSans-101"/>
      <path d="M 18.3125 70.21875 
L 18.3125 54.6875 
L 36.8125 54.6875 
L 36.8125 47.703125 
L 18.3125 47.703125 
L 18.3125 18.015625 
Q 18.3125 11.328125 20.140625 9.421875 
Q 21.96875 7.515625 27.59375 7.515625 
L 36.8125 7.515625 
L 36.8125 0 
L 27.59375 0 
Q 17.1875 0 13.234375 3.875 
Q 9.28125 7.765625 9.28125 18.015625 
L 9.28125 47.703125 
L 2.6875 47.703125 
L 2.6875 54.6875 
L 9.28125 54.6875 
L 9.28125 70.21875 
z
" id="DejaVuSans-116"/>
      <path d="M 30.609375 48.390625 
Q 23.390625 48.390625 19.1875 42.75 
Q 14.984375 37.109375 14.984375 27.296875 
Q 14.984375 17.484375 19.15625 11.84375 
Q 23.34375 6.203125 30.609375 6.203125 
Q 37.796875 6.203125 41.984375 11.859375 
Q 46.1875 17.53125 46.1875 27.296875 
Q 46.1875 37.015625 41.984375 42.703125 
Q 37.796875 48.390625 30.609375 48.390625 
z
M 30.609375 56 
Q 42.328125 56 49.015625 48.375 
Q 55.71875 40.765625 55.71875 27.296875 
Q 55.71875 13.875 49.015625 6.21875 
Q 42.328125 -1.421875 30.609375 -1.421875 
Q 18.84375 -1.421875 12.171875 6.21875 
Q 5.515625 13.875 5.515625 27.296875 
Q 5.515625 40.765625 12.171875 48.375 
Q 18.84375 56 30.609375 56 
z
" id="DejaVuSans-111"/>
      <path d="M 34.28125 27.484375 
Q 23.390625 27.484375 19.1875 25 
Q 14.984375 22.515625 14.984375 16.5 
Q 14.984375 11.71875 18.140625 8.90625 
Q 21.296875 6.109375 26.703125 6.109375 
Q 34.1875 6.109375 38.703125 11.40625 
Q 43.21875 16.703125 43.21875 25.484375 
L 43.21875 27.484375 
z
M 52.203125 31.203125 
L 52.203125 0 
L 43.21875 0 
L 43.21875 8.296875 
Q 40.140625 3.328125 35.546875 0.953125 
Q 30.953125 -1.421875 24.3125 -1.421875 
Q 15.921875 -1.421875 10.953125 3.296875 
Q 6 8.015625 6 15.921875 
Q 6 25.140625 12.171875 29.828125 
Q 18.359375 34.515625 30.609375 34.515625 
L 43.21875 34.515625 
L 43.21875 35.40625 
Q 43.21875 41.609375 39.140625 45 
Q 35.0625 48.390625 27.6875 48.390625 
Q 23 48.390625 18.546875 47.265625 
Q 14.109375 46.140625 10.015625 43.890625 
L 10.015625 52.203125 
Q 14.9375 54.109375 19.578125 55.046875 
Q 24.21875 56 28.609375 56 
Q 40.484375 56 46.34375 49.84375 
Q 52.203125 43.703125 52.203125 31.203125 
z
" id="DejaVuSans-97"/>
     </defs>
     <g transform="translate(91 211.564063)scale(0.1 -0.1)">
      <use xlink:href="#DejaVuSans-115"/>
      <use x="52.099609" xlink:href="#DejaVuSans-101"/>
      <use x="113.623047" xlink:href="#DejaVuSans-116"/>
      <use x="152.832031" xlink:href="#DejaVuSans-111"/>
      <use x="214.013672" xlink:href="#DejaVuSans-115"/>
      <use x="266.113281" xlink:href="#DejaVuSans-97"/>
     </g>
    </g>
    <g id="PathCollection_5">
     <g>
      <use style="fill:#40e0d0;fill-opacity:0.8;stroke:#40e0d0;stroke-opacity:0.8;stroke-width:2;" x="73" xlink:href="#m2b8b254123" y="223.617188"/>
     </g>
    </g>
    <g id="text_14">
     <!-- versicolor -->
     <defs>
      <path d="M 2.984375 54.6875 
L 12.5 54.6875 
L 29.59375 8.796875 
L 46.6875 54.6875 
L 56.203125 54.6875 
L 35.6875 0 
L 23.484375 0 
z
" id="DejaVuSans-118"/>
      <path d="M 41.109375 46.296875 
Q 39.59375 47.171875 37.8125 47.578125 
Q 36.03125 48 33.890625 48 
Q 26.265625 48 22.1875 43.046875 
Q 18.109375 38.09375 18.109375 28.8125 
L 18.109375 0 
L 9.078125 0 
L 9.078125 54.6875 
L 18.109375 54.6875 
L 18.109375 46.1875 
Q 20.953125 51.171875 25.484375 53.578125 
Q 30.03125 56 36.53125 56 
Q 37.453125 56 38.578125 55.875 
Q 39.703125 55.765625 41.0625 55.515625 
z
" id="DejaVuSans-114"/>
      <path d="M 9.421875 54.6875 
L 18.40625 54.6875 
L 18.40625 0 
L 9.421875 0 
z
M 9.421875 75.984375 
L 18.40625 75.984375 
L 18.40625 64.59375 
L 9.421875 64.59375 
z
" id="DejaVuSans-105"/>
      <path d="M 48.78125 52.59375 
L 48.78125 44.1875 
Q 44.96875 46.296875 41.140625 47.34375 
Q 37.3125 48.390625 33.40625 48.390625 
Q 24.65625 48.390625 19.8125 42.84375 
Q 14.984375 37.3125 14.984375 27.296875 
Q 14.984375 17.28125 19.8125 11.734375 
Q 24.65625 6.203125 33.40625 6.203125 
Q 37.3125 6.203125 41.140625 7.25 
Q 44.96875 8.296875 48.78125 10.40625 
L 48.78125 2.09375 
Q 45.015625 0.34375 40.984375 -0.53125 
Q 36.96875 -1.421875 32.421875 -1.421875 
Q 20.0625 -1.421875 12.78125 6.34375 
Q 5.515625 14.109375 5.515625 27.296875 
Q 5.515625 40.671875 12.859375 48.328125 
Q 20.21875 56 33.015625 56 
Q 37.15625 56 41.109375 55.140625 
Q 45.0625 54.296875 48.78125 52.59375 
z
" id="DejaVuSans-99"/>
      <path d="M 9.421875 75.984375 
L 18.40625 75.984375 
L 18.40625 0 
L 9.421875 0 
z
" id="DejaVuSans-108"/>
     </defs>
     <g transform="translate(91 226.242188)scale(0.1 -0.1)">
      <use xlink:href="#DejaVuSans-118"/>
      <use x="59.179688" xlink:href="#DejaVuSans-101"/>
      <use x="120.703125" xlink:href="#DejaVuSans-114"/>
      <use x="161.816406" xlink:href="#DejaVuSans-115"/>
      <use x="213.916016" xlink:href="#DejaVuSans-105"/>
      <use x="241.699219" xlink:href="#DejaVuSans-99"/>
      <use x="296.679688" xlink:href="#DejaVuSans-111"/>
      <use x="357.861328" xlink:href="#DejaVuSans-108"/>
      <use x="385.644531" xlink:href="#DejaVuSans-111"/>
      <use x="446.826172" xlink:href="#DejaVuSans-114"/>
     </g>
    </g>
    <g id="PathCollection_6">
     <g>
      <use style="fill:#ff8c00;fill-opacity:0.8;stroke:#ff8c00;stroke-opacity:0.8;stroke-width:2;" x="73" xlink:href="#m4ab5084f7b" y="238.295313"/>
     </g>
    </g>
    <g id="text_15">
     <!-- virginica -->
     <defs>
      <path d="M 45.40625 27.984375 
Q 45.40625 37.75 41.375 43.109375 
Q 37.359375 48.484375 30.078125 48.484375 
Q 22.859375 48.484375 18.828125 43.109375 
Q 14.796875 37.75 14.796875 27.984375 
Q 14.796875 18.265625 18.828125 12.890625 
Q 22.859375 7.515625 30.078125 7.515625 
Q 37.359375 7.515625 41.375 12.890625 
Q 45.40625 18.265625 45.40625 27.984375 
z
M 54.390625 6.78125 
Q 54.390625 -7.171875 48.1875 -13.984375 
Q 42 -20.796875 29.203125 -20.796875 
Q 24.46875 -20.796875 20.265625 -20.09375 
Q 16.0625 -19.390625 12.109375 -17.921875 
L 12.109375 -9.1875 
Q 16.0625 -11.328125 19.921875 -12.34375 
Q 23.78125 -13.375 27.78125 -13.375 
Q 36.625 -13.375 41.015625 -8.765625 
Q 45.40625 -4.15625 45.40625 5.171875 
L 45.40625 9.625 
Q 42.625 4.78125 38.28125 2.390625 
Q 33.9375 0 27.875 0 
Q 17.828125 0 11.671875 7.65625 
Q 5.515625 15.328125 5.515625 27.984375 
Q 5.515625 40.671875 11.671875 48.328125 
Q 17.828125 56 27.875 56 
Q 33.9375 56 38.28125 53.609375 
Q 42.625 51.21875 45.40625 46.390625 
L 45.40625 54.6875 
L 54.390625 54.6875 
z
" id="DejaVuSans-103"/>
      <path d="M 54.890625 33.015625 
L 54.890625 0 
L 45.90625 0 
L 45.90625 32.71875 
Q 45.90625 40.484375 42.875 44.328125 
Q 39.84375 48.1875 33.796875 48.1875 
Q 26.515625 48.1875 22.3125 43.546875 
Q 18.109375 38.921875 18.109375 30.90625 
L 18.109375 0 
L 9.078125 0 
L 9.078125 54.6875 
L 18.109375 54.6875 
L 18.109375 46.1875 
Q 21.34375 51.125 25.703125 53.5625 
Q 30.078125 56 35.796875 56 
Q 45.21875 56 50.046875 50.171875 
Q 54.890625 44.34375 54.890625 33.015625 
z
" id="DejaVuSans-110"/>
     </defs>
     <g transform="translate(91 240.920313)scale(0.1 -0.1)">
      <use xlink:href="#DejaVuSans-118"/>
      <use x="59.179688" xlink:href="#DejaVuSans-105"/>
      <use x="86.962891" xlink:href="#DejaVuSans-114"/>
      <use x="126.326172" xlink:href="#DejaVuSans-103"/>
      <use x="189.802734" xlink:href="#DejaVuSans-105"/>
      <use x="217.585938" xlink:href="#DejaVuSans-110"/>
      <use x="280.964844" xlink:href="#DejaVuSans-105"/>
      <use x="308.748047" xlink:href="#DejaVuSans-99"/>
      <use x="363.728516" xlink:href="#DejaVuSans-97"/>
     </g>
    </g>
   </g>
  </g>
 </g>
 <defs>
  <clipPath id="p7ee6a588e0">
   <rect height="217.44" width="334.8" x="54" y="34.56"/>
  </clipPath>
 </defs>
</svg>
