<?xml version="1.0" encoding="utf-8" standalone="no"?>
<!DOCTYPE svg PUBLIC "-//W3C//DTD SVG 1.1//EN"
  "http://www.w3.org/Graphics/SVG/1.1/DTD/svg11.dtd">
<svg xmlns:xlink="http://www.w3.org/1999/xlink" width="720pt" height="576pt" viewBox="0 0 720 576" xmlns="http://www.w3.org/2000/svg" version="1.1">
 <metadata>
  <rdf:RDF xmlns:dc="http://purl.org/dc/elements/1.1/" xmlns:cc="http://creativecommons.org/ns#" xmlns:rdf="http://www.w3.org/1999/02/22-rdf-syntax-ns#">
   <cc:Work>
    <dc:type rdf:resource="http://purl.org/dc/dcmitype/StillImage"/>
    <dc:date>2023-10-02T11:02:55.462065</dc:date>
    <dc:format>image/svg+xml</dc:format>
    <dc:creator>
     <cc:Agent>
      <dc:title>Matplotlib v3.7.2, https://matplotlib.org/</dc:title>
     </cc:Agent>
    </dc:creator>
   </cc:Work>
  </rdf:RDF>
 </metadata>
 <defs>
  <style type="text/css">*{stroke-linejoin: round; stroke-linecap: butt}</style>
 </defs>
 <g id="figure_1">
  <g id="patch_1">
   <path d="M 0 576 
L 720 576 
L 720 0 
L 0 0 
z
" style="fill: #ffffff"/>
  </g>
  <g id="axes_1">
   <g id="patch_2">
    <path d="M 34.197905 541.802095 
L 709.2 541.802095 
L 709.2 26.673238 
L 34.197905 26.673238 
z
" style="fill: #ffffff"/>
   </g>
   <g id="PathCollection_1">
    <defs>
     <path id="m60b2a5c76c" d="M 0 3 
C 0.795609 3 1.55874 2.683901 2.12132 2.12132 
C 2.683901 1.55874 3 0.795609 3 0 
C 3 -0.795609 2.683901 -1.55874 2.12132 -2.12132 
C 1.55874 -2.683901 0.795609 -3 0 -3 
C -0.795609 -3 -1.55874 -2.683901 -2.12132 -2.12132 
C -2.683901 -1.55874 -3 -0.795609 -3 0 
C -3 0.795609 -2.683901 1.55874 -2.12132 2.12132 
C -1.55874 2.683901 -0.795609 3 0 3 
z
" style="stroke: #000000"/>
    </defs>
    <g clip-path="url(#p1a9c803590)">
     <use xlink:href="#m60b2a5c76c" x="76.649565" y="324.148391" style="fill: #87ceeb; stroke: #000000"/>
     <use xlink:href="#m60b2a5c76c" x="170.995754" y="366.207291" style="fill: #87ceeb; stroke: #000000"/>
     <use xlink:href="#m60b2a5c76c" x="173.767542" y="147.571013" style="fill: #87ceeb; stroke: #000000"/>
     <use xlink:href="#m60b2a5c76c" x="303.468922" y="249.384655" style="fill: #87ceeb; stroke: #000000"/>
     <use xlink:href="#m60b2a5c76c" x="403.191002" y="201.943948" style="fill: #87ceeb; stroke: #000000"/>
     <use xlink:href="#m60b2a5c76c" x="385.656548" y="420.033241" style="fill: #87ceeb; stroke: #000000"/>
     <use xlink:href="#m60b2a5c76c" x="317.875457" y="225.906373" style="fill: #87ceeb; stroke: #000000"/>
     <use xlink:href="#m60b2a5c76c" x="213.416937" y="173.841145" style="fill: #87ceeb; stroke: #000000"/>
     <use xlink:href="#m60b2a5c76c" x="150.552045" y="162.638097" style="fill: #87ceeb; stroke: #000000"/>
     <use xlink:href="#m60b2a5c76c" x="473.562771" y="272.777033" style="fill: #87ceeb; stroke: #000000"/>
     <use xlink:href="#m60b2a5c76c" x="314.871744" y="233.494151" style="fill: #87ceeb; stroke: #000000"/>
     <use xlink:href="#m60b2a5c76c" x="235.646113" y="184.409144" style="fill: #87ceeb; stroke: #000000"/>
     <use xlink:href="#m60b2a5c76c" x="279.073763" y="227.108722" style="fill: #87ceeb; stroke: #000000"/>
     <use xlink:href="#m60b2a5c76c" x="87.922594" y="306.236552" style="fill: #87ceeb; stroke: #000000"/>
     <use xlink:href="#m60b2a5c76c" x="307.180351" y="143.36484" style="fill: #87ceeb; stroke: #000000"/>
     <use xlink:href="#m60b2a5c76c" x="105.558283" y="282.110045" style="fill: #87ceeb; stroke: #000000"/>
     <use xlink:href="#m60b2a5c76c" x="365.121999" y="261.944359" style="fill: #87ceeb; stroke: #000000"/>
     <use xlink:href="#m60b2a5c76c" x="420.954159" y="176.177261" style="fill: #87ceeb; stroke: #000000"/>
     <use xlink:href="#m60b2a5c76c" x="90.447578" y="350.241788" style="fill: #87ceeb; stroke: #000000"/>
     <use xlink:href="#m60b2a5c76c" x="239.687018" y="51.203184" style="fill: #87ceeb; stroke: #000000"/>
     <use xlink:href="#m60b2a5c76c" x="378.432205" y="295.245483" style="fill: #87ceeb; stroke: #000000"/>
     <use xlink:href="#m60b2a5c76c" x="162.78942" y="190.102053" style="fill: #87ceeb; stroke: #000000"/>
     <use xlink:href="#m60b2a5c76c" x="361.112472" y="156.075006" style="fill: #87ceeb; stroke: #000000"/>
     <use xlink:href="#m60b2a5c76c" x="107.358061" y="439.423517" style="fill: #87ceeb; stroke: #000000"/>
     <use xlink:href="#m60b2a5c76c" x="203.053673" y="169.903363" style="fill: #87ceeb; stroke: #000000"/>
     <use xlink:href="#m60b2a5c76c" x="358.060605" y="315.880248" style="fill: #87ceeb; stroke: #000000"/>
     <use xlink:href="#m60b2a5c76c" x="208.474627" y="171.736216" style="fill: #87ceeb; stroke: #000000"/>
     <use xlink:href="#m60b2a5c76c" x="308.952448" y="133.740591" style="fill: #87ceeb; stroke: #000000"/>
     <use xlink:href="#m60b2a5c76c" x="301.329762" y="106.269339" style="fill: #87ceeb; stroke: #000000"/>
     <use xlink:href="#m60b2a5c76c" x="325.339361" y="170.442806" style="fill: #87ceeb; stroke: #000000"/>
     <use xlink:href="#m60b2a5c76c" x="199.821544" y="147.682748" style="fill: #87ceeb; stroke: #000000"/>
     <use xlink:href="#m60b2a5c76c" x="451.685766" y="323.356462" style="fill: #87ceeb; stroke: #000000"/>
     <use xlink:href="#m60b2a5c76c" x="309.36872" y="225.484187" style="fill: #87ceeb; stroke: #000000"/>
     <use xlink:href="#m60b2a5c76c" x="174.774294" y="205.454471" style="fill: #87ceeb; stroke: #000000"/>
     <use xlink:href="#m60b2a5c76c" x="384.862824" y="207.456037" style="fill: #87ceeb; stroke: #000000"/>
     <use xlink:href="#m60b2a5c76c" x="426.450721" y="300.325116" style="fill: #87ceeb; stroke: #000000"/>
     <use xlink:href="#m60b2a5c76c" x="162.821047" y="211.999894" style="fill: #87ceeb; stroke: #000000"/>
     <use xlink:href="#m60b2a5c76c" x="66.561037" y="251.744516" style="fill: #87ceeb; stroke: #000000"/>
     <use xlink:href="#m60b2a5c76c" x="34.197905" y="378.244596" style="fill: #87ceeb; stroke: #000000"/>
     <use xlink:href="#m60b2a5c76c" x="149.674415" y="285.095693" style="fill: #87ceeb; stroke: #000000"/>
     <use xlink:href="#m60b2a5c76c" x="119.605554" y="356.853588" style="fill: #87ceeb; stroke: #000000"/>
     <use xlink:href="#m60b2a5c76c" x="231.879928" y="197.41897" style="fill: #87ceeb; stroke: #000000"/>
     <use xlink:href="#m60b2a5c76c" x="124.057047" y="313.811684" style="fill: #87ceeb; stroke: #000000"/>
     <use xlink:href="#m60b2a5c76c" x="242.424579" y="242.009851" style="fill: #87ceeb; stroke: #000000"/>
     <use xlink:href="#m60b2a5c76c" x="369.722846" y="332.45777" style="fill: #87ceeb; stroke: #000000"/>
     <use xlink:href="#m60b2a5c76c" x="298.134899" y="182.084404" style="fill: #87ceeb; stroke: #000000"/>
     <use xlink:href="#m60b2a5c76c" x="487.671083" y="382.722982" style="fill: #87ceeb; stroke: #000000"/>
     <use xlink:href="#m60b2a5c76c" x="240.566956" y="180.098086" style="fill: #87ceeb; stroke: #000000"/>
     <use xlink:href="#m60b2a5c76c" x="369.466076" y="203.762767" style="fill: #87ceeb; stroke: #000000"/>
     <use xlink:href="#m60b2a5c76c" x="329.200078" y="233.759521" style="fill: #87ceeb; stroke: #000000"/>
    </g>
   </g>
   <g id="PathCollection_2">
    <defs>
     <path id="mbbebec031a" d="M -3 3 
L 3 3 
L 3 -3 
L -3 -3 
z
" style="stroke: #000000"/>
    </defs>
    <g clip-path="url(#p1a9c803590)">
     <use xlink:href="#mbbebec031a" x="520.683975" y="501.472093" style="fill: #fa8072; stroke: #000000"/>
     <use xlink:href="#mbbebec031a" x="282.323206" y="234.309746" style="fill: #fa8072; stroke: #000000"/>
     <use xlink:href="#mbbebec031a" x="379.975367" y="441.649159" style="fill: #fa8072; stroke: #000000"/>
     <use xlink:href="#mbbebec031a" x="481.928733" y="474.444725" style="fill: #fa8072; stroke: #000000"/>
     <use xlink:href="#mbbebec031a" x="502.86751" y="538.766724" style="fill: #fa8072; stroke: #000000"/>
     <use xlink:href="#mbbebec031a" x="579.313181" y="258.133203" style="fill: #fa8072; stroke: #000000"/>
     <use xlink:href="#mbbebec031a" x="442.028747" y="433.263649" style="fill: #fa8072; stroke: #000000"/>
     <use xlink:href="#mbbebec031a" x="416.913165" y="498.046386" style="fill: #fa8072; stroke: #000000"/>
     <use xlink:href="#mbbebec031a" x="238.982591" y="352.852548" style="fill: #fa8072; stroke: #000000"/>
     <use xlink:href="#mbbebec031a" x="561.699817" y="420.295767" style="fill: #fa8072; stroke: #000000"/>
     <use xlink:href="#mbbebec031a" x="311.683935" y="308.383264" style="fill: #fa8072; stroke: #000000"/>
     <use xlink:href="#mbbebec031a" x="579.409991" y="385.954159" style="fill: #fa8072; stroke: #000000"/>
     <use xlink:href="#mbbebec031a" x="358.387969" y="525.843697" style="fill: #fa8072; stroke: #000000"/>
     <use xlink:href="#mbbebec031a" x="560.194919" y="513.90773" style="fill: #fa8072; stroke: #000000"/>
     <use xlink:href="#mbbebec031a" x="635.329044" y="452.813271" style="fill: #fa8072; stroke: #000000"/>
     <use xlink:href="#mbbebec031a" x="284.441606" y="488.3798" style="fill: #fa8072; stroke: #000000"/>
     <use xlink:href="#mbbebec031a" x="321.963253" y="367.080315" style="fill: #fa8072; stroke: #000000"/>
     <use xlink:href="#mbbebec031a" x="599.884472" y="286.364122" style="fill: #fa8072; stroke: #000000"/>
     <use xlink:href="#mbbebec031a" x="526.805393" y="461.104429" style="fill: #fa8072; stroke: #000000"/>
     <use xlink:href="#mbbebec031a" x="312.599588" y="495.922871" style="fill: #fa8072; stroke: #000000"/>
     <use xlink:href="#mbbebec031a" x="483.31307" y="379.803478" style="fill: #fa8072; stroke: #000000"/>
     <use xlink:href="#mbbebec031a" x="313.791267" y="541.802095" style="fill: #fa8072; stroke: #000000"/>
     <use xlink:href="#mbbebec031a" x="488.401353" y="396.636566" style="fill: #fa8072; stroke: #000000"/>
     <use xlink:href="#mbbebec031a" x="324.333633" y="386.638449" style="fill: #fa8072; stroke: #000000"/>
     <use xlink:href="#mbbebec031a" x="533.462057" y="203.241585" style="fill: #fa8072; stroke: #000000"/>
     <use xlink:href="#mbbebec031a" x="290.652384" y="151.550281" style="fill: #fa8072; stroke: #000000"/>
     <use xlink:href="#mbbebec031a" x="273.271981" y="260.647916" style="fill: #fa8072; stroke: #000000"/>
     <use xlink:href="#mbbebec031a" x="379.467787" y="460.232681" style="fill: #fa8072; stroke: #000000"/>
     <use xlink:href="#mbbebec031a" x="405.971233" y="400.363849" style="fill: #fa8072; stroke: #000000"/>
     <use xlink:href="#mbbebec031a" x="283.533996" y="378.606581" style="fill: #fa8072; stroke: #000000"/>
     <use xlink:href="#mbbebec031a" x="677.057043" y="293.69662" style="fill: #fa8072; stroke: #000000"/>
     <use xlink:href="#mbbebec031a" x="459.417111" y="463.963163" style="fill: #fa8072; stroke: #000000"/>
     <use xlink:href="#mbbebec031a" x="304.419642" y="478.40343" style="fill: #fa8072; stroke: #000000"/>
     <use xlink:href="#mbbebec031a" x="561.872298" y="304.064145" style="fill: #fa8072; stroke: #000000"/>
     <use xlink:href="#mbbebec031a" x="252.797186" y="403.84642" style="fill: #fa8072; stroke: #000000"/>
     <use xlink:href="#mbbebec031a" x="331.091118" y="498.105139" style="fill: #fa8072; stroke: #000000"/>
     <use xlink:href="#mbbebec031a" x="587.295005" y="392.403972" style="fill: #fa8072; stroke: #000000"/>
     <use xlink:href="#mbbebec031a" x="235.585831" y="424.919648" style="fill: #fa8072; stroke: #000000"/>
     <use xlink:href="#mbbebec031a" x="272.088148" y="491.417645" style="fill: #fa8072; stroke: #000000"/>
     <use xlink:href="#mbbebec031a" x="521.781556" y="346.349809" style="fill: #fa8072; stroke: #000000"/>
     <use xlink:href="#mbbebec031a" x="255.922895" y="329.710579" style="fill: #fa8072; stroke: #000000"/>
     <use xlink:href="#mbbebec031a" x="511.039775" y="383.974186" style="fill: #fa8072; stroke: #000000"/>
     <use xlink:href="#mbbebec031a" x="473.626117" y="348.275693" style="fill: #fa8072; stroke: #000000"/>
     <use xlink:href="#mbbebec031a" x="389.921074" y="440.743035" style="fill: #fa8072; stroke: #000000"/>
     <use xlink:href="#mbbebec031a" x="518.04054" y="397.991933" style="fill: #fa8072; stroke: #000000"/>
     <use xlink:href="#mbbebec031a" x="472.272363" y="434.553178" style="fill: #fa8072; stroke: #000000"/>
     <use xlink:href="#mbbebec031a" x="287.637704" y="421.941743" style="fill: #fa8072; stroke: #000000"/>
     <use xlink:href="#mbbebec031a" x="443.025003" y="501.821342" style="fill: #fa8072; stroke: #000000"/>
     <use xlink:href="#mbbebec031a" x="550.02534" y="402.747531" style="fill: #fa8072; stroke: #000000"/>
     <use xlink:href="#mbbebec031a" x="247.109764" y="269.341945" style="fill: #fa8072; stroke: #000000"/>
    </g>
   </g>
   <g id="matplotlib.axis_1">
    <g id="xtick_1">
     <g id="line2d_1">
      <defs>
       <path id="mc466d44ba8" d="M 0 0 
L 0 3.5 
" style="stroke: #000000; stroke-width: 0.8"/>
      </defs>
      <g>
       <use xlink:href="#mc466d44ba8" x="106.270766" y="541.802095" style="stroke: #000000; stroke-width: 0.8"/>
      </g>
     </g>
    </g>
    <g id="xtick_2">
     <g id="line2d_2">
      <g>
       <use xlink:href="#mc466d44ba8" x="183.659754" y="541.802095" style="stroke: #000000; stroke-width: 0.8"/>
      </g>
     </g>
    </g>
    <g id="xtick_3">
     <g id="line2d_3">
      <g>
       <use xlink:href="#mc466d44ba8" x="261.048742" y="541.802095" style="stroke: #000000; stroke-width: 0.8"/>
      </g>
     </g>
    </g>
    <g id="xtick_4">
     <g id="line2d_4">
      <g>
       <use xlink:href="#mc466d44ba8" x="338.43773" y="541.802095" style="stroke: #000000; stroke-width: 0.8"/>
      </g>
     </g>
    </g>
    <g id="xtick_5">
     <g id="line2d_5">
      <g>
       <use xlink:href="#mc466d44ba8" x="415.826718" y="541.802095" style="stroke: #000000; stroke-width: 0.8"/>
      </g>
     </g>
    </g>
    <g id="xtick_6">
     <g id="line2d_6">
      <g>
       <use xlink:href="#mc466d44ba8" x="493.215706" y="541.802095" style="stroke: #000000; stroke-width: 0.8"/>
      </g>
     </g>
    </g>
    <g id="xtick_7">
     <g id="line2d_7">
      <g>
       <use xlink:href="#mc466d44ba8" x="570.604694" y="541.802095" style="stroke: #000000; stroke-width: 0.8"/>
      </g>
     </g>
    </g>
    <g id="xtick_8">
     <g id="line2d_8">
      <g>
       <use xlink:href="#mc466d44ba8" x="647.993682" y="541.802095" style="stroke: #000000; stroke-width: 0.8"/>
      </g>
     </g>
    </g>
    <g id="text_1">
     <!-- $x_1$ -->
     <g transform="translate(365.309955 562.487972) scale(0.14 -0.14)">
      <defs>
       <path id="CMMI12-78" d="M 3034 2606 
C 2829 2567 2752 2414 2752 2293 
C 2752 2139 2874 2088 2963 2088 
C 3155 2088 3290 2254 3290 2427 
C 3290 2695 2982 2816 2714 2816 
C 2323 2816 2106 2433 2048 2312 
C 1901 2816 1504 2816 1389 2816 
C 736 2816 390 1980 390 1839 
C 390 1814 416 1782 461 1782 
C 512 1782 525 1820 538 1846 
C 755 2555 1184 2689 1370 2689 
C 1658 2689 1715 2420 1715 2267 
C 1715 2127 1677 1980 1600 1673 
L 1382 798 
C 1286 415 1101 64 762 64 
C 730 64 570 64 435 147 
C 666 192 717 383 717 460 
C 717 588 621 664 499 664 
C 346 664 179 530 179 326 
C 179 57 480 -64 755 -64 
C 1062 -64 1280 179 1414 441 
C 1517 64 1837 -64 2074 -64 
C 2726 -64 3072 773 3072 913 
C 3072 945 3046 971 3008 971 
C 2950 971 2944 939 2925 888 
C 2752 326 2381 64 2093 64 
C 1869 64 1747 230 1747 492 
C 1747 632 1773 734 1875 1156 
L 2099 2024 
C 2195 2408 2413 2689 2707 2689 
C 2720 2689 2899 2689 3034 2606 
z
" transform="scale(0.015625)"/>
       <path id="CMR17-31" d="M 1702 4058 
C 1702 4192 1696 4192 1606 4192 
C 1357 3916 979 3827 621 3827 
C 602 3827 570 3827 563 3808 
C 557 3795 557 3782 557 3648 
C 755 3648 1088 3686 1344 3839 
L 1344 461 
C 1344 236 1331 160 781 160 
L 589 160 
L 589 0 
C 896 0 1216 0 1523 0 
C 1830 0 2150 0 2458 0 
L 2458 160 
L 2266 160 
C 1715 160 1702 230 1702 458 
L 1702 4058 
z
" transform="scale(0.015625)"/>
      </defs>
      <use xlink:href="#CMMI12-78" transform="scale(0.996264)"/>
      <use xlink:href="#CMR17-31" transform="translate(55.43406 -14.943915) scale(0.697382)"/>
     </g>
    </g>
   </g>
   <g id="matplotlib.axis_2">
    <g id="ytick_1">
     <g id="line2d_9">
      <defs>
       <path id="mfd0d796f5a" d="M 0 0 
L -3.5 0 
" style="stroke: #000000; stroke-width: 0.8"/>
      </defs>
      <g>
       <use xlink:href="#mfd0d796f5a" x="34.197905" y="483.503679" style="stroke: #000000; stroke-width: 0.8"/>
      </g>
     </g>
    </g>
    <g id="ytick_2">
     <g id="line2d_10">
      <g>
       <use xlink:href="#mfd0d796f5a" x="34.197905" y="373.703078" style="stroke: #000000; stroke-width: 0.8"/>
      </g>
     </g>
    </g>
    <g id="ytick_3">
     <g id="line2d_11">
      <g>
       <use xlink:href="#mfd0d796f5a" x="34.197905" y="263.902477" style="stroke: #000000; stroke-width: 0.8"/>
      </g>
     </g>
    </g>
    <g id="ytick_4">
     <g id="line2d_12">
      <g>
       <use xlink:href="#mfd0d796f5a" x="34.197905" y="154.101876" style="stroke: #000000; stroke-width: 0.8"/>
      </g>
     </g>
    </g>
    <g id="ytick_5">
     <g id="line2d_13">
      <g>
       <use xlink:href="#mfd0d796f5a" x="34.197905" y="44.301274" style="stroke: #000000; stroke-width: 0.8"/>
      </g>
     </g>
    </g>
    <g id="text_2">
     <!-- $x_2$ -->
     <g transform="translate(20.485876 290.626664) rotate(-90) scale(0.14 -0.14)">
      <defs>
       <path id="CMR17-32" d="M 2669 989 
L 2554 989 
C 2490 536 2438 459 2413 420 
C 2381 369 1920 369 1830 369 
L 602 369 
C 832 619 1280 1072 1824 1597 
C 2214 1967 2669 2402 2669 3035 
C 2669 3790 2067 4224 1395 4224 
C 691 4224 262 3604 262 3030 
C 262 2780 448 2748 525 2748 
C 589 2748 781 2787 781 3010 
C 781 3207 614 3264 525 3264 
C 486 3264 448 3258 422 3245 
C 544 3790 915 4058 1306 4058 
C 1862 4058 2227 3617 2227 3035 
C 2227 2479 1901 2000 1536 1584 
L 262 146 
L 262 0 
L 2515 0 
L 2669 989 
z
" transform="scale(0.015625)"/>
      </defs>
      <use xlink:href="#CMMI12-78" transform="scale(0.996264)"/>
      <use xlink:href="#CMR17-32" transform="translate(55.43406 -14.943915) scale(0.697382)"/>
     </g>
    </g>
   </g>
   <g id="PathCollection_3">
    <path d="M 676.526505 63.569764 
L 34.197905 378.237773 
L 34.197905 378.237773 
" clip-path="url(#p1a9c803590)" style="fill: none; stroke-dasharray: 5.55,2.4; stroke-dashoffset: 0; stroke: #000000; stroke-opacity: 0.75; stroke-width: 1.5"/>
   </g>
   <g id="PathCollection_4">
    <path d="M 676.526505 156.220176 
L 34.197905 470.888185 
L 34.197905 470.888185 
" clip-path="url(#p1a9c803590)" style="fill: none; stroke: #000000; stroke-opacity: 0.75; stroke-width: 1.5"/>
   </g>
   <g id="PathCollection_5">
    <path d="M 676.526505 248.870588 
L 78.568403 541.802095 
L 78.568403 541.802095 
" clip-path="url(#p1a9c803590)" style="fill: none; stroke-dasharray: 5.55,2.4; stroke-dashoffset: 0; stroke: #000000; stroke-opacity: 0.75; stroke-width: 1.5"/>
   </g>
   <g id="patch_3">
    <path d="M 34.197905 541.802095 
L 34.197905 26.673238 
" style="fill: none; stroke: #000000; stroke-width: 0.5; stroke-linejoin: miter; stroke-linecap: square"/>
   </g>
   <g id="patch_4">
    <path d="M 34.197905 541.802095 
L 709.2 541.802095 
" style="fill: none; stroke: #000000; stroke-width: 0.5; stroke-linejoin: miter; stroke-linecap: square"/>
   </g>
   <g id="text_3">
    <!-- SVM with linear kernel.$k(x,y) = x^\top y$ -->
    <g transform="translate(279.908728 20.673238) scale(0.12 -0.12)">
     <defs>
      <path id="CMSS17-53" d="M 2797 4169 
C 2515 4334 2208 4480 1690 4480 
C 864 4480 333 3879 333 3266 
C 333 3025 403 2753 653 2475 
C 902 2196 1184 2121 1542 2033 
C 1690 1994 1939 1924 1984 1906 
C 2342 1767 2515 1444 2515 1140 
C 2515 742 2202 318 1645 318 
C 1453 318 890 318 358 819 
L 269 318 
C 794 -64 1363 -128 1651 -128 
C 2438 -128 3002 488 3002 1186 
C 3002 1440 2925 1763 2656 2061 
C 2394 2347 2163 2410 1638 2549 
C 1338 2626 1146 2677 986 2873 
C 877 3013 819 3146 819 3317 
C 819 3673 1126 4060 1690 4060 
C 1971 4060 2336 4002 2707 3660 
L 2797 4169 
z
" transform="scale(0.015625)"/>
      <path id="CMSS17-56" d="M 3910 4416 
L 3411 4416 
L 2304 1362 
C 2272 1273 2074 688 2035 484 
L 2029 484 
C 1978 726 1773 1292 1664 1604 
L 922 3672 
L 646 4416 
L 83 4416 
L 1715 0 
L 2278 0 
L 3910 4416 
z
" transform="scale(0.015625)"/>
      <path id="CMSS17-4d" d="M 3194 2371 
L 2886 1473 
C 2835 1307 2662 791 2624 587 
L 2618 587 
C 2598 715 2560 849 2458 1174 
C 2400 1365 2336 1562 2272 1741 
L 1325 4416 
L 576 4416 
L 576 0 
L 1075 0 
L 1075 3900 
L 1082 3900 
C 1082 3894 1139 3613 1530 2499 
L 2374 96 
L 2848 96 
L 3610 2231 
C 3661 2378 3821 2843 3891 3066 
C 3955 3257 4115 3728 4154 3913 
L 4160 3913 
L 4160 0 
L 4666 0 
L 4666 4416 
L 3923 4416 
L 3194 2371 
z
" transform="scale(0.015625)"/>
      <path id="CMSS17-77" d="M 4013 2752 
L 3526 2752 
L 3187 1601 
C 3117 1358 2918 685 2893 371 
L 2886 371 
C 2874 564 2765 1024 2586 1633 
L 2259 2752 
L 1818 2752 
L 1498 1658 
C 1338 1101 1216 627 1203 371 
L 1197 371 
C 1171 749 909 1633 870 1773 
L 582 2752 
L 83 2752 
L 915 0 
L 1402 0 
C 1734 1096 1990 1943 2010 2370 
C 2022 2160 2131 1707 2195 1484 
L 2618 0 
L 3181 0 
L 4013 2752 
z
" transform="scale(0.015625)"/>
      <path id="CMSS17-69" d="M 979 4183 
L 442 4183 
L 442 3648 
L 979 3648 
L 979 4183 
z
M 947 2739 
L 474 2739 
L 474 0 
L 947 0 
L 947 2739 
z
" transform="scale(0.015625)"/>
      <path id="CMSS17-74" d="M 1069 2368 
L 1901 2368 
L 1901 2737 
L 1069 2737 
L 1069 3520 
L 614 3520 
L 614 2737 
L 109 2737 
L 109 2368 
L 602 2368 
L 602 749 
C 602 384 685 -64 1107 -64 
C 1427 -64 1722 25 2003 172 
L 1901 548 
C 1747 414 1562 337 1363 337 
C 1082 337 1069 696 1069 856 
L 1069 2368 
z
" transform="scale(0.015625)"/>
      <path id="CMSS17-68" d="M 2618 1891 
C 2618 2292 2522 2820 1798 2820 
C 1395 2820 1133 2623 947 2407 
L 947 4448 
L 474 4448 
L 474 32 
L 960 32 
L 960 1573 
C 960 1973 1114 2432 1549 2432 
C 2112 2432 2131 2056 2131 1839 
L 2131 32 
L 2618 32 
L 2618 1891 
z
" transform="scale(0.015625)"/>
      <path id="CMSS17-6c" d="M 947 4416 
L 474 4416 
L 474 0 
L 947 0 
L 947 4416 
z
" transform="scale(0.015625)"/>
      <path id="CMSS17-6e" d="M 2618 1877 
C 2618 2283 2522 2816 1798 2816 
C 1389 2816 1120 2606 941 2389 
L 941 2758 
L 474 2758 
L 474 0 
L 960 0 
L 960 1559 
C 960 1964 1114 2428 1549 2428 
C 2112 2428 2131 2048 2131 1829 
L 2131 0 
L 2618 0 
L 2618 1877 
z
" transform="scale(0.015625)"/>
      <path id="CMSS17-65" d="M 2502 1377 
C 2502 1590 2490 2003 2285 2345 
C 2061 2713 1696 2816 1421 2816 
C 755 2816 192 2188 192 1375 
C 192 582 774 -64 1510 -64 
C 1798 -64 2150 19 2470 248 
C 2470 274 2458 414 2451 420 
C 2451 433 2432 630 2432 656 
C 2125 407 1773 325 1517 325 
C 1107 325 666 667 646 1377 
L 2502 1377 
z
M 698 1728 
C 781 2084 1062 2421 1421 2421 
C 1517 2421 1965 2421 2080 1728 
L 698 1728 
z
" transform="scale(0.015625)"/>
      <path id="CMSS17-61" d="M 2406 1791 
C 2406 2392 1978 2808 1402 2808 
C 1120 2808 813 2757 461 2553 
L 499 2135 
C 659 2248 934 2432 1395 2432 
C 1722 2432 1920 2180 1920 1782 
L 1920 1536 
C 896 1536 256 1238 256 726 
C 256 461 416 -64 947 -64 
C 1043 -64 1562 -64 1933 217 
L 1933 -19 
L 2406 -19 
L 2406 1791 
z
M 1920 816 
C 1920 701 1920 548 1728 434 
C 1562 325 1350 325 1261 325 
C 941 325 723 511 723 744 
C 723 1211 1722 1211 1920 1211 
L 1920 816 
z
" transform="scale(0.015625)"/>
      <path id="CMSS17-72" d="M 954 1363 
C 954 1965 1395 2368 1958 2368 
L 1958 2789 
C 1549 2789 1165 2585 934 2253 
L 934 2758 
L 480 2758 
L 480 0 
L 954 0 
L 954 1363 
z
" transform="scale(0.015625)"/>
      <path id="CMSS17-6b" d="M 1696 1688 
L 2688 2739 
L 2074 2739 
L 954 1554 
L 954 4416 
L 480 4416 
L 480 0 
L 947 0 
L 947 892 
L 1376 1344 
L 2278 0 
L 2822 0 
L 1696 1688 
z
" transform="scale(0.015625)"/>
      <path id="CMSS17-2e" d="M 1088 510 
L 576 510 
L 576 0 
L 1088 0 
L 1088 510 
z
" transform="scale(0.015625)"/>
      <path id="CMMI12-6b" d="M 1798 4257 
C 1805 4283 1818 4321 1818 4352 
C 1818 4416 1754 4416 1741 4416 
C 1734 4416 1504 4393 1389 4377 
C 1280 4377 1184 4358 1069 4358 
C 915 4345 870 4339 870 4224 
C 870 4160 934 4160 998 4160 
C 1325 4160 1325 4103 1325 4040 
C 1325 4015 1325 4002 1293 3888 
L 378 248 
C 352 152 352 140 352 101 
C 352 -38 461 -64 525 -64 
C 704 -64 742 77 794 275 
L 1094 1469 
C 1555 1418 1830 1226 1830 920 
C 1830 881 1830 856 1811 760 
C 1786 664 1786 588 1786 556 
C 1786 185 2029 -64 2355 -64 
C 2650 -64 2803 204 2854 294 
C 2989 530 3072 888 3072 913 
C 3072 945 3046 971 3008 971 
C 2950 971 2944 945 2918 843 
C 2829 511 2694 64 2368 64 
C 2240 64 2157 128 2157 370 
C 2157 492 2182 632 2208 728 
C 2234 843 2234 849 2234 926 
C 2234 1303 1894 1514 1306 1590 
C 1536 1731 1766 1980 1856 2076 
C 2221 2484 2470 2689 2765 2689 
C 2912 2689 2950 2650 2995 2612 
C 2758 2586 2669 2420 2669 2293 
C 2669 2139 2790 2088 2880 2088 
C 3053 2088 3206 2235 3206 2440 
C 3206 2625 3059 2816 2771 2816 
C 2419 2816 2131 2567 1677 2056 
C 1613 1980 1376 1737 1139 1648 
L 1798 4257 
z
" transform="scale(0.015625)"/>
      <path id="CMR17-28" d="M 1958 -1561 
C 1958 -1555 1958 -1542 1939 -1523 
C 1645 -1224 858 -407 858 1581 
C 858 3569 1632 4379 1946 4697 
C 1946 4704 1958 4717 1958 4736 
C 1958 4755 1939 4768 1914 4768 
C 1843 4768 1299 4296 986 3594 
C 666 2887 576 2199 576 1588 
C 576 1128 621 351 1005 -471 
C 1312 -1135 1837 -1600 1914 -1600 
C 1946 -1600 1958 -1587 1958 -1561 
z
" transform="scale(0.015625)"/>
      <path id="CMMI12-3b" d="M 1248 -31 
C 1248 343 1126 619 864 619 
C 659 619 557 453 557 313 
C 557 172 653 0 870 0 
C 954 0 1024 26 1082 83 
C 1094 96 1101 96 1107 96 
C 1120 96 1120 5 1120 -27 
C 1120 -240 1082 -659 710 -1080 
C 640 -1157 640 -1170 640 -1183 
C 640 -1216 672 -1248 704 -1248 
C 755 -1248 1248 -771 1248 -31 
z
" transform="scale(0.015625)"/>
      <path id="CMMI12-79" d="M 1683 -700 
C 1510 -939 1261 -1152 947 -1152 
C 870 -1152 563 -1152 467 -889 
C 486 -895 518 -895 531 -895 
C 723 -895 851 -729 851 -582 
C 851 -435 730 -384 634 -384 
C 531 -384 307 -458 307 -759 
C 307 -1071 582 -1286 947 -1286 
C 1587 -1286 2234 -700 2413 6 
L 3040 2485 
C 3046 2517 3059 2556 3059 2594 
C 3059 2689 2982 2753 2886 2753 
C 2829 2753 2694 2727 2643 2535 
L 2170 658 
C 2138 543 2138 530 2086 460 
C 1958 281 1747 64 1440 64 
C 1082 64 1050 415 1050 588 
C 1050 952 1222 1443 1395 1903 
C 1466 2088 1504 2178 1504 2305 
C 1504 2574 1312 2816 998 2816 
C 410 2816 173 1890 173 1839 
C 173 1814 198 1782 243 1782 
C 301 1782 307 1807 333 1897 
C 486 2433 730 2689 979 2689 
C 1037 2689 1146 2689 1146 2478 
C 1146 2312 1075 2127 979 1884 
C 666 1047 666 837 666 683 
C 666 77 1101 -64 1421 -64 
C 1606 -64 1837 -6 2061 230 
L 2067 224 
C 1971 -147 1907 -392 1683 -700 
z
" transform="scale(0.015625)"/>
      <path id="CMR17-29" d="M 1683 1581 
C 1683 2040 1638 2817 1254 3639 
C 947 4303 422 4768 346 4768 
C 326 4768 301 4761 301 4729 
C 301 4717 307 4710 314 4697 
C 621 4378 1402 3568 1402 1584 
C 1402 -407 627 -1217 314 -1537 
C 307 -1549 301 -1556 301 -1568 
C 301 -1600 326 -1600 346 -1600 
C 416 -1600 960 -1128 1274 -426 
C 1594 281 1683 969 1683 1581 
z
" transform="scale(0.015625)"/>
      <path id="CMR17-3d" d="M 4115 2017 
C 4211 2017 4307 2017 4307 2125 
C 4307 2240 4198 2240 4090 2240 
L 512 2240 
C 403 2240 294 2240 294 2125 
C 294 2017 390 2017 486 2017 
L 4115 2017 
z
M 4090 896 
C 4198 896 4307 896 4307 1011 
C 4307 1119 4211 1119 4115 1119 
L 486 1119 
C 390 1119 294 1119 294 1011 
C 294 896 403 896 512 896 
L 4090 896 
z
" transform="scale(0.015625)"/>
      <path id="CMSY10-3e" d="M 2618 4029 
L 4403 4029 
C 4512 4029 4627 4029 4627 4157 
C 4627 4285 4512 4285 4403 4285 
L 582 4285 
C 486 4285 352 4285 352 4157 
C 352 4029 486 4029 582 4029 
L 2362 4029 
L 2362 240 
C 2362 144 2362 10 2490 10 
C 2618 10 2618 125 2618 240 
L 2618 4029 
z
" transform="scale(0.015625)"/>
     </defs>
     <use xlink:href="#CMSS17-53" transform="scale(0.996264)"/>
     <use xlink:href="#CMSS17-56" transform="translate(52.048516 0) scale(0.996264)"/>
     <use xlink:href="#CMSS17-4d" transform="translate(114.266371 0) scale(0.996264)"/>
     <use xlink:href="#CMSS17-77" transform="translate(227.171514 0) scale(0.996264)"/>
     <use xlink:href="#CMSS17-69" transform="translate(290.991059 0) scale(0.996264)"/>
     <use xlink:href="#CMSS17-74" transform="translate(313.171782 0) scale(0.996264)"/>
     <use xlink:href="#CMSS17-68" transform="translate(347.003349 0) scale(0.996264)"/>
     <use xlink:href="#CMSS17-6c" transform="translate(426.437405 0) scale(0.996264)"/>
     <use xlink:href="#CMSS17-69" transform="translate(448.618128 0) scale(0.996264)"/>
     <use xlink:href="#CMSS17-6e" transform="translate(470.798851 0) scale(0.996264)"/>
     <use xlink:href="#CMSS17-65" transform="translate(519.003794 0) scale(0.996264)"/>
     <use xlink:href="#CMSS17-61" transform="translate(560.642616 0) scale(0.996264)"/>
     <use xlink:href="#CMSS17-72" transform="translate(602.962082 0) scale(0.996264)"/>
     <use xlink:href="#CMSS17-6b" transform="translate(666.100968 0) scale(0.996264)"/>
     <use xlink:href="#CMSS17-65" transform="translate(709.101003 0) scale(0.996264)"/>
     <use xlink:href="#CMSS17-72" transform="translate(750.739825 0) scale(0.996264)"/>
     <use xlink:href="#CMSS17-6e" transform="translate(782.649598 0) scale(0.996264)"/>
     <use xlink:href="#CMSS17-65" transform="translate(830.854541 0) scale(0.996264)"/>
     <use xlink:href="#CMSS17-6c" transform="translate(872.493363 0) scale(0.996264)"/>
     <use xlink:href="#CMSS17-2e" transform="translate(894.674086 0) scale(0.996264)"/>
     <use xlink:href="#CMMI12-6b" transform="translate(920.698291 0) scale(0.996264)"/>
     <use xlink:href="#CMR17-28" transform="translate(974.777492 0) scale(0.996264)"/>
     <use xlink:href="#CMMI12-78" transform="translate(1010.058259 0) scale(0.996264)"/>
     <use xlink:href="#CMMI12-3b" transform="translate(1065.492319 0) scale(0.996264)"/>
     <use xlink:href="#CMMI12-79" transform="translate(1109.193901 0) scale(0.996264)"/>
     <use xlink:href="#CMR17-29" transform="translate(1160.332682 0) scale(0.996264)"/>
     <use xlink:href="#CMR17-3d" transform="translate(1223.287458 0) scale(0.996264)"/>
     <use xlink:href="#CMMI12-78" transform="translate(1322.676256 0) scale(0.996264)"/>
     <use xlink:href="#CMSY10-3e" transform="translate(1378.110315 36.153639) scale(0.697382)"/>
     <use xlink:href="#CMMI12-79" transform="translate(1432.84944 0) scale(0.996264)"/>
    </g>
   </g>
   <g id="legend_1">
    <g id="patch_5">
     <path d="M 636.299326 62.547595 
L 702.2 62.547595 
Q 704.2 62.547595 704.2 60.547595 
L 704.2 33.673238 
Q 704.2 31.673238 702.2 31.673238 
L 636.299326 31.673238 
Q 634.299326 31.673238 634.299326 33.673238 
L 634.299326 60.547595 
Q 634.299326 62.547595 636.299326 62.547595 
z
" style="fill: #ffffff; opacity: 0.8; stroke: #cccccc; stroke-linejoin: miter"/>
    </g>
    <g id="PathCollection_6">
     <g>
      <use xlink:href="#m60b2a5c76c" x="648.299326" y="40.048238" style="fill: #87ceeb; stroke: #000000"/>
     </g>
    </g>
    <g id="text_4">
     <!-- Classe 0 -->
     <g transform="translate(666.299326 42.673238) scale(0.1 -0.1)">
      <defs>
       <path id="CMSS17-43" d="M 3501 714 
C 3072 427 2874 344 2355 344 
C 1459 344 934 1303 934 2179 
C 934 3112 1472 4032 2381 4032 
C 2790 4032 3059 3918 3386 3715 
L 3475 4217 
C 3168 4370 2778 4440 2387 4440 
C 1158 4440 397 3316 397 2179 
C 397 927 1299 -64 2323 -64 
C 2874 -64 3066 -19 3539 280 
L 3501 714 
z
" transform="scale(0.015625)"/>
       <path id="CMSS17-73" d="M 2061 2627 
C 1683 2807 1389 2807 1197 2807 
C 742 2807 198 2648 198 2003 
C 198 1359 902 1218 1094 1179 
C 1389 1122 1715 1058 1715 740 
C 1715 337 1254 337 1171 337 
C 915 337 563 407 243 638 
L 166 210 
C 531 0 883 -64 1178 -64 
C 1965 -64 2163 416 2163 781 
C 2163 1094 1984 1305 1862 1401 
C 1651 1568 1574 1587 1050 1696 
C 960 1709 646 1779 646 2066 
C 646 2432 1050 2432 1139 2432 
C 1555 2432 1811 2303 1984 2208 
L 2061 2627 
z
" transform="scale(0.015625)"/>
       <path id="CMSS17-30" d="M 2758 2044 
C 2758 2405 2752 3077 2490 3596 
C 2227 4096 1805 4229 1504 4229 
C 1069 4229 698 3975 506 3570 
C 301 3146 243 2709 243 2044 
C 243 1589 262 1031 493 543 
C 755 5 1197 -128 1498 -128 
C 1894 -128 2278 81 2496 518 
C 2720 974 2758 1474 2758 2044 
z
M 1498 261 
C 1011 261 864 811 819 995 
C 742 1310 730 1614 730 2114 
C 730 2506 730 2948 851 3297 
C 998 3701 1254 3840 1498 3840 
C 1971 3840 2125 3372 2176 3208 
C 2272 2873 2272 2481 2272 2114 
C 2272 1526 2272 261 1498 261 
z
" transform="scale(0.015625)"/>
      </defs>
      <use xlink:href="#CMSS17-43" transform="scale(0.996264)"/>
      <use xlink:href="#CMSS17-6c" transform="translate(59.855772 0) scale(0.996264)"/>
      <use xlink:href="#CMSS17-61" transform="translate(82.036495 0) scale(0.996264)"/>
      <use xlink:href="#CMSS17-73" transform="translate(126.958415 0) scale(0.996264)"/>
      <use xlink:href="#CMSS17-73" transform="translate(162.871957 0) scale(0.996264)"/>
      <use xlink:href="#CMSS17-65" transform="translate(198.785499 0) scale(0.996264)"/>
      <use xlink:href="#CMSS17-30" transform="translate(271.653434 0) scale(0.996264)"/>
     </g>
    </g>
    <g id="PathCollection_7">
     <g>
      <use xlink:href="#mbbebec031a" x="648.299326" y="53.985417" style="fill: #fa8072; stroke: #000000"/>
     </g>
    </g>
    <g id="text_5">
     <!-- Classe 1 -->
     <g transform="translate(666.299326 56.610417) scale(0.1 -0.1)">
      <defs>
       <path id="CMSS17-31" d="M 1818 4288 
L 1696 4288 
C 1350 3940 947 3890 538 3890 
L 538 3520 
C 723 3520 1024 3520 1325 3667 
L 1325 369 
L 570 369 
L 570 0 
L 2573 0 
L 2573 369 
L 1818 369 
L 1818 4288 
z
" transform="scale(0.015625)"/>
      </defs>
      <use xlink:href="#CMSS17-43" transform="scale(0.996264)"/>
      <use xlink:href="#CMSS17-6c" transform="translate(59.855772 0) scale(0.996264)"/>
      <use xlink:href="#CMSS17-61" transform="translate(82.036495 0) scale(0.996264)"/>
      <use xlink:href="#CMSS17-73" transform="translate(126.958415 0) scale(0.996264)"/>
      <use xlink:href="#CMSS17-73" transform="translate(162.871957 0) scale(0.996264)"/>
      <use xlink:href="#CMSS17-65" transform="translate(198.785499 0) scale(0.996264)"/>
      <use xlink:href="#CMSS17-31" transform="translate(271.653434 0) scale(0.996264)"/>
     </g>
    </g>
   </g>
  </g>
 </g>
 <defs>
  <clipPath id="p1a9c803590">
   <rect x="34.197905" y="26.673238" width="675.002095" height="515.128857"/>
  </clipPath>
 </defs>
</svg>
