<?xml version="1.0" encoding="UTF-8" standalone="no"?>
<!-- Created with Inkscape (http://www.inkscape.org/) -->

<svg
   xmlns:ns0="http://www.iki.fi/pav/software/textext/"
   xmlns:dc="http://purl.org/dc/elements/1.1/"
   xmlns:cc="http://creativecommons.org/ns#"
   xmlns:rdf="http://www.w3.org/1999/02/22-rdf-syntax-ns#"
   xmlns:svg="http://www.w3.org/2000/svg"
   xmlns="http://www.w3.org/2000/svg"
   xmlns:xlink="http://www.w3.org/1999/xlink"
   xmlns:sodipodi="http://sodipodi.sourceforge.net/DTD/sodipodi-0.dtd"
   xmlns:inkscape="http://www.inkscape.org/namespaces/inkscape"
   width="671.40625"
   height="300"
   id="svg3154"
   version="1.1"
   inkscape:version="0.48.1 r9760"
   sodipodi:docname="svr.svg">
  <sodipodi:namedview
     id="base"
     pagecolor="#ffffff"
     bordercolor="#666666"
     borderopacity="1.0"
     inkscape:pageopacity="0.0"
     inkscape:pageshadow="2"
     inkscape:zoom="4.2537584"
     inkscape:cx="504.71876"
     inkscape:cy="127.23591"
     inkscape:document-units="px"
     inkscape:current-layer="layer1"
     showgrid="false"
     showguides="true"
     inkscape:guide-bbox="true"
     inkscape:window-width="1918"
     inkscape:window-height="1059"
     inkscape:window-x="0"
     inkscape:window-y="19"
     inkscape:window-maximized="1"
     fit-margin-top="0"
     fit-margin-left="0"
     fit-margin-right="0"
     fit-margin-bottom="0" />
  <defs
     id="defs3156">
    <marker
       inkscape:stockid="Arrow2Mstart"
       orient="auto"
       refY="0"
       refX="0"
       id="Arrow2Mstart"
       style="overflow:visible">
      <path
         id="path4278"
         style="font-size:12px;fill-rule:evenodd;stroke-width:0.625;stroke-linejoin:round"
         d="M 8.7185878,4.0337352 -2.2072895,0.01601326 8.7185884,-4.0017078 c -1.7454984,2.3720609 -1.7354408,5.6174519 -6e-7,8.035443 z"
         transform="scale(0.6,0.6)"
         inkscape:connector-curvature="0" />
    </marker>
    <marker
       inkscape:stockid="Arrow2Mend"
       orient="auto"
       refY="0"
       refX="0"
       id="Arrow2Mend"
       style="overflow:visible">
      <path
         id="path4281"
         style="font-size:12px;fill-rule:evenodd;stroke-width:0.625;stroke-linejoin:round"
         d="M 8.7185878,4.0337352 -2.2072895,0.01601326 8.7185884,-4.0017078 c -1.7454984,2.3720609 -1.7354408,5.6174519 -6e-7,8.035443 z"
         transform="scale(-0.6,-0.6)"
         inkscape:connector-curvature="0" />
    </marker>
    <marker
       inkscape:stockid="Arrow1Mstart"
       orient="auto"
       refY="0"
       refX="0"
       id="Arrow1Mstart"
       style="overflow:visible">
      <path
         id="path4260"
         d="M 0,0 5,-5 -12.5,0 5,5 0,0 z"
         style="fill-rule:evenodd;stroke:#000000;stroke-width:1pt;marker-start:none"
         transform="matrix(0.4,0,0,0.4,4,0)"
         inkscape:connector-curvature="0" />
    </marker>
    <marker
       inkscape:stockid="Arrow2Lstart"
       orient="auto"
       refY="0"
       refX="0"
       id="Arrow2Lstart"
       style="overflow:visible">
      <path
         id="path4272"
         style="font-size:12px;fill-rule:evenodd;stroke-width:0.625;stroke-linejoin:round"
         d="M 8.7185878,4.0337352 -2.2072895,0.01601326 8.7185884,-4.0017078 c -1.7454984,2.3720609 -1.7354408,5.6174519 -6e-7,8.035443 z"
         transform="matrix(1.1,0,0,1.1,1.1,0)"
         inkscape:connector-curvature="0" />
    </marker>
    <inkscape:path-effect
       effect="spiro"
       id="path-effect3877"
       is_visible="true" />
    <marker
       inkscape:stockid="Arrow1Lend"
       orient="auto"
       refY="0"
       refX="0"
       id="Arrow1Lend"
       style="overflow:visible">
      <path
         id="path4253"
         d="M 0,0 5,-5 -12.5,0 5,5 0,0 z"
         style="fill-rule:evenodd;stroke:#000000;stroke-width:1pt;marker-start:none"
         transform="matrix(-0.8,0,0,-0.8,-10,0)"
         inkscape:connector-curvature="0" />
    </marker>
    <marker
       inkscape:stockid="Arrow1Lstart"
       orient="auto"
       refY="0"
       refX="0"
       id="Arrow1Lstart"
       style="overflow:visible">
      <path
         id="path4250"
         d="M 0,0 5,-5 -12.5,0 5,5 0,0 z"
         style="fill-rule:evenodd;stroke:#000000;stroke-width:1pt;marker-start:none"
         transform="matrix(0.8,0,0,0.8,10,0)"
         inkscape:connector-curvature="0" />
    </marker>
  </defs>
  <metadata
     id="metadata3159">
    <rdf:RDF>
      <cc:Work
         rdf:about="">
        <dc:format>image/svg+xml</dc:format>
        <dc:type
           rdf:resource="http://purl.org/dc/dcmitype/StillImage" />
        <dc:title />
      </cc:Work>
    </rdf:RDF>
  </metadata>
  <g
     inkscape:label="Layer 1"
     inkscape:groupmode="layer"
     id="layer1"
     transform="translate(-53.21875,-355.21876)">
    <path
       style="fill:#eeeeee;stroke:none"
       d="M -67.071696,575.20459 767.88666,366.33822 792.88781,457.13651 -88.677181,675.91401 z"
       id="path3879"
       inkscape:connector-curvature="0" />
    <path
       style="fill:none;stroke:#000000;stroke-width:1.0585593px;stroke-linecap:butt;stroke-linejoin:miter;stroke-opacity:1"
       d="m 105.686,159.95394 0,534.66134"
       id="path3162"
       inkscape:connector-curvature="0" />
    <path
       style="fill:none;stroke:#000000;stroke-width:1.14448702px;stroke-linecap:butt;stroke-linejoin:miter;stroke-opacity:1"
       d="m -32.975732,634.4353 812.107272,0"
       id="path3164"
       inkscape:connector-curvature="0" />
    <path
       style="fill:#ef2929;stroke:#000000;stroke-width:2.37169814;stroke-linecap:butt;stroke-linejoin:miter;stroke-miterlimit:4;stroke-opacity:1;stroke-dasharray:none"
       d="m -240.97284,357.32577 16.77044,16.77044"
       id="path4003"
       inkscape:connector-curvature="0" />
    <path
       style="fill:#ef2929;stroke:#000000;stroke-width:2.37169814;stroke-linecap:butt;stroke-linejoin:miter;stroke-miterlimit:4;stroke-opacity:1;stroke-dasharray:none"
       d="m -240.97284,374.09621 16.77044,-16.77044"
       id="path4003-7"
       inkscape:connector-curvature="0" />
    <path
       style="fill:none;stroke:#000000;stroke-width:3.125;stroke-linecap:butt;stroke-linejoin:miter;stroke-miterlimit:4;stroke-opacity:1;stroke-dasharray:none;stroke-dashoffset:0"
       d="M 764.64105,415.08416 -65.197213,622.00288"
       id="path4188"
       inkscape:connector-curvature="0" />
    <path
       style="fill:none;stroke:#000000;stroke-width:3.125;stroke-linecap:butt;stroke-linejoin:miter;stroke-miterlimit:4;stroke-opacity:1;stroke-dasharray:6.25, 12.5;stroke-dashoffset:0"
       d="M 720.96775,377.56015 -61.895584,572.76575"
       id="path4188-0"
       inkscape:connector-curvature="0" />
    <path
       style="fill:none;stroke:#000000;stroke-width:3.125;stroke-linecap:butt;stroke-linejoin:miter;stroke-miterlimit:4;stroke-opacity:1;stroke-dasharray:6.25, 12.5;stroke-dashoffset:0"
       d="M 789.72669,456.39092 -17.494019,657.66999"
       id="path4188-0-9"
       inkscape:connector-curvature="0" />
    <path
       style="fill:none;stroke:#000000;stroke-width:1.875;stroke-linecap:butt;stroke-linejoin:miter;stroke-miterlimit:4;stroke-opacity:1;stroke-dasharray:none;marker-start:url(#Arrow2Mstart);marker-end:url(#Arrow2Mend)"
       d="m 688.51232,429.35927 -8.66176,-39.70201"
       id="path3881"
       inkscape:connector-curvature="0" />
    <g
       transform="matrix(5,0,0,5,-422.08744,-258.6845)"
       ns0:text="$\\varepsilon$"
       ns0:preamble=""
       id="g5329">
      <defs
         id="defs5331">
        <g
           id="g5333">
          <symbol
             style="overflow:visible"
             overflow="visible"
             id="textext-ab0586f1-0">
            <path
               inkscape:connector-curvature="0"
               style="stroke:none"
               d="M 1.40625,-2.265625 C 1.734375,-2.125 2.03125,-2.125 2.265625,-2.125 c 0.25,0 0.8125,0 0.8125,-0.3125 0,-0.234375 -0.359375,-0.265625 -0.734375,-0.265625 -0.203125,0 -0.5625,0.015625 -0.921875,0.1875 C 1.1875,-2.625 1.015625,-2.828125 1.015625,-3.09375 c 0,-0.609375 0.984375,-0.96875 1.875,-0.96875 0.15625,0 0.515625,0 0.921875,0.28125 0.109375,0.078125 0.125,0.109375 0.1875,0.109375 0.140625,0 0.28125,-0.140625 0.28125,-0.28125 0,-0.1875 -0.609375,-0.5625 -1.296875,-0.5625 -1.140625,0 -2.21875,0.671875 -2.21875,1.421875 0,0.4375 0.359375,0.6875 0.40625,0.71875 -0.59375,0.328125 -0.90625,0.875 -0.90625,1.34375 0,0.640625 0.5625,1.25 1.625,1.25 1.3125,0 1.875,-0.875 1.875,-1.03125 0,-0.0625 -0.0625,-0.09375 -0.109375,-0.09375 -0.0625,0 -0.09375,0.03125 -0.109375,0.0625 -0.140625,0.234375 -0.375,0.609375 -1.578125,0.609375 -0.609375,0 -1.453125,-0.15625 -1.453125,-0.859375 0,-0.34375 0.28125,-0.875 0.890625,-1.171875 z m 0.328125,-0.125 c 0.234375,-0.078125 0.4375,-0.09375 0.609375,-0.09375 0.25,0 0.28125,0.015625 0.46875,0.0625 -0.15625,0.0625 -0.171875,0.078125 -0.546875,0.078125 -0.21875,0 -0.34375,0 -0.53125,-0.046875 z m 0,0"
               id="path5336" />
          </symbol>
        </g>
      </defs>
      <g
         id="textext-ab0586f1-1">
        <g
           style="fill:#000000;fill-opacity:1"
           id="g5339">
          <use
             height="483.68454"
             width="671.40625"
             xlink:href="#textext-ab0586f1-0"
             x="223.43201"
             y="134.765"
             id="use5341" />
        </g>
      </g>
    </g>
    <g
       id="g5465"
       ns0:preamble=""
       ns0:text="$\\xi$"
       transform="matrix(3.984127,0,0,3.984127,-248.82508,-6.843855)">
      <defs
         id="defs5467">
        <g
           id="g5469">
          <symbol
             id="textext-c2eb5459-0"
             overflow="visible"
             style="overflow:visible">
            <path
               id="path5472"
               d="m 1.53125,-3.046875 c -1.078125,0.71875 -1.296875,1.65625 -1.296875,2.015625 0,0.46875 0.265625,0.75 0.28125,0.78125 0.328125,0.328125 0.40625,0.375 1.15625,0.65625 L 2.875,0.875 C 3.03125,0.9375 3.234375,1 3.234375,1.296875 c 0,0.234375 -0.1875,0.53125 -0.5,0.53125 -0.4375,0 -0.765625,-0.25 -0.875,-0.328125 C 1.796875,1.46875 1.796875,1.453125 1.75,1.453125 c -0.078125,0 -0.09375,0.078125 -0.09375,0.109375 0,0.125 0.53125,0.484375 1.078125,0.484375 0.625,0 1.046875,-0.578125 1.046875,-1.0625 C 3.78125,0.5 3.40625,0.3125 3.296875,0.265625 3.15625,0.21875 2.828125,0.09375 2.6875,0.046875 2.5,-0.046875 2.296875,-0.125 2.078125,-0.1875 l -0.59375,-0.234375 c -0.453125,-0.1875 -0.75,-0.46875 -0.75,-0.890625 0,-0.40625 0.390625,-1.28125 1.234375,-1.703125 C 2.328125,-2.875 2.625,-2.875 2.84375,-2.875 c 0.296875,0 0.921875,0 0.921875,-0.3125 0,-0.25 -0.421875,-0.265625 -0.8125,-0.265625 -0.1875,0 -0.46875,0 -0.84375,0.109375 -0.25,-0.25 -0.296875,-0.578125 -0.296875,-0.765625 0,-0.5625 0.359375,-1.328125 1.109375,-1.703125 0.171875,0.21875 0.40625,0.21875 0.640625,0.21875 0.25,0 0.890625,0 0.890625,-0.3125 0,-0.25 -0.453125,-0.265625 -0.828125,-0.265625 -0.140625,0 -0.375,0 -0.640625,0.046875 C 2.953125,-6.203125 2.9375,-6.28125 2.9375,-6.453125 c 0,-0.140625 0.046875,-0.34375 0.046875,-0.359375 0,-0.078125 -0.046875,-0.140625 -0.109375,-0.140625 -0.1875,0 -0.1875,0.46875 -0.1875,0.5 0,0.1875 0.0625,0.34375 0.078125,0.375 -1.078125,0.3125 -1.75,1.109375 -1.75,1.875 0,0.359375 0.1875,0.78125 0.65625,1.046875 z m 1.625,-2.859375 C 3.3125,-5.953125 3.515625,-5.953125 3.625,-5.953125 c 0.34375,0 0.375,0.015625 0.5625,0.0625 C 4.109375,-5.859375 4,-5.8125 3.5625,-5.8125 c -0.1875,0 -0.296875,0 -0.40625,-0.09375 z M 2.375,-3.1875 c 0.234375,-0.046875 0.453125,-0.046875 0.5625,-0.046875 0.359375,0 0.390625,0 0.578125,0.046875 -0.09375,0.046875 -0.1875,0.09375 -0.640625,0.09375 -0.234375,0 -0.328125,0 -0.5,-0.09375 z m 0,0"
               style="stroke:none"
               inkscape:connector-curvature="0" />
          </symbol>
        </g>
      </defs>
      <g
         id="textext-c2eb5459-1">
        <g
           id="g5475"
           style="fill:#000000;fill-opacity:1">
          <use
             id="use5477"
             y="134.765"
             x="223.43201"
             xlink:href="#textext-c2eb5459-0"
             width="671.40625"
             height="483.68454" />
        </g>
      </g>
    </g>
    <path
       style="fill:none;stroke:#000000;stroke-width:1.72993994;stroke-linecap:butt;stroke-linejoin:miter;stroke-miterlimit:4;stroke-opacity:1;stroke-dasharray:none;marker-start:url(#Arrow2Mstart);marker-end:url(#Arrow2Mend)"
       d="M 632.7092,550.18105 621.45233,502.26383"
       id="path5547"
       inkscape:connector-curvature="0" />
    <g
       id="g6299"
       transform="translate(-109.45914,-8.736213)">
      <path
         inkscape:connector-curvature="0"
         id="path4003-2"
         d="m 192.31581,566.02134 16.77044,16.77044"
         style="fill:#ef2929;stroke:#000000;stroke-width:2.37169814;stroke-linecap:butt;stroke-linejoin:miter;stroke-miterlimit:4;stroke-opacity:1;stroke-dasharray:none" />
      <path
         inkscape:connector-curvature="0"
         id="path4003-7-1"
         d="m 192.31581,582.79178 16.77044,-16.77044"
         style="fill:#ef2929;stroke:#000000;stroke-width:2.37169814;stroke-linecap:butt;stroke-linejoin:miter;stroke-miterlimit:4;stroke-opacity:1;stroke-dasharray:none" />
    </g>
    <g
       id="g6311"
       transform="translate(-30,90)">
      <path
         inkscape:connector-curvature="0"
         id="path4003-9"
         d="m 214.53916,496.32081 16.77044,16.77044"
         style="fill:#ef2929;stroke:#000000;stroke-width:2.37169814;stroke-linecap:butt;stroke-linejoin:miter;stroke-miterlimit:4;stroke-opacity:1;stroke-dasharray:none" />
      <path
         inkscape:connector-curvature="0"
         id="path4003-7-2"
         d="M 214.53916,513.09125 231.3096,496.32081"
         style="fill:#ef2929;stroke:#000000;stroke-width:2.37169814;stroke-linecap:butt;stroke-linejoin:miter;stroke-miterlimit:4;stroke-opacity:1;stroke-dasharray:none" />
    </g>
    <g
       id="g6315"
       transform="translate(-19.361212,65.397803)">
      <path
         inkscape:connector-curvature="0"
         id="path4003-76"
         d="m 277.16862,498.34112 16.77044,16.77044"
         style="fill:#ef2929;stroke:#000000;stroke-width:2.37169814;stroke-linecap:butt;stroke-linejoin:miter;stroke-miterlimit:4;stroke-opacity:1;stroke-dasharray:none" />
      <path
         inkscape:connector-curvature="0"
         id="path4003-7-27"
         d="m 277.16862,515.11156 16.77044,-16.77044"
         style="fill:#ef2929;stroke:#000000;stroke-width:2.37169814;stroke-linecap:butt;stroke-linejoin:miter;stroke-miterlimit:4;stroke-opacity:1;stroke-dasharray:none" />
    </g>
    <g
       id="g6323"
       transform="translate(-30,90)">
      <path
         inkscape:connector-curvature="0"
         id="path4003-3"
         d="m 330.70671,428.64059 16.77044,16.77044"
         style="fill:#ef2929;stroke:#000000;stroke-width:2.37169814;stroke-linecap:butt;stroke-linejoin:miter;stroke-miterlimit:4;stroke-opacity:1;stroke-dasharray:none" />
      <path
         inkscape:connector-curvature="0"
         id="path4003-7-8"
         d="m 330.70671,445.41103 16.77044,-16.77044"
         style="fill:#ef2929;stroke:#000000;stroke-width:2.37169814;stroke-linecap:butt;stroke-linejoin:miter;stroke-miterlimit:4;stroke-opacity:1;stroke-dasharray:none" />
    </g>
    <g
       id="g6319"
       transform="translate(-30,90)">
      <path
         inkscape:connector-curvature="0"
         id="path4003-24"
         d="m 374.14327,451.8741 16.77044,16.77044"
         style="fill:#ef2929;stroke:#000000;stroke-width:2.37169814;stroke-linecap:butt;stroke-linejoin:miter;stroke-miterlimit:4;stroke-opacity:1;stroke-dasharray:none" />
      <path
         inkscape:connector-curvature="0"
         id="path4003-7-7"
         d="M 374.14327,468.64454 390.91371,451.8741"
         style="fill:#ef2929;stroke:#000000;stroke-width:2.37169814;stroke-linecap:butt;stroke-linejoin:miter;stroke-miterlimit:4;stroke-opacity:1;stroke-dasharray:none" />
    </g>
    <g
       id="g6335"
       transform="translate(-30,90)">
      <path
         inkscape:connector-curvature="0"
         id="path4003-91"
         d="m 407.4783,378.13296 16.77044,16.77044"
         style="fill:#ef2929;stroke:#000000;stroke-width:2.37169814;stroke-linecap:butt;stroke-linejoin:miter;stroke-miterlimit:4;stroke-opacity:1;stroke-dasharray:none" />
      <path
         inkscape:connector-curvature="0"
         id="path4003-7-5"
         d="m 407.4783,394.9034 16.77044,-16.77044"
         style="fill:#ef2929;stroke:#000000;stroke-width:2.37169814;stroke-linecap:butt;stroke-linejoin:miter;stroke-miterlimit:4;stroke-opacity:1;stroke-dasharray:none" />
    </g>
    <g
       id="g6339"
       transform="translate(-30,90)">
      <path
         inkscape:connector-curvature="0"
         id="path4003-1"
         d="m 462.02654,386.21418 16.77044,16.77044"
         style="fill:#ef2929;stroke:#000000;stroke-width:2.37169814;stroke-linecap:butt;stroke-linejoin:miter;stroke-miterlimit:4;stroke-opacity:1;stroke-dasharray:none" />
      <path
         inkscape:connector-curvature="0"
         id="path4003-7-28"
         d="m 462.02654,402.98462 16.77044,-16.77044"
         style="fill:#ef2929;stroke:#000000;stroke-width:2.37169814;stroke-linecap:butt;stroke-linejoin:miter;stroke-miterlimit:4;stroke-opacity:1;stroke-dasharray:none" />
    </g>
    <g
       id="g6331"
       transform="translate(30.508106,149.84318)">
      <path
         inkscape:connector-curvature="0"
         id="path4003-6"
         d="m 468.08745,334.6964 16.77044,16.77044"
         style="fill:#ef2929;stroke:#000000;stroke-width:2.37169814;stroke-linecap:butt;stroke-linejoin:miter;stroke-miterlimit:4;stroke-opacity:1;stroke-dasharray:none" />
      <path
         inkscape:connector-curvature="0"
         id="path4003-7-86"
         d="M 468.08745,351.46684 484.85789,334.6964"
         style="fill:#ef2929;stroke:#000000;stroke-width:2.37169814;stroke-linecap:butt;stroke-linejoin:miter;stroke-miterlimit:4;stroke-opacity:1;stroke-dasharray:none" />
    </g>
    <g
       id="g6327"
       transform="translate(245.27864,238.27811)">
      <path
         inkscape:connector-curvature="0"
         id="path4003-10"
         d="m 379.19403,306.41213 16.77044,16.77044"
         style="fill:#ef2929;stroke:#000000;stroke-width:2.37169814;stroke-linecap:butt;stroke-linejoin:miter;stroke-miterlimit:4;stroke-opacity:1;stroke-dasharray:none" />
      <path
         inkscape:connector-curvature="0"
         id="path4003-7-14"
         d="m 379.19403,323.18257 16.77044,-16.77044"
         style="fill:#ef2929;stroke:#000000;stroke-width:2.37169814;stroke-linecap:butt;stroke-linejoin:miter;stroke-miterlimit:4;stroke-opacity:1;stroke-dasharray:none" />
    </g>
    <g
       id="g6343"
       transform="translate(-30,90)">
      <g
         id="g6287">
        <path
           style="fill:#ef2929;stroke:#000000;stroke-width:2.37169814;stroke-linecap:butt;stroke-linejoin:miter;stroke-miterlimit:4;stroke-opacity:1;stroke-dasharray:none"
           d="m 568.09255,373.0822 16.77044,16.77044"
           id="path4003-60"
           inkscape:connector-curvature="0" />
        <path
           style="fill:#ef2929;stroke:#000000;stroke-width:2.37169814;stroke-linecap:butt;stroke-linejoin:miter;stroke-miterlimit:4;stroke-opacity:1;stroke-dasharray:none"
           d="M 568.09255,389.85264 584.86299,373.0822"
           id="path4003-7-9"
           inkscape:connector-curvature="0" />
      </g>
    </g>
    <g
       id="g6353"
       transform="translate(-30,90)">
      <g
         id="g6295">
        <path
           style="fill:#ef2929;stroke:#000000;stroke-width:2.37169814;stroke-linecap:butt;stroke-linejoin:miter;stroke-miterlimit:4;stroke-opacity:1;stroke-dasharray:none"
           d="m 647.89461,356.91976 16.77044,16.77044"
           id="path4003-26"
           inkscape:connector-curvature="0" />
        <path
           style="fill:#ef2929;stroke:#000000;stroke-width:2.37169814;stroke-linecap:butt;stroke-linejoin:miter;stroke-miterlimit:4;stroke-opacity:1;stroke-dasharray:none"
           d="m 647.89461,373.6902 16.77044,-16.77044"
           id="path4003-7-95"
           inkscape:connector-curvature="0" />
      </g>
    </g>
    <g
       id="g6348"
       transform="translate(-30,90)">
      <g
         transform="translate(34.345187,71.720831)"
         id="g6291">
        <path
           style="fill:#ef2929;stroke:#000000;stroke-width:2.37169814;stroke-linecap:butt;stroke-linejoin:miter;stroke-miterlimit:4;stroke-opacity:1;stroke-dasharray:none"
           d="m 583.24484,251.86389 16.77044,16.77044"
           id="path4003-99"
           inkscape:connector-curvature="0" />
        <path
           style="fill:#ef2929;stroke:#000000;stroke-width:2.37169814;stroke-linecap:butt;stroke-linejoin:miter;stroke-miterlimit:4;stroke-opacity:1;stroke-dasharray:none"
           d="m 583.24484,268.63433 16.77044,-16.77044"
           id="path4003-7-0"
           inkscape:connector-curvature="0" />
      </g>
    </g>
    <g
       id="g6303"
       transform="translate(-1.789653,-25.19225)">
      <path
         inkscape:connector-curvature="0"
         id="path4003-8"
         d="m 126.65589,571.0721 16.77044,16.77044"
         style="fill:#ef2929;stroke:#000000;stroke-width:2.37169814;stroke-linecap:butt;stroke-linejoin:miter;stroke-miterlimit:4;stroke-opacity:1;stroke-dasharray:none" />
      <path
         inkscape:connector-curvature="0"
         id="path4003-7-97"
         d="M 126.65589,587.84254 143.42633,571.0721"
         style="fill:#ef2929;stroke:#000000;stroke-width:2.37169814;stroke-linecap:butt;stroke-linejoin:miter;stroke-miterlimit:4;stroke-opacity:1;stroke-dasharray:none" />
    </g>
    <g
       id="g6307"
       transform="translate(-44.105173,-11.08708)">
      <path
         inkscape:connector-curvature="0"
         id="path4003-81"
         d="m 111.5036,617.53912 16.77044,16.77044"
         style="fill:#ef2929;stroke:#000000;stroke-width:2.37169814;stroke-linecap:butt;stroke-linejoin:miter;stroke-miterlimit:4;stroke-opacity:1;stroke-dasharray:none" />
      <path
         inkscape:connector-curvature="0"
         id="path4003-7-98"
         d="m 111.5036,634.30956 16.77044,-16.77044"
         style="fill:#ef2929;stroke:#000000;stroke-width:2.37169814;stroke-linecap:butt;stroke-linejoin:miter;stroke-miterlimit:4;stroke-opacity:1;stroke-dasharray:none" />
    </g>
  </g>
</svg>
