<?xml version="1.0" encoding="utf-8" standalone="no"?>
<!DOCTYPE svg PUBLIC "-//W3C//DTD SVG 1.1//EN"
  "http://www.w3.org/Graphics/SVG/1.1/DTD/svg11.dtd">
<!-- Created with matplotlib (https://matplotlib.org/) -->
<svg height="288pt" version="1.1" viewBox="0 0 432 288" width="432pt" xmlns="http://www.w3.org/2000/svg" xmlns:xlink="http://www.w3.org/1999/xlink">
 <defs>
  <style type="text/css">
*{stroke-linecap:butt;stroke-linejoin:round;}
  </style>
 </defs>
 <g id="figure_1">
  <g id="patch_1">
   <path d="M 0 288 
L 432 288 
L 432 0 
L 0 0 
z
" style="fill:#ffffff;"/>
  </g>
  <g id="axes_1">
   <g id="patch_2">
    <path d="M 54 252 
L 388.8 252 
L 388.8 34.56 
L 54 34.56 
z
" style="fill:#ffffff;"/>
   </g>
   <g id="PathCollection_1">
    <defs>
     <path d="M 0 3 
C 0.795609 3 1.55874 2.683901 2.12132 2.12132 
C 2.683901 1.55874 3 0.795609 3 0 
C 3 -0.795609 2.683901 -1.55874 2.12132 -2.12132 
C 1.55874 -2.683901 0.795609 -3 0 -3 
C -0.795609 -3 -1.55874 -2.683901 -2.12132 -2.12132 
C -2.683901 -1.55874 -3 -0.795609 -3 0 
C -3 0.795609 -2.683901 1.55874 -2.12132 2.12132 
C -1.55874 2.683901 -0.795609 3 0 3 
z
" id="m58f8d78521" style="stroke:#1f77b4;"/>
    </defs>
    <g clip-path="url(#p775fbcf191)">
     <use style="fill:#1f77b4;stroke:#1f77b4;" x="355.514581" xlink:href="#m58f8d78521" y="64.858781"/>
     <use style="fill:#1f77b4;stroke:#1f77b4;" x="138.06022" xlink:href="#m58f8d78521" y="188.740691"/>
     <use style="fill:#1f77b4;stroke:#1f77b4;" x="211.220745" xlink:href="#m58f8d78521" y="138.410049"/>
     <use style="fill:#1f77b4;stroke:#1f77b4;" x="225.745747" xlink:href="#m58f8d78521" y="120.661617"/>
     <use style="fill:#1f77b4;stroke:#1f77b4;" x="220.089416" xlink:href="#m58f8d78521" y="139.191301"/>
     <use style="fill:#1f77b4;stroke:#1f77b4;" x="338.915064" xlink:href="#m58f8d78521" y="79.068877"/>
     <use style="fill:#1f77b4;stroke:#1f77b4;" x="149.117196" xlink:href="#m58f8d78521" y="195.740567"/>
     <use style="fill:#1f77b4;stroke:#1f77b4;" x="311.132584" xlink:href="#m58f8d78521" y="62.409921"/>
     <use style="fill:#1f77b4;stroke:#1f77b4;" x="263.315089" xlink:href="#m58f8d78521" y="102.663031"/>
     <use style="fill:#1f77b4;stroke:#1f77b4;" x="288.217637" xlink:href="#m58f8d78521" y="99.632023"/>
     <use style="fill:#1f77b4;stroke:#1f77b4;" x="277.598549" xlink:href="#m58f8d78521" y="114.798365"/>
     <use style="fill:#1f77b4;stroke:#1f77b4;" x="345.788127" xlink:href="#m58f8d78521" y="44.443636"/>
     <use style="fill:#1f77b4;stroke:#1f77b4;" x="239.303083" xlink:href="#m58f8d78521" y="131.053718"/>
     <use style="fill:#1f77b4;stroke:#1f77b4;" x="280.37426" xlink:href="#m58f8d78521" y="77.793052"/>
     <use style="fill:#1f77b4;stroke:#1f77b4;" x="274.779711" xlink:href="#m58f8d78521" y="101.31959"/>
     <use style="fill:#1f77b4;stroke:#1f77b4;" x="259.450847" xlink:href="#m58f8d78521" y="130.410425"/>
     <use style="fill:#1f77b4;stroke:#1f77b4;" x="210.090871" xlink:href="#m58f8d78521" y="153.024943"/>
     <use style="fill:#1f77b4;stroke:#1f77b4;" x="145.781776" xlink:href="#m58f8d78521" y="170.865209"/>
     <use style="fill:#1f77b4;stroke:#1f77b4;" x="281.529445" xlink:href="#m58f8d78521" y="109.643083"/>
     <use style="fill:#1f77b4;stroke:#1f77b4;" x="149.038476" xlink:href="#m58f8d78521" y="157.950065"/>
     <use style="fill:#1f77b4;stroke:#1f77b4;" x="273.905815" xlink:href="#m58f8d78521" y="106.851429"/>
     <use style="fill:#1f77b4;stroke:#1f77b4;" x="262.683623" xlink:href="#m58f8d78521" y="119.609737"/>
     <use style="fill:#1f77b4;stroke:#1f77b4;" x="143.082686" xlink:href="#m58f8d78521" y="197.1757"/>
     <use style="fill:#1f77b4;stroke:#1f77b4;" x="253.957221" xlink:href="#m58f8d78521" y="131.616166"/>
     <use style="fill:#1f77b4;stroke:#1f77b4;" x="69.218182" xlink:href="#m58f8d78521" y="242.116364"/>
     <use style="fill:#1f77b4;stroke:#1f77b4;" x="82.866393" xlink:href="#m58f8d78521" y="211.002649"/>
     <use style="fill:#1f77b4;stroke:#1f77b4;" x="213.957767" xlink:href="#m58f8d78521" y="137.899914"/>
     <use style="fill:#1f77b4;stroke:#1f77b4;" x="185.635277" xlink:href="#m58f8d78521" y="149.564769"/>
     <use style="fill:#1f77b4;stroke:#1f77b4;" x="260.898297" xlink:href="#m58f8d78521" y="97.363899"/>
     <use style="fill:#1f77b4;stroke:#1f77b4;" x="373.581818" xlink:href="#m58f8d78521" y="47.02293"/>
    </g>
   </g>
   <g id="PathCollection_2">
    <defs>
     <path d="M 0 5 
C 1.326016 5 2.597899 4.473168 3.535534 3.535534 
C 4.473168 2.597899 5 1.326016 5 0 
C 5 -1.326016 4.473168 -2.597899 3.535534 -3.535534 
C 2.597899 -4.473168 1.326016 -5 0 -5 
C -1.326016 -5 -2.597899 -4.473168 -3.535534 -3.535534 
C -4.473168 -2.597899 -5 -1.326016 -5 0 
C -5 1.326016 -4.473168 2.597899 -3.535534 3.535534 
C -2.597899 4.473168 -1.326016 5 0 5 
z
" id="C0_0_86870ea947"/>
    </defs>
    <g clip-path="url(#p775fbcf191)">
     <use style="fill:none;stroke:#000000;" x="355.514581" xlink:href="#C0_0_86870ea947" y="64.858781"/>
    </g>
    <g clip-path="url(#p775fbcf191)">
     <use style="fill:none;stroke:#000000;" x="138.06022" xlink:href="#C0_0_86870ea947" y="188.740691"/>
    </g>
    <g clip-path="url(#p775fbcf191)">
     <use style="fill:none;stroke:#000000;" x="338.915064" xlink:href="#C0_0_86870ea947" y="79.068877"/>
    </g>
    <g clip-path="url(#p775fbcf191)">
     <use style="fill:none;stroke:#000000;" x="149.117196" xlink:href="#C0_0_86870ea947" y="195.740567"/>
    </g>
    <g clip-path="url(#p775fbcf191)">
     <use style="fill:none;stroke:#000000;" x="311.132584" xlink:href="#C0_0_86870ea947" y="62.409921"/>
    </g>
    <g clip-path="url(#p775fbcf191)">
     <use style="fill:none;stroke:#000000;" x="345.788127" xlink:href="#C0_0_86870ea947" y="44.443636"/>
    </g>
    <g clip-path="url(#p775fbcf191)">
     <use style="fill:none;stroke:#000000;" x="280.37426" xlink:href="#C0_0_86870ea947" y="77.793052"/>
    </g>
    <g clip-path="url(#p775fbcf191)">
     <use style="fill:none;stroke:#000000;" x="210.090871" xlink:href="#C0_0_86870ea947" y="153.024943"/>
    </g>
    <g clip-path="url(#p775fbcf191)">
     <use style="fill:none;stroke:#000000;" x="145.781776" xlink:href="#C0_0_86870ea947" y="170.865209"/>
    </g>
    <g clip-path="url(#p775fbcf191)">
     <use style="fill:none;stroke:#000000;" x="143.082686" xlink:href="#C0_0_86870ea947" y="197.1757"/>
    </g>
    <g clip-path="url(#p775fbcf191)">
     <use style="fill:none;stroke:#000000;" x="69.218182" xlink:href="#C0_0_86870ea947" y="242.116364"/>
    </g>
    <g clip-path="url(#p775fbcf191)">
     <use style="fill:none;stroke:#000000;" x="82.866393" xlink:href="#C0_0_86870ea947" y="211.002649"/>
    </g>
    <g clip-path="url(#p775fbcf191)">
     <use style="fill:none;stroke:#000000;" x="260.898297" xlink:href="#C0_0_86870ea947" y="97.363899"/>
    </g>
    <g clip-path="url(#p775fbcf191)">
     <use style="fill:none;stroke:#000000;" x="373.581818" xlink:href="#C0_0_86870ea947" y="47.02293"/>
    </g>
   </g>
   <g id="matplotlib.axis_1">
    <g id="xtick_1">
     <g id="line2d_1">
      <defs>
       <path d="M 0 0 
L 0 3.5 
" id="m5b9e380300" style="stroke:#000000;stroke-width:0.8;"/>
      </defs>
      <g>
       <use style="stroke:#000000;stroke-width:0.8;" x="85.820065" xlink:href="#m5b9e380300" y="252"/>
      </g>
     </g>
     <g id="text_1">
      <!-- $-2.0$ -->
      <defs>
       <path d="M 65.90625 23 
C 67.59375 23 69.40625 23 69.40625 25 
C 69.40625 27 67.59375 27 65.90625 27 
L 11.796875 27 
C 10.09375 27 8.296875 27 8.296875 25 
C 8.296875 23 10.09375 23 11.796875 23 
z
" id="CMSY10-0"/>
       <path d="M 41.703125 15.453125 
L 39.90625 15.453125 
C 38.90625 8.375 38.09375 7.171875 37.703125 6.5625 
C 37.203125 5.765625 30 5.765625 28.59375 5.765625 
L 9.40625 5.765625 
C 13 9.671875 20 16.75 28.5 24.953125 
C 34.59375 30.734375 41.703125 37.53125 41.703125 47.421875 
C 41.703125 59.21875 32.296875 66 21.796875 66 
C 10.796875 66 4.09375 56.3125 4.09375 47.34375 
C 4.09375 43.4375 7 42.9375 8.203125 42.9375 
C 9.203125 42.9375 12.203125 43.546875 12.203125 47.03125 
C 12.203125 50.109375 9.59375 51 8.203125 51 
C 7.59375 51 7 50.90625 6.59375 50.703125 
C 8.5 59.21875 14.296875 63.40625 20.40625 63.40625 
C 29.09375 63.40625 34.796875 56.515625 34.796875 47.421875 
C 34.796875 38.734375 29.703125 31.25 24 24.75 
L 4.09375 2.28125 
L 4.09375 0 
L 39.296875 0 
z
" id="CMR17-50"/>
       <path d="M 18.40625 4.796875 
C 18.40625 7.6875 16 9.671875 13.59375 9.671875 
C 10.703125 9.671875 8.703125 7.28125 8.703125 4.890625 
C 8.703125 2 11.09375 0 13.5 0 
C 16.40625 0 18.40625 2.390625 18.40625 4.796875 
z
" id="CMMI12-58"/>
       <path d="M 42 31.640625 
C 42 37.75 41.90625 48.125 37.703125 56.109375 
C 34 63.109375 28.09375 65.59375 22.90625 65.59375 
C 18.09375 65.59375 12 63.40625 8.203125 56.203125 
C 4.203125 48.71875 3.796875 39.4375 3.796875 31.640625 
C 3.796875 25.953125 3.90625 17.28125 7 9.671875 
C 11.296875 -0.609375 19 -2 22.90625 -2 
C 27.5 -2 34.5 -0.109375 38.59375 9.375 
C 41.59375 16.28125 42 24.359375 42 31.640625 
z
M 22.90625 -0.40625 
C 16.5 -0.40625 12.703125 5.078125 11.296875 12.6875 
C 10.203125 18.5625 10.203125 27.15625 10.203125 32.75 
C 10.203125 40.4375 10.203125 46.828125 11.5 52.921875 
C 13.40625 61.390625 19 64 22.90625 64 
C 27 64 32.296875 61.296875 34.203125 53.125 
C 35.5 47.4375 35.59375 40.734375 35.59375 32.75 
C 35.59375 26.25 35.59375 18.265625 34.40625 12.375 
C 32.296875 1.484375 26.40625 -0.40625 22.90625 -0.40625 
z
" id="CMR17-48"/>
      </defs>
      <g transform="translate(75.580653 265.918498)scale(0.1 -0.1)">
       <use transform="scale(0.996264)" xlink:href="#CMSY10-0"/>
       <use transform="translate(77.487468 0)scale(0.996264)" xlink:href="#CMR17-50"/>
       <use transform="translate(123.177945 0)scale(0.996264)" xlink:href="#CMMI12-58"/>
       <use transform="translate(150.275122 0)scale(0.996264)" xlink:href="#CMR17-48"/>
      </g>
     </g>
    </g>
    <g id="xtick_2">
     <g id="line2d_2">
      <g>
       <use style="stroke:#000000;stroke-width:0.8;" x="127.656536" xlink:href="#m5b9e380300" y="252"/>
      </g>
     </g>
     <g id="text_2">
      <!-- $-1.5$ -->
      <defs>
       <path d="M 26.59375 63.40625 
C 26.59375 65.5 26.5 65.5 25.09375 65.5 
C 21.203125 61.1875 15.296875 59.796875 9.703125 59.796875 
C 9.40625 59.796875 8.90625 59.796875 8.796875 59.5 
C 8.703125 59.296875 8.703125 59.09375 8.703125 57 
C 11.796875 57 17 57.59375 21 59.984375 
L 21 7.203125 
C 21 3.6875 20.796875 2.5 12.203125 2.5 
L 9.203125 2.5 
L 9.203125 0 
C 14 0 19 0 23.796875 0 
C 28.59375 0 33.59375 0 38.40625 0 
L 38.40625 2.5 
L 35.40625 2.5 
C 26.796875 2.5 26.59375 3.59375 26.59375 7.15625 
z
" id="CMR17-49"/>
       <path d="M 11.40625 57.6875 
C 12.40625 57.28125 16.5 56 20.703125 56 
C 30 56 35.09375 61.109375 38 64.0625 
C 38 64.953125 38 65.5 37.40625 65.5 
C 37.296875 65.5 37.09375 65.5 36.296875 65.046875 
C 32.796875 63.40625 28.703125 62.078125 23.703125 62.078125 
C 20.703125 62.078125 16.203125 62.484375 11.296875 64.671875 
C 10.203125 65.171875 10 65.171875 9.90625 65.171875 
C 9.40625 65.171875 9.296875 65.0625 9.296875 63.078125 
L 9.296875 34.421875 
C 9.296875 32.640625 9.296875 32.140625 10.296875 32.140625 
C 10.796875 32.140625 11 32.34375 11.5 33.03125 
C 14.703125 37.515625 19.09375 39.40625 24.09375 39.40625 
C 27.59375 39.40625 35.09375 37.21875 35.09375 20.140625 
C 35.09375 16.953125 35.09375 11.171875 32.09375 6.578125 
C 29.59375 2.484375 25.703125 0.390625 21.40625 0.390625 
C 14.796875 0.390625 8.09375 5 6.296875 12.71875 
C 6.703125 12.609375 7.5 12.421875 7.90625 12.421875 
C 9.203125 12.421875 11.703125 13.125 11.703125 16.21875 
C 11.703125 18.90625 9.796875 20 7.90625 20 
C 5.59375 20 4.09375 18.59375 4.09375 15.796875 
C 4.09375 7.09375 11 -2 21.59375 -2 
C 31.90625 -2 41.703125 6.875 41.703125 19.75 
C 41.703125 31.71875 33.90625 41 24.203125 41 
C 19.09375 41 14.796875 39.109375 11.40625 35.53125 
z
" id="CMR17-53"/>
      </defs>
      <g transform="translate(117.417125 265.918498)scale(0.1 -0.1)">
       <use transform="scale(0.996264)" xlink:href="#CMSY10-0"/>
       <use transform="translate(77.487468 0)scale(0.996264)" xlink:href="#CMR17-49"/>
       <use transform="translate(123.177945 0)scale(0.996264)" xlink:href="#CMMI12-58"/>
       <use transform="translate(150.275122 0)scale(0.996264)" xlink:href="#CMR17-53"/>
      </g>
     </g>
    </g>
    <g id="xtick_3">
     <g id="line2d_3">
      <g>
       <use style="stroke:#000000;stroke-width:0.8;" x="169.493008" xlink:href="#m5b9e380300" y="252"/>
      </g>
     </g>
     <g id="text_3">
      <!-- $-1.0$ -->
      <g transform="translate(159.253597 265.918498)scale(0.1 -0.1)">
       <use transform="scale(0.996264)" xlink:href="#CMSY10-0"/>
       <use transform="translate(77.487468 0)scale(0.996264)" xlink:href="#CMR17-49"/>
       <use transform="translate(123.177945 0)scale(0.996264)" xlink:href="#CMMI12-58"/>
       <use transform="translate(150.275122 0)scale(0.996264)" xlink:href="#CMR17-48"/>
      </g>
     </g>
    </g>
    <g id="xtick_4">
     <g id="line2d_4">
      <g>
       <use style="stroke:#000000;stroke-width:0.8;" x="211.32948" xlink:href="#m5b9e380300" y="252"/>
      </g>
     </g>
     <g id="text_4">
      <!-- $-0.5$ -->
      <g transform="translate(201.090068 265.918498)scale(0.1 -0.1)">
       <use transform="scale(0.996264)" xlink:href="#CMSY10-0"/>
       <use transform="translate(77.487468 0)scale(0.996264)" xlink:href="#CMR17-48"/>
       <use transform="translate(123.177945 0)scale(0.996264)" xlink:href="#CMMI12-58"/>
       <use transform="translate(150.275122 0)scale(0.996264)" xlink:href="#CMR17-53"/>
      </g>
     </g>
    </g>
    <g id="xtick_5">
     <g id="line2d_5">
      <g>
       <use style="stroke:#000000;stroke-width:0.8;" x="253.165951" xlink:href="#m5b9e380300" y="252"/>
      </g>
     </g>
     <g id="text_5">
      <!-- $0.0$ -->
      <g transform="translate(246.800912 265.918498)scale(0.1 -0.1)">
       <use transform="scale(0.996264)" xlink:href="#CMR17-48"/>
       <use transform="translate(45.690477 0)scale(0.996264)" xlink:href="#CMMI12-58"/>
       <use transform="translate(72.787654 0)scale(0.996264)" xlink:href="#CMR17-48"/>
      </g>
     </g>
    </g>
    <g id="xtick_6">
     <g id="line2d_6">
      <g>
       <use style="stroke:#000000;stroke-width:0.8;" x="295.002423" xlink:href="#m5b9e380300" y="252"/>
      </g>
     </g>
     <g id="text_6">
      <!-- $0.5$ -->
      <g transform="translate(288.637383 265.918498)scale(0.1 -0.1)">
       <use transform="scale(0.996264)" xlink:href="#CMR17-48"/>
       <use transform="translate(45.690477 0)scale(0.996264)" xlink:href="#CMMI12-58"/>
       <use transform="translate(72.787654 0)scale(0.996264)" xlink:href="#CMR17-53"/>
      </g>
     </g>
    </g>
    <g id="xtick_7">
     <g id="line2d_7">
      <g>
       <use style="stroke:#000000;stroke-width:0.8;" x="336.838894" xlink:href="#m5b9e380300" y="252"/>
      </g>
     </g>
     <g id="text_7">
      <!-- $1.0$ -->
      <g transform="translate(330.473855 265.918498)scale(0.1 -0.1)">
       <use transform="scale(0.996264)" xlink:href="#CMR17-49"/>
       <use transform="translate(45.690477 0)scale(0.996264)" xlink:href="#CMMI12-58"/>
       <use transform="translate(72.787654 0)scale(0.996264)" xlink:href="#CMR17-48"/>
      </g>
     </g>
    </g>
    <g id="xtick_8">
     <g id="line2d_8">
      <g>
       <use style="stroke:#000000;stroke-width:0.8;" x="378.675366" xlink:href="#m5b9e380300" y="252"/>
      </g>
     </g>
     <g id="text_8">
      <!-- $1.5$ -->
      <g transform="translate(372.310326 265.918498)scale(0.1 -0.1)">
       <use transform="scale(0.996264)" xlink:href="#CMR17-49"/>
       <use transform="translate(45.690477 0)scale(0.996264)" xlink:href="#CMMI12-58"/>
       <use transform="translate(72.787654 0)scale(0.996264)" xlink:href="#CMR17-53"/>
      </g>
     </g>
    </g>
   </g>
   <g id="matplotlib.axis_2">
    <g id="ytick_1">
     <g id="line2d_9">
      <defs>
       <path d="M 0 0 
L -3.5 0 
" id="mfd9e077ede" style="stroke:#000000;stroke-width:0.8;"/>
      </defs>
      <g>
       <use style="stroke:#000000;stroke-width:0.8;" x="54" xlink:href="#mfd9e077ede" y="230.491726"/>
      </g>
     </g>
     <g id="text_9">
      <!-- $-60$ -->
      <defs>
       <path d="M 10.59375 34 
C 10.59375 57.65625 21.796875 63 28.296875 63 
C 30.40625 63 35.5 62.640625 37.5 59 
C 35.90625 59 32.90625 59 32.90625 55.515625 
C 32.90625 52.828125 35.09375 51.921875 36.5 51.921875 
C 37.40625 51.921875 40.09375 52.3125 40.09375 55.625 
C 40.09375 61.78125 35.09375 65.296875 28.203125 65.296875 
C 16.296875 65.296875 3.796875 52.96875 3.796875 31 
C 3.796875 3.953125 15.09375 -2 23.09375 -2 
C 32.796875 -2 42 6.671875 42 20.046875 
C 42 32.515625 33.90625 41.59375 23.703125 41.59375 
C 17.59375 41.59375 13.09375 37.609375 10.59375 30.625 
z
M 23.09375 0.390625 
C 10.796875 0.390625 10.796875 18.75 10.796875 22.4375 
C 10.796875 29.625 14.203125 40 23.5 40 
C 25.203125 40 30.09375 40 33.40625 33.125 
C 35.203125 29.21875 35.203125 25.140625 35.203125 20.140625 
C 35.203125 14.75 35.203125 10.78125 33.09375 6.78125 
C 30.90625 2.671875 27.703125 0.390625 23.09375 0.390625 
z
" id="CMR17-54"/>
      </defs>
      <g transform="translate(29.288586 233.950976)scale(0.1 -0.1)">
       <use transform="scale(0.996264)" xlink:href="#CMSY10-0"/>
       <use transform="translate(77.487468 0)scale(0.996264)" xlink:href="#CMR17-54"/>
       <use transform="translate(123.177945 0)scale(0.996264)" xlink:href="#CMR17-48"/>
      </g>
     </g>
    </g>
    <g id="ytick_2">
     <g id="line2d_10">
      <g>
       <use style="stroke:#000000;stroke-width:0.8;" x="54" xlink:href="#mfd9e077ede" y="197.808938"/>
      </g>
     </g>
     <g id="text_10">
      <!-- $-40$ -->
      <defs>
       <path d="M 33.59375 64.40625 
C 33.59375 66.5 33.5 66.5 31.703125 66.5 
L 2 19.59375 
L 2 17 
L 27.796875 17 
L 27.796875 7.140625 
C 27.796875 3.5 27.59375 2.5 20.59375 2.5 
L 18.703125 2.5 
L 18.703125 0 
C 21.90625 0 27.296875 0 30.703125 0 
C 34.09375 0 39.5 0 42.703125 0 
L 42.703125 2.5 
L 40.796875 2.5 
C 33.796875 2.5 33.59375 3.5 33.59375 7.140625 
L 33.59375 17 
L 43.796875 17 
L 43.796875 19.59375 
L 33.59375 19.59375 
z
M 28.09375 57.859375 
L 28.09375 19.59375 
L 4 19.59375 
z
" id="CMR17-52"/>
      </defs>
      <g transform="translate(29.288586 201.268188)scale(0.1 -0.1)">
       <use transform="scale(0.996264)" xlink:href="#CMSY10-0"/>
       <use transform="translate(77.487468 0)scale(0.996264)" xlink:href="#CMR17-52"/>
       <use transform="translate(123.177945 0)scale(0.996264)" xlink:href="#CMR17-48"/>
      </g>
     </g>
    </g>
    <g id="ytick_3">
     <g id="line2d_11">
      <g>
       <use style="stroke:#000000;stroke-width:0.8;" x="54" xlink:href="#mfd9e077ede" y="165.12615"/>
      </g>
     </g>
     <g id="text_11">
      <!-- $-20$ -->
      <g transform="translate(29.288586 168.585399)scale(0.1 -0.1)">
       <use transform="scale(0.996264)" xlink:href="#CMSY10-0"/>
       <use transform="translate(77.487468 0)scale(0.996264)" xlink:href="#CMR17-50"/>
       <use transform="translate(123.177945 0)scale(0.996264)" xlink:href="#CMR17-48"/>
      </g>
     </g>
    </g>
    <g id="ytick_4">
     <g id="line2d_12">
      <g>
       <use style="stroke:#000000;stroke-width:0.8;" x="54" xlink:href="#mfd9e077ede" y="132.443362"/>
      </g>
     </g>
     <g id="text_12">
      <!-- $0$ -->
      <g transform="translate(42.018665 135.902611)scale(0.1 -0.1)">
       <use transform="scale(0.996264)" xlink:href="#CMR17-48"/>
      </g>
     </g>
    </g>
    <g id="ytick_5">
     <g id="line2d_13">
      <g>
       <use style="stroke:#000000;stroke-width:0.8;" x="54" xlink:href="#mfd9e077ede" y="99.760574"/>
      </g>
     </g>
     <g id="text_13">
      <!-- $20$ -->
      <g transform="translate(37.037329 103.219823)scale(0.1 -0.1)">
       <use transform="scale(0.996264)" xlink:href="#CMR17-50"/>
       <use transform="translate(45.690477 0)scale(0.996264)" xlink:href="#CMR17-48"/>
      </g>
     </g>
    </g>
    <g id="ytick_6">
     <g id="line2d_14">
      <g>
       <use style="stroke:#000000;stroke-width:0.8;" x="54" xlink:href="#mfd9e077ede" y="67.077786"/>
      </g>
     </g>
     <g id="text_14">
      <!-- $40$ -->
      <g transform="translate(37.037329 70.537035)scale(0.1 -0.1)">
       <use transform="scale(0.996264)" xlink:href="#CMR17-52"/>
       <use transform="translate(45.690477 0)scale(0.996264)" xlink:href="#CMR17-48"/>
      </g>
     </g>
    </g>
   </g>
   <g id="line2d_15">
    <path clip-path="url(#p775fbcf191)" d="M 69.218182 177.958125 
L 75.429685 176.056931 
L 81.641187 174.155736 
L 87.85269 172.254542 
L 94.064193 170.353347 
L 100.275696 168.452153 
L 106.487199 166.550958 
L 112.698701 164.649764 
L 118.910204 162.748569 
L 125.121707 160.847375 
L 131.33321 158.94618 
L 137.544712 157.044986 
L 143.756215 155.143791 
L 149.967718 153.242597 
L 156.179221 151.341402 
L 162.390724 149.440208 
L 168.602226 147.539013 
L 174.813729 145.637819 
L 181.025232 143.736624 
L 187.236735 141.83543 
L 193.448237 139.934235 
L 199.65974 138.033041 
L 205.871243 136.131846 
L 212.082746 134.230652 
L 218.294249 132.329457 
L 224.505751 130.428263 
L 230.717254 128.527068 
L 236.928757 126.625874 
L 243.14026 124.724679 
L 249.351763 122.823485 
L 255.563265 120.92229 
L 261.774768 119.021096 
L 267.986271 117.119901 
L 274.197774 115.218707 
L 280.409276 113.317512 
L 286.620779 111.416318 
L 292.832282 109.515123 
L 299.043785 107.613929 
L 305.255288 105.712734 
L 311.46679 103.81154 
L 317.678293 101.910345 
L 323.889796 100.009151 
L 330.101299 98.107956 
L 336.312801 96.206762 
L 342.524304 94.305567 
L 348.735807 92.404373 
L 354.94731 90.503178 
L 361.158813 88.601984 
L 367.370315 86.700789 
L 373.581818 84.799595 
" style="fill:none;stroke:#000000;stroke-linecap:square;stroke-width:1.5;"/>
   </g>
   <g id="line2d_16">
    <path clip-path="url(#p775fbcf191)" d="M 69.218182 161.616731 
L 75.429685 159.715537 
L 81.641187 157.814342 
L 87.85269 155.913148 
L 94.064193 154.011953 
L 100.275696 152.110759 
L 106.487199 150.209564 
L 112.698701 148.30837 
L 118.910204 146.407175 
L 125.121707 144.505981 
L 131.33321 142.604786 
L 137.544712 140.703592 
L 143.756215 138.802397 
L 149.967718 136.901203 
L 156.179221 135.000008 
L 162.390724 133.098814 
L 168.602226 131.197619 
L 174.813729 129.296425 
L 181.025232 127.39523 
L 187.236735 125.494036 
L 193.448237 123.592841 
L 199.65974 121.691647 
L 205.871243 119.790452 
L 212.082746 117.889258 
L 218.294249 115.988063 
L 224.505751 114.086869 
L 230.717254 112.185674 
L 236.928757 110.28448 
L 243.14026 108.383285 
L 249.351763 106.482091 
L 255.563265 104.580896 
L 261.774768 102.679702 
L 267.986271 100.778507 
L 274.197774 98.877313 
L 280.409276 96.976118 
L 286.620779 95.074924 
L 292.832282 93.173729 
L 299.043785 91.272535 
L 305.255288 89.37134 
L 311.46679 87.470146 
L 317.678293 85.568951 
L 323.889796 83.667757 
L 330.101299 81.766562 
L 336.312801 79.865368 
L 342.524304 77.964173 
L 348.735807 76.062979 
L 354.94731 74.161784 
L 361.158813 72.26059 
L 367.370315 70.359395 
L 373.581818 68.458201 
" style="fill:none;stroke:#000000;stroke-dasharray:5.55,2.4;stroke-dashoffset:0;stroke-width:1.5;"/>
   </g>
   <g id="line2d_17">
    <path clip-path="url(#p775fbcf191)" d="M 69.218182 194.299519 
L 75.429685 192.398325 
L 81.641187 190.49713 
L 87.85269 188.595936 
L 94.064193 186.694741 
L 100.275696 184.793547 
L 106.487199 182.892352 
L 112.698701 180.991158 
L 118.910204 179.089963 
L 125.121707 177.188769 
L 131.33321 175.287574 
L 137.544712 173.38638 
L 143.756215 171.485185 
L 149.967718 169.583991 
L 156.179221 167.682796 
L 162.390724 165.781602 
L 168.602226 163.880407 
L 174.813729 161.979213 
L 181.025232 160.078018 
L 187.236735 158.176824 
L 193.448237 156.275629 
L 199.65974 154.374435 
L 205.871243 152.47324 
L 212.082746 150.572046 
L 218.294249 148.670851 
L 224.505751 146.769657 
L 230.717254 144.868462 
L 236.928757 142.967268 
L 243.14026 141.066073 
L 249.351763 139.164879 
L 255.563265 137.263684 
L 261.774768 135.36249 
L 267.986271 133.461295 
L 274.197774 131.560101 
L 280.409276 129.658906 
L 286.620779 127.757712 
L 292.832282 125.856517 
L 299.043785 123.955323 
L 305.255288 122.054128 
L 311.46679 120.152934 
L 317.678293 118.251739 
L 323.889796 116.350545 
L 330.101299 114.44935 
L 336.312801 112.548156 
L 342.524304 110.646961 
L 348.735807 108.745767 
L 354.94731 106.844572 
L 361.158813 104.943378 
L 367.370315 103.042183 
L 373.581818 101.140989 
" style="fill:none;stroke:#000000;stroke-dasharray:5.55,2.4;stroke-dashoffset:0;stroke-width:1.5;"/>
   </g>
   <g id="patch_3">
    <path d="M 54 252 
L 54 34.56 
" style="fill:none;stroke:#000000;stroke-linecap:square;stroke-linejoin:miter;stroke-width:0.8;"/>
   </g>
   <g id="patch_4">
    <path d="M 388.8 252 
L 388.8 34.56 
" style="fill:none;stroke:#000000;stroke-linecap:square;stroke-linejoin:miter;stroke-width:0.8;"/>
   </g>
   <g id="patch_5">
    <path d="M 54 252 
L 388.8 252 
" style="fill:none;stroke:#000000;stroke-linecap:square;stroke-linejoin:miter;stroke-width:0.8;"/>
   </g>
   <g id="patch_6">
    <path d="M 54 34.56 
L 388.8 34.56 
" style="fill:none;stroke:#000000;stroke-linecap:square;stroke-linejoin:miter;stroke-width:0.8;"/>
   </g>
   <g id="text_15">
    <!-- 1.00 -->
    <defs>
     <path d="M 28.40625 67 
L 26.5 67 
C 21.09375 61.5625 14.796875 60.78125 8.40625 60.78125 
L 8.40625 55 
C 11.296875 55 16 55 20.703125 57.296875 
L 20.703125 5.765625 
L 8.90625 5.765625 
L 8.90625 0 
L 40.203125 0 
L 40.203125 5.765625 
L 28.40625 5.765625 
z
" id="CMSS17-49"/>
     <path d="M 17 7.96875 
L 9 7.96875 
L 9 0 
L 17 0 
z
" id="CMSS17-46"/>
     <path d="M 43.09375 31.9375 
C 43.09375 37.578125 43 48.078125 38.90625 56.1875 
C 34.796875 64 28.203125 66.078125 23.5 66.078125 
C 16.703125 66.078125 10.90625 62.109375 7.90625 55.78125 
C 4.703125 49.15625 3.796875 42.328125 3.796875 31.9375 
C 3.796875 24.828125 4.09375 16.109375 7.703125 8.484375 
C 11.796875 0.078125 18.703125 -2 23.40625 -2 
C 29.59375 -2 35.59375 1.265625 39 8.09375 
C 42.5 15.21875 43.09375 23.03125 43.09375 31.9375 
z
M 23.40625 4.078125 
C 15.796875 4.078125 13.5 12.671875 12.796875 15.546875 
C 11.59375 20.46875 11.40625 25.21875 11.40625 33.03125 
C 11.40625 39.15625 11.40625 46.0625 13.296875 51.515625 
C 15.59375 57.828125 19.59375 60 23.40625 60 
C 30.796875 60 33.203125 52.6875 34 50.125 
C 35.5 44.890625 35.5 38.765625 35.5 33.03125 
C 35.5 23.84375 35.5 4.078125 23.40625 4.078125 
z
" id="CMSS17-48"/>
    </defs>
    <g transform="translate(359.698229 61.590502)scale(0.1 -0.1)">
     <use transform="scale(0.996264)" xlink:href="#CMSS17-49"/>
     <use transform="translate(46.843624 0)scale(0.996264)" xlink:href="#CMSS17-46"/>
     <use transform="translate(72.867828 0)scale(0.996264)" xlink:href="#CMSS17-48"/>
     <use transform="translate(119.711452 0)scale(0.996264)" xlink:href="#CMSS17-48"/>
    </g>
   </g>
   <g id="text_16">
    <!-- -1.00 -->
    <defs>
     <path d="M 26 19 
L 26 24.765625 
L 1 24.765625 
L 1 19 
z
" id="CMSS17-45"/>
    </defs>
    <g transform="translate(142.243867 185.472412)scale(0.1 -0.1)">
     <use transform="scale(0.996264)" xlink:href="#CMSS17-45"/>
     <use transform="translate(31.229113 0)scale(0.996264)" xlink:href="#CMSS17-49"/>
     <use transform="translate(78.072736 0)scale(0.996264)" xlink:href="#CMSS17-46"/>
     <use transform="translate(104.096941 0)scale(0.996264)" xlink:href="#CMSS17-48"/>
     <use transform="translate(150.940565 0)scale(0.996264)" xlink:href="#CMSS17-48"/>
    </g>
   </g>
   <g id="text_17">
    <!-- 0.91 -->
    <defs>
     <path d="M 6.796875 2.71875 
C 9.59375 0.328125 13.203125 -2 19.296875 -2 
C 31.40625 -2 43 11.265625 43 32.734375 
C 43 61.4375 30.5 66.078125 23.796875 66.078125 
C 17.09375 66.078125 12.796875 63.140625 9.09375 58.453125 
C 4.703125 53.078125 3.90625 48.28125 3.90625 42.703125 
C 3.90625 36.046875 5.09375 31.953125 7.90625 27.265625 
C 11.703125 21.203125 15.203125 19.921875 19.09375 19.921875 
C 25 19.921875 30.90625 22.796875 34.90625 27.75 
C 34.203125 14.09375 28.09375 4.171875 19.296875 4.171875 
C 15.703125 4.171875 12.796875 5.296875 9.90625 8.0625 
z
M 34.59375 42.90625 
C 34.703125 42.234375 34.703125 40.96875 34.703125 40.5625 
C 34.703125 32.40625 29.90625 26 22.90625 26 
C 18.296875 26 15.90625 28.328125 14.09375 31.34375 
C 11.90625 35.140625 11.796875 38.828125 11.796875 42.703125 
C 11.796875 46.5 11.796875 50.6875 14.59375 54.859375 
C 16.703125 57.859375 19.296875 60 23.796875 60 
C 33 60 34.5 46.875 34.59375 42.90625 
z
" id="CMSS17-57"/>
    </defs>
    <g transform="translate(343.098711 75.800598)scale(0.1 -0.1)">
     <use transform="scale(0.996264)" xlink:href="#CMSS17-48"/>
     <use transform="translate(46.843624 0)scale(0.996264)" xlink:href="#CMSS17-46"/>
     <use transform="translate(72.867828 0)scale(0.996264)" xlink:href="#CMSS17-57"/>
     <use transform="translate(119.711452 0)scale(0.996264)" xlink:href="#CMSS17-49"/>
    </g>
   </g>
   <g id="text_18">
    <!-- -1.00 -->
    <g transform="translate(153.300843 192.472288)scale(0.1 -0.1)">
     <use transform="scale(0.996264)" xlink:href="#CMSS17-45"/>
     <use transform="translate(31.229113 0)scale(0.996264)" xlink:href="#CMSS17-49"/>
     <use transform="translate(78.072736 0)scale(0.996264)" xlink:href="#CMSS17-46"/>
     <use transform="translate(104.096941 0)scale(0.996264)" xlink:href="#CMSS17-48"/>
     <use transform="translate(150.940565 0)scale(0.996264)" xlink:href="#CMSS17-48"/>
    </g>
   </g>
   <g id="text_19">
    <!-- 1.00 -->
    <g transform="translate(315.316231 59.141643)scale(0.1 -0.1)">
     <use transform="scale(0.996264)" xlink:href="#CMSS17-49"/>
     <use transform="translate(46.843624 0)scale(0.996264)" xlink:href="#CMSS17-46"/>
     <use transform="translate(72.867828 0)scale(0.996264)" xlink:href="#CMSS17-48"/>
     <use transform="translate(119.711452 0)scale(0.996264)" xlink:href="#CMSS17-48"/>
    </g>
   </g>
   <g id="text_20">
    <!-- 1.00 -->
    <g transform="translate(349.971775 41.175358)scale(0.1 -0.1)">
     <use transform="scale(0.996264)" xlink:href="#CMSS17-49"/>
     <use transform="translate(46.843624 0)scale(0.996264)" xlink:href="#CMSS17-46"/>
     <use transform="translate(72.867828 0)scale(0.996264)" xlink:href="#CMSS17-48"/>
     <use transform="translate(119.711452 0)scale(0.996264)" xlink:href="#CMSS17-48"/>
    </g>
   </g>
   <g id="text_21">
    <!-- 1.00 -->
    <g transform="translate(284.557907 74.524774)scale(0.1 -0.1)">
     <use transform="scale(0.996264)" xlink:href="#CMSS17-49"/>
     <use transform="translate(46.843624 0)scale(0.996264)" xlink:href="#CMSS17-46"/>
     <use transform="translate(72.867828 0)scale(0.996264)" xlink:href="#CMSS17-48"/>
     <use transform="translate(119.711452 0)scale(0.996264)" xlink:href="#CMSS17-48"/>
    </g>
   </g>
   <g id="text_22">
    <!-- -1.00 -->
    <g transform="translate(214.274518 149.756665)scale(0.1 -0.1)">
     <use transform="scale(0.996264)" xlink:href="#CMSS17-45"/>
     <use transform="translate(31.229113 0)scale(0.996264)" xlink:href="#CMSS17-49"/>
     <use transform="translate(78.072736 0)scale(0.996264)" xlink:href="#CMSS17-46"/>
     <use transform="translate(104.096941 0)scale(0.996264)" xlink:href="#CMSS17-48"/>
     <use transform="translate(150.940565 0)scale(0.996264)" xlink:href="#CMSS17-48"/>
    </g>
   </g>
   <g id="text_23">
    <!-- -0.91 -->
    <g transform="translate(149.965423 167.596931)scale(0.1 -0.1)">
     <use transform="scale(0.996264)" xlink:href="#CMSS17-45"/>
     <use transform="translate(31.229113 0)scale(0.996264)" xlink:href="#CMSS17-48"/>
     <use transform="translate(78.072736 0)scale(0.996264)" xlink:href="#CMSS17-46"/>
     <use transform="translate(104.096941 0)scale(0.996264)" xlink:href="#CMSS17-57"/>
     <use transform="translate(150.940565 0)scale(0.996264)" xlink:href="#CMSS17-49"/>
    </g>
   </g>
   <g id="text_24">
    <!-- -1.00 -->
    <g transform="translate(147.266333 193.907421)scale(0.1 -0.1)">
     <use transform="scale(0.996264)" xlink:href="#CMSS17-45"/>
     <use transform="translate(31.229113 0)scale(0.996264)" xlink:href="#CMSS17-49"/>
     <use transform="translate(78.072736 0)scale(0.996264)" xlink:href="#CMSS17-46"/>
     <use transform="translate(104.096941 0)scale(0.996264)" xlink:href="#CMSS17-48"/>
     <use transform="translate(150.940565 0)scale(0.996264)" xlink:href="#CMSS17-48"/>
    </g>
   </g>
   <g id="text_25">
    <!-- -1.00 -->
    <g transform="translate(73.401829 238.848085)scale(0.1 -0.1)">
     <use transform="scale(0.996264)" xlink:href="#CMSS17-45"/>
     <use transform="translate(31.229113 0)scale(0.996264)" xlink:href="#CMSS17-49"/>
     <use transform="translate(78.072736 0)scale(0.996264)" xlink:href="#CMSS17-46"/>
     <use transform="translate(104.096941 0)scale(0.996264)" xlink:href="#CMSS17-48"/>
     <use transform="translate(150.940565 0)scale(0.996264)" xlink:href="#CMSS17-48"/>
    </g>
   </g>
   <g id="text_26">
    <!-- -1.00 -->
    <g transform="translate(87.050041 207.73437)scale(0.1 -0.1)">
     <use transform="scale(0.996264)" xlink:href="#CMSS17-45"/>
     <use transform="translate(31.229113 0)scale(0.996264)" xlink:href="#CMSS17-49"/>
     <use transform="translate(78.072736 0)scale(0.996264)" xlink:href="#CMSS17-46"/>
     <use transform="translate(104.096941 0)scale(0.996264)" xlink:href="#CMSS17-48"/>
     <use transform="translate(150.940565 0)scale(0.996264)" xlink:href="#CMSS17-48"/>
    </g>
   </g>
   <g id="text_27">
    <!-- 1.00 -->
    <g transform="translate(265.081944 94.09562)scale(0.1 -0.1)">
     <use transform="scale(0.996264)" xlink:href="#CMSS17-49"/>
     <use transform="translate(46.843624 0)scale(0.996264)" xlink:href="#CMSS17-46"/>
     <use transform="translate(72.867828 0)scale(0.996264)" xlink:href="#CMSS17-48"/>
     <use transform="translate(119.711452 0)scale(0.996264)" xlink:href="#CMSS17-48"/>
    </g>
   </g>
   <g id="text_28">
    <!-- 1.00 -->
    <g transform="translate(377.765465 43.754651)scale(0.1 -0.1)">
     <use transform="scale(0.996264)" xlink:href="#CMSS17-49"/>
     <use transform="translate(46.843624 0)scale(0.996264)" xlink:href="#CMSS17-46"/>
     <use transform="translate(72.867828 0)scale(0.996264)" xlink:href="#CMSS17-48"/>
     <use transform="translate(119.711452 0)scale(0.996264)" xlink:href="#CMSS17-48"/>
    </g>
   </g>
   <g id="text_29">
    <!-- C=1 and $\varepsilon$ = 10 -->
    <defs>
     <path d="M 54.703125 11.15625 
C 48 6.671875 44.90625 5.375 36.796875 5.375 
C 22.796875 5.375 14.59375 20.359375 14.59375 34.046875 
C 14.59375 48.625 23 63 37.203125 63 
C 43.59375 63 47.796875 61.21875 52.90625 58.046875 
L 54.296875 65.890625 
C 49.5 68.28125 43.40625 69.375 37.296875 69.375 
C 18.09375 69.375 6.203125 51.8125 6.203125 34.046875 
C 6.203125 14.484375 20.296875 -1 36.296875 -1 
C 44.90625 -1 47.90625 -0.296875 55.296875 4.375 
z
" id="CMSS17-67"/>
     <path d="M 64.796875 31.515625 
C 66.296875 31.515625 67.796875 31.515625 67.796875 33.203125 
C 67.796875 35 66.09375 35 64.40625 35 
L 8.59375 35 
C 6.90625 35 5.203125 35 5.203125 33.203125 
C 5.203125 31.515625 6.703125 31.515625 8.203125 31.515625 
z
M 64.40625 14 
C 66.09375 14 67.796875 14 67.796875 15.796875 
C 67.796875 17.484375 66.296875 17.484375 64.796875 17.484375 
L 8.203125 17.484375 
C 6.703125 17.484375 5.203125 17.484375 5.203125 15.796875 
C 5.203125 14 6.90625 14 8.59375 14 
z
" id="CMSS17-61"/>
     <path d="M 37.59375 27.984375 
C 37.59375 37.375 30.90625 43.875 21.90625 43.875 
C 17.5 43.875 12.703125 43.078125 7.203125 39.890625 
L 7.796875 33.359375 
C 10.296875 35.125 14.59375 38 21.796875 38 
C 26.90625 38 30 34.0625 30 27.84375 
L 30 24 
C 14 24 4 19.34375 4 11.34375 
C 4 7.203125 6.5 -1 14.796875 -1 
C 16.296875 -1 24.40625 -1 30.203125 3.390625 
L 30.203125 -0.296875 
L 37.59375 -0.296875 
z
M 30 12.75 
C 30 10.953125 30 8.5625 27 6.78125 
C 24.40625 5.078125 21.09375 5.078125 19.703125 5.078125 
C 14.703125 5.078125 11.296875 7.984375 11.296875 11.625 
C 11.296875 18.921875 26.90625 18.921875 30 18.921875 
z
" id="CMSS17-97"/>
     <path d="M 40.90625 29.328125 
C 40.90625 35.671875 39.40625 44 28.09375 44 
C 21.703125 44 17.5 40.71875 14.703125 37.328125 
L 14.703125 43.09375 
L 7.40625 43.09375 
L 7.40625 0 
L 15 0 
L 15 24.359375 
C 15 30.6875 17.40625 37.9375 24.203125 37.9375 
C 33 37.9375 33.296875 32 33.296875 28.578125 
L 33.296875 0 
L 40.90625 0 
z
" id="CMSS17-110"/>
     <path d="M 40.796875 69 
L 33.40625 69 
L 33.40625 38.09375 
C 30.296875 40.671875 25.203125 43.0625 19.59375 43.0625 
C 10.5 43.0625 3.296875 33.296875 3.296875 21.046875 
C 3.296875 8.78125 10.40625 -1 19.296875 -1 
C 26.203125 -1 30.796875 2.6875 33.203125 4.78125 
L 33.203125 -0.203125 
L 40.796875 -0.203125 
z
M 33.203125 13.0625 
C 33.203125 11.671875 33.203125 10.203125 30.09375 7.53125 
C 28.09375 5.859375 25.703125 5.078125 23.40625 5.078125 
C 18 5.078125 10.90625 9 10.90625 20.9375 
C 10.90625 33.34375 18.90625 37 24.40625 37 
C 28.09375 37 31.09375 35.21875 33.203125 32.265625 
z
" id="CMSS17-100"/>
     <path d="M 13.90625 22.296875 
C 17.09375 21.015625 20.5 21.015625 22.40625 21.015625 
C 25 21.015625 30.203125 21.015625 30.203125 24.21875 
C 30.203125 26.21875 28.296875 27 23.203125 27 
C 20.703125 27 17.703125 26.703125 14.203125 25.203125 
C 11.09375 26.6875 9.90625 28.9375 9.90625 31.09375 
C 9.90625 37.171875 19.703125 40.71875 28.59375 40.71875 
C 30.296875 40.71875 33.90625 40.71875 38.09375 37.671875 
C 38.703125 37.296875 39 36.984375 39.703125 36.984375 
C 40.90625 36.984375 42.203125 38.265625 42.203125 39.46875 
C 42.203125 41.234375 36.40625 45 29.5 45 
C 18.296875 45 7.703125 38.265625 7.703125 30.8125 
C 7.703125 27.09375 10.09375 24.78125 11.796875 23.578125 
C 6 20.328125 2.59375 15.015625 2.59375 10.1875 
C 2.59375 3.421875 8.796875 -2 18.40625 -2 
C 31.59375 -2 36.90625 6.625 36.90625 8 
C 36.90625 8.484375 36.5 8.875 36 8.875 
C 35.5 8.875 35.296875 8.578125 34.90625 8 
C 33.796875 6.171875 31.203125 2.28125 19.296875 2.28125 
C 13.09375 2.28125 4.90625 3.828125 4.90625 10.71875 
C 4.90625 14.03125 7.40625 18.96875 13.90625 22.296875 
z
M 17 23.71875 
C 19.703125 25 22.296875 25 23 25 
C 25.796875 25 26.296875 24.734375 27.90625 24.140625 
C 26.203125 23 26 23 22.40625 23 
C 20.59375 23 19 23 17 23.71875 
z
" id="CMMI12-34"/>
    </defs>
    <g transform="translate(180.426317 28.56)scale(0.12 -0.12)">
     <use transform="scale(0.996264)" xlink:href="#CMSS17-67"/>
     <use transform="translate(59.855772 0)scale(0.996264)" xlink:href="#CMSS17-61"/>
     <use transform="translate(132.723706 0)scale(0.996264)" xlink:href="#CMSS17-49"/>
     <use transform="translate(210.796443 0)scale(0.996264)" xlink:href="#CMSS17-97"/>
     <use transform="translate(255.718363 0)scale(0.996264)" xlink:href="#CMSS17-110"/>
     <use transform="translate(303.923306 0)scale(0.996264)" xlink:href="#CMSS17-100"/>
     <use transform="translate(383.357362 0)scale(0.996264)" xlink:href="#CMMI12-34"/>
     <use transform="translate(460.236667 0)scale(0.996264)" xlink:href="#CMSS17-61"/>
     <use transform="translate(564.333715 0)scale(0.996264)" xlink:href="#CMSS17-49"/>
     <use transform="translate(611.177339 0)scale(0.996264)" xlink:href="#CMSS17-48"/>
    </g>
   </g>
  </g>
 </g>
 <defs>
  <clipPath id="p775fbcf191">
   <rect height="217.44" width="334.8" x="54" y="34.56"/>
  </clipPath>
 </defs>
</svg>
