<?xml version="1.0" encoding="utf-8" standalone="no"?>
<!DOCTYPE svg PUBLIC "-//W3C//DTD SVG 1.1//EN"
  "http://www.w3.org/Graphics/SVG/1.1/DTD/svg11.dtd">
<!-- Created with matplotlib (https://matplotlib.org/) -->
<svg height="288pt" version="1.1" viewBox="0 0 432 288" width="432pt" xmlns="http://www.w3.org/2000/svg" xmlns:xlink="http://www.w3.org/1999/xlink">
 <defs>
  <style type="text/css">
*{stroke-linecap:butt;stroke-linejoin:round;}
  </style>
 </defs>
 <g id="figure_1">
  <g id="patch_1">
   <path d="M 0 288 
L 432 288 
L 432 0 
L 0 0 
z
" style="fill:#ffffff;"/>
  </g>
  <g id="axes_1">
   <g id="patch_2">
    <path d="M 54 252 
L 388.8 252 
L 388.8 34.56 
L 54 34.56 
z
" style="fill:#ffffff;"/>
   </g>
   <g id="PathCollection_1">
    <defs>
     <path d="M 0 3 
C 0.795609 3 1.55874 2.683901 2.12132 2.12132 
C 2.683901 1.55874 3 0.795609 3 0 
C 3 -0.795609 2.683901 -1.55874 2.12132 -2.12132 
C 1.55874 -2.683901 0.795609 -3 0 -3 
C -0.795609 -3 -1.55874 -2.683901 -2.12132 -2.12132 
C -2.683901 -1.55874 -3 -0.795609 -3 0 
C -3 0.795609 -2.683901 1.55874 -2.12132 2.12132 
C -1.55874 2.683901 -0.795609 3 0 3 
z
" id="mc553b01a89" style="stroke:#1f77b4;"/>
    </defs>
    <g clip-path="url(#p0f28117b52)">
     <use style="fill:#1f77b4;stroke:#1f77b4;" x="355.514581" xlink:href="#mc553b01a89" y="78.943574"/>
     <use style="fill:#1f77b4;stroke:#1f77b4;" x="138.06022" xlink:href="#mc553b01a89" y="192.981893"/>
     <use style="fill:#1f77b4;stroke:#1f77b4;" x="211.220745" xlink:href="#mc553b01a89" y="146.650497"/>
     <use style="fill:#1f77b4;stroke:#1f77b4;" x="225.745747" xlink:href="#mc553b01a89" y="130.312347"/>
     <use style="fill:#1f77b4;stroke:#1f77b4;" x="220.089416" xlink:href="#mc553b01a89" y="147.369671"/>
     <use style="fill:#1f77b4;stroke:#1f77b4;" x="338.915064" xlink:href="#mc553b01a89" y="92.024543"/>
     <use style="fill:#1f77b4;stroke:#1f77b4;" x="149.117196" xlink:href="#mc553b01a89" y="199.425563"/>
     <use style="fill:#1f77b4;stroke:#1f77b4;" x="311.132584" xlink:href="#mc553b01a89" y="76.6893"/>
     <use style="fill:#1f77b4;stroke:#1f77b4;" x="263.315089" xlink:href="#mc553b01a89" y="113.743919"/>
     <use style="fill:#1f77b4;stroke:#1f77b4;" x="288.217637" xlink:href="#mc553b01a89" y="110.953753"/>
     <use style="fill:#1f77b4;stroke:#1f77b4;" x="277.598549" xlink:href="#mc553b01a89" y="124.914986"/>
     <use style="fill:#1f77b4;stroke:#1f77b4;" x="345.788127" xlink:href="#mc553b01a89" y="60.150606"/>
     <use style="fill:#1f77b4;stroke:#1f77b4;" x="239.303083" xlink:href="#mc553b01a89" y="139.878696"/>
     <use style="fill:#1f77b4;stroke:#1f77b4;" x="280.37426" xlink:href="#mc553b01a89" y="90.850095"/>
     <use style="fill:#1f77b4;stroke:#1f77b4;" x="274.779711" xlink:href="#mc553b01a89" y="112.507227"/>
     <use style="fill:#1f77b4;stroke:#1f77b4;" x="259.450847" xlink:href="#mc553b01a89" y="139.286519"/>
     <use style="fill:#1f77b4;stroke:#1f77b4;" x="210.090871" xlink:href="#mc553b01a89" y="160.1041"/>
     <use style="fill:#1f77b4;stroke:#1f77b4;" x="145.781776" xlink:href="#mc553b01a89" y="176.526788"/>
     <use style="fill:#1f77b4;stroke:#1f77b4;" x="281.529445" xlink:href="#mc553b01a89" y="120.169339"/>
     <use style="fill:#1f77b4;stroke:#1f77b4;" x="149.038476" xlink:href="#mc553b01a89" y="164.637874"/>
     <use style="fill:#1f77b4;stroke:#1f77b4;" x="273.905815" xlink:href="#mc553b01a89" y="117.599508"/>
     <use style="fill:#1f77b4;stroke:#1f77b4;" x="262.683623" xlink:href="#mc553b01a89" y="129.344049"/>
     <use style="fill:#1f77b4;stroke:#1f77b4;" x="143.082686" xlink:href="#mc553b01a89" y="200.746661"/>
     <use style="fill:#1f77b4;stroke:#1f77b4;" x="253.957221" xlink:href="#mc553b01a89" y="140.396452"/>
     <use style="fill:#1f77b4;stroke:#1f77b4;" x="69.218182" xlink:href="#mc553b01a89" y="242.116363"/>
     <use style="fill:#1f77b4;stroke:#1f77b4;" x="82.866393" xlink:href="#mc553b01a89" y="213.474928"/>
     <use style="fill:#1f77b4;stroke:#1f77b4;" x="213.957767" xlink:href="#mc553b01a89" y="146.180897"/>
     <use style="fill:#1f77b4;stroke:#1f77b4;" x="185.635277" xlink:href="#mc553b01a89" y="156.918869"/>
     <use style="fill:#1f77b4;stroke:#1f77b4;" x="260.898297" xlink:href="#mc553b01a89" y="108.865853"/>
     <use style="fill:#1f77b4;stroke:#1f77b4;" x="373.581818" xlink:href="#mc553b01a89" y="62.524951"/>
    </g>
   </g>
   <g id="PathCollection_2">
    <defs>
     <path d="M 0 5 
C 1.326016 5 2.597899 4.473168 3.535534 3.535534 
C 4.473168 2.597899 5 1.326016 5 0 
C 5 -1.326016 4.473168 -2.597899 3.535534 -3.535534 
C 2.597899 -4.473168 1.326016 -5 0 -5 
C -1.326016 -5 -2.597899 -4.473168 -3.535534 -3.535534 
C -4.473168 -2.597899 -5 -1.326016 -5 0 
C -5 1.326016 -4.473168 2.597899 -3.535534 3.535534 
C -2.597899 4.473168 -1.326016 5 0 5 
z
" id="C0_0_7a30cc3ecd"/>
    </defs>
    <g clip-path="url(#p0f28117b52)">
     <use style="fill:none;stroke:#000000;" x="149.117196" xlink:href="#C0_0_7a30cc3ecd" y="199.425563"/>
    </g>
    <g clip-path="url(#p0f28117b52)">
     <use style="fill:none;stroke:#000000;" x="311.132584" xlink:href="#C0_0_7a30cc3ecd" y="76.6893"/>
    </g>
    <g clip-path="url(#p0f28117b52)">
     <use style="fill:none;stroke:#000000;" x="280.37426" xlink:href="#C0_0_7a30cc3ecd" y="90.850095"/>
    </g>
    <g clip-path="url(#p0f28117b52)">
     <use style="fill:none;stroke:#000000;" x="259.450847" xlink:href="#C0_0_7a30cc3ecd" y="139.286519"/>
    </g>
    <g clip-path="url(#p0f28117b52)">
     <use style="fill:none;stroke:#000000;" x="149.038476" xlink:href="#C0_0_7a30cc3ecd" y="164.637874"/>
    </g>
    <g clip-path="url(#p0f28117b52)">
     <use style="fill:none;stroke:#000000;" x="253.957221" xlink:href="#C0_0_7a30cc3ecd" y="140.396452"/>
    </g>
    <g clip-path="url(#p0f28117b52)">
     <use style="fill:none;stroke:#000000;" x="69.218182" xlink:href="#C0_0_7a30cc3ecd" y="242.116363"/>
    </g>
   </g>
   <g id="matplotlib.axis_1">
    <g id="xtick_1">
     <g id="line2d_1">
      <defs>
       <path d="M 0 0 
L 0 3.5 
" id="m45ef342284" style="stroke:#000000;stroke-width:0.8;"/>
      </defs>
      <g>
       <use style="stroke:#000000;stroke-width:0.8;" x="85.820065" xlink:href="#m45ef342284" y="252"/>
      </g>
     </g>
     <g id="text_1">
      <!-- $-2.0$ -->
      <defs>
       <path d="M 65.90625 23 
C 67.59375 23 69.40625 23 69.40625 25 
C 69.40625 27 67.59375 27 65.90625 27 
L 11.796875 27 
C 10.09375 27 8.296875 27 8.296875 25 
C 8.296875 23 10.09375 23 11.796875 23 
z
" id="CMSY10-0"/>
       <path d="M 41.703125 15.453125 
L 39.90625 15.453125 
C 38.90625 8.375 38.09375 7.171875 37.703125 6.5625 
C 37.203125 5.765625 30 5.765625 28.59375 5.765625 
L 9.40625 5.765625 
C 13 9.671875 20 16.75 28.5 24.953125 
C 34.59375 30.734375 41.703125 37.53125 41.703125 47.421875 
C 41.703125 59.21875 32.296875 66 21.796875 66 
C 10.796875 66 4.09375 56.3125 4.09375 47.34375 
C 4.09375 43.4375 7 42.9375 8.203125 42.9375 
C 9.203125 42.9375 12.203125 43.546875 12.203125 47.03125 
C 12.203125 50.109375 9.59375 51 8.203125 51 
C 7.59375 51 7 50.90625 6.59375 50.703125 
C 8.5 59.21875 14.296875 63.40625 20.40625 63.40625 
C 29.09375 63.40625 34.796875 56.515625 34.796875 47.421875 
C 34.796875 38.734375 29.703125 31.25 24 24.75 
L 4.09375 2.28125 
L 4.09375 0 
L 39.296875 0 
z
" id="CMR17-50"/>
       <path d="M 18.40625 4.796875 
C 18.40625 7.6875 16 9.671875 13.59375 9.671875 
C 10.703125 9.671875 8.703125 7.28125 8.703125 4.890625 
C 8.703125 2 11.09375 0 13.5 0 
C 16.40625 0 18.40625 2.390625 18.40625 4.796875 
z
" id="CMMI12-58"/>
       <path d="M 42 31.640625 
C 42 37.75 41.90625 48.125 37.703125 56.109375 
C 34 63.109375 28.09375 65.59375 22.90625 65.59375 
C 18.09375 65.59375 12 63.40625 8.203125 56.203125 
C 4.203125 48.71875 3.796875 39.4375 3.796875 31.640625 
C 3.796875 25.953125 3.90625 17.28125 7 9.671875 
C 11.296875 -0.609375 19 -2 22.90625 -2 
C 27.5 -2 34.5 -0.109375 38.59375 9.375 
C 41.59375 16.28125 42 24.359375 42 31.640625 
z
M 22.90625 -0.40625 
C 16.5 -0.40625 12.703125 5.078125 11.296875 12.6875 
C 10.203125 18.5625 10.203125 27.15625 10.203125 32.75 
C 10.203125 40.4375 10.203125 46.828125 11.5 52.921875 
C 13.40625 61.390625 19 64 22.90625 64 
C 27 64 32.296875 61.296875 34.203125 53.125 
C 35.5 47.4375 35.59375 40.734375 35.59375 32.75 
C 35.59375 26.25 35.59375 18.265625 34.40625 12.375 
C 32.296875 1.484375 26.40625 -0.40625 22.90625 -0.40625 
z
" id="CMR17-48"/>
      </defs>
      <g transform="translate(75.580653 265.918498)scale(0.1 -0.1)">
       <use transform="scale(0.996264)" xlink:href="#CMSY10-0"/>
       <use transform="translate(77.487468 0)scale(0.996264)" xlink:href="#CMR17-50"/>
       <use transform="translate(123.177945 0)scale(0.996264)" xlink:href="#CMMI12-58"/>
       <use transform="translate(150.275122 0)scale(0.996264)" xlink:href="#CMR17-48"/>
      </g>
     </g>
    </g>
    <g id="xtick_2">
     <g id="line2d_2">
      <g>
       <use style="stroke:#000000;stroke-width:0.8;" x="127.656536" xlink:href="#m45ef342284" y="252"/>
      </g>
     </g>
     <g id="text_2">
      <!-- $-1.5$ -->
      <defs>
       <path d="M 26.59375 63.40625 
C 26.59375 65.5 26.5 65.5 25.09375 65.5 
C 21.203125 61.1875 15.296875 59.796875 9.703125 59.796875 
C 9.40625 59.796875 8.90625 59.796875 8.796875 59.5 
C 8.703125 59.296875 8.703125 59.09375 8.703125 57 
C 11.796875 57 17 57.59375 21 59.984375 
L 21 7.203125 
C 21 3.6875 20.796875 2.5 12.203125 2.5 
L 9.203125 2.5 
L 9.203125 0 
C 14 0 19 0 23.796875 0 
C 28.59375 0 33.59375 0 38.40625 0 
L 38.40625 2.5 
L 35.40625 2.5 
C 26.796875 2.5 26.59375 3.59375 26.59375 7.15625 
z
" id="CMR17-49"/>
       <path d="M 11.40625 57.6875 
C 12.40625 57.28125 16.5 56 20.703125 56 
C 30 56 35.09375 61.109375 38 64.0625 
C 38 64.953125 38 65.5 37.40625 65.5 
C 37.296875 65.5 37.09375 65.5 36.296875 65.046875 
C 32.796875 63.40625 28.703125 62.078125 23.703125 62.078125 
C 20.703125 62.078125 16.203125 62.484375 11.296875 64.671875 
C 10.203125 65.171875 10 65.171875 9.90625 65.171875 
C 9.40625 65.171875 9.296875 65.0625 9.296875 63.078125 
L 9.296875 34.421875 
C 9.296875 32.640625 9.296875 32.140625 10.296875 32.140625 
C 10.796875 32.140625 11 32.34375 11.5 33.03125 
C 14.703125 37.515625 19.09375 39.40625 24.09375 39.40625 
C 27.59375 39.40625 35.09375 37.21875 35.09375 20.140625 
C 35.09375 16.953125 35.09375 11.171875 32.09375 6.578125 
C 29.59375 2.484375 25.703125 0.390625 21.40625 0.390625 
C 14.796875 0.390625 8.09375 5 6.296875 12.71875 
C 6.703125 12.609375 7.5 12.421875 7.90625 12.421875 
C 9.203125 12.421875 11.703125 13.125 11.703125 16.21875 
C 11.703125 18.90625 9.796875 20 7.90625 20 
C 5.59375 20 4.09375 18.59375 4.09375 15.796875 
C 4.09375 7.09375 11 -2 21.59375 -2 
C 31.90625 -2 41.703125 6.875 41.703125 19.75 
C 41.703125 31.71875 33.90625 41 24.203125 41 
C 19.09375 41 14.796875 39.109375 11.40625 35.53125 
z
" id="CMR17-53"/>
      </defs>
      <g transform="translate(117.417125 265.918498)scale(0.1 -0.1)">
       <use transform="scale(0.996264)" xlink:href="#CMSY10-0"/>
       <use transform="translate(77.487468 0)scale(0.996264)" xlink:href="#CMR17-49"/>
       <use transform="translate(123.177945 0)scale(0.996264)" xlink:href="#CMMI12-58"/>
       <use transform="translate(150.275122 0)scale(0.996264)" xlink:href="#CMR17-53"/>
      </g>
     </g>
    </g>
    <g id="xtick_3">
     <g id="line2d_3">
      <g>
       <use style="stroke:#000000;stroke-width:0.8;" x="169.493008" xlink:href="#m45ef342284" y="252"/>
      </g>
     </g>
     <g id="text_3">
      <!-- $-1.0$ -->
      <g transform="translate(159.253597 265.918498)scale(0.1 -0.1)">
       <use transform="scale(0.996264)" xlink:href="#CMSY10-0"/>
       <use transform="translate(77.487468 0)scale(0.996264)" xlink:href="#CMR17-49"/>
       <use transform="translate(123.177945 0)scale(0.996264)" xlink:href="#CMMI12-58"/>
       <use transform="translate(150.275122 0)scale(0.996264)" xlink:href="#CMR17-48"/>
      </g>
     </g>
    </g>
    <g id="xtick_4">
     <g id="line2d_4">
      <g>
       <use style="stroke:#000000;stroke-width:0.8;" x="211.32948" xlink:href="#m45ef342284" y="252"/>
      </g>
     </g>
     <g id="text_4">
      <!-- $-0.5$ -->
      <g transform="translate(201.090068 265.918498)scale(0.1 -0.1)">
       <use transform="scale(0.996264)" xlink:href="#CMSY10-0"/>
       <use transform="translate(77.487468 0)scale(0.996264)" xlink:href="#CMR17-48"/>
       <use transform="translate(123.177945 0)scale(0.996264)" xlink:href="#CMMI12-58"/>
       <use transform="translate(150.275122 0)scale(0.996264)" xlink:href="#CMR17-53"/>
      </g>
     </g>
    </g>
    <g id="xtick_5">
     <g id="line2d_5">
      <g>
       <use style="stroke:#000000;stroke-width:0.8;" x="253.165951" xlink:href="#m45ef342284" y="252"/>
      </g>
     </g>
     <g id="text_5">
      <!-- $0.0$ -->
      <g transform="translate(246.800912 265.918498)scale(0.1 -0.1)">
       <use transform="scale(0.996264)" xlink:href="#CMR17-48"/>
       <use transform="translate(45.690477 0)scale(0.996264)" xlink:href="#CMMI12-58"/>
       <use transform="translate(72.787654 0)scale(0.996264)" xlink:href="#CMR17-48"/>
      </g>
     </g>
    </g>
    <g id="xtick_6">
     <g id="line2d_6">
      <g>
       <use style="stroke:#000000;stroke-width:0.8;" x="295.002423" xlink:href="#m45ef342284" y="252"/>
      </g>
     </g>
     <g id="text_6">
      <!-- $0.5$ -->
      <g transform="translate(288.637383 265.918498)scale(0.1 -0.1)">
       <use transform="scale(0.996264)" xlink:href="#CMR17-48"/>
       <use transform="translate(45.690477 0)scale(0.996264)" xlink:href="#CMMI12-58"/>
       <use transform="translate(72.787654 0)scale(0.996264)" xlink:href="#CMR17-53"/>
      </g>
     </g>
    </g>
    <g id="xtick_7">
     <g id="line2d_7">
      <g>
       <use style="stroke:#000000;stroke-width:0.8;" x="336.838894" xlink:href="#m45ef342284" y="252"/>
      </g>
     </g>
     <g id="text_7">
      <!-- $1.0$ -->
      <g transform="translate(330.473855 265.918498)scale(0.1 -0.1)">
       <use transform="scale(0.996264)" xlink:href="#CMR17-49"/>
       <use transform="translate(45.690477 0)scale(0.996264)" xlink:href="#CMMI12-58"/>
       <use transform="translate(72.787654 0)scale(0.996264)" xlink:href="#CMR17-48"/>
      </g>
     </g>
    </g>
    <g id="xtick_8">
     <g id="line2d_8">
      <g>
       <use style="stroke:#000000;stroke-width:0.8;" x="378.675366" xlink:href="#m45ef342284" y="252"/>
      </g>
     </g>
     <g id="text_8">
      <!-- $1.5$ -->
      <g transform="translate(372.310326 265.918498)scale(0.1 -0.1)">
       <use transform="scale(0.996264)" xlink:href="#CMR17-49"/>
       <use transform="translate(45.690477 0)scale(0.996264)" xlink:href="#CMMI12-58"/>
       <use transform="translate(72.787654 0)scale(0.996264)" xlink:href="#CMR17-53"/>
      </g>
     </g>
    </g>
   </g>
   <g id="matplotlib.axis_2">
    <g id="ytick_1">
     <g id="line2d_9">
      <defs>
       <path d="M 0 0 
L -3.5 0 
" id="m12b572a5a1" style="stroke:#000000;stroke-width:0.8;"/>
      </defs>
      <g>
       <use style="stroke:#000000;stroke-width:0.8;" x="54" xlink:href="#m12b572a5a1" y="231.415413"/>
      </g>
     </g>
     <g id="text_9">
      <!-- $-60$ -->
      <defs>
       <path d="M 10.59375 34 
C 10.59375 57.65625 21.796875 63 28.296875 63 
C 30.40625 63 35.5 62.640625 37.5 59 
C 35.90625 59 32.90625 59 32.90625 55.515625 
C 32.90625 52.828125 35.09375 51.921875 36.5 51.921875 
C 37.40625 51.921875 40.09375 52.3125 40.09375 55.625 
C 40.09375 61.78125 35.09375 65.296875 28.203125 65.296875 
C 16.296875 65.296875 3.796875 52.96875 3.796875 31 
C 3.796875 3.953125 15.09375 -2 23.09375 -2 
C 32.796875 -2 42 6.671875 42 20.046875 
C 42 32.515625 33.90625 41.59375 23.703125 41.59375 
C 17.59375 41.59375 13.09375 37.609375 10.59375 30.625 
z
M 23.09375 0.390625 
C 10.796875 0.390625 10.796875 18.75 10.796875 22.4375 
C 10.796875 29.625 14.203125 40 23.5 40 
C 25.203125 40 30.09375 40 33.40625 33.125 
C 35.203125 29.21875 35.203125 25.140625 35.203125 20.140625 
C 35.203125 14.75 35.203125 10.78125 33.09375 6.78125 
C 30.90625 2.671875 27.703125 0.390625 23.09375 0.390625 
z
" id="CMR17-54"/>
      </defs>
      <g transform="translate(29.288586 234.874663)scale(0.1 -0.1)">
       <use transform="scale(0.996264)" xlink:href="#CMSY10-0"/>
       <use transform="translate(77.487468 0)scale(0.996264)" xlink:href="#CMR17-54"/>
       <use transform="translate(123.177945 0)scale(0.996264)" xlink:href="#CMR17-48"/>
      </g>
     </g>
    </g>
    <g id="ytick_2">
     <g id="line2d_10">
      <g>
       <use style="stroke:#000000;stroke-width:0.8;" x="54" xlink:href="#m12b572a5a1" y="201.329582"/>
      </g>
     </g>
     <g id="text_10">
      <!-- $-40$ -->
      <defs>
       <path d="M 33.59375 64.40625 
C 33.59375 66.5 33.5 66.5 31.703125 66.5 
L 2 19.59375 
L 2 17 
L 27.796875 17 
L 27.796875 7.140625 
C 27.796875 3.5 27.59375 2.5 20.59375 2.5 
L 18.703125 2.5 
L 18.703125 0 
C 21.90625 0 27.296875 0 30.703125 0 
C 34.09375 0 39.5 0 42.703125 0 
L 42.703125 2.5 
L 40.796875 2.5 
C 33.796875 2.5 33.59375 3.5 33.59375 7.140625 
L 33.59375 17 
L 43.796875 17 
L 43.796875 19.59375 
L 33.59375 19.59375 
z
M 28.09375 57.859375 
L 28.09375 19.59375 
L 4 19.59375 
z
" id="CMR17-52"/>
      </defs>
      <g transform="translate(29.288586 204.788832)scale(0.1 -0.1)">
       <use transform="scale(0.996264)" xlink:href="#CMSY10-0"/>
       <use transform="translate(77.487468 0)scale(0.996264)" xlink:href="#CMR17-52"/>
       <use transform="translate(123.177945 0)scale(0.996264)" xlink:href="#CMR17-48"/>
      </g>
     </g>
    </g>
    <g id="ytick_3">
     <g id="line2d_11">
      <g>
       <use style="stroke:#000000;stroke-width:0.8;" x="54" xlink:href="#m12b572a5a1" y="171.243751"/>
      </g>
     </g>
     <g id="text_11">
      <!-- $-20$ -->
      <g transform="translate(29.288586 174.703001)scale(0.1 -0.1)">
       <use transform="scale(0.996264)" xlink:href="#CMSY10-0"/>
       <use transform="translate(77.487468 0)scale(0.996264)" xlink:href="#CMR17-50"/>
       <use transform="translate(123.177945 0)scale(0.996264)" xlink:href="#CMR17-48"/>
      </g>
     </g>
    </g>
    <g id="ytick_4">
     <g id="line2d_12">
      <g>
       <use style="stroke:#000000;stroke-width:0.8;" x="54" xlink:href="#m12b572a5a1" y="141.15792"/>
      </g>
     </g>
     <g id="text_12">
      <!-- $0$ -->
      <g transform="translate(42.018665 144.617169)scale(0.1 -0.1)">
       <use transform="scale(0.996264)" xlink:href="#CMR17-48"/>
      </g>
     </g>
    </g>
    <g id="ytick_5">
     <g id="line2d_13">
      <g>
       <use style="stroke:#000000;stroke-width:0.8;" x="54" xlink:href="#m12b572a5a1" y="111.072089"/>
      </g>
     </g>
     <g id="text_13">
      <!-- $20$ -->
      <g transform="translate(37.037329 114.531338)scale(0.1 -0.1)">
       <use transform="scale(0.996264)" xlink:href="#CMR17-50"/>
       <use transform="translate(45.690477 0)scale(0.996264)" xlink:href="#CMR17-48"/>
      </g>
     </g>
    </g>
    <g id="ytick_6">
     <g id="line2d_14">
      <g>
       <use style="stroke:#000000;stroke-width:0.8;" x="54" xlink:href="#m12b572a5a1" y="80.986258"/>
      </g>
     </g>
     <g id="text_14">
      <!-- $40$ -->
      <g transform="translate(37.037329 84.445507)scale(0.1 -0.1)">
       <use transform="scale(0.996264)" xlink:href="#CMR17-52"/>
       <use transform="translate(45.690477 0)scale(0.996264)" xlink:href="#CMR17-48"/>
      </g>
     </g>
    </g>
    <g id="ytick_7">
     <g id="line2d_15">
      <g>
       <use style="stroke:#000000;stroke-width:0.8;" x="54" xlink:href="#m12b572a5a1" y="50.900427"/>
      </g>
     </g>
     <g id="text_15">
      <!-- $60$ -->
      <g transform="translate(37.037329 54.359676)scale(0.1 -0.1)">
       <use transform="scale(0.996264)" xlink:href="#CMR17-54"/>
       <use transform="translate(45.690477 0)scale(0.996264)" xlink:href="#CMR17-48"/>
      </g>
     </g>
    </g>
   </g>
   <g id="line2d_16">
    <path clip-path="url(#p0f28117b52)" d="M 69.218182 227.073448 
L 75.429685 223.653307 
L 81.641187 220.233167 
L 87.85269 216.813026 
L 94.064193 213.392885 
L 100.275696 209.972744 
L 106.487199 206.552604 
L 112.698701 203.132463 
L 118.910204 199.712322 
L 125.121707 196.292181 
L 131.33321 192.872041 
L 137.544712 189.4519 
L 143.756215 186.031759 
L 149.967718 182.611619 
L 156.179221 179.191478 
L 162.390724 175.771337 
L 168.602226 172.351196 
L 174.813729 168.931056 
L 181.025232 165.510915 
L 187.236735 162.090774 
L 193.448237 158.670633 
L 199.65974 155.250493 
L 205.871243 151.830352 
L 212.082746 148.410211 
L 218.294249 144.99007 
L 224.505751 141.56993 
L 230.717254 138.149789 
L 236.928757 134.729648 
L 243.14026 131.309507 
L 249.351763 127.889367 
L 255.563265 124.469226 
L 261.774768 121.049085 
L 267.986271 117.628944 
L 274.197774 114.208804 
L 280.409276 110.788663 
L 286.620779 107.368522 
L 292.832282 103.948381 
L 299.043785 100.528241 
L 305.255288 97.1081 
L 311.46679 93.687959 
L 317.678293 90.267819 
L 323.889796 86.847678 
L 330.101299 83.427537 
L 336.312801 80.007396 
L 342.524304 76.587256 
L 348.735807 73.167115 
L 354.94731 69.746974 
L 361.158813 66.326833 
L 367.370315 62.906693 
L 373.581818 59.486552 
" style="fill:none;stroke:#000000;stroke-linecap:square;stroke-width:1.5;"/>
   </g>
   <g id="line2d_17">
    <path clip-path="url(#p0f28117b52)" d="M 69.218182 212.030533 
L 75.429685 208.610392 
L 81.641187 205.190251 
L 87.85269 201.77011 
L 94.064193 198.34997 
L 100.275696 194.929829 
L 106.487199 191.509688 
L 112.698701 188.089547 
L 118.910204 184.669407 
L 125.121707 181.249266 
L 131.33321 177.829125 
L 137.544712 174.408984 
L 143.756215 170.988844 
L 149.967718 167.568703 
L 156.179221 164.148562 
L 162.390724 160.728422 
L 168.602226 157.308281 
L 174.813729 153.88814 
L 181.025232 150.467999 
L 187.236735 147.047859 
L 193.448237 143.627718 
L 199.65974 140.207577 
L 205.871243 136.787436 
L 212.082746 133.367296 
L 218.294249 129.947155 
L 224.505751 126.527014 
L 230.717254 123.106873 
L 236.928757 119.686733 
L 243.14026 116.266592 
L 249.351763 112.846451 
L 255.563265 109.42631 
L 261.774768 106.00617 
L 267.986271 102.586029 
L 274.197774 99.165888 
L 280.409276 95.745747 
L 286.620779 92.325607 
L 292.832282 88.905466 
L 299.043785 85.485325 
L 305.255288 82.065185 
L 311.46679 78.645044 
L 317.678293 75.224903 
L 323.889796 71.804762 
L 330.101299 68.384622 
L 336.312801 64.964481 
L 342.524304 61.54434 
L 348.735807 58.124199 
L 354.94731 54.704059 
L 361.158813 51.283918 
L 367.370315 47.863777 
L 373.581818 44.443636 
" style="fill:none;stroke:#000000;stroke-dasharray:5.55,2.4;stroke-dashoffset:0;stroke-width:1.5;"/>
   </g>
   <g id="line2d_18">
    <path clip-path="url(#p0f28117b52)" d="M 69.218182 242.116364 
L 75.429685 238.696223 
L 81.641187 235.276082 
L 87.85269 231.855941 
L 94.064193 228.435801 
L 100.275696 225.01566 
L 106.487199 221.595519 
L 112.698701 218.175378 
L 118.910204 214.755238 
L 125.121707 211.335097 
L 131.33321 207.914956 
L 137.544712 204.494815 
L 143.756215 201.074675 
L 149.967718 197.654534 
L 156.179221 194.234393 
L 162.390724 190.814253 
L 168.602226 187.394112 
L 174.813729 183.973971 
L 181.025232 180.55383 
L 187.236735 177.13369 
L 193.448237 173.713549 
L 199.65974 170.293408 
L 205.871243 166.873267 
L 212.082746 163.453127 
L 218.294249 160.032986 
L 224.505751 156.612845 
L 230.717254 153.192704 
L 236.928757 149.772564 
L 243.14026 146.352423 
L 249.351763 142.932282 
L 255.563265 139.512141 
L 261.774768 136.092001 
L 267.986271 132.67186 
L 274.197774 129.251719 
L 280.409276 125.831578 
L 286.620779 122.411438 
L 292.832282 118.991297 
L 299.043785 115.571156 
L 305.255288 112.151016 
L 311.46679 108.730875 
L 317.678293 105.310734 
L 323.889796 101.890593 
L 330.101299 98.470453 
L 336.312801 95.050312 
L 342.524304 91.630171 
L 348.735807 88.21003 
L 354.94731 84.78989 
L 361.158813 81.369749 
L 367.370315 77.949608 
L 373.581818 74.529467 
" style="fill:none;stroke:#000000;stroke-dasharray:5.55,2.4;stroke-dashoffset:0;stroke-width:1.5;"/>
   </g>
   <g id="patch_3">
    <path d="M 54 252 
L 54 34.56 
" style="fill:none;stroke:#000000;stroke-linecap:square;stroke-linejoin:miter;stroke-width:0.8;"/>
   </g>
   <g id="patch_4">
    <path d="M 388.8 252 
L 388.8 34.56 
" style="fill:none;stroke:#000000;stroke-linecap:square;stroke-linejoin:miter;stroke-width:0.8;"/>
   </g>
   <g id="patch_5">
    <path d="M 54 252 
L 388.8 252 
" style="fill:none;stroke:#000000;stroke-linecap:square;stroke-linejoin:miter;stroke-width:0.8;"/>
   </g>
   <g id="patch_6">
    <path d="M 54 34.56 
L 388.8 34.56 
" style="fill:none;stroke:#000000;stroke-linecap:square;stroke-linejoin:miter;stroke-width:0.8;"/>
   </g>
   <g id="text_16">
    <!-- -10.00 -->
    <defs>
     <path d="M 26 19 
L 26 24.765625 
L 1 24.765625 
L 1 19 
z
" id="CMSS17-45"/>
     <path d="M 28.40625 67 
L 26.5 67 
C 21.09375 61.5625 14.796875 60.78125 8.40625 60.78125 
L 8.40625 55 
C 11.296875 55 16 55 20.703125 57.296875 
L 20.703125 5.765625 
L 8.90625 5.765625 
L 8.90625 0 
L 40.203125 0 
L 40.203125 5.765625 
L 28.40625 5.765625 
z
" id="CMSS17-49"/>
     <path d="M 43.09375 31.9375 
C 43.09375 37.578125 43 48.078125 38.90625 56.1875 
C 34.796875 64 28.203125 66.078125 23.5 66.078125 
C 16.703125 66.078125 10.90625 62.109375 7.90625 55.78125 
C 4.703125 49.15625 3.796875 42.328125 3.796875 31.9375 
C 3.796875 24.828125 4.09375 16.109375 7.703125 8.484375 
C 11.796875 0.078125 18.703125 -2 23.40625 -2 
C 29.59375 -2 35.59375 1.265625 39 8.09375 
C 42.5 15.21875 43.09375 23.03125 43.09375 31.9375 
z
M 23.40625 4.078125 
C 15.796875 4.078125 13.5 12.671875 12.796875 15.546875 
C 11.59375 20.46875 11.40625 25.21875 11.40625 33.03125 
C 11.40625 39.15625 11.40625 46.0625 13.296875 51.515625 
C 15.59375 57.828125 19.59375 60 23.40625 60 
C 30.796875 60 33.203125 52.6875 34 50.125 
C 35.5 44.890625 35.5 38.765625 35.5 33.03125 
C 35.5 23.84375 35.5 4.078125 23.40625 4.078125 
z
" id="CMSS17-48"/>
     <path d="M 17 7.96875 
L 9 7.96875 
L 9 0 
L 17 0 
z
" id="CMSS17-46"/>
    </defs>
    <g transform="translate(153.300843 196.41698)scale(0.1 -0.1)">
     <use transform="scale(0.996264)" xlink:href="#CMSS17-45"/>
     <use transform="translate(31.229113 0)scale(0.996264)" xlink:href="#CMSS17-49"/>
     <use transform="translate(78.072736 0)scale(0.996264)" xlink:href="#CMSS17-48"/>
     <use transform="translate(124.91636 0)scale(0.996264)" xlink:href="#CMSS17-46"/>
     <use transform="translate(150.940565 0)scale(0.996264)" xlink:href="#CMSS17-48"/>
     <use transform="translate(197.784188 0)scale(0.996264)" xlink:href="#CMSS17-48"/>
    </g>
   </g>
   <g id="text_17">
    <!-- 10.00 -->
    <g transform="translate(315.316231 73.680717)scale(0.1 -0.1)">
     <use transform="scale(0.996264)" xlink:href="#CMSS17-49"/>
     <use transform="translate(46.843624 0)scale(0.996264)" xlink:href="#CMSS17-48"/>
     <use transform="translate(93.687247 0)scale(0.996264)" xlink:href="#CMSS17-46"/>
     <use transform="translate(119.711452 0)scale(0.996264)" xlink:href="#CMSS17-48"/>
     <use transform="translate(166.555075 0)scale(0.996264)" xlink:href="#CMSS17-48"/>
    </g>
   </g>
   <g id="text_18">
    <!-- 10.00 -->
    <g transform="translate(284.557907 87.841512)scale(0.1 -0.1)">
     <use transform="scale(0.996264)" xlink:href="#CMSS17-49"/>
     <use transform="translate(46.843624 0)scale(0.996264)" xlink:href="#CMSS17-48"/>
     <use transform="translate(93.687247 0)scale(0.996264)" xlink:href="#CMSS17-46"/>
     <use transform="translate(119.711452 0)scale(0.996264)" xlink:href="#CMSS17-48"/>
     <use transform="translate(166.555075 0)scale(0.996264)" xlink:href="#CMSS17-48"/>
    </g>
   </g>
   <g id="text_19">
    <!-- -10.00 -->
    <g transform="translate(263.634494 136.277936)scale(0.1 -0.1)">
     <use transform="scale(0.996264)" xlink:href="#CMSS17-45"/>
     <use transform="translate(31.229113 0)scale(0.996264)" xlink:href="#CMSS17-49"/>
     <use transform="translate(78.072736 0)scale(0.996264)" xlink:href="#CMSS17-48"/>
     <use transform="translate(124.91636 0)scale(0.996264)" xlink:href="#CMSS17-46"/>
     <use transform="translate(150.940565 0)scale(0.996264)" xlink:href="#CMSS17-48"/>
     <use transform="translate(197.784188 0)scale(0.996264)" xlink:href="#CMSS17-48"/>
    </g>
   </g>
   <g id="text_20">
    <!-- 10.00 -->
    <g transform="translate(153.222123 161.629291)scale(0.1 -0.1)">
     <use transform="scale(0.996264)" xlink:href="#CMSS17-49"/>
     <use transform="translate(46.843624 0)scale(0.996264)" xlink:href="#CMSS17-48"/>
     <use transform="translate(93.687247 0)scale(0.996264)" xlink:href="#CMSS17-46"/>
     <use transform="translate(119.711452 0)scale(0.996264)" xlink:href="#CMSS17-48"/>
     <use transform="translate(166.555075 0)scale(0.996264)" xlink:href="#CMSS17-48"/>
    </g>
   </g>
   <g id="text_21">
    <!-- -0.35 -->
    <defs>
     <path d="M 15.703125 31.640625 
L 22.5 31.640625 
C 31.90625 31.640625 34.59375 23.546875 34.59375 17.90625 
C 34.59375 10.203125 30.203125 4.171875 23 4.171875 
C 17.40625 4.171875 9.5 6.9375 5 14.25 
C 4.296875 10.796875 4.296875 10.59375 3.90625 8.21875 
C 8.59375 1.375 16.203125 -2 23.203125 -2 
C 34.59375 -2 43 7.390625 43 17.78125 
C 43 25.59375 37.5 32.140625 30 34.609375 
C 36 37.875 40.40625 44 40.40625 51.140625 
C 40.40625 59.453125 32.703125 66.078125 23.296875 66.078125 
C 14.703125 66.078125 8 60.8125 5.203125 55.15625 
C 5.90625 54.1875 7.703125 51.3125 8.59375 49.828125 
C 10.796875 55.65625 16.5 60 23.203125 60 
C 28.796875 60 32.5 56.359375 32.5 51.109375 
C 32.5 45.671875 29 39.734375 23.09375 38.359375 
C 22.703125 38.359375 16.5 37.765625 15.703125 37.671875 
z
" id="CMSS17-51"/>
     <path d="M 14.59375 58.625 
L 39.09375 58.625 
L 39.09375 65 
L 7.296875 65 
L 7.296875 27.828125 
L 14 27.828125 
C 15.796875 31.96875 19.5 35 24.296875 35 
C 28.796875 35 33.796875 31.078125 33.796875 19.78125 
C 33.796875 7.703125 26.703125 4.171875 21.5 4.171875 
C 15.09375 4.171875 9.203125 8 6.59375 13.296875 
L 3.40625 7.796875 
C 8 0.765625 15.5 -2 21.5 -2 
C 33.09375 -2 42.203125 7.765625 42.203125 19.578125 
C 42.203125 31.71875 34.09375 41.078125 24.40625 41.078125 
C 20.90625 41.078125 17.5 39.890625 14.59375 37.484375 
z
" id="CMSS17-53"/>
    </defs>
    <g transform="translate(258.140868 137.387869)scale(0.1 -0.1)">
     <use transform="scale(0.996264)" xlink:href="#CMSS17-45"/>
     <use transform="translate(31.229113 0)scale(0.996264)" xlink:href="#CMSS17-48"/>
     <use transform="translate(78.072736 0)scale(0.996264)" xlink:href="#CMSS17-46"/>
     <use transform="translate(104.096941 0)scale(0.996264)" xlink:href="#CMSS17-51"/>
     <use transform="translate(150.940565 0)scale(0.996264)" xlink:href="#CMSS17-53"/>
    </g>
   </g>
   <g id="text_22">
    <!-- -9.65 -->
    <defs>
     <path d="M 6.796875 2.71875 
C 9.59375 0.328125 13.203125 -2 19.296875 -2 
C 31.40625 -2 43 11.265625 43 32.734375 
C 43 61.4375 30.5 66.078125 23.796875 66.078125 
C 17.09375 66.078125 12.796875 63.140625 9.09375 58.453125 
C 4.703125 53.078125 3.90625 48.28125 3.90625 42.703125 
C 3.90625 36.046875 5.09375 31.953125 7.90625 27.265625 
C 11.703125 21.203125 15.203125 19.921875 19.09375 19.921875 
C 25 19.921875 30.90625 22.796875 34.90625 27.75 
C 34.203125 14.09375 28.09375 4.171875 19.296875 4.171875 
C 15.703125 4.171875 12.796875 5.296875 9.90625 8.0625 
z
M 34.59375 42.90625 
C 34.703125 42.234375 34.703125 40.96875 34.703125 40.5625 
C 34.703125 32.40625 29.90625 26 22.90625 26 
C 18.296875 26 15.90625 28.328125 14.09375 31.34375 
C 11.90625 35.140625 11.796875 38.828125 11.796875 42.703125 
C 11.796875 46.5 11.796875 50.6875 14.59375 54.859375 
C 16.703125 57.859375 19.296875 60 23.796875 60 
C 33 60 34.5 46.875 34.59375 42.90625 
z
" id="CMSS17-57"/>
     <path d="M 39 64.078125 
C 34.796875 65.78125 31.796875 66.078125 29 66.078125 
C 16 66.078125 3.90625 52.625 3.90625 31.34375 
C 3.90625 4.140625 15.40625 -2 23.59375 -2 
C 28.09375 -2 32.59375 -0.609375 36.90625 4.375 
C 41.296875 9.640625 43 14.03125 43 21.703125 
C 43 34.046875 36.90625 45 27.796875 45 
C 21.203125 45 15.5 41.515625 12 37.125 
C 13 50.90625 19.59375 60 29.09375 60 
C 31.703125 60 35.09375 59.625 39 57.96875 
z
M 12.09375 21.390625 
C 12.09375 22.1875 12.09375 22.6875 12.203125 24.1875 
C 12.203125 31.953125 16.703125 38.921875 24 38.921875 
C 28.703125 38.921875 31.09375 36.4375 32.90625 33.359375 
C 35 29.46875 35.09375 25.78125 35.09375 21.6875 
C 35.09375 17.8125 35.09375 13.921875 32.796875 9.953125 
C 30.90625 6.859375 28.40625 4.171875 23.59375 4.171875 
C 14.09375 4.171875 12.5 17.40625 12.09375 21.390625 
z
" id="CMSS17-54"/>
    </defs>
    <g transform="translate(73.401829 239.10778)scale(0.1 -0.1)">
     <use transform="scale(0.996264)" xlink:href="#CMSS17-45"/>
     <use transform="translate(31.229113 0)scale(0.996264)" xlink:href="#CMSS17-57"/>
     <use transform="translate(78.072736 0)scale(0.996264)" xlink:href="#CMSS17-46"/>
     <use transform="translate(104.096941 0)scale(0.996264)" xlink:href="#CMSS17-54"/>
     <use transform="translate(150.940565 0)scale(0.996264)" xlink:href="#CMSS17-53"/>
    </g>
   </g>
   <g id="text_23">
    <!-- C=10 and $\varepsilon$ = 10 -->
    <defs>
     <path d="M 54.703125 11.15625 
C 48 6.671875 44.90625 5.375 36.796875 5.375 
C 22.796875 5.375 14.59375 20.359375 14.59375 34.046875 
C 14.59375 48.625 23 63 37.203125 63 
C 43.59375 63 47.796875 61.21875 52.90625 58.046875 
L 54.296875 65.890625 
C 49.5 68.28125 43.40625 69.375 37.296875 69.375 
C 18.09375 69.375 6.203125 51.8125 6.203125 34.046875 
C 6.203125 14.484375 20.296875 -1 36.296875 -1 
C 44.90625 -1 47.90625 -0.296875 55.296875 4.375 
z
" id="CMSS17-67"/>
     <path d="M 64.796875 31.515625 
C 66.296875 31.515625 67.796875 31.515625 67.796875 33.203125 
C 67.796875 35 66.09375 35 64.40625 35 
L 8.59375 35 
C 6.90625 35 5.203125 35 5.203125 33.203125 
C 5.203125 31.515625 6.703125 31.515625 8.203125 31.515625 
z
M 64.40625 14 
C 66.09375 14 67.796875 14 67.796875 15.796875 
C 67.796875 17.484375 66.296875 17.484375 64.796875 17.484375 
L 8.203125 17.484375 
C 6.703125 17.484375 5.203125 17.484375 5.203125 15.796875 
C 5.203125 14 6.90625 14 8.59375 14 
z
" id="CMSS17-61"/>
     <path d="M 37.59375 27.984375 
C 37.59375 37.375 30.90625 43.875 21.90625 43.875 
C 17.5 43.875 12.703125 43.078125 7.203125 39.890625 
L 7.796875 33.359375 
C 10.296875 35.125 14.59375 38 21.796875 38 
C 26.90625 38 30 34.0625 30 27.84375 
L 30 24 
C 14 24 4 19.34375 4 11.34375 
C 4 7.203125 6.5 -1 14.796875 -1 
C 16.296875 -1 24.40625 -1 30.203125 3.390625 
L 30.203125 -0.296875 
L 37.59375 -0.296875 
z
M 30 12.75 
C 30 10.953125 30 8.5625 27 6.78125 
C 24.40625 5.078125 21.09375 5.078125 19.703125 5.078125 
C 14.703125 5.078125 11.296875 7.984375 11.296875 11.625 
C 11.296875 18.921875 26.90625 18.921875 30 18.921875 
z
" id="CMSS17-97"/>
     <path d="M 40.90625 29.328125 
C 40.90625 35.671875 39.40625 44 28.09375 44 
C 21.703125 44 17.5 40.71875 14.703125 37.328125 
L 14.703125 43.09375 
L 7.40625 43.09375 
L 7.40625 0 
L 15 0 
L 15 24.359375 
C 15 30.6875 17.40625 37.9375 24.203125 37.9375 
C 33 37.9375 33.296875 32 33.296875 28.578125 
L 33.296875 0 
L 40.90625 0 
z
" id="CMSS17-110"/>
     <path d="M 40.796875 69 
L 33.40625 69 
L 33.40625 38.09375 
C 30.296875 40.671875 25.203125 43.0625 19.59375 43.0625 
C 10.5 43.0625 3.296875 33.296875 3.296875 21.046875 
C 3.296875 8.78125 10.40625 -1 19.296875 -1 
C 26.203125 -1 30.796875 2.6875 33.203125 4.78125 
L 33.203125 -0.203125 
L 40.796875 -0.203125 
z
M 33.203125 13.0625 
C 33.203125 11.671875 33.203125 10.203125 30.09375 7.53125 
C 28.09375 5.859375 25.703125 5.078125 23.40625 5.078125 
C 18 5.078125 10.90625 9 10.90625 20.9375 
C 10.90625 33.34375 18.90625 37 24.40625 37 
C 28.09375 37 31.09375 35.21875 33.203125 32.265625 
z
" id="CMSS17-100"/>
     <path d="M 13.90625 22.296875 
C 17.09375 21.015625 20.5 21.015625 22.40625 21.015625 
C 25 21.015625 30.203125 21.015625 30.203125 24.21875 
C 30.203125 26.21875 28.296875 27 23.203125 27 
C 20.703125 27 17.703125 26.703125 14.203125 25.203125 
C 11.09375 26.6875 9.90625 28.9375 9.90625 31.09375 
C 9.90625 37.171875 19.703125 40.71875 28.59375 40.71875 
C 30.296875 40.71875 33.90625 40.71875 38.09375 37.671875 
C 38.703125 37.296875 39 36.984375 39.703125 36.984375 
C 40.90625 36.984375 42.203125 38.265625 42.203125 39.46875 
C 42.203125 41.234375 36.40625 45 29.5 45 
C 18.296875 45 7.703125 38.265625 7.703125 30.8125 
C 7.703125 27.09375 10.09375 24.78125 11.796875 23.578125 
C 6 20.328125 2.59375 15.015625 2.59375 10.1875 
C 2.59375 3.421875 8.796875 -2 18.40625 -2 
C 31.59375 -2 36.90625 6.625 36.90625 8 
C 36.90625 8.484375 36.5 8.875 36 8.875 
C 35.5 8.875 35.296875 8.578125 34.90625 8 
C 33.796875 6.171875 31.203125 2.28125 19.296875 2.28125 
C 13.09375 2.28125 4.90625 3.828125 4.90625 10.71875 
C 4.90625 14.03125 7.40625 18.96875 13.90625 22.296875 
z
M 17 23.71875 
C 19.703125 25 22.296875 25 23 25 
C 25.796875 25 26.296875 24.734375 27.90625 24.140625 
C 26.203125 23 26 23 22.40625 23 
C 20.59375 23 19 23 17 23.71875 
z
" id="CMMI12-34"/>
    </defs>
    <g transform="translate(177.499822 28.56)scale(0.12 -0.12)">
     <use transform="scale(0.996264)" xlink:href="#CMSS17-67"/>
     <use transform="translate(59.855772 0)scale(0.996264)" xlink:href="#CMSS17-61"/>
     <use transform="translate(132.723706 0)scale(0.996264)" xlink:href="#CMSS17-49"/>
     <use transform="translate(179.56733 0)scale(0.996264)" xlink:href="#CMSS17-48"/>
     <use transform="translate(257.640066 0)scale(0.996264)" xlink:href="#CMSS17-97"/>
     <use transform="translate(302.561987 0)scale(0.996264)" xlink:href="#CMSS17-110"/>
     <use transform="translate(350.76693 0)scale(0.996264)" xlink:href="#CMSS17-100"/>
     <use transform="translate(430.200986 0)scale(0.996264)" xlink:href="#CMMI12-34"/>
     <use transform="translate(507.080291 0)scale(0.996264)" xlink:href="#CMSS17-61"/>
     <use transform="translate(611.177339 0)scale(0.996264)" xlink:href="#CMSS17-49"/>
     <use transform="translate(658.020962 0)scale(0.996264)" xlink:href="#CMSS17-48"/>
    </g>
   </g>
  </g>
 </g>
 <defs>
  <clipPath id="p0f28117b52">
   <rect height="217.44" width="334.8" x="54" y="34.56"/>
  </clipPath>
 </defs>
</svg>
