<?xml version="1.0" encoding="utf-8" standalone="no"?>
<!DOCTYPE svg PUBLIC "-//W3C//DTD SVG 1.1//EN"
  "http://www.w3.org/Graphics/SVG/1.1/DTD/svg11.dtd">
<!-- Created with matplotlib (https://matplotlib.org/) -->
<svg height="288pt" version="1.1" viewBox="0 0 432 288" width="432pt" xmlns="http://www.w3.org/2000/svg" xmlns:xlink="http://www.w3.org/1999/xlink">
 <defs>
  <style type="text/css">
*{stroke-linecap:butt;stroke-linejoin:round;}
  </style>
 </defs>
 <g id="figure_1">
  <g id="patch_1">
   <path d="M 0 288 
L 432 288 
L 432 0 
L 0 0 
z
" style="fill:#ffffff;"/>
  </g>
  <g id="axes_1">
   <g id="patch_2">
    <path d="M 54 252 
L 388.8 252 
L 388.8 34.56 
L 54 34.56 
z
" style="fill:#ffffff;"/>
   </g>
   <g id="PathCollection_1">
    <defs>
     <path d="M 0 3 
C 0.795609 3 1.55874 2.683901 2.12132 2.12132 
C 2.683901 1.55874 3 0.795609 3 0 
C 3 -0.795609 2.683901 -1.55874 2.12132 -2.12132 
C 1.55874 -2.683901 0.795609 -3 0 -3 
C -0.795609 -3 -1.55874 -2.683901 -2.12132 -2.12132 
C -2.683901 -1.55874 -3 -0.795609 -3 0 
C -3 0.795609 -2.683901 1.55874 -2.12132 2.12132 
C -1.55874 2.683901 -0.795609 3 0 3 
z
" id="m5f92fea51e" style="stroke:#1f77b4;"/>
    </defs>
    <g clip-path="url(#p200b8753af)">
     <use style="fill:#1f77b4;stroke:#1f77b4;" x="320.816321" xlink:href="#m5f92fea51e" y="69.451362"/>
     <use style="fill:#1f77b4;stroke:#1f77b4;" x="69.218182" xlink:href="#m5f92fea51e" y="242.116364"/>
     <use style="fill:#1f77b4;stroke:#1f77b4;" x="193.744111" xlink:href="#m5f92fea51e" y="159.071646"/>
     <use style="fill:#1f77b4;stroke:#1f77b4;" x="169.338584" xlink:href="#m5f92fea51e" y="182.7205"/>
     <use style="fill:#1f77b4;stroke:#1f77b4;" x="153.411768" xlink:href="#m5f92fea51e" y="190.972186"/>
     <use style="fill:#1f77b4;stroke:#1f77b4;" x="356.512552" xlink:href="#m5f92fea51e" y="68.477947"/>
     <use style="fill:#1f77b4;stroke:#1f77b4;" x="148.445911" xlink:href="#m5f92fea51e" y="201.155309"/>
     <use style="fill:#1f77b4;stroke:#1f77b4;" x="373.581818" xlink:href="#m5f92fea51e" y="47.693648"/>
     <use style="fill:#1f77b4;stroke:#1f77b4;" x="240.675804" xlink:href="#m5f92fea51e" y="129.546583"/>
     <use style="fill:#1f77b4;stroke:#1f77b4;" x="320.972496" xlink:href="#m5f92fea51e" y="86.182673"/>
     <use style="fill:#1f77b4;stroke:#1f77b4;" x="238.548496" xlink:href="#m5f92fea51e" y="127.928824"/>
     <use style="fill:#1f77b4;stroke:#1f77b4;" x="337.648644" xlink:href="#m5f92fea51e" y="67.442041"/>
     <use style="fill:#1f77b4;stroke:#1f77b4;" x="133.126421" xlink:href="#m5f92fea51e" y="205.607406"/>
     <use style="fill:#1f77b4;stroke:#1f77b4;" x="198.358863" xlink:href="#m5f92fea51e" y="175.074011"/>
     <use style="fill:#1f77b4;stroke:#1f77b4;" x="256.376477" xlink:href="#m5f92fea51e" y="119.612599"/>
     <use style="fill:#1f77b4;stroke:#1f77b4;" x="208.521491" xlink:href="#m5f92fea51e" y="165.586907"/>
     <use style="fill:#1f77b4;stroke:#1f77b4;" x="193.767618" xlink:href="#m5f92fea51e" y="167.017593"/>
     <use style="fill:#1f77b4;stroke:#1f77b4;" x="200.553758" xlink:href="#m5f92fea51e" y="156.894305"/>
     <use style="fill:#1f77b4;stroke:#1f77b4;" x="172.788356" xlink:href="#m5f92fea51e" y="183.284512"/>
     <use style="fill:#1f77b4;stroke:#1f77b4;" x="308.558506" xlink:href="#m5f92fea51e" y="101.921996"/>
     <use style="fill:#1f77b4;stroke:#1f77b4;" x="351.059484" xlink:href="#m5f92fea51e" y="63.139203"/>
     <use style="fill:#1f77b4;stroke:#1f77b4;" x="307.59161" xlink:href="#m5f92fea51e" y="97.193509"/>
     <use style="fill:#1f77b4;stroke:#1f77b4;" x="213.402367" xlink:href="#m5f92fea51e" y="153.016415"/>
     <use style="fill:#1f77b4;stroke:#1f77b4;" x="318.333788" xlink:href="#m5f92fea51e" y="88.665597"/>
     <use style="fill:#1f77b4;stroke:#1f77b4;" x="258.811181" xlink:href="#m5f92fea51e" y="122.483821"/>
     <use style="fill:#1f77b4;stroke:#1f77b4;" x="208.429973" xlink:href="#m5f92fea51e" y="154.068697"/>
     <use style="fill:#1f77b4;stroke:#1f77b4;" x="292.583243" xlink:href="#m5f92fea51e" y="115.745058"/>
     <use style="fill:#1f77b4;stroke:#1f77b4;" x="350.289806" xlink:href="#m5f92fea51e" y="74.480011"/>
     <use style="fill:#1f77b4;stroke:#1f77b4;" x="199.372459" xlink:href="#m5f92fea51e" y="145.742489"/>
     <use style="fill:#1f77b4;stroke:#1f77b4;" x="233.834949" xlink:href="#m5f92fea51e" y="113.645751"/>
    </g>
   </g>
   <g id="PathCollection_2">
    <defs>
     <path d="M 0 5 
C 1.326016 5 2.597899 4.473168 3.535534 3.535534 
C 4.473168 2.597899 5 1.326016 5 0 
C 5 -1.326016 4.473168 -2.597899 3.535534 -3.535534 
C 2.597899 -4.473168 1.326016 -5 0 -5 
C -1.326016 -5 -2.597899 -4.473168 -3.535534 -3.535534 
C -4.473168 -2.597899 -5 -1.326016 -5 0 
C -5 1.326016 -4.473168 2.597899 -3.535534 3.535534 
C -2.597899 4.473168 -1.326016 5 0 5 
z
" id="C0_0_6d183dd986"/>
    </defs>
    <g clip-path="url(#p200b8753af)">
     <use style="fill:none;stroke:#000000;" x="320.816321" xlink:href="#C0_0_6d183dd986" y="69.451362"/>
    </g>
    <g clip-path="url(#p200b8753af)">
     <use style="fill:none;stroke:#000000;" x="69.218182" xlink:href="#C0_0_6d183dd986" y="242.116364"/>
    </g>
   </g>
   <g id="matplotlib.axis_1">
    <g id="xtick_1">
     <g id="line2d_1">
      <defs>
       <path d="M 0 0 
L 0 3.5 
" id="mdd5f99d8c1" style="stroke:#000000;stroke-width:0.8;"/>
      </defs>
      <g>
       <use style="stroke:#000000;stroke-width:0.8;" x="83.390961" xlink:href="#mdd5f99d8c1" y="252"/>
      </g>
     </g>
     <g id="text_1">
      <!-- −2.0 -->
      <defs>
       <path d="M 10.59375 35.5 
L 73.1875 35.5 
L 73.1875 27.203125 
L 10.59375 27.203125 
z
" id="DejaVuSans-8722"/>
       <path d="M 19.1875 8.296875 
L 53.609375 8.296875 
L 53.609375 0 
L 7.328125 0 
L 7.328125 8.296875 
Q 12.9375 14.109375 22.625 23.890625 
Q 32.328125 33.6875 34.8125 36.53125 
Q 39.546875 41.84375 41.421875 45.53125 
Q 43.3125 49.21875 43.3125 52.78125 
Q 43.3125 58.59375 39.234375 62.25 
Q 35.15625 65.921875 28.609375 65.921875 
Q 23.96875 65.921875 18.8125 64.3125 
Q 13.671875 62.703125 7.8125 59.421875 
L 7.8125 69.390625 
Q 13.765625 71.78125 18.9375 73 
Q 24.125 74.21875 28.421875 74.21875 
Q 39.75 74.21875 46.484375 68.546875 
Q 53.21875 62.890625 53.21875 53.421875 
Q 53.21875 48.921875 51.53125 44.890625 
Q 49.859375 40.875 45.40625 35.40625 
Q 44.1875 33.984375 37.640625 27.21875 
Q 31.109375 20.453125 19.1875 8.296875 
z
" id="DejaVuSans-50"/>
       <path d="M 10.6875 12.40625 
L 21 12.40625 
L 21 0 
L 10.6875 0 
z
" id="DejaVuSans-46"/>
       <path d="M 31.78125 66.40625 
Q 24.171875 66.40625 20.328125 58.90625 
Q 16.5 51.421875 16.5 36.375 
Q 16.5 21.390625 20.328125 13.890625 
Q 24.171875 6.390625 31.78125 6.390625 
Q 39.453125 6.390625 43.28125 13.890625 
Q 47.125 21.390625 47.125 36.375 
Q 47.125 51.421875 43.28125 58.90625 
Q 39.453125 66.40625 31.78125 66.40625 
z
M 31.78125 74.21875 
Q 44.046875 74.21875 50.515625 64.515625 
Q 56.984375 54.828125 56.984375 36.375 
Q 56.984375 17.96875 50.515625 8.265625 
Q 44.046875 -1.421875 31.78125 -1.421875 
Q 19.53125 -1.421875 13.0625 8.265625 
Q 6.59375 17.96875 6.59375 36.375 
Q 6.59375 54.828125 13.0625 64.515625 
Q 19.53125 74.21875 31.78125 74.21875 
z
" id="DejaVuSans-48"/>
      </defs>
      <g transform="translate(71.249555 266.598437)scale(0.1 -0.1)">
       <use xlink:href="#DejaVuSans-8722"/>
       <use x="83.789062" xlink:href="#DejaVuSans-50"/>
       <use x="147.412109" xlink:href="#DejaVuSans-46"/>
       <use x="179.199219" xlink:href="#DejaVuSans-48"/>
      </g>
     </g>
    </g>
    <g id="xtick_2">
     <g id="line2d_2">
      <g>
       <use style="stroke:#000000;stroke-width:0.8;" x="126.110033" xlink:href="#mdd5f99d8c1" y="252"/>
      </g>
     </g>
     <g id="text_2">
      <!-- −1.5 -->
      <defs>
       <path d="M 12.40625 8.296875 
L 28.515625 8.296875 
L 28.515625 63.921875 
L 10.984375 60.40625 
L 10.984375 69.390625 
L 28.421875 72.90625 
L 38.28125 72.90625 
L 38.28125 8.296875 
L 54.390625 8.296875 
L 54.390625 0 
L 12.40625 0 
z
" id="DejaVuSans-49"/>
       <path d="M 10.796875 72.90625 
L 49.515625 72.90625 
L 49.515625 64.59375 
L 19.828125 64.59375 
L 19.828125 46.734375 
Q 21.96875 47.46875 24.109375 47.828125 
Q 26.265625 48.1875 28.421875 48.1875 
Q 40.625 48.1875 47.75 41.5 
Q 54.890625 34.8125 54.890625 23.390625 
Q 54.890625 11.625 47.5625 5.09375 
Q 40.234375 -1.421875 26.90625 -1.421875 
Q 22.3125 -1.421875 17.546875 -0.640625 
Q 12.796875 0.140625 7.71875 1.703125 
L 7.71875 11.625 
Q 12.109375 9.234375 16.796875 8.0625 
Q 21.484375 6.890625 26.703125 6.890625 
Q 35.15625 6.890625 40.078125 11.328125 
Q 45.015625 15.765625 45.015625 23.390625 
Q 45.015625 31 40.078125 35.4375 
Q 35.15625 39.890625 26.703125 39.890625 
Q 22.75 39.890625 18.8125 39.015625 
Q 14.890625 38.140625 10.796875 36.28125 
z
" id="DejaVuSans-53"/>
      </defs>
      <g transform="translate(113.968626 266.598437)scale(0.1 -0.1)">
       <use xlink:href="#DejaVuSans-8722"/>
       <use x="83.789062" xlink:href="#DejaVuSans-49"/>
       <use x="147.412109" xlink:href="#DejaVuSans-46"/>
       <use x="179.199219" xlink:href="#DejaVuSans-53"/>
      </g>
     </g>
    </g>
    <g id="xtick_3">
     <g id="line2d_3">
      <g>
       <use style="stroke:#000000;stroke-width:0.8;" x="168.829104" xlink:href="#mdd5f99d8c1" y="252"/>
      </g>
     </g>
     <g id="text_3">
      <!-- −1.0 -->
      <g transform="translate(156.687698 266.598437)scale(0.1 -0.1)">
       <use xlink:href="#DejaVuSans-8722"/>
       <use x="83.789062" xlink:href="#DejaVuSans-49"/>
       <use x="147.412109" xlink:href="#DejaVuSans-46"/>
       <use x="179.199219" xlink:href="#DejaVuSans-48"/>
      </g>
     </g>
    </g>
    <g id="xtick_4">
     <g id="line2d_4">
      <g>
       <use style="stroke:#000000;stroke-width:0.8;" x="211.548175" xlink:href="#mdd5f99d8c1" y="252"/>
      </g>
     </g>
     <g id="text_4">
      <!-- −0.5 -->
      <g transform="translate(199.406769 266.598437)scale(0.1 -0.1)">
       <use xlink:href="#DejaVuSans-8722"/>
       <use x="83.789062" xlink:href="#DejaVuSans-48"/>
       <use x="147.412109" xlink:href="#DejaVuSans-46"/>
       <use x="179.199219" xlink:href="#DejaVuSans-53"/>
      </g>
     </g>
    </g>
    <g id="xtick_5">
     <g id="line2d_5">
      <g>
       <use style="stroke:#000000;stroke-width:0.8;" x="254.267247" xlink:href="#mdd5f99d8c1" y="252"/>
      </g>
     </g>
     <g id="text_5">
      <!-- 0.0 -->
      <g transform="translate(246.315684 266.598437)scale(0.1 -0.1)">
       <use xlink:href="#DejaVuSans-48"/>
       <use x="63.623047" xlink:href="#DejaVuSans-46"/>
       <use x="95.410156" xlink:href="#DejaVuSans-48"/>
      </g>
     </g>
    </g>
    <g id="xtick_6">
     <g id="line2d_6">
      <g>
       <use style="stroke:#000000;stroke-width:0.8;" x="296.986318" xlink:href="#mdd5f99d8c1" y="252"/>
      </g>
     </g>
     <g id="text_6">
      <!-- 0.5 -->
      <g transform="translate(289.034755 266.598437)scale(0.1 -0.1)">
       <use xlink:href="#DejaVuSans-48"/>
       <use x="63.623047" xlink:href="#DejaVuSans-46"/>
       <use x="95.410156" xlink:href="#DejaVuSans-53"/>
      </g>
     </g>
    </g>
    <g id="xtick_7">
     <g id="line2d_7">
      <g>
       <use style="stroke:#000000;stroke-width:0.8;" x="339.705389" xlink:href="#mdd5f99d8c1" y="252"/>
      </g>
     </g>
     <g id="text_7">
      <!-- 1.0 -->
      <g transform="translate(331.753827 266.598437)scale(0.1 -0.1)">
       <use xlink:href="#DejaVuSans-49"/>
       <use x="63.623047" xlink:href="#DejaVuSans-46"/>
       <use x="95.410156" xlink:href="#DejaVuSans-48"/>
      </g>
     </g>
    </g>
    <g id="xtick_8">
     <g id="line2d_8">
      <g>
       <use style="stroke:#000000;stroke-width:0.8;" x="382.424461" xlink:href="#mdd5f99d8c1" y="252"/>
      </g>
     </g>
     <g id="text_8">
      <!-- 1.5 -->
      <g transform="translate(374.472898 266.598437)scale(0.1 -0.1)">
       <use xlink:href="#DejaVuSans-49"/>
       <use x="63.623047" xlink:href="#DejaVuSans-46"/>
       <use x="95.410156" xlink:href="#DejaVuSans-53"/>
      </g>
     </g>
    </g>
   </g>
   <g id="matplotlib.axis_2">
    <g id="ytick_1">
     <g id="line2d_9">
      <defs>
       <path d="M 0 0 
L -3.5 0 
" id="m1cd255a91a" style="stroke:#000000;stroke-width:0.8;"/>
      </defs>
      <g>
       <use style="stroke:#000000;stroke-width:0.8;" x="54" xlink:href="#m1cd255a91a" y="223.071302"/>
      </g>
     </g>
     <g id="text_9">
      <!-- −100 -->
      <g transform="translate(19.532812 226.870521)scale(0.1 -0.1)">
       <use xlink:href="#DejaVuSans-8722"/>
       <use x="83.789062" xlink:href="#DejaVuSans-49"/>
       <use x="147.412109" xlink:href="#DejaVuSans-48"/>
       <use x="211.035156" xlink:href="#DejaVuSans-48"/>
      </g>
     </g>
    </g>
    <g id="ytick_2">
     <g id="line2d_10">
      <g>
       <use style="stroke:#000000;stroke-width:0.8;" x="54" xlink:href="#m1cd255a91a" y="178.552668"/>
      </g>
     </g>
     <g id="text_10">
      <!-- −50 -->
      <g transform="translate(25.895312 182.351887)scale(0.1 -0.1)">
       <use xlink:href="#DejaVuSans-8722"/>
       <use x="83.789062" xlink:href="#DejaVuSans-53"/>
       <use x="147.412109" xlink:href="#DejaVuSans-48"/>
      </g>
     </g>
    </g>
    <g id="ytick_3">
     <g id="line2d_11">
      <g>
       <use style="stroke:#000000;stroke-width:0.8;" x="54" xlink:href="#m1cd255a91a" y="134.034034"/>
      </g>
     </g>
     <g id="text_11">
      <!-- 0 -->
      <g transform="translate(40.6375 137.833253)scale(0.1 -0.1)">
       <use xlink:href="#DejaVuSans-48"/>
      </g>
     </g>
    </g>
    <g id="ytick_4">
     <g id="line2d_12">
      <g>
       <use style="stroke:#000000;stroke-width:0.8;" x="54" xlink:href="#m1cd255a91a" y="89.5154"/>
      </g>
     </g>
     <g id="text_12">
      <!-- 50 -->
      <g transform="translate(34.275 93.314618)scale(0.1 -0.1)">
       <use xlink:href="#DejaVuSans-53"/>
       <use x="63.623047" xlink:href="#DejaVuSans-48"/>
      </g>
     </g>
    </g>
    <g id="ytick_5">
     <g id="line2d_13">
      <g>
       <use style="stroke:#000000;stroke-width:0.8;" x="54" xlink:href="#m1cd255a91a" y="44.996765"/>
      </g>
     </g>
     <g id="text_13">
      <!-- 100 -->
      <g transform="translate(27.9125 48.795984)scale(0.1 -0.1)">
       <use xlink:href="#DejaVuSans-49"/>
       <use x="63.623047" xlink:href="#DejaVuSans-48"/>
       <use x="127.246094" xlink:href="#DejaVuSans-48"/>
      </g>
     </g>
    </g>
   </g>
   <g id="line2d_14">
    <path clip-path="url(#p200b8753af)" d="M 69.218182 215.405182 
L 75.429685 212.461297 
L 81.641187 209.517412 
L 87.85269 206.573527 
L 94.064193 203.629642 
L 100.275696 200.685757 
L 106.487199 197.741872 
L 112.698701 194.797987 
L 118.910204 191.854102 
L 125.121707 188.910217 
L 131.33321 185.966332 
L 137.544712 183.022447 
L 143.756215 180.078562 
L 149.967718 177.134677 
L 156.179221 174.190792 
L 162.390724 171.246907 
L 168.602226 168.303022 
L 174.813729 165.359137 
L 181.025232 162.415252 
L 187.236735 159.471367 
L 193.448237 156.527482 
L 199.65974 153.583597 
L 205.871243 150.639712 
L 212.082746 147.695827 
L 218.294249 144.751942 
L 224.505751 141.808057 
L 230.717254 138.864172 
L 236.928757 135.920287 
L 243.14026 132.976402 
L 249.351763 130.032517 
L 255.563265 127.088632 
L 261.774768 124.144747 
L 267.986271 121.200862 
L 274.197774 118.256977 
L 280.409276 115.313092 
L 286.620779 112.369207 
L 292.832282 109.425322 
L 299.043785 106.481437 
L 305.255288 103.537552 
L 311.46679 100.593667 
L 317.678293 97.649782 
L 323.889796 94.705897 
L 330.101299 91.762012 
L 336.312801 88.818127 
L 342.524304 85.874242 
L 348.735807 82.930357 
L 354.94731 79.986472 
L 361.158813 77.042587 
L 367.370315 74.098702 
L 373.581818 71.154817 
" style="fill:none;stroke:#000000;stroke-linecap:square;stroke-width:1.5;"/>
   </g>
   <g id="line2d_15">
    <path clip-path="url(#p200b8753af)" d="M 69.218182 188.694002 
L 75.429685 185.750117 
L 81.641187 182.806232 
L 87.85269 179.862347 
L 94.064193 176.918462 
L 100.275696 173.974577 
L 106.487199 171.030692 
L 112.698701 168.086807 
L 118.910204 165.142922 
L 125.121707 162.199037 
L 131.33321 159.255152 
L 137.544712 156.311267 
L 143.756215 153.367382 
L 149.967718 150.423497 
L 156.179221 147.479612 
L 162.390724 144.535727 
L 168.602226 141.591842 
L 174.813729 138.647957 
L 181.025232 135.704072 
L 187.236735 132.760187 
L 193.448237 129.816302 
L 199.65974 126.872417 
L 205.871243 123.928532 
L 212.082746 120.984647 
L 218.294249 118.040761 
L 224.505751 115.096876 
L 230.717254 112.152991 
L 236.928757 109.209106 
L 243.14026 106.265221 
L 249.351763 103.321336 
L 255.563265 100.377451 
L 261.774768 97.433566 
L 267.986271 94.489681 
L 274.197774 91.545796 
L 280.409276 88.601911 
L 286.620779 85.658026 
L 292.832282 82.714141 
L 299.043785 79.770256 
L 305.255288 76.826371 
L 311.46679 73.882486 
L 317.678293 70.938601 
L 323.889796 67.994716 
L 330.101299 65.050831 
L 336.312801 62.106946 
L 342.524304 59.163061 
L 348.735807 56.219176 
L 354.94731 53.275291 
L 361.158813 50.331406 
L 367.370315 47.387521 
L 373.581818 44.443636 
" style="fill:none;stroke:#000000;stroke-dasharray:5.55,2.4;stroke-dashoffset:0;stroke-width:1.5;"/>
   </g>
   <g id="line2d_16">
    <path clip-path="url(#p200b8753af)" d="M 69.218182 242.116363 
L 75.429685 239.172478 
L 81.641187 236.228593 
L 87.85269 233.284708 
L 94.064193 230.340823 
L 100.275696 227.396938 
L 106.487199 224.453053 
L 112.698701 221.509168 
L 118.910204 218.565283 
L 125.121707 215.621398 
L 131.33321 212.677513 
L 137.544712 209.733628 
L 143.756215 206.789743 
L 149.967718 203.845858 
L 156.179221 200.901973 
L 162.390724 197.958088 
L 168.602226 195.014203 
L 174.813729 192.070318 
L 181.025232 189.126433 
L 187.236735 186.182548 
L 193.448237 183.238663 
L 199.65974 180.294778 
L 205.871243 177.350893 
L 212.082746 174.407008 
L 218.294249 171.463123 
L 224.505751 168.519238 
L 230.717254 165.575353 
L 236.928757 162.631468 
L 243.14026 159.687583 
L 249.351763 156.743698 
L 255.563265 153.799813 
L 261.774768 150.855928 
L 267.986271 147.912043 
L 274.197774 144.968158 
L 280.409276 142.024273 
L 286.620779 139.080388 
L 292.832282 136.136503 
L 299.043785 133.192618 
L 305.255288 130.248733 
L 311.46679 127.304848 
L 317.678293 124.360963 
L 323.889796 121.417078 
L 330.101299 118.473193 
L 336.312801 115.529308 
L 342.524304 112.585423 
L 348.735807 109.641538 
L 354.94731 106.697653 
L 361.158813 103.753768 
L 367.370315 100.809883 
L 373.581818 97.865998 
" style="fill:none;stroke:#000000;stroke-dasharray:5.55,2.4;stroke-dashoffset:0;stroke-width:1.5;"/>
   </g>
   <g id="patch_3">
    <path d="M 54 252 
L 54 34.56 
" style="fill:none;stroke:#000000;stroke-linecap:square;stroke-linejoin:miter;stroke-width:0.8;"/>
   </g>
   <g id="patch_4">
    <path d="M 388.8 252 
L 388.8 34.56 
" style="fill:none;stroke:#000000;stroke-linecap:square;stroke-linejoin:miter;stroke-width:0.8;"/>
   </g>
   <g id="patch_5">
    <path d="M 54 252 
L 388.8 252 
" style="fill:none;stroke:#000000;stroke-linecap:square;stroke-linejoin:miter;stroke-width:0.8;"/>
   </g>
   <g id="patch_6">
    <path d="M 54 34.56 
L 388.8 34.56 
" style="fill:none;stroke:#000000;stroke-linecap:square;stroke-linejoin:miter;stroke-width:0.8;"/>
   </g>
   <g id="text_14">
    <!-- 15.44 -->
    <defs>
     <path d="M 37.796875 64.3125 
L 12.890625 25.390625 
L 37.796875 25.390625 
z
M 35.203125 72.90625 
L 47.609375 72.90625 
L 47.609375 25.390625 
L 58.015625 25.390625 
L 58.015625 17.1875 
L 47.609375 17.1875 
L 47.609375 0 
L 37.796875 0 
L 37.796875 17.1875 
L 4.890625 17.1875 
L 4.890625 26.703125 
z
" id="DejaVuSans-52"/>
    </defs>
    <g transform="translate(325.088228 60.547635)scale(0.1 -0.1)">
     <use xlink:href="#DejaVuSans-49"/>
     <use x="63.623047" xlink:href="#DejaVuSans-53"/>
     <use x="127.246094" xlink:href="#DejaVuSans-46"/>
     <use x="159.033203" xlink:href="#DejaVuSans-52"/>
     <use x="222.65625" xlink:href="#DejaVuSans-52"/>
    </g>
   </g>
   <g id="text_15">
    <!-- -15.44 -->
    <defs>
     <path d="M 4.890625 31.390625 
L 31.203125 31.390625 
L 31.203125 23.390625 
L 4.890625 23.390625 
z
" id="DejaVuSans-45"/>
    </defs>
    <g transform="translate(73.490089 233.212637)scale(0.1 -0.1)">
     <use xlink:href="#DejaVuSans-45"/>
     <use x="36.083984" xlink:href="#DejaVuSans-49"/>
     <use x="99.707031" xlink:href="#DejaVuSans-53"/>
     <use x="163.330078" xlink:href="#DejaVuSans-46"/>
     <use x="195.117188" xlink:href="#DejaVuSans-52"/>
     <use x="258.740234" xlink:href="#DejaVuSans-52"/>
    </g>
   </g>
  </g>
 </g>
 <defs>
  <clipPath id="p200b8753af">
   <rect height="217.44" width="334.8" x="54" y="34.56"/>
  </clipPath>
 </defs>
</svg>
